<?xml version="1.0" standalone="no"?>
<!DOCTYPE svg PUBLIC "-//W3C//DTD SVG 1.1//EN" "http://www.w3.org/Graphics/SVG/1.1/DTD/svg11.dtd" >
<svg xmlns="http://www.w3.org/2000/svg" xmlns:xlink="http://www.w3.org/1999/xlink" version="1.1">
<metadata>
Created by FontForge 20170731 at Tue Jun 28 17:43:38 2022
 By Aleksey,,,
Copyright 2006 House Industries/Brand Design Co., Inc. All Rights Reserved.
</metadata>
<defs>
<font id="BurbankSmall-Medium" horiz-adv-x="1259" >
  <font-face 
    font-family="Burbank Small Medium"
    font-weight="500"
    font-variant="small-caps"
    font-stretch="normal"
    units-per-em="2048"
    panose-1="0 0 0 0 0 0 0 0 0 0"
    ascent="1536"
    descent="-512"
    x-height="1028"
    cap-height="1423"
    bbox="-80 -557 2316 1970"
    underline-thickness="102"
    underline-position="-307"
    unicode-range="U+0020-FB04"
  />
<missing-glyph horiz-adv-x="532" 
 />
    <glyph glyph-name="ff" unicode="ff" horiz-adv-x="1579" 
d="M1501 909q-132 2 -325 0l2 -925q-81 2 -177 -2q-6 547 -6 927l-157 -2q0 50 -2 146q59 -4 161 -4v41q0 185 83 276.5t259 91.5q79 0 189 -22q-7 -52 -15 -142q-103 25 -163 25q-97 0 -134.5 -54t-37.5 -182v-36q188 0 325 2q-2 -54 -2 -140zM707 868q-113 2 -306 0
l2 -843q-80 2 -176 -2q-6 465 -6 845l-158 -2q0 50 -2 146q60 -4 162 -4v41q0 185 83 276.5t259 91.5q79 0 189 -22q-7 -52 -15 -142q-103 25 -164 25q-97 0 -134.5 -54t-37.5 -182v-36q169 0 306 2q-2 -54 -2 -140z" />
    <glyph glyph-name="fi" unicode="fi" horiz-adv-x="1318" 
d="M727 889q-133 2 -326 0l2 -885q-80 2 -176 -2q-6 507 -6 887l-158 -2q0 49 -2 145q60 -4 162 -4v62q0 185 83 276.5t259 91.5q79 0 189 -22q-7 -52 -15 -142q-103 25 -164 25q-97 0 -134.5 -54t-37.5 -182v-57q189 0 326 2q-2 -53 -2 -139zM969 25q4 230 -4 981
q72 0 176 2q0 -355 8 -981q-76 0 -180 -2zM1055 1137q-60 0 -98.5 34.5t-38.5 94.5q0 58 38 92.5t99 34.5q60 0 95.5 -37.5t35.5 -87.5q0 -61 -36 -96t-95 -35z" />
    <glyph glyph-name="fl" unicode="fl" horiz-adv-x="1275" 
d="M727 889q-133 2 -326 0l2 -885q-80 2 -176 -2q-6 507 -6 887l-158 -2q0 49 -2 145q60 -4 162 -4v62q0 185 83 276.5t259 91.5q79 0 189 -22q-7 -52 -15 -142q-103 25 -164 25q-97 0 -134.5 -54t-37.5 -182v-57q189 0 326 2q-2 -53 -2 -139zM1118 27l-180 2
q3 434 3.5 776.5t-0.5 468.5l-1 125l182 -2q-4 -504 -5 -846.5t0 -432.5z" />
    <glyph glyph-name="ffi" unicode="ffi" horiz-adv-x="2093" 
d="M1501 909q-132 2 -325 0l2 -925q-81 2 -177 -2q-6 547 -6 927l-157 -2q0 50 -2 146q59 -4 161 -4v41q0 185 83 276.5t259 91.5q79 0 189 -22q-7 -52 -15 -142q-103 25 -163 25q-97 0 -134.5 -54t-37.5 -182v-36q188 0 325 2q-2 -54 -2 -140zM707 868q-113 2 -306 0
l2 -843q-80 2 -176 -2q-6 465 -6 845l-158 -2q0 50 -2 146q60 -4 162 -4v41q0 185 83 276.5t259 91.5q79 0 189 -22q-7 -52 -15 -142q-103 25 -164 25q-97 0 -134.5 -54t-37.5 -182v-36q169 0 306 2q-2 -54 -2 -140zM1743 25q4 230 -4 981q72 0 176 2q0 -355 8 -981
q-76 0 -180 -2zM1829 1137q-60 0 -98.5 34.5t-38.5 94.5q0 58 38 92.5t99 34.5q60 0 95.5 -37.5t35.5 -87.5q0 -61 -36 -96t-95 -35z" />
    <glyph glyph-name="ffl" unicode="ffl" horiz-adv-x="2050" 
d="M1501 909q-132 2 -325 0l2 -925q-81 2 -177 -2q-6 547 -6 927l-157 -2q0 50 -2 146q59 -4 161 -4v41q0 185 83 276.5t259 91.5q79 0 189 -22q-7 -52 -15 -142q-103 25 -163 25q-97 0 -134.5 -54t-37.5 -182v-36q188 0 325 2q-2 -54 -2 -140zM707 868q-113 2 -306 0
l2 -843q-80 2 -176 -2q-6 465 -6 845l-158 -2q0 50 -2 146q60 -4 162 -4v41q0 185 83 276.5t259 91.5q79 0 189 -22q-7 -52 -15 -142q-103 25 -164 25q-97 0 -134.5 -54t-37.5 -182v-36q169 0 306 2q-2 -54 -2 -140zM1892 27l-180 2q3 434 3.5 776.5t-0.5 468.5l-1 125
l182 -2q-4 -504 -5 -846.5t0 -432.5z" />
    <glyph glyph-name=".notdef" horiz-adv-x="532" 
 />
    <glyph glyph-name=".null" horiz-adv-x="0" 
 />
    <glyph glyph-name="nonmarkingreturn" horiz-adv-x="682" 
 />
    <glyph glyph-name="space" unicode=" " horiz-adv-x="532" 
 />
    <glyph glyph-name="exclam" unicode="!" horiz-adv-x="645" 
d="M326 -27q-70 0 -111 43t-41 113q0 64 39 107t111 43q69 0 108 -45t39 -111t-42 -108t-103 -42zM240 393q-7 446 -27 1059q105 -4 209 0q-8 -497 -12 -1057q-76 2 -170 -2z" />
    <glyph glyph-name="quotedbl" unicode="&#x22;" horiz-adv-x="786" 
d="M162 862q-3 214 -19 563q58 1 156 5q-4 -196 -6 -562q-53 0 -131 -6zM487 850q4 214 0 606l156 -2q-13 -247 -25 -608q-63 4 -131 4z" />
    <glyph glyph-name="numbersign" unicode="#" horiz-adv-x="1253" 
d="M780 106q2 129 2 291l-319 -2q4 -177 8 -262q-63 4 -147 4q0 109 2 256l-232 -4q2 53 -2 141q87 -2 234 -2q0 246 -2 396q-70 0 -222 -4q2 53 -2 139h222q0 46 -5 256q58 -2 146 2q-2 -106 -2 -258l317 2q0 101 -4 285q64 -4 144 2q-3 -113 -3 -285q72 0 240 4
q-4 -57 -4 -135h-236q0 -22 5 -402l241 5l-2 -140q-98 2 -237 2q0 -95 4 -291q-60 4 -146 0zM461 926q0 -255 2 -398h319l-2 402q-81 0 -319 -4z" />
    <glyph glyph-name="dollar" unicode="$" horiz-adv-x="1132" 
d="M672 -270h-170q8 164 8 229q-93 10 -170 42t-137 86.5t-94.5 137t-36.5 185.5q88 6 188 20q3 -162 86 -243t229 -81q131 0 215 61.5t84 149.5q0 43 -12.5 75.5t-47.5 66.5t-103.5 64.5t-173.5 60.5q-233 67 -333 153.5t-100 239.5q0 154 107.5 262t292.5 123l-8 229
l180 -2q-10 -202 -10 -233q181 -29 281 -152.5t102 -314.5q-68 -3 -183 -19q2 154 -74.5 250.5t-228.5 96.5q-124 0 -198 -65.5t-74 -160.5q0 -89 77 -149.5t277 -120.5q127 -38 211.5 -81.5t128 -93.5t60 -99.5t16.5 -112.5q0 -146 -112.5 -247.5t-278.5 -125.5z" />
    <glyph glyph-name="percent" unicode="%" horiz-adv-x="1615" 
d="M1217 -37q-154 0 -238 104.5t-84 268.5q0 99 37 183.5t112.5 139t174.5 54.5q154 0 239.5 -106.5t85.5 -268.5q0 -182 -89.5 -278.5t-237.5 -96.5zM393 618q-153 0 -237 105t-84 274q0 73 22 139.5t62 118.5t102.5 82.5t138.5 30.5q155 0 239.5 -103.5t84.5 -273.5
q0 -166 -94.5 -269.5t-233.5 -103.5zM434 -41l-110 16q249 401 458 743t293 484l84 141l119 -14zM393 727q87 0 136 74.5t51 195.5q0 116 -47 190.5t-136 74.5q-83 0 -133.5 -76t-50.5 -191q0 -126 46.5 -197t133.5 -71zM1221 72q86 0 133 73t47 185q0 129 -46.5 200.5
t-140.5 71.5q-79 0 -127.5 -75.5t-48.5 -184.5q0 -126 49 -198t134 -72z" />
    <glyph glyph-name="ampersand" unicode="&#x26;" horiz-adv-x="1437" 
d="M592 -72q-221 0 -355.5 113.5t-134.5 290.5q0 74 21.5 134.5t63.5 106t88 78t110 64.5q-141 192 -141 375q0 177 109.5 280t291.5 103q164 0 264.5 -94.5t100.5 -233.5q0 -55 -12.5 -103.5t-30.5 -85t-52 -73t-61 -59.5t-74.5 -52t-77 -44.5t-81.5 -41.5
q145 -155 407 -328q65 153 68 367q41 -5 79 -8.5t56 -4.5l18 -1q-6 -255 -86 -439q79 -49 244 -139q-29 -41 -80 -127q-142 71 -246 131q-172 -209 -489 -209zM471 610q-89 -53 -136.5 -114t-47.5 -148q0 -127 93.5 -202.5t235.5 -75.5q201 0 328 151q-297 192 -473 389z
M850 1128q0 90 -58.5 148.5t-154.5 58.5q-93 0 -156 -67t-63 -178q0 -146 117 -306q59 27 98 47.5t84 52.5t71 65t44 79t18 100z" />
    <glyph glyph-name="quotesingle" unicode="'" horiz-adv-x="442" 
d="M145 860q4 186 -2 584q54 -4 156 -4q-11 -221 -25 -582q-57 2 -129 2z" />
    <glyph glyph-name="parenleft" unicode="(" horiz-adv-x="618" 
d="M381 -281q-238 437 -238 895q0 264 64.5 501t187.5 423l152 -57q-215 -364 -215 -856q0 -217 48.5 -415.5t164.5 -432.5q-42 -13 -83 -27.5t-61 -22.5z" />
    <glyph glyph-name="parenright" unicode=")" horiz-adv-x="618" 
d="M238 -285q-70 31 -166 58q109 226 162 433.5t53 426.5q0 227 -53.5 449t-159.5 403q63 24 153 65q122 -192 185 -431t63 -494q0 -461 -237 -910z" />
    <glyph glyph-name="asterisk" unicode="*" horiz-adv-x="860" 
d="M293 666l-127 61q120 190 174 287q-64 11 -128.5 20.5t-97.5 13.5l-32 3l29 135q133 -40 262 -70q-3 73 -8 149t-9 116l-4 40l154 2l-21 -311l269 66q4 -35 10 -69.5t10 -51.5l4 -17q-184 -22 -250 -28l177 -281q-33 -14 -64 -28.5t-46 -22.5l-15 -8l-144 291
q-34 -64 -69.5 -138t-54.5 -117z" />
    <glyph glyph-name="plus" unicode="+" horiz-adv-x="1081" 
d="M459 213q4 258 4 393l-359 -2l-2 154q173 -6 363 -6l-2 376l153 -4q-4 -270 -4 -372l367 2q-3 -43 -4 -80.5t-1 -53.5l1 -16q-117 2 -363 2l4 -391z" />
    <glyph glyph-name="comma" unicode="," horiz-adv-x="546" 
d="M166 -324q-23 27 -42.5 48t-27.5 28l-8 8q114 89 160 224q-55 4 -90 45.5t-35 103.5q0 63 41.5 109.5t109.5 46.5q69 0 109.5 -50t40.5 -130q0 -123 -70.5 -233.5t-187.5 -199.5z" />
    <glyph glyph-name="hyphen" unicode="-" horiz-adv-x="759" 
d="M74 621l-2 161q205 -4 359 -5.5t205 -0.5h52l-4 -155q-181 2 -333.5 2t-214.5 -1z" />
    <glyph glyph-name="period" unicode="." horiz-adv-x="540" 
d="M270 -20q-69 0 -108 43t-39 114t40.5 113.5t104.5 42.5q69 0 109.5 -44t40.5 -106q0 -76 -40 -119.5t-108 -43.5z" />
    <glyph glyph-name="slash" unicode="/" horiz-adv-x="909" 
d="M72 -229q143 407 291 839.5t225 661.5l76 229q46 -2 89.5 -2t64.5 1l20 1q-195 -555 -343 -987.5t-199 -587.5l-50 -155h-174z" />
    <glyph glyph-name="zero" unicode="0" horiz-adv-x="1316" 
d="M659 -45q-92 0 -173.5 26t-152.5 82.5t-122 139.5t-80 204.5t-29 270.5q0 322 152.5 512t404.5 190q261 0 408 -182t147 -512q0 -335 -149.5 -533t-405.5 -198zM668 117q163 0 260.5 147t97.5 424q0 240 -95 387.5t-267 147.5q-176 0 -273.5 -148.5t-97.5 -386.5
q0 -271 94.5 -421t280.5 -150z" />
    <glyph glyph-name="one" unicode="1" horiz-adv-x="782" 
d="M371 -6q5 708 -4 1151l-277 -154l-59 144q112 60 210.5 116t140.5 81l42 26l117 -17q0 -304 4 -640.5t8 -520.5l4 -184z" />
    <glyph glyph-name="two" unicode="2" horiz-adv-x="1171" 
d="M1067 -6q-245 6 -490 9.5t-368 4.5h-123l-4 174q306 179 482.5 317t251.5 253t75 237q0 103 -77 174.5t-189 71.5q-168 0 -254.5 -103t-89.5 -288q-91 12 -197 24q17 262 155.5 390t381.5 128q94 0 179 -27.5t149.5 -77.5t102.5 -126.5t38 -167.5q0 -118 -49.5 -226
t-149.5 -208.5t-234 -193t-321 -193.5q228 -4 390.5 -3.5t252.5 3.5l90 4z" />
    <glyph glyph-name="three" unicode="3" horiz-adv-x="1224" 
d="M623 -47q-246 0 -392 113.5t-159 353.5q67 4 190 20q7 -177 97.5 -255.5t269.5 -78.5q138 0 225.5 69t87.5 187q0 72 -46 126.5t-134 80.5q-109 33 -318 33q0 74 -2 146q97 -5 105 -5q147 0 246 41q59 24 96 78.5t37 124.5q0 122 -86.5 190t-227.5 68q-282 0 -321 -311
l-195 39q19 111 67 193.5t117.5 131.5t153 73t182.5 24q220 0 360 -107.5t140 -283.5q0 -130 -77 -215.5t-199 -108.5q133 -27 213 -114t80 -210q0 -182 -145 -292.5t-365 -110.5z" />
    <glyph glyph-name="four" unicode="4" horiz-adv-x="1202" 
d="M815 -2q0 107 4 295q-335 0 -766 -6q-2 47 0 153l692 940l252 -4q-4 -397 -4 -936q99 0 148 2q-2 -61 -2 -147h-144l2 -295zM823 1233q-134 -182 -259.5 -355.5t-213 -294.5t-104.5 -145h573q4 446 4 795z" />
    <glyph glyph-name="five" unicode="5" horiz-adv-x="1222" 
d="M643 -45q-212 0 -346 99t-180 282q50 8 100.5 18.5t76.5 17.5l25 7q51 -281 330 -281q145 0 233.5 98.5t88.5 254.5q0 138 -78.5 227.5t-224.5 89.5q-219 0 -332 -219q-80 10 -180 14q12 360 16 791q545 0 915 8q-2 -66 -2 -160q-435 2 -737 -4q-13 -306 -16 -463
q69 82 167 126t212 44q208 0 330 -125.5t124 -337.5q0 -223 -141.5 -355t-380.5 -132z" />
    <glyph glyph-name="six" unicode="6" horiz-adv-x="1255" 
d="M659 -53q-259 0 -408 182.5t-149 523.5q0 340 150 535.5t412 195.5q384 0 471 -374q-51 -3 -103.5 -8.5t-79.5 -9.5l-26 -5q-26 124 -88 186t-176 62q-170 0 -268.5 -147.5t-98.5 -421.5v-48q70 102 181.5 165t240.5 63q215 0 341 -118t126 -300q0 -152 -69.5 -262
t-187 -164.5t-268.5 -54.5zM700 696q-122 0 -222.5 -60.5t-168.5 -166.5q34 -190 131 -280.5t236 -90.5q138 0 222.5 88.5t84.5 225.5q2 126 -76 205t-207 79z" />
    <glyph glyph-name="seven" unicode="7" horiz-adv-x="1062" 
d="M352 -18q-10 363 114 668.5t361 545.5l-776 -4v164l967 8l4 -172q-171 -178 -273.5 -351t-153 -384t-44.5 -475h-199z" />
    <glyph glyph-name="eight" unicode="8" horiz-adv-x="1247" 
d="M633 -55q-265 0 -408 106t-143 297q0 131 85 224.5t234 132.5q-131 42 -200.5 129.5t-69.5 203.5q0 147 130 249t364 102q239 0 368 -98.5t129 -248.5q0 -122 -70 -208t-206 -129q150 -44 233.5 -140t85.5 -221q0 -96 -41.5 -173t-114.5 -126t-169 -74.5t-207 -25.5z
M627 90q154 0 247 68t93 188q0 117 -103.5 195t-271.5 102q-148 -30 -230.5 -102.5t-82.5 -184.5q0 -124 93.5 -195t254.5 -71zM664 760q127 24 198.5 91.5t71.5 172.5q-2 106 -81 167.5t-228 61.5q-138 0 -223 -61.5t-85 -167.5q0 -198 347 -264z" />
    <glyph glyph-name="nine" unicode="9" horiz-adv-x="1243" 
d="M596 -47q-219 0 -349.5 113t-164.5 329q47 3 97 7.5t76 7.5l26 4q24 -157 104 -229t213 -72q81 0 142.5 29.5t110.5 96.5t75 186t26 286v10q-66 -95 -174 -149t-243 -54q-210 0 -329.5 121.5t-119.5 304.5q0 199 140 323t370 124q250 0 396.5 -178.5t146.5 -512.5
q1 -377 -143 -562t-400 -185zM580 662q107 0 203 54.5t159 145.5q-26 184 -117 280.5t-233 96.5q-143 0 -227 -85.5t-84 -217.5q0 -131 82 -202.5t217 -71.5z" />
    <glyph glyph-name="colon" unicode=":" horiz-adv-x="585" 
d="M293 -29q-66 0 -107 43t-41 117q0 69 41.5 113.5t108.5 44.5q77 0 112 -46t35 -112q0 -76 -40.5 -118t-108.5 -42zM291 551q-67 0 -107.5 44t-40.5 118q0 68 41 110.5t109 42.5t107.5 -43.5t39.5 -109.5q0 -79 -41 -120.5t-108 -41.5z" />
    <glyph glyph-name="semicolon" unicode=";" horiz-adv-x="585" 
d="M195 -322q-12 13 -24.5 25t-22.5 20.5t-17.5 15.5t-12.5 11l-5 4q96 76 159 230q-56 2 -94.5 41t-38.5 100q0 71 43 117.5t109 46.5q71 0 111 -54.5t40 -128.5q0 -109 -74 -232.5t-173 -195.5zM291 553q-64 0 -106 43t-42 123q0 61 41.5 105t110.5 44q60 0 102.5 -42
t42.5 -107q0 -75 -40 -120.5t-109 -45.5z" />
    <glyph glyph-name="less" unicode="&#x3c;" horiz-adv-x="1075" 
d="M963 313q-1 -9 -2 -24t-2.5 -59.5t-0.5 -86.5q-400 207 -866 432q4 72 4 166q355 175 856 430q-4 -67 -4 -176q-318 -148 -700 -336q314 -155 715 -346z" />
    <glyph glyph-name="equal" unicode="=" horiz-adv-x="1058" 
d="M127 401q0 38 -4 138q349 -2 813 4l-2 -142q-323 4 -807 0zM936 805q-216 4 -419.5 5t-298.5 0l-95 -1l4 141q198 -2 400.5 -2t305.5 1l103 1v-145z" />
    <glyph glyph-name="greater" unicode="&#x3e;" horiz-adv-x="1056" 
d="M117 141l-4 164q356 173 704 354l-688 340q2 61 -4 172q224 -116 433 -223t306 -156l97 -49l4 -161z" />
    <glyph glyph-name="question" unicode="?" horiz-adv-x="1212" 
d="M473 369l-6 376q238 -12 342 58.5t104 224.5q0 119 -79.5 200t-223.5 81q-145 0 -226 -87t-114 -259q-71 23 -188 41q33 207 169 333.5t347 126.5q124 0 223.5 -35.5t161.5 -96t94.5 -135.5t32.5 -157q0 -201 -119.5 -310t-331.5 -118q-3 -53 -3.5 -112.5t0.5 -93.5
l1 -33zM575 -37q-72 0 -109.5 41t-37.5 111q0 63 40.5 103t104.5 40q68 0 106 -41.5t38 -110.5q0 -65 -39 -104t-103 -39z" />
    <glyph glyph-name="at" unicode="@" horiz-adv-x="2066" 
d="M1032 1069q115 0 196.5 -85.5t104.5 -211.5q15 66 41 227q74 -4 170 0q-96 -438 -135 -680q-8 -54 -8 -98q0 -68 34.5 -105.5t90.5 -37.5q108 0 194 147t86 385q0 141 -51.5 266t-142.5 217t-225 145.5t-291 53.5q-165 0 -303.5 -46.5t-235.5 -127t-165 -188t-100 -229.5
t-32 -252q0 -214 86.5 -380.5t247 -260t369.5 -93.5q252 0 458 82l35 -133q-257 -80 -500 -80q-160 0 -297 45.5t-236.5 126.5t-170 190.5t-105 238t-34.5 268.5q0 127 30 248t87 228.5t144 198t195 155.5t245.5 101.5t291.5 36.5q193 0 355 -66.5t268.5 -177t165.5 -253
t59 -297.5q0 -309 -122.5 -496.5t-315.5 -187.5q-132 0 -204 74.5t-75 215.5q-73 -133 -171.5 -204.5t-213.5 -71.5q-159 0 -252.5 121.5t-93.5 316.5q0 142 58 285.5t147 232.5q156 156 321 156zM1047 932q-99 0 -191 -92q-76 -76 -124 -202t-48 -251q0 -131 53.5 -212
t151.5 -81q104 0 205 101q77 77 125.5 189t48.5 228q0 132 -62 226t-159 94z" />
    <glyph glyph-name="A" unicode="A" horiz-adv-x="1280" 
d="M55 45q175 539 434 1393l271 4q227 -738 465 -1485q-99 0 -193 -4q-42 143 -112 379q-234 6 -594 6q-3 -9 -82 -297q-93 4 -189 4zM616 1335q-136 -460 -249 -854q168 -2 510 -2q-46 156 -261 856z" />
    <glyph glyph-name="B" unicode="B" horiz-adv-x="1294" 
d="M174 -6q-2 682 -16 1431q254 40 417 37q283 -3 422.5 -103t139.5 -278q0 -129 -83.5 -223t-248.5 -125q198 -22 298.5 -118.5t100.5 -237.5q0 -209 -163.5 -310.5t-469.5 -103.5q-172 0 -397 31zM350 131q137 -20 258 -20q408 0 408 270q0 63 -25 109t-85.5 82.5
t-170.5 54.5t-270 18q-78 0 -121 -2q3 -414 6 -512zM342 1294q0 -346 2 -489q41 -2 119 -2q141 0 238 17.5t152.5 52.5t79 81.5t23.5 110.5q0 248 -385 248q-96 0 -229 -19z" />
    <glyph glyph-name="C" unicode="C" horiz-adv-x="1353" 
d="M715 -41q-151 0 -265.5 55t-186 156t-107 237.5t-35.5 305.5q0 349 155.5 550t442.5 201q221 0 345 -128t159 -359q-57 -8 -105 -16.5t-67 -13.5l-19 -5q-27 179 -103 271t-214 92q-100 0 -177.5 -45.5t-125.5 -126t-72.5 -185t-24.5 -229.5q0 -102 14.5 -191t46 -164.5
t78 -129t113 -83.5t148.5 -30q156 0 244.5 99.5t109.5 314.5l195 -27q-30 -274 -169.5 -411.5t-379.5 -137.5z" />
    <glyph glyph-name="D" unicode="D" horiz-adv-x="1351" 
d="M350 150q46 -3 88 -3q148 0 256.5 30.5t187 97.5t117.5 178t39 268q0 258 -146.5 406.5t-428.5 148.5q-57 0 -125 -6q1 -265 4 -545t6 -427zM160 4q3 401 2.5 714t-2.5 503l-2 190q160 23 303 23q194 0 342.5 -52.5t241.5 -148t139.5 -225t46.5 -289.5
q0 -359 -203.5 -545t-615.5 -186q-108 0 -252 16z" />
    <glyph glyph-name="E" unicode="E" horiz-adv-x="1148" 
d="M174 8q-2 588 -16 1413q388 5 872 15q0 -54 2 -154q-322 -2 -690 -10q0 -200 4 -533q458 0 606 2q0 -63 2 -161q-36 1 -93 1.5t-227.5 1.5t-285.5 -1q5 -295 8 -426l697 -9q0 -57 -2 -153q-475 12 -877 14z" />
    <glyph glyph-name="F" unicode="F" horiz-adv-x="1091" 
d="M174 4q-2 594 -16 1417q447 7 852 13q2 -66 2 -164q-358 -2 -668 -8q0 -188 4 -562q298 0 586 5q0 -68 2 -166q-237 4 -586 0l8 -533q-111 -2 -184 -2z" />
    <glyph glyph-name="G" unicode="G" horiz-adv-x="1380" 
d="M723 -49q-289 0 -445.5 194t-156.5 568q0 124 23.5 235.5t73 206.5t120.5 164t170.5 108t218.5 39q206 0 336 -117.5t164 -332.5q-61 -10 -174 -37q-28 160 -114 247t-218 87q-133 0 -226.5 -77t-138.5 -207.5t-45 -303.5q0 -616 428 -616q165 0 265.5 122.5t91.5 348.5
q-130 0 -455 -5q0 60 -2 162q152 -4 614 0q15 -94 15 -178q0 -283 -147.5 -445.5t-397.5 -162.5z" />
    <glyph glyph-name="H" unicode="H" horiz-adv-x="1304" 
d="M963 -43v555q-148 4 -617 -2l6 -469q-104 0 -186 -2q2 511 -8 1343q82 0 180 2q2 -287 6 -706q189 -6 617 -4q0 127 -3 403t-4 389q83 0 187 2q0 -675 6 -1511q-92 2 -184 0z" />
    <glyph glyph-name="I" unicode="I" horiz-adv-x="550" 
d="M186 -2q0 626 -8 1423q65 2 184 2q3 -683 11 -1425q-85 2 -187 0z" />
    <glyph glyph-name="J" unicode="J" horiz-adv-x="1093" 
d="M526 -39q-227 0 -333.5 138t-106.5 405q0 60 6 127q68 -4 189 -6q-5 -98 -5 -111q0 -199 63 -291t189 -92q128 0 194 97.5t66 324.5q0 228 -2 449t-4 328l-2 108q70 0 195 6q-2 -347 -2 -926q0 -275 -116 -416t-331 -141z" />
    <glyph glyph-name="K" unicode="K" horiz-adv-x="1273" 
d="M1022 -47q-243 347 -473 661q-116 -144 -209 -264l6 -317l-186 -2l-2 1351l182 -2q-3 -487 0 -802q188 246 351.5 464.5t233.5 313.5l70 96l205 -12q-332 -427 -524 -697q141 -202 279 -396t206 -287l68 -93q-62 -3 -113.5 -6.5t-72.5 -5.5z" />
    <glyph glyph-name="L" unicode="L" horiz-adv-x="1067" 
d="M170 6q-2 621 -12 1405q53 -2 184 0q-2 -393 8 -1243q189 -4 351 -6.5t229 -3.5h67l-2 -164q-222 5 -428.5 8t-301.5 4h-95z" />
    <glyph glyph-name="M" unicode="M" horiz-adv-x="1822" 
d="M152 45q16 481 43 1337q127 3 264 11q233 -632 426 -1137q208 533 454 1212q132 -2 269 -10q26 -713 63 -1499q-92 0 -190 -2q-6 589 -31 1352q-279 -721 -463 -1227q-115 0 -207 2q-200 554 -436 1157q-8 -576 -10 -1202q-90 4 -182 6z" />
    <glyph glyph-name="N" unicode="N" horiz-adv-x="1343" 
d="M164 41q4 501 -6 1335q87 7 200 13q309 -565 658 -1182q-9 790 -23 1259q74 -2 176 -2q3 -586 17 -1495l-209 -14q-285 525 -651 1171q0 -551 14 -1089q-78 2 -176 4z" />
    <glyph glyph-name="O" unicode="O" horiz-adv-x="1433" 
d="M717 -47q-272 0 -433 196t-161 545q0 358 162 565t440 207q270 0 428 -208t158 -560q0 -356 -158 -550.5t-436 -194.5zM715 111q178 0 288.5 151.5t110.5 444.5q0 288 -105 446t-290 158q-191 0 -295.5 -163t-104.5 -441q0 -276 106.5 -436t289.5 -160z" />
    <glyph glyph-name="P" unicode="P" horiz-adv-x="1206" 
d="M168 18q2 525 -10 1381q150 18 284 18q218 0 372 -48t240.5 -152.5t86.5 -262.5q0 -99 -33.5 -177.5t-92.5 -132t-143 -89.5t-182 -52t-213 -16q-75 0 -129 5l8 -472q-98 2 -188 -2zM342 1255q1 -174 1 -351t1 -261q79 -8 166 -8q220 0 331 83.5t111 239.5
q0 139 -109 221.5t-349 82.5q-56 0 -152 -7z" />
    <glyph glyph-name="Q" unicode="Q" horiz-adv-x="1429" 
d="M717 -45q-279 0 -437.5 195.5t-158.5 533.5q0 155 31 283.5t85.5 219t129.5 153t162.5 92.5t185.5 30q290 0 442 -207.5t152 -570.5q0 -200 -58 -352t-164 -246l238 -315q-47 -29 -85.5 -55t-53.5 -37l-15 -11q-100 148 -227 330q-101 -43 -227 -43zM719 115
q181 0 287 143t106 444q0 283 -106.5 443t-294.5 160q-117 0 -207 -76.5t-139.5 -215t-49.5 -315.5q0 -282 108.5 -432.5t295.5 -150.5z" />
    <glyph glyph-name="R" unicode="R" horiz-adv-x="1277" 
d="M1026 -53q-143 267 -354 637q-82 -9 -178 -9q-61 0 -150 7q0 -242 8 -545q-100 2 -184 -2q2 502 -10 1362q208 41 395 41q298 0 457 -110.5t159 -313.5q0 -305 -327 -400l370 -641q-75 -8 -186 -26zM342 737q104 -14 203 -14q220 0 329 68.5t109 212.5q0 278 -408 278
q-101 0 -239 -22z" />
    <glyph glyph-name="S" unicode="S" horiz-adv-x="1239" 
d="M616 -41q-239 9 -372 133.5t-148 366.5q62 4 197 20q6 -172 92.5 -266.5t235.5 -99.5q133 -3 226 58.5t93 172.5q0 37 -7 64.5t-30.5 60t-64.5 60.5t-112.5 58.5t-172.5 59.5q-219 64 -318.5 169t-99.5 265q0 167 134.5 274t351.5 107q210 0 340.5 -117.5t150.5 -336.5
q-77 -13 -186 -25q-2 143 -82 232.5t-223 89.5q-140 0 -221 -60t-81 -162q0 -107 84.5 -173.5t288.5 -127.5q138 -41 229 -91t135.5 -107.5t60.5 -111t16 -122.5q0 -117 -68.5 -208.5t-187 -139.5t-261.5 -43z" />
    <glyph glyph-name="T" unicode="T" horiz-adv-x="1128" 
d="M57 1262q0 73 -2 165q503 1 1018 9q-2 -80 0 -168h-416q0 -356 11 -1288q-87 -1 -189 -3q0 519 -6 1289q-146 0 -416 -4z" />
    <glyph glyph-name="U" unicode="U" horiz-adv-x="1296" 
d="M659 -29q-269 0 -393.5 158.5t-124.5 464.5l-4 788l191 -2q-4 -559 -4 -768q0 -250 82 -362.5t260 -112.5q167 0 240 118t73 368l-2 835q55 -2 182 4q-4 -579 -4 -848q0 -643 -496 -643z" />
    <glyph glyph-name="V" unicode="V" horiz-adv-x="1255" 
d="M758 -47l-275 4q-115 379 -222 727t-157 507l-49 159l197 4q137 -498 369 -1262l391 1350l188 -10q-108 -350 -218.5 -720t-167.5 -564z" />
    <glyph glyph-name="W" unicode="W" horiz-adv-x="1808" 
d="M1206 -25q-223 912 -313 1235q-90 -332 -168 -628.5t-111 -426.5l-32 -130l-263 14q-59 351 -119.5 693.5t-92 514t-31.5 174.5l184 6q104 -675 205 -1218q101 364 177 649t102 388l26 102l248 -2q251 -964 321 -1213q87 473 145.5 809.5t73.5 436.5l15 100l180 -6
q-101 -523 -170 -894t-87 -481l-19 -110z" />
    <glyph glyph-name="X" unicode="X" horiz-adv-x="1267" 
d="M281 35l-222 2q294 450 441 682q-118 198 -416 661q92 0 213 9q102 -182 319 -537q117 192 209.5 345.5t126.5 210.5l33 58l209 -4q-316 -494 -469 -739q139 -228 260 -417t172 -264l51 -75l-213 -10q-209 354 -387 627q-96 -153 -177.5 -290t-115.5 -198z" />
    <glyph glyph-name="Y" unicode="Y" horiz-adv-x="1245" 
d="M510 -20q-1 8 -1 73.5t-2 172.5t-5 198q-122 278 -457 971q64 2 203 10q94 -226 348 -774q142 269 401 813q82 -2 203 -6q-204 -374 -512 -1012q-2 -164 6 -444q-71 2 -184 -2z" />
    <glyph glyph-name="Z" unicode="Z" horiz-adv-x="1146" 
d="M1024 -4q-180 4 -407.5 6.5t-364.5 3.5h-137l2 139q473 747 700 1125q-196 -2 -369 -5t-248 -5l-75 -3l-2 164q263 2 488.5 5.5t318.5 6.5l94 3l4 -148q-507 -801 -700 -1120q126 -3 301 -4.5t287 -1.5h112z" />
    <glyph glyph-name="bracketleft" unicode="[" horiz-adv-x="694" 
d="M608 -240q-199 7 -422 7q4 524 -8 1732q164 0 418 4q0 -59 4 -139q-98 0 -233 -4q-4 -908 2 -1444q98 -4 243 -4q-4 -60 -4 -152z" />
    <glyph glyph-name="backslash" unicode="\" horiz-adv-x="909" 
d="M838 -227q-74 2 -176 0q-155 481 -590 1730q68 -4 174 0q269 -817 592 -1730z" />
    <glyph glyph-name="bracketright" unicode="]" horiz-adv-x="694" 
d="M90 -246q0 38 -1 73.5t-2 56.5l-1 20q59 0 116.5 1t92 2t37.5 1q2 361 0 861.5t-4 606.5q-81 4 -232 4q2 37 2 142q233 -4 416 -4q-8 -1032 -2 -1758q-85 1 -184 -0.5t-167 -3.5t-71 -2z" />
    <glyph glyph-name="asciicircum" unicode="^" horiz-adv-x="1040" 
d="M948 631q-5 1 -16.5 1.5t-54 1.5t-97.5 -1q-80 222 -262 661q-146 -366 -260 -673q-57 6 -166 6q125 294 334 811q73 -4 190 0q113 -294 332 -807z" />
    <glyph glyph-name="underscore" unicode="_" horiz-adv-x="985" 
d="M37 -166q2 88 -2 148q319 -7 919 0q-2 -94 -2 -150q-460 5 -915 2z" />
    <glyph glyph-name="grave" unicode="`" horiz-adv-x="1187" 
d="M662 1139q-96 114 -295 323q41 29 127 92q94 -131 266 -344q-24 -16 -98 -71z" />
    <glyph glyph-name="a" unicode="a" horiz-adv-x="1114" 
d="M446 -33q-153 0 -248.5 79.5t-95.5 225.5q0 173 171.5 270.5t519.5 110.5v21q0 119 -57.5 188.5t-170.5 69.5q-99 0 -163 -52t-99 -167q-66 25 -162 43q104 307 434 307q186 0 291 -106.5t109 -315.5q4 -157 4.5 -325.5t-1.5 -258.5l-1 -90q-54 -2 -154 -4q4 99 6 246
q-52 -111 -149 -176.5t-234 -65.5zM801 469v66q-273 -15 -394.5 -78t-121.5 -174q0 -82 53.5 -129t150.5 -48q135 -2 223.5 93t88.5 270z" />
    <glyph glyph-name="b" unicode="b" horiz-adv-x="1212" 
d="M147 -37q6 131 -4 1426q6 -1 19 -1.5t60 -1.5t104 0q-5 -267 -7 -569q51 117 145.5 179.5t217.5 62.5q191 0 304.5 -151t113.5 -396q0 -261 -121 -405t-328 -144q-122 0 -211.5 59.5t-138.5 176.5q0 -127 6 -238q-88 0 -160 2zM635 88q130 0 205 109t75 325
q0 111 -30 200.5t-92.5 145.5t-147.5 56q-131 0 -226 -118.5t-95 -316.5q0 -174 91 -287.5t220 -113.5z" />
    <glyph glyph-name="c" unicode="c" horiz-adv-x="1132" 
d="M590 -45q-95 0 -173.5 28t-134.5 78t-94 119.5t-56 152.5t-17 177q0 238 128 393.5t345 155.5q182 0 288.5 -94.5t143.5 -266.5q-48 -4 -93 -11t-66 -12l-21 -5q-26 115 -84.5 180t-169.5 65q-141 0 -216 -112t-75 -297q0 -188 75 -297t218 -109q106 0 170 60t100 200
q49 -14 172 -30q-41 -192 -149 -283.5t-291 -91.5z" />
    <glyph glyph-name="d" unicode="d" horiz-adv-x="1212" 
d="M1069 -37q-92 2 -166 2q4 98 8 248q-47 -123 -151 -186.5t-228 -63.5q-187 0 -303 147t-116 388q0 250 120 405.5t312 155.5q119 0 209 -61t139 -158q-7 437 -10 565q43 -2 186 2q-6 -647 0 -1444zM582 94q133 0 221 111.5t88 290.5q-5 123 -39.5 217t-106.5 152.5
t-174 58.5q-125 0 -199.5 -120t-74.5 -296q0 -189 72.5 -301.5t212.5 -112.5z" />
    <glyph glyph-name="e" unicode="e" horiz-adv-x="1138" 
d="M584 -43q-118 0 -209.5 43.5t-147.5 120t-84.5 175.5t-27.5 216q0 152 55.5 274.5t168 197.5t265.5 75q114 -1 202 -50t137.5 -129.5t67.5 -181.5t1 -209q-214 -2 -713 -18q8 -174 83 -274.5t208 -100.5q207 0 278 226q35 -14 164 -43q-54 -153 -167 -237.5t-281 -84.5z
M596 924q-121 0 -196.5 -85t-94.5 -233q5 0 541 23q-3 126 -68 210.5t-182 84.5z" />
    <glyph glyph-name="f" unicode="f" horiz-adv-x="804" 
d="M727 889q-133 2 -326 0l2 -885q-80 2 -176 -2q-6 507 -6 887l-158 -2q0 49 -2 145q60 -4 162 -4v41q0 185 83 277t259 92q74 0 189 -23q-7 -51 -15 -141q-99 24 -164 24q-97 0 -134.5 -53.5t-37.5 -181.5v-37q189 0 326 2q-2 -53 -2 -139z" />
    <glyph glyph-name="g" unicode="g" horiz-adv-x="1107" 
d="M543 264q-45 0 -88 6q-80 -48 -80 -92q0 -38 55.5 -60t190.5 -32q171 -14 271 -52t137.5 -92t37.5 -135q0 -109 -75.5 -193t-201.5 -127.5t-280 -43.5q-210 0 -329.5 79t-119.5 206q0 86 65.5 157t164.5 117q-82 49 -82 131q0 42 33.5 88t95.5 80q-120 48 -188.5 148
t-67.5 231q2 172 127.5 281.5t325.5 109.5q122 0 229 -47q44 123 100 295q67 -29 180 -70q-55 -80 -180 -291q63 -56 97 -130.5t34 -157.5q0 -185 -131.5 -295.5t-320.5 -110.5zM539 395q128 0 202 71t74 208q0 110 -73.5 186t-204.5 76q-128 0 -202.5 -70t-74.5 -192
q0 -128 74.5 -203.5t204.5 -75.5zM893 -211q0 22 -8.5 40.5t-28 33t-42.5 26t-59.5 20.5t-72 15.5t-87 11.5t-97 9t-109.5 8q-145 -90 -145 -201q0 -77 74 -122.5t208 -45.5q164 0 265.5 59t101.5 146z" />
    <glyph glyph-name="h" unicode="h" horiz-adv-x="1148" 
d="M150 39q1 561 -7 1345q66 0 183 2l-2 -595q56 124 151 193t217 69q154 0 233.5 -95t84.5 -278q4 -175 4.5 -355t-0.5 -273l-2 -93h-178q1 31 2 86.5t2 233.5t-2 339q-3 143 -47.5 212t-147.5 69q-93 0 -166 -67t-110 -168.5t-39 -214.5l2 -408q-76 0 -178 -2z" />
    <glyph glyph-name="i" unicode="i" horiz-adv-x="534" 
d="M184 4q4 271 -4 1022q72 0 176 2q1 -396 9 -1022q-77 0 -181 -2zM270 1157q-60 0 -98.5 34.5t-38.5 94.5q0 58 38 92.5t99 34.5q60 0 95.5 -37.5t35.5 -87.5q0 -61 -36 -96t-95 -35z" />
    <glyph glyph-name="j" unicode="j" horiz-adv-x="534" 
d="M270 1159q-65 0 -101 37t-36 92q0 56 38 90.5t95 34.5q62 0 98.5 -35.5t36.5 -89.5q0 -60 -37 -94.5t-94 -34.5zM-78 -424q4 70 6 168q58 -12 105 -12q73 0 111.5 37t39.5 120q2 265 1 518t-3 436l-2 183q60 -1 99 -0.5t57 1.5l18 1q1 -58 2.5 -157.5t4 -413t-0.5 -578.5
q0 -160 -86.5 -236.5t-232.5 -76.5q-51 0 -119 10z" />
    <glyph glyph-name="k" unicode="k" horiz-adv-x="1058" 
d="M823 -43q-253 403 -344 539l-155 -177l4 -282l-181 4q2 480 1 779t-3 432l-2 134l181 -2q-3 -588 0 -878q153 180 267.5 319t152.5 187l38 49l217 -8q-261 -287 -395 -447q119 -189 222.5 -349.5t147.5 -226.5l44 -65q-62 -1 -110.5 -3t-66.5 -4z" />
    <glyph glyph-name="l" unicode="l" horiz-adv-x="491" 
d="M334 6l-180 2q3 434 3.5 787t-0.5 489l-1 135l182 -2q-4 -504 -5 -857t0 -454z" />
    <glyph glyph-name="m" unicode="m" horiz-adv-x="1773" 
d="M150 39q1 384 -7 954q68 0 156 -2q-6 -109 -6 -248q55 139 159 224.5t218 85.5q128 0 198 -79.5t86 -221.5q48 123 148.5 192.5t212.5 69.5q162 0 238 -107t81 -289q4 -135 5 -299.5t0 -262.5l-1 -97l-180 2q8 339 0 625q-6 274 -192 274q-84 0 -151 -57t-102 -149.5
t-36 -200.5l2 -377q-80 -2 -178 0q6 267 -2 569q-2 118 -44 186t-126 68q-112 0 -207.5 -126.5t-95.5 -319.5q-1 -89 0 -192t2 -161l2 -59q-76 -2 -180 -2z" />
    <glyph glyph-name="n" unicode="n" horiz-adv-x="1142" 
d="M829 -45l2 663q0 136 -43 207.5t-151 71.5q-87 0 -159.5 -60t-112.5 -158t-41 -210q-2 -64 -2 -171t1 -182l1 -75q-97 2 -181 0q1 42 1.5 118t1.5 330t-1 506q80 -2 152 2q-1 -14 -2 -39t-2 -93t0 -124q52 147 161 229.5t240 80.5q83 0 144 -29t96 -81.5t52.5 -117.5
t19.5 -147l4 -719z" />
    <glyph glyph-name="o" unicode="o" horiz-adv-x="1187" 
d="M592 -41q-226 0 -352.5 148.5t-126.5 408.5q0 245 132 394t349 149q220 0 350.5 -148t130.5 -397q0 -265 -133 -410t-350 -145zM594 96q134 0 215 108t82 310q0 182 -76 295t-219 113q-131 0 -215 -110t-84 -292q0 -210 80 -317t217 -107z" />
    <glyph glyph-name="p" unicode="p" horiz-adv-x="1216" 
d="M143 -438q3 335 3 698.5t-2 559.5l-1 196l164 2q-2 -58 -2 -201q54 112 156.5 178t212.5 66q134 0 233 -75t148 -198t49 -276q0 -249 -118 -401t-322 -152q-99 0 -194 50.5t-153 142.5q3 -173 7.5 -320t7.5 -208l4 -60zM645 86q125 0 200 113.5t75 310.5q0 111 -33 206
t-98 155.5t-150 60.5q-95 0 -169 -65.5t-110 -162t-36 -200.5q0 -174 91.5 -296t229.5 -122z" />
    <glyph glyph-name="q" unicode="q" horiz-adv-x="1214" 
d="M881 -436q12 318 18 624q-52 -112 -141.5 -170.5t-206.5 -58.5q-137 0 -237.5 71.5t-150.5 195t-50 284.5q0 160 53.5 286t152.5 197.5t228 71.5q128 0 221.5 -68.5t144.5 -189.5l-8 244h166q-3 -405 -3 -776t2 -540l1 -169zM573 86q135 0 228.5 119t93.5 299
q-1 77 -22 152t-59.5 138t-101 101.5t-137.5 38.5q-120 0 -199 -122t-79 -298q0 -184 74.5 -306t201.5 -122z" />
    <glyph glyph-name="r" unicode="r" horiz-adv-x="774" 
d="M145 2q2 470 -2 991q68 -2 156 2q-4 -125 -4 -268q50 146 162 226t256 85q0 -64 -2 -168q-195 -23 -288.5 -141t-98.5 -338q-2 -103 -1 -189t3 -142l2 -56q-68 -2 -183 -2z" />
    <glyph glyph-name="s" unicode="s" horiz-adv-x="1054" 
d="M520 -47q-87 0 -162 22.5t-136 67.5t-100 120t-50 173q63 2 172 16q24 -136 93 -195.5t191 -62.5q112 -3 179 42.5t67 117.5q0 40 -18.5 67.5t-85 59t-191.5 63.5q-193 50 -275.5 127t-82.5 199q0 132 110 213.5t289 81.5q165 0 274 -90.5t146 -255.5q-66 -7 -164 -23
q-27 110 -98 173t-174 63q-98 0 -152.5 -46t-54.5 -116q0 -71 63 -114.5t211 -77.5q217 -51 299 -122t82 -190q0 -151 -118.5 -232t-313.5 -81z" />
    <glyph glyph-name="t" unicode="t" horiz-adv-x="874" 
d="M803 53q-143 -61 -275 -61q-139 0 -223.5 86t-87.5 262q-4 178 -4 547h-160l-2 145l162 -4l4 291l176 -2q-4 -119 -6 -291h387l-2 -143q-300 4 -385 4q-3 -222 4 -520q3 -109 41.5 -163t122.5 -54q83 0 217 55q8 -47 16 -85t12 -52z" />
    <glyph glyph-name="u" unicode="u" horiz-adv-x="1136" 
d="M492 -6q-166 0 -260.5 110.5t-94.5 315.5l-4 579q59 -4 182 -4q-4 -220 -4 -553q0 -158 51.5 -229.5t172.5 -71.5q113 0 194.5 119t85.5 318q3 120 2.5 229.5t-2.5 186.5l-2 77q49 -2 180 -2q-6 -449 0 -1089q-73 0 -159 2q4 112 6 274q-49 -126 -140 -194t-208 -68z" />
    <glyph glyph-name="v" unicode="v" horiz-adv-x="1011" 
d="M621 8l-222 4q-112 308 -204 555t-128 339l-36 93q52 2 98.5 5t66.5 6l21 2q182 -554 293 -856l291 905l180 -6z" />
    <glyph glyph-name="w" unicode="w" horiz-adv-x="1511" 
d="M514 12l-229 4q-71 303 -132 554t-87 350l-25 100l168 8q109 -489 199 -856l231 852l201 2q161 -599 247 -870l220 917l163 -6q-82 -316 -149 -585t-93 -380l-26 -110l-227 -6q-139 542 -234 864q-76 -262 -133 -471.5t-76 -288.5z" />
    <glyph glyph-name="x" unicode="x" horiz-adv-x="1097" 
d="M61 8q96 127 176 235.5t138.5 189t62.5 85.5q-108 152 -201 280t-132 180l-39 52l208 4q79 -117 269 -389q89 120 164.5 225t106.5 150l30 45l192 -12q-218 -275 -399 -521q113 -168 212 -311t142 -201l43 -59l-205 -8q-197 307 -294 446q-84 -120 -150 -218t-91 -135
l-24 -38q-64 2 -116.5 2t-72.5 -1z" />
    <glyph glyph-name="y" unicode="y" horiz-adv-x="1009" 
d="M979 1059l-512 -1542l-172 37q99 280 131 391q-109 299 -208 560.5t-143 373.5l-44 112l194 10q102 -310 293 -864q84 267 154.5 500.5t99.5 333.5l29 100z" />
    <glyph glyph-name="z" unicode="z" horiz-adv-x="1028" 
d="M911 -6q-260 8 -459.5 12t-269.5 4h-69l4 129q208 264 352.5 450t185.5 240l41 54q-204 -2 -346 -5t-182 -6l-39 -2l-4 150l778 8l2 -127q-174 -222 -317.5 -409.5t-200.5 -263.5l-57 -76q189 -4 335.5 -5t198.5 -1l51 1z" />
    <glyph glyph-name="braceleft" unicode="{" horiz-adv-x="774" 
d="M692 -229q-84 -15 -133 -15q-152 0 -218.5 71t-66.5 226l17 305q0 117 -49 170.5t-179 49.5l5 165q131 -6 178 34t47 143q0 47 -10.5 165.5t-10.5 171.5q0 134 66 196.5t199 62.5q55 0 141 -19v-137q-49 6 -86 6q-76 0 -108.5 -38t-32.5 -122q0 -44 9 -152t9 -155
q0 -109 -36 -163.5t-138 -78.5q97 -23 132.5 -84.5t35.5 -175.5l-12 -282q0 -117 36 -162t134 -45q17 0 67 4z" />
    <glyph glyph-name="bar" unicode="|" horiz-adv-x="620" 
d="M231 -238q2 887 -6 1749q53 -4 166 -4q-4 -730 4 -1740q-64 -1 -164 -5z" />
    <glyph glyph-name="braceright" unicode="}" horiz-adv-x="774" 
d="M82 -242q4 48 4 140q54 -7 84 -7q88 0 124 42t36 143q0 48 -9.5 164t-9.5 170q0 106 37.5 165.5t132.5 81.5q-96 20 -135 76t-39 168q0 54 10.5 165t10.5 153q0 81 -38.5 116t-117.5 35q-36 0 -76 -6l2 139q73 17 133 17q142 0 208.5 -61.5t66.5 -192.5
q0 -56 -12.5 -172.5t-12.5 -165.5q0 -108 49.5 -150t176.5 -35q0 -147 4 -163q-126 6 -177 -43.5t-51 -163.5q0 -52 11.5 -176t11.5 -181q0 -139 -68.5 -204.5t-214.5 -67.5q-78 0 -141 14z" />
    <glyph glyph-name="asciitilde" unicode="~" horiz-adv-x="1046" 
d="M229 1094q-63 14 -137 22q6 164 74 254t184 90q47 0 90 -22.5t74.5 -55t60.5 -64.5t60 -54.5t61 -22.5q49 0 83 50t38 167q65 -8 137 -14q-1 -117 -37.5 -197t-93 -114.5t-129.5 -34.5q-47 0 -91 22.5t-76 55t-61 64.5t-58 54.5t-54 22.5q-51 0 -83 -50t-42 -173z" />
    <glyph glyph-name="exclamdown" unicode="&#xa1;" horiz-adv-x="645" 
d="M319 1165q70 0 111 -42.5t41 -112.5q0 -64 -38.5 -107t-110.5 -43q-69 0 -108.5 45t-39.5 111t42 107.5t103 41.5zM406 745q6 -445 26 -1058q-105 4 -209 0q9 496 13 1056q76 -2 170 2z" />
    <glyph glyph-name="cent" unicode="&#xa2;" horiz-adv-x="1202" 
d="M530 -135q9 187 9 231q-205 31 -315.5 196t-110.5 410q0 251 112 419t312 200l-9 233l181 2l-13 -231q165 -20 268 -129t128 -291q-52 -4 -97.5 -10t-65.5 -10l-20 -4q-31 151 -95 225t-187 74q-107 0 -183 -63.5t-111.5 -167t-35.5 -234.5q0 -225 89 -346t243 -121
q118 0 189 65t102 222q61 -17 180 -35q-30 -180 -135 -283.5t-267 -122.5q0 -63 2 -120t4 -83l1 -26h-175z" />
    <glyph glyph-name="sterling" unicode="&#xa3;" horiz-adv-x="1202" 
d="M297 530h-182l-2 152q43 -2 123 -2q-29 60 -44.5 94.5t-31 94t-15.5 112.5q0 184 137.5 293.5t344.5 109.5q221 0 345 -120.5t148 -339.5q-61 -8 -192 -31q-6 154 -81.5 242t-219.5 88q-135 0 -212 -72.5t-77 -171.5q0 -34 12 -76.5t21.5 -67t37.5 -83.5t35 -74l424 2
l2 -156q-282 4 -376 4q4 -32 4 -49q0 -92 -40.5 -176.5t-109.5 -140.5q204 -7 756 0q-1 -7 -2 -21t-2 -59.5t0 -93.5q-232 8 -979 12q2 86 2 158q182 113 182 313q0 32 -8 59z" />
    <glyph glyph-name="yen" unicode="&#xa5;" horiz-adv-x="1249" 
d="M186 393q0 57 -4 137q86 0 262 2q-86 197 -372 793q65 0 198 8q176 -412 348 -784q133 249 404 846q74 -7 197 -9q-203 -381 -426 -845q8 0 106.5 2t161.5 4l-2 -137q-113 0 -346 -4q-2 -52 -2 -132l354 9q0 -61 2 -133l-354 -3l6 -172q-74 0 -191 -2q2 68 2 170l-352 -8
q2 59 2 137q119 -2 348 0l-4 129z" />
    <glyph glyph-name="section" unicode="&#xa7;" horiz-adv-x="1271" 
d="M653 -410q-508 0 -551 428q52 8 98 17t66 13l19 5q26 -169 113 -238t255 -69q121 0 210 60.5t89 160.5q0 40 -14 68.5t-53 57t-116.5 51t-197.5 40.5q-226 33 -332 108t-106 218q0 94 74 165t172 101q-103 35 -167.5 123t-64.5 191q0 164 129.5 270t358.5 106
q215 0 339.5 -109t149.5 -313q-56 -6 -100.5 -12.5t-61.5 -9.5l-16 -4q-13 145 -94 223t-215 78q-141 0 -221 -59t-80 -158q0 -98 86 -151.5t303 -86.5q168 -26 264 -68.5t133 -99.5t37 -143q0 -92 -59 -172.5t-152 -126.5q90 -30 145 -99.5t58 -168.5q0 -76 -27.5 -141.5
t-75 -111.5t-111 -79t-136 -48.5t-148.5 -15.5zM324 537q0 -60 34 -98.5t144.5 -73.5t318.5 -64q69 39 109.5 94t40.5 113q0 45 -13 74.5t-42 53t-87.5 40.5t-135.5 30.5t-201 28.5q-168 -81 -168 -198z" />
    <glyph glyph-name="dieresis" unicode="&#xa8;" horiz-adv-x="1187" 
d="M403 1192q-50 0 -82 33t-32 86q0 51 34 80.5t83 29.5q55 0 85.5 -34t30.5 -80q0 -54 -32.5 -84.5t-86.5 -30.5zM774 1194q-48 0 -80 32.5t-32 86.5q0 46 32 77t82 31q46 0 77.5 -30t31.5 -82q0 -51 -30 -83t-81 -32z" />
    <glyph glyph-name="copyright" unicode="&#xa9;" horiz-adv-x="1505" 
d="M758 250q-166 0 -272.5 116.5t-106.5 282.5q0 181 107 302.5t272 121.5q139 0 230.5 -72t117.5 -206q-41 -3 -80.5 -8t-58.5 -9l-19 -4q-24 92 -65.5 133t-124.5 41q-104 0 -167 -84t-63 -213q0 -120 67 -193t171 -73q135 0 190 156l148 -29q-83 -262 -346 -262zM741 -49
q-140 0 -257 48.5t-202 139t-132.5 228t-47.5 307.5q0 137 43.5 262t124.5 223.5t208.5 157.5t283.5 59q189 0 335 -92t226 -255t80 -370q0 -336 -178 -522t-484 -186zM752 37q119 0 218.5 37.5t175.5 111t118.5 193.5t42.5 276q0 283 -150.5 458t-400.5 175
q-174 0 -302.5 -85t-192.5 -227.5t-64 -322.5q0 -295 152 -455.5t403 -160.5z" />
    <glyph glyph-name="ordfeminine" unicode="&#xaa;" horiz-adv-x="899" 
d="M365 588q-123 0 -198 67t-75 176q0 55 30 104.5t91 91.5t168 68t248 29v17q0 192 -176 192q-69 0 -121 -39.5t-74 -105.5q-47 16 -141 39q34 102 125 160.5t217 58.5q166 0 246.5 -96.5t80.5 -274.5l-6 -469q-45 2 -131 4l8 203q-39 -109 -112.5 -167t-179.5 -58z
M635 993v39q-204 -7 -296.5 -64.5t-92.5 -140.5q0 -62 43 -95.5t112 -33.5q93 0 163.5 86t70.5 209z" />
    <glyph glyph-name="guillemotleft" unicode="&#xab;" horiz-adv-x="913" 
d="M330 205q-89 172 -269 495q131 200 291 469q54 -6 154 -8q-137 -211 -289 -465q96 -187 262 -475q-59 -2 -149 -16zM688 207q-92 177 -270 481q112 175 266 436q64 -6 152 -10q-126 -190 -265 -432q93 -171 271 -471q-60 2 -154 -4z" />
    <glyph glyph-name="registered" unicode="&#xae;" horiz-adv-x="1011" 
d="M514 516q-212 0 -332.5 134t-120.5 337q0 125 50.5 230.5t152 172t236.5 66.5q138 0 241.5 -64t156 -171.5t52.5 -241.5q0 -107 -34 -195.5t-93 -146.5t-138.5 -89.5t-170.5 -31.5zM516 586q148 0 252 102.5t104 278.5q0 195 -104 307t-274 112q-156 0 -256.5 -111.5
t-100.5 -293.5q0 -178 102.5 -286.5t276.5 -108.5zM596 731q-31 86 -80 201q-48 -7 -90 -4q0 -99 4 -191q-43 2 -106 0q4 173 4 514q80 13 133 13q126 0 189 -45.5t63 -116.5q0 -98 -105 -146q24 -69 94 -208q-45 -5 -106 -17zM428 1006q14 -2 43 -2q139 0 139 90
q0 39 -31.5 64.5t-101.5 25.5q-15 0 -51 -4z" />
    <glyph glyph-name="macron" unicode="&#xaf;" horiz-adv-x="1187" 
d="M301 1249q2 45 -2 127q162 -2 567 4l-2 -129q-206 4 -563 -2z" />
    <glyph glyph-name="degree" unicode="&#xb0;" horiz-adv-x="712" 
d="M358 874q-120 0 -203 81t-83 221q0 118 76 200t206 82q135 0 211 -79t76 -203q0 -133 -76 -217.5t-207 -84.5zM358 983q71 0 114.5 49.5t43.5 138.5q0 72 -43.5 128.5t-114.5 56.5q-74 0 -116.5 -54t-42.5 -126q0 -81 43 -137t116 -56z" />
    <glyph glyph-name="twosuperior" unicode="&#xb2;" horiz-adv-x="778" 
d="M686 733v-119l-600 9l-4 127q221 103 346 221t125 239q0 74 -40 115t-114 41q-87 0 -126.5 -53t-45.5 -156q-61 10 -135 14q1 142 86 222t221 80q144 0 220.5 -70t76.5 -189q0 -135 -122.5 -264.5t-313.5 -220.5q138 -2 233 -1t144 3z" />
    <glyph glyph-name="threesuperior" unicode="&#xb3;" horiz-adv-x="827" 
d="M410 588q-152 0 -243.5 73t-105.5 203q66 9 148 25q10 -100 60.5 -146.5t142.5 -46.5t141 37.5t49 102.5q0 48 -25.5 81.5t-66.5 47.5q-75 26 -211 18v102q160 -10 225 25q32 14 51 44.5t19 70.5q0 67 -46.5 108t-131.5 41q-147 0 -172 -172l-146 19q15 122 100 189
t220 67q143 0 230 -65.5t87 -172.5q0 -80 -55 -136.5t-145 -66.5q101 -12 155.5 -69t54.5 -138q0 -107 -91.5 -174t-243.5 -67z" />
    <glyph glyph-name="acute" unicode="&#xb4;" horiz-adv-x="1187" 
d="M598 1145l-96 72q77 96 143.5 182.5t94.5 124.5l28 39l127 -90q-88 -93 -162.5 -175t-104.5 -118z" />
    <glyph glyph-name="paragraph" unicode="&#xb6;" horiz-adv-x="1347" 
d="M102 809q0 302 216.5 470t596.5 163q131 -3 275 -25q-9 -720 14 -1808q-59 6 -194 6l8 1657q-93 6 -205 -4q0 -848 6 -1639q-90 2 -182 0q2 300 -4 582q-248 45 -389.5 198.5t-141.5 399.5z" />
    <glyph glyph-name="periodcentered" unicode="&#xb7;" horiz-adv-x="585" 
d="M293 549q-66 0 -107 43t-41 117q0 69 41.5 113t108.5 44q77 0 112 -45.5t35 -111.5q0 -76 -40.5 -118t-108.5 -42z" />
    <glyph glyph-name="cedilla" unicode="&#xb8;" horiz-adv-x="1187" 
d="M557 -16l102 2q-6 -51 -10 -119q106 0 160.5 -44t54.5 -104q0 -81 -74 -128.5t-196 -47.5q-50 0 -108.5 16t-102.5 42q19 39 39 96q86 -51 172 -51q53 0 88 19t35 52q0 83 -197 60q17 76 37 207z" />
    <glyph glyph-name="onesuperior" unicode="&#xb9;" horiz-adv-x="573" 
d="M260 614q2 386 -4 680l-168 -94l-47 111q68 37 131 73t92 53l29 17l98 -8q0 -188 2 -395.5t4 -320.5l2 -114z" />
    <glyph glyph-name="ordmasculine" unicode="&#xba;" horiz-adv-x="925" 
d="M463 582q-180 0 -280.5 117t-100.5 329q0 182 104.5 304t278.5 122q182 0 280.5 -122t98.5 -316q0 -104 -31 -187.5t-83.5 -136.5t-121 -81.5t-145.5 -28.5zM463 702q112 0 166.5 83.5t54.5 230.5q0 90 -23 161t-73 114.5t-121 43.5q-104 0 -164.5 -86t-60.5 -219
q0 -161 57 -244.5t164 -83.5z" />
    <glyph glyph-name="guillemotright" unicode="&#xbb;" horiz-adv-x="919" 
d="M219 205q-61 6 -147 10q133 199 278 449q-98 195 -256 477q62 2 152 12q88 -178 258 -496q-129 -193 -285 -452zM582 211q-54 8 -154 12q131 199 272 443q-100 199 -258 477q60 0 156 8q96 -193 260 -489q-137 -207 -276 -451z" />
    <glyph glyph-name="onequarter" unicode="&#xbc;" horiz-adv-x="1601" 
d="M260 614q2 386 -4 680l-168 -94l-47 111q68 37 131 73t92 53l29 17l98 -8q0 -188 2 -395.5t4 -320.5l2 -114zM356 -41l-110 16q249 401 472.5 767.5t321.5 531.5l99 166l118 -15zM1311 -20q0 125 2 186l-473 -6q0 33 -2 96q114 152 220 295.5t155 211.5l49 68l182 -4
q-2 -328 -2 -559l88 2v-104h-88v-184zM1315 715q-134 -178 -334 -449h332q2 258 2 449z" />
    <glyph glyph-name="onehalf" unicode="&#xbd;" horiz-adv-x="1646" 
d="M260 614q2 386 -4 680l-168 -94l-47 111q68 37 131 73t92 53l29 17l98 -8q0 -188 2 -395.5t4 -320.5l2 -114zM356 -41l-110 16q249 401 472.5 767.5t321.5 531.5l99 166l118 -15zM1554 96v-119l-600 9l-4 127q221 103 346 221t125 239q0 74 -39.5 115t-113.5 41
q-87 0 -126.5 -53t-45.5 -156q-61 11 -135 15q1 142 85.5 221.5t221.5 79.5q144 0 220.5 -69.5t76.5 -188.5q0 -135 -123 -265t-314 -221q138 -2 233 -1t144 3z" />
    <glyph glyph-name="threequarters" unicode="&#xbe;" horiz-adv-x="1804" 
d="M410 588q-152 0 -243.5 73t-105.5 203q66 9 148 25q10 -100 60.5 -146.5t142.5 -46.5t141 37.5t49 102.5q0 48 -25.5 81.5t-66.5 47.5q-75 26 -211 18v102q160 -10 225 25q32 14 51 44.5t19 70.5q0 67 -46.5 108t-131.5 41q-147 0 -172 -172l-146 19q15 122 100 189
t220 67q143 0 230 -65.5t87 -172.5q0 -80 -55 -136.5t-145 -66.5q101 -12 155.5 -69t54.5 -138q0 -107 -91.5 -174t-243.5 -67zM559 -41l-110 16q249 401 472 767.5t321 531.5l99 166l119 -15zM1513 -20q0 94 3 186l-474 -6q0 33 -2 96q114 152 220 295.5t155 211.5l49 68
l183 -4q-2 -328 -2 -559l88 2v-104h-88v-184zM1518 715q-134 -178 -334 -449h332q2 258 2 449z" />
    <glyph glyph-name="questiondown" unicode="&#xbf;" horiz-adv-x="1212" 
d="M739 752l6 -377q-238 12 -342 -58.5t-104 -224.5q0 -119 79.5 -199.5t223.5 -80.5q145 0 226 87t114 259q71 -23 188 -41q-33 -207 -169 -334t-347 -127q-124 0 -223.5 35.5t-161.5 96t-94.5 135.5t-32.5 157q0 201 119.5 310t331.5 118q3 53 3.5 113t-0.5 93l-1 34z
M637 1157q72 0 109.5 -40.5t37.5 -110.5q0 -63 -40.5 -103.5t-104.5 -40.5q-68 0 -105.5 41.5t-37.5 110.5q0 66 39 104.5t102 38.5z" />
    <glyph glyph-name="Agrave" unicode="&#xc0;" horiz-adv-x="1280" 
d="M55 45q175 539 434 1393l271 4q227 -738 465 -1485q-99 0 -193 -4q-42 143 -112 379q-234 6 -594 6q-3 -9 -82 -297q-93 4 -189 4zM616 1335q-136 -460 -249 -854q168 -2 510 -2q-46 156 -261 856zM655 1538q-96 115 -295 324q41 29 127 92q95 -131 267 -344
q-25 -17 -99 -72z" />
    <glyph glyph-name="Aacute" unicode="&#xc1;" horiz-adv-x="1280" 
d="M55 45q175 539 434 1393l271 4q227 -738 465 -1485q-99 0 -193 -4q-42 143 -112 379q-234 6 -594 6q-3 -9 -82 -297q-93 4 -189 4zM616 1335q-136 -460 -249 -854q168 -2 510 -2q-46 156 -261 856zM621 1544l-97 72q77 96 144 182.5t95 125.5l28 38l127 -90
q-88 -93 -162.5 -175t-104.5 -117z" />
    <glyph glyph-name="Acircumflex" unicode="&#xc2;" horiz-adv-x="1280" 
d="M55 45q175 539 434 1393l271 4q227 -738 465 -1485q-99 0 -193 -4q-42 143 -112 379q-234 6 -594 6q-3 -9 -82 -297q-93 4 -189 4zM616 1335q-136 -460 -249 -854q168 -2 510 -2q-46 156 -261 856zM416 1530q-33 31 -92 76q106 116 241 280q50 -2 146 0q89 -108 243 -272
q-29 -21 -90 -78q-98 113 -227 244q-80 -76 -221 -250z" />
    <glyph glyph-name="Atilde" unicode="&#xc3;" horiz-adv-x="1280" 
d="M55 45q175 539 434 1393l271 4q227 -738 465 -1485q-99 0 -193 -4q-42 143 -112 379q-234 6 -594 6q-3 -9 -82 -297q-93 4 -189 4zM616 1335q-136 -460 -249 -854q168 -2 510 -2q-46 156 -261 856zM401 1585q-40 13 -110 21q5 120 61 188t152 68q36 0 70 -17.5t60 -43
t49.5 -51t48.5 -43t48 -17.5q39 0 60.5 32.5t33.5 116.5q37 -10 113 -22q-13 -138 -64.5 -193t-140.5 -55q-38 0 -74 17.5t-63 43t-51.5 51t-50 43t-47.5 17.5q-38 0 -63 -40t-32 -116z" />
    <glyph glyph-name="Adieresis" unicode="&#xc4;" horiz-adv-x="1280" 
d="M55 45q175 539 434 1393l271 4q227 -738 465 -1485q-99 0 -193 -4q-42 143 -112 379q-234 6 -594 6q-3 -9 -82 -297q-93 4 -189 4zM616 1335q-136 -460 -249 -854q168 -2 510 -2q-46 156 -261 856zM457 1591q-50 0 -82.5 33t-32.5 86q0 51 34 81t83 30q55 0 85.5 -34
t30.5 -81q0 -54 -32 -84.5t-86 -30.5zM827 1593q-48 0 -80 32.5t-32 86.5q0 46 32 77.5t82 31.5q46 0 77.5 -30.5t31.5 -82.5q0 -51 -30 -83t-81 -32z" />
    <glyph glyph-name="Aring" unicode="&#xc5;" horiz-adv-x="1280" 
d="M55 45q175 539 434 1393l271 4q227 -738 465 -1485q-99 0 -193 -4q-42 143 -112 379q-234 6 -594 6q-3 -9 -82 -297q-93 4 -189 4zM616 1335q-136 -460 -249 -854q168 -2 510 -2q-46 156 -261 856zM635 1538q-105 0 -169.5 62.5t-64.5 154.5t65 153.5t169 61.5
q117 0 179.5 -63t62.5 -152q0 -97 -68 -157t-174 -60zM639 1624q62 0 98.5 34t36.5 97q0 60 -34 96.5t-99 36.5t-100 -36.5t-35 -94.5q0 -57 35 -95t98 -38z" />
    <glyph glyph-name="AE" unicode="&#xc6;" horiz-adv-x="1781" 
d="M1604 582q-26 1 -73 1.5t-201.5 1.5t-301.5 -1q24 -78 73 -233t68 -218q186 -2 517 10q-1 -6 -1.5 -18t-1.5 -52t0 -81q-195 -1 -661 -15l-98 355q-258 6 -592 6q-13 -42 -27.5 -91t-32 -111.5t-28.5 -98.5l-189 2q191 580 441 1401q335 -4 630.5 -5t423.5 0l127 1
q0 -58 4 -154q-26 1 -83 1.5t-274 1.5t-501 -1q64 -231 160 -549q438 0 619 2q-2 -69 2 -155zM633 1341q-72 -233 -258 -860q238 -4 508 -2q-97 346 -250 862z" />
    <glyph glyph-name="Ccedilla" unicode="&#xc7;" horiz-adv-x="1353" 
d="M1264 508q-31 -265 -161.5 -402.5t-354.5 -146.5q-8 -68 -9 -102q106 0 160.5 -44t54.5 -104q0 -81 -74 -128.5t-196 -47.5q-50 0 -108.5 15.5t-102.5 41.5q19 40 39 97q88 -52 172 -52q53 0 88 19.5t35 52.5q0 83 -197 60q17 71 35 196q-176 16 -295 116t-174 260
t-55 374q0 349 155.5 550t442.5 201q221 0 345 -128t159 -359q-57 -8 -105 -16.5t-67 -13.5l-19 -5q-27 179 -103 271t-214 92q-100 0 -177.5 -45.5t-125.5 -126t-72.5 -185t-24.5 -229.5q0 -102 14.5 -191t46 -164.5t78 -129t113 -83.5t148.5 -30q156 0 244.5 99.5
t109.5 314.5z" />
    <glyph glyph-name="Egrave" unicode="&#xc8;" horiz-adv-x="1148" 
d="M174 8q-2 588 -16 1413q388 5 872 15q0 -54 2 -154q-322 -2 -690 -10q0 -200 4 -533q458 0 606 2q0 -63 2 -161q-36 1 -93 1.5t-227.5 1.5t-285.5 -1q5 -295 8 -426l697 -9q0 -57 -2 -153q-475 12 -877 14zM631 1538q-96 115 -295 324q41 29 127 92q94 -131 266 -344
q-24 -17 -98 -72z" />
    <glyph glyph-name="Eacute" unicode="&#xc9;" horiz-adv-x="1148" 
d="M174 8q-2 588 -16 1413q388 5 872 15q0 -54 2 -154q-322 -2 -690 -10q0 -200 4 -533q458 0 606 2q0 -63 2 -161q-36 1 -93 1.5t-227.5 1.5t-285.5 -1q5 -295 8 -426l697 -9q0 -57 -2 -153q-475 12 -877 14zM596 1544l-96 72q77 96 143.5 182.5t94.5 125.5l28 38l127 -90
q-88 -93 -162.5 -175t-104.5 -117z" />
    <glyph glyph-name="Ecircumflex" unicode="&#xca;" horiz-adv-x="1148" 
d="M174 8q-2 588 -16 1413q388 5 872 15q0 -54 2 -154q-322 -2 -690 -10q0 -200 4 -533q458 0 606 2q0 -63 2 -161q-36 1 -93 1.5t-227.5 1.5t-285.5 -1q5 -295 8 -426l697 -9q0 -57 -2 -153q-475 12 -877 14zM391 1530q-33 31 -92 76q107 116 242 280q49 -2 145 0
q90 -108 244 -272q-29 -21 -90 -78q-99 113 -228 244q-80 -76 -221 -250z" />
    <glyph glyph-name="Edieresis" unicode="&#xcb;" horiz-adv-x="1148" 
d="M174 8q-2 588 -16 1413q388 5 872 15q0 -54 2 -154q-322 -2 -690 -10q0 -200 4 -533q458 0 606 2q0 -63 2 -161q-36 1 -93 1.5t-227.5 1.5t-285.5 -1q5 -295 8 -426l697 -9q0 -57 -2 -153q-475 12 -877 14zM432 1591q-50 0 -82.5 33t-32.5 86q0 51 34 81t83 30
q55 0 86 -34.5t31 -80.5q0 -54 -32.5 -84.5t-86.5 -30.5zM803 1593q-49 0 -81 32.5t-32 86.5q0 46 32.5 77.5t82.5 31.5q46 0 77 -30.5t31 -82.5t-30 -83.5t-80 -31.5z" />
    <glyph glyph-name="Igrave" unicode="&#xcc;" horiz-adv-x="550" 
d="M186 -2q0 626 -8 1423q65 2 184 2q3 -683 11 -1425q-85 2 -187 0zM291 1538q-96 115 -295 324q41 29 127 92q94 -131 266 -344q-24 -17 -98 -72z" />
    <glyph glyph-name="Iacute" unicode="&#xcd;" horiz-adv-x="550" 
d="M186 -2q0 626 -8 1423q65 2 184 2q3 -683 11 -1425q-85 2 -187 0zM256 1544l-96 72q77 96 143.5 182.5t94.5 125.5l28 38l127 -90q-88 -93 -162.5 -175t-104.5 -117z" />
    <glyph glyph-name="Icircumflex" unicode="&#xce;" horiz-adv-x="550" 
d="M186 -2q0 626 -8 1423q65 2 184 2q3 -683 11 -1425q-85 2 -187 0zM51 1530q-33 31 -92 76q107 116 242 280q49 -2 145 0q90 -108 244 -272q-29 -21 -90 -78q-99 113 -228 244q-80 -76 -221 -250z" />
    <glyph glyph-name="Idieresis" unicode="&#xcf;" horiz-adv-x="550" 
d="M186 -2q0 626 -8 1423q65 2 184 2q3 -683 11 -1425q-85 2 -187 0zM92 1591q-50 0 -82.5 33t-32.5 86q0 51 34 81t83 30q55 0 86 -34.5t31 -80.5q0 -54 -32.5 -84.5t-86.5 -30.5zM463 1593q-49 0 -81 32.5t-32 86.5q0 46 32.5 77.5t82.5 31.5q46 0 77 -30.5t31 -82.5
t-30 -83.5t-80 -31.5z" />
    <glyph glyph-name="Eth" unicode="&#xd0;" horiz-adv-x="1435" 
d="M41 625l2 157q66 -4 203 -8l-4 637q160 23 303 23q194 0 342.5 -52.5t241.5 -148t139.5 -225t46.5 -289.5q0 -359 -203.5 -545t-615.5 -186q-108 0 -252 16q2 233 2 621h-205zM434 150q53 -3 98 -3q293 0 441.5 134t148.5 440q0 261 -148 408t-442 147q-52 0 -110 -6
q0 -346 2 -498q80 -2 281 -2q-2 -53 2 -147q-111 2 -281 2z" />
    <glyph glyph-name="Ntilde" unicode="&#xd1;" horiz-adv-x="1343" 
d="M164 41q4 501 -6 1335q87 7 200 13q309 -565 658 -1182q-9 790 -23 1259q74 -2 176 -2q3 -586 17 -1495l-209 -14q-285 525 -651 1171q0 -551 14 -1089q-78 2 -176 4zM434 1585q-40 13 -110 21q5 120 61 188t152 68q36 0 70 -17.5t60 -43t49.5 -51t48.5 -43t48 -17.5
q39 0 60.5 32.5t33.5 116.5q37 -10 113 -22q-13 -138 -64.5 -193t-140.5 -55q-38 0 -74 17.5t-63.5 43t-52 51t-50 43t-47.5 17.5q-79 0 -94 -156z" />
    <glyph glyph-name="Ograve" unicode="&#xd2;" horiz-adv-x="1433" 
d="M717 -47q-272 0 -433 196t-161 545q0 358 162 565t440 207q270 0 428 -208t158 -560q0 -356 -158 -550.5t-436 -194.5zM715 111q178 0 288.5 151.5t110.5 444.5q0 288 -105 446t-290 158q-191 0 -295.5 -163t-104.5 -441q0 -276 106.5 -436t289.5 -160zM733 1538
q-96 115 -295 324q41 29 127 92q94 -131 266 -344q-24 -17 -98 -72z" />
    <glyph glyph-name="Oacute" unicode="&#xd3;" horiz-adv-x="1433" 
d="M717 -47q-272 0 -433 196t-161 545q0 358 162 565t440 207q270 0 428 -208t158 -560q0 -356 -158 -550.5t-436 -194.5zM715 111q178 0 288.5 151.5t110.5 444.5q0 288 -105 446t-290 158q-191 0 -295.5 -163t-104.5 -441q0 -276 106.5 -436t289.5 -160zM698 1544l-96 72
q77 96 143.5 182.5t94.5 125.5l28 38l127 -90q-88 -93 -162.5 -175t-104.5 -117z" />
    <glyph glyph-name="Ocircumflex" unicode="&#xd4;" horiz-adv-x="1433" 
d="M717 -47q-272 0 -433 196t-161 545q0 358 162 565t440 207q270 0 428 -208t158 -560q0 -356 -158 -550.5t-436 -194.5zM715 111q178 0 288.5 151.5t110.5 444.5q0 288 -105 446t-290 158q-191 0 -295.5 -163t-104.5 -441q0 -276 106.5 -436t289.5 -160zM494 1530
q-34 31 -93 76q107 116 242 280q49 -2 145 0q90 -108 244 -272q-29 -21 -90 -78q-98 113 -227 244q-80 -76 -221 -250z" />
    <glyph glyph-name="Otilde" unicode="&#xd5;" horiz-adv-x="1433" 
d="M717 -47q-272 0 -433 196t-161 545q0 358 162 565t440 207q270 0 428 -208t158 -560q0 -356 -158 -550.5t-436 -194.5zM715 111q178 0 288.5 151.5t110.5 444.5q0 288 -105 446t-290 158q-191 0 -295.5 -163t-104.5 -441q0 -276 106.5 -436t289.5 -160zM479 1585
q-40 13 -110 21q5 120 61 188t152 68q36 0 70 -17.5t60 -43t49.5 -51t48.5 -43t48 -17.5q39 0 60.5 32.5t33.5 116.5q37 -10 113 -22q-13 -138 -64.5 -193t-140.5 -55q-38 0 -74 17.5t-63.5 43t-52 51t-50 43t-47.5 17.5q-79 0 -94 -156z" />
    <glyph glyph-name="Odieresis" unicode="&#xd6;" horiz-adv-x="1433" 
d="M717 -47q-272 0 -433 196t-161 545q0 358 162 565t440 207q270 0 428 -208t158 -560q0 -356 -158 -550.5t-436 -194.5zM715 111q178 0 288.5 151.5t110.5 444.5q0 288 -105 446t-290 158q-191 0 -295.5 -163t-104.5 -441q0 -276 106.5 -436t289.5 -160zM535 1591
q-50 0 -82.5 33t-32.5 86q0 51 34 81t83 30q55 0 85.5 -34t30.5 -81q0 -54 -32 -84.5t-86 -30.5zM905 1593q-48 0 -80 32.5t-32 86.5q0 46 32 77.5t82 31.5q46 0 77.5 -30.5t31.5 -82.5q0 -51 -30 -83t-81 -32z" />
    <glyph glyph-name="multiply" unicode="&#xd7;" horiz-adv-x="1040" 
d="M203 236q-33 33 -101 94q146 151 328 348l-317 340l98 98q128 -145 309 -342l320 354q43 -47 98 -98q-148 -153 -330 -350q79 -86 160 -172t122 -129l42 -43l-103 -94q-274 303 -311 342q-36 -40 -100.5 -110.5t-118 -129.5t-96.5 -108z" />
    <glyph glyph-name="Oslash" unicode="&#xd8;" horiz-adv-x="1433" 
d="M356 -178q-37 20 -123 63q39 76 105 209q-105 98 -160 257t-55 360q0 227 70 396.5t207.5 264t326.5 94.5q137 0 252 -59l88 184q31 -16 135 -67q-38 -74 -104 -201q103 -98 158 -254.5t55 -359.5q0 -359 -159 -556.5t-439 -197.5q-149 0 -264 59q-37 -73 -93 -192z
M713 109q186 0 293.5 156.5t107.5 447.5q0 277 -104 434q-131 -256 -490 -983q82 -55 193 -55zM317 713q0 -291 105 -447q25 52 197 403t286 586q-86 60 -188 60q-124 0 -215 -77.5t-138 -213t-47 -311.5z" />
    <glyph glyph-name="Ugrave" unicode="&#xd9;" horiz-adv-x="1296" 
d="M659 -29q-269 0 -393.5 158.5t-124.5 464.5l-4 788l191 -2q-4 -559 -4 -768q0 -250 82 -362.5t260 -112.5q167 0 240 118t73 368l-2 835q55 -2 182 4q-4 -579 -4 -848q0 -643 -496 -643zM664 1538q-96 115 -295 324q41 29 127 92q94 -131 266 -344q-24 -17 -98 -72z" />
    <glyph glyph-name="Uacute" unicode="&#xda;" horiz-adv-x="1296" 
d="M659 -29q-269 0 -393.5 158.5t-124.5 464.5l-4 788l191 -2q-4 -559 -4 -768q0 -250 82 -362.5t260 -112.5q167 0 240 118t73 368l-2 835q55 -2 182 4q-4 -579 -4 -848q0 -643 -496 -643zM629 1544l-97 72q77 96 144 182.5t95 125.5l28 38l127 -90q-88 -93 -162.5 -175
t-104.5 -117z" />
    <glyph glyph-name="Ucircumflex" unicode="&#xdb;" horiz-adv-x="1296" 
d="M659 -29q-269 0 -393.5 158.5t-124.5 464.5l-4 788l191 -2q-4 -559 -4 -768q0 -250 82 -362.5t260 -112.5q167 0 240 118t73 368l-2 835q55 -2 182 4q-4 -579 -4 -848q0 -643 -496 -643zM424 1530q-33 31 -92 76q106 116 241 280q50 -2 146 0q90 -108 244 -272
q-30 -21 -91 -78q-98 113 -227 244q-80 -76 -221 -250z" />
    <glyph glyph-name="Udieresis" unicode="&#xdc;" horiz-adv-x="1296" 
d="M659 -29q-269 0 -393.5 158.5t-124.5 464.5l-4 788l191 -2q-4 -559 -4 -768q0 -250 82 -362.5t260 -112.5q167 0 240 118t73 368l-2 835q55 -2 182 4q-4 -579 -4 -848q0 -643 -496 -643zM465 1591q-50 0 -82.5 33t-32.5 86q0 51 34 81t83 30q55 0 86 -34.5t31 -80.5
q0 -54 -32.5 -84.5t-86.5 -30.5zM836 1593q-49 0 -81 32.5t-32 86.5q0 46 32.5 77.5t82.5 31.5q46 0 77 -30.5t31 -82.5t-30 -83.5t-80 -31.5z" />
    <glyph glyph-name="Yacute" unicode="&#xdd;" horiz-adv-x="1245" 
d="M510 -20q-1 8 -1 73.5t-2 172.5t-5 198q-122 278 -457 971q64 2 203 10q94 -226 348 -774q142 269 401 813q82 -2 203 -6q-204 -374 -512 -1012q-2 -164 6 -444q-71 2 -184 -2zM604 1544l-96 72q77 96 143.5 182.5t94.5 125.5l28 38l127 -90q-88 -93 -162.5 -175
t-104.5 -117z" />
    <glyph glyph-name="Thorn" unicode="&#xde;" horiz-adv-x="1212" 
d="M160 10q8 557 -2 1411q73 -6 184 -6q-2 -92 -4 -244q100 7 164 7q165 0 289.5 -33.5t200 -95t112.5 -141t37 -177.5q0 -229 -175.5 -351t-478.5 -122q-69 0 -143 6q4 -168 8 -252q-77 2 -192 -2zM338 1026q0 -374 4 -614q86 -9 162 -9q208 0 329 84t121 232
q0 141 -113 227t-343 86q-74 0 -160 -6z" />
    <glyph glyph-name="germandbls" unicode="&#xdf;" horiz-adv-x="1224" 
d="M143 41q4 497 4 846q0 265 129.5 413t364.5 148q105 0 191.5 -33t141 -87.5t84 -123.5t29.5 -143q0 -137 -94.5 -230t-234.5 -112q174 -24 264 -121t90 -236q0 -189 -124 -292t-341 -103q-83 0 -182 15q6 47 8 137q73 -13 129 -13q156 0 240 67.5t84 199.5
q0 128 -105.5 203.5t-324.5 68.5l2 143q190 -13 297.5 51.5t107.5 213.5q0 106 -71.5 178t-200.5 72q-146 0 -225.5 -109.5t-79.5 -319.5l4 -835z" />
    <glyph glyph-name="agrave" unicode="&#xe0;" horiz-adv-x="1114" 
d="M446 -33q-153 0 -248.5 79.5t-95.5 225.5q0 173 171.5 270.5t519.5 110.5v21q0 119 -57.5 188.5t-170.5 69.5q-99 0 -163 -52t-99 -167q-66 25 -162 43q104 307 434 307q186 0 291 -106.5t109 -315.5q4 -157 4.5 -325.5t-1.5 -258.5l-1 -90q-54 -2 -154 -4q4 99 6 246
q-52 -111 -149 -176.5t-234 -65.5zM801 469v66q-273 -15 -394.5 -78t-121.5 -174q0 -82 53.5 -129t150.5 -48q135 -2 223.5 93t88.5 270zM578 1139q-96 114 -295 323q41 29 127 92q94 -131 266 -344q-24 -16 -98 -71z" />
    <glyph glyph-name="aacute" unicode="&#xe1;" horiz-adv-x="1114" 
d="M446 -33q-153 0 -248.5 79.5t-95.5 225.5q0 173 171.5 270.5t519.5 110.5v21q0 119 -57.5 188.5t-170.5 69.5q-99 0 -163 -52t-99 -167q-66 25 -162 43q104 307 434 307q186 0 291 -106.5t109 -315.5q4 -157 4.5 -325.5t-1.5 -258.5l-1 -90q-54 -2 -154 -4q4 99 6 246
q-52 -111 -149 -176.5t-234 -65.5zM801 469v66q-273 -15 -394.5 -78t-121.5 -174q0 -82 53.5 -129t150.5 -48q135 -2 223.5 93t88.5 270zM543 1145l-97 72q77 96 144 182.5t95 124.5l28 39l127 -90q-88 -93 -162.5 -175t-104.5 -118z" />
    <glyph glyph-name="acircumflex" unicode="&#xe2;" horiz-adv-x="1114" 
d="M446 -33q-153 0 -248.5 79.5t-95.5 225.5q0 173 171.5 270.5t519.5 110.5v21q0 119 -57.5 188.5t-170.5 69.5q-99 0 -163 -52t-99 -167q-66 25 -162 43q104 307 434 307q186 0 291 -106.5t109 -315.5q4 -157 4.5 -325.5t-1.5 -258.5l-1 -90q-54 -2 -154 -4q4 99 6 246
q-52 -111 -149 -176.5t-234 -65.5zM801 469v66q-273 -15 -394.5 -78t-121.5 -174q0 -82 53.5 -129t150.5 -48q135 -2 223.5 93t88.5 270zM338 1130q-33 31 -92 76q106 117 241 281q50 -2 146 0q90 -109 244 -273q-30 -20 -91 -77q-98 112 -227 243q-80 -76 -221 -250z" />
    <glyph glyph-name="atilde" unicode="&#xe3;" horiz-adv-x="1114" 
d="M446 -33q-153 0 -248.5 79.5t-95.5 225.5q0 173 171.5 270.5t519.5 110.5v21q0 119 -57.5 188.5t-170.5 69.5q-99 0 -163 -52t-99 -167q-66 25 -162 43q104 307 434 307q186 0 291 -106.5t109 -315.5q4 -157 4.5 -325.5t-1.5 -258.5l-1 -90q-54 -2 -154 -4q4 99 6 246
q-52 -111 -149 -176.5t-234 -65.5zM801 469v66q-273 -15 -394.5 -78t-121.5 -174q0 -82 53.5 -129t150.5 -48q135 -2 223.5 93t88.5 270zM324 1186q-41 12 -111 20q5 120 61 188t152 68q36 0 70 -17.5t60 -43t49.5 -51t48.5 -43t48 -17.5q39 0 61 33t34 117q36 -11 112 -23
q-13 -138 -64 -193t-140 -55q-38 0 -74 17.5t-63.5 43t-52 51t-50 43t-47.5 17.5q-79 0 -94 -155z" />
    <glyph glyph-name="adieresis" unicode="&#xe4;" horiz-adv-x="1114" 
d="M446 -33q-153 0 -248.5 79.5t-95.5 225.5q0 173 171.5 270.5t519.5 110.5v21q0 119 -57.5 188.5t-170.5 69.5q-99 0 -163 -52t-99 -167q-66 25 -162 43q104 307 434 307q186 0 291 -106.5t109 -315.5q4 -157 4.5 -325.5t-1.5 -258.5l-1 -90q-54 -2 -154 -4q4 99 6 246
q-52 -111 -149 -176.5t-234 -65.5zM801 469v66q-273 -15 -394.5 -78t-121.5 -174q0 -82 53.5 -129t150.5 -48q135 -2 223.5 93t88.5 270zM379 1192q-50 0 -82.5 33t-32.5 86q0 51 34 80.5t83 29.5q55 0 86 -34t31 -80q0 -54 -32.5 -84.5t-86.5 -30.5zM750 1194
q-49 0 -81 32.5t-32 86.5q0 46 32.5 77t82.5 31q46 0 77 -30t31 -82t-30 -83.5t-80 -31.5z" />
    <glyph glyph-name="aring" unicode="&#xe5;" horiz-adv-x="1114" 
d="M446 -33q-153 0 -248.5 79.5t-95.5 225.5q0 173 171.5 270.5t519.5 110.5v21q0 119 -57.5 188.5t-170.5 69.5q-99 0 -163 -52t-99 -167q-66 25 -162 43q104 307 434 307q186 0 291 -106.5t109 -315.5q4 -157 4.5 -325.5t-1.5 -258.5l-1 -90q-54 -2 -154 -4q4 99 6 246
q-52 -111 -149 -176.5t-234 -65.5zM801 469v66q-273 -15 -394.5 -78t-121.5 -174q0 -82 53.5 -129t150.5 -48q135 -2 223.5 93t88.5 270zM557 1139q-105 0 -169 62.5t-64 154.5t64.5 153.5t168.5 61.5q117 0 179.5 -63t62.5 -152q0 -97 -68 -157t-174 -60zM561 1225
q62 0 98.5 34t36.5 97q0 60 -34 96.5t-99 36.5t-100 -36.5t-35 -94.5q0 -57 35 -95t98 -38z" />
    <glyph glyph-name="ae" unicode="&#xe6;" horiz-adv-x="1802" 
d="M1270 -45q-149 0 -250 72.5t-143 203.5q-49 -128 -157 -197t-251 -69q-176 0 -271.5 81t-95.5 218q0 157 178 249t515 95v33q0 128 -57.5 205.5t-180.5 77.5q-98 0 -155 -54.5t-91 -156.5q-53 22 -159 49q42 138 153 219.5t248 81.5q136 0 227.5 -59t132.5 -164
q54 100 148 159.5t221 59.5q149 0 247.5 -76.5t137 -201.5t23.5 -285q-171 1 -715 -13q7 -183 86 -286t207 -103q200 0 272 221q31 -14 156 -51q-24 -79 -70 -140t-104.5 -97t-122 -54t-129.5 -18zM498 102q129 0 216 94.5t87 258.5v28q-151 -4 -254 -21.5t-159 -47.5
t-79.5 -67.5t-23.5 -88.5q0 -67 54.5 -111.5t158.5 -44.5zM1276 926q-124 0 -200 -86.5t-95 -231.5q137 0 545 15q-2 131 -68.5 217t-181.5 86z" />
    <glyph glyph-name="ccedilla" unicode="&#xe7;" horiz-adv-x="1132" 
d="M1030 330q-38 -179 -134 -270t-257 -103l-6 -94q106 0 160.5 -44t54.5 -104q0 -81 -74 -128.5t-196 -47.5q-50 0 -108.5 16t-102.5 42q19 39 39 96q86 -51 172 -51q53 0 87.5 19t34.5 52q0 83 -196 60q15 67 33 184q-208 20 -316.5 171.5t-105.5 381.5q0 238 128 393.5
t345 155.5q182 0 288.5 -94.5t143.5 -266.5q-48 -4 -93 -11t-66 -12l-21 -5q-26 115 -84.5 180t-169.5 65q-141 0 -216 -112t-75 -297q0 -188 75 -297t218 -109q106 0 170 60t100 200q49 -14 172 -30z" />
    <glyph glyph-name="egrave" unicode="&#xe8;" horiz-adv-x="1138" 
d="M584 -43q-118 0 -209.5 43.5t-147.5 120t-84.5 175.5t-27.5 216q0 152 55.5 274.5t168 197.5t265.5 75q114 -1 202 -50t137.5 -129.5t67.5 -181.5t1 -209q-214 -2 -713 -18q8 -174 83 -274.5t208 -100.5q207 0 278 226q35 -14 164 -43q-54 -153 -167 -237.5t-281 -84.5z
M596 924q-121 0 -196.5 -85t-94.5 -233q5 0 541 23q-3 126 -68 210.5t-182 84.5zM590 1139q-96 114 -295 323q41 29 127 92q94 -131 266 -344q-24 -16 -98 -71z" />
    <glyph glyph-name="eacute" unicode="&#xe9;" horiz-adv-x="1138" 
d="M584 -43q-118 0 -209.5 43.5t-147.5 120t-84.5 175.5t-27.5 216q0 152 55.5 274.5t168 197.5t265.5 75q114 -1 202 -50t137.5 -129.5t67.5 -181.5t1 -209q-214 -2 -713 -18q8 -174 83 -274.5t208 -100.5q207 0 278 226q35 -14 164 -43q-54 -153 -167 -237.5t-281 -84.5z
M596 924q-121 0 -196.5 -85t-94.5 -233q5 0 541 23q-3 126 -68 210.5t-182 84.5zM555 1145l-96 72q77 96 143.5 182.5t94.5 124.5l28 39l127 -90q-88 -93 -162.5 -175t-104.5 -118z" />
    <glyph glyph-name="ecircumflex" unicode="&#xea;" horiz-adv-x="1138" 
d="M584 -43q-118 0 -209.5 43.5t-147.5 120t-84.5 175.5t-27.5 216q0 152 55.5 274.5t168 197.5t265.5 75q114 -1 202 -50t137.5 -129.5t67.5 -181.5t1 -209q-214 -2 -713 -18q8 -174 83 -274.5t208 -100.5q207 0 278 226q35 -14 164 -43q-54 -153 -167 -237.5t-281 -84.5z
M596 924q-121 0 -196.5 -85t-94.5 -233q5 0 541 23q-3 126 -68 210.5t-182 84.5zM350 1130q-33 31 -92 76q107 117 242 281q49 -2 145 0q90 -109 244 -273q-29 -20 -90 -77q-99 112 -228 243q-80 -76 -221 -250z" />
    <glyph glyph-name="edieresis" unicode="&#xeb;" horiz-adv-x="1138" 
d="M584 -43q-118 0 -209.5 43.5t-147.5 120t-84.5 175.5t-27.5 216q0 152 55.5 274.5t168 197.5t265.5 75q114 -1 202 -50t137.5 -129.5t67.5 -181.5t1 -209q-214 -2 -713 -18q8 -174 83 -274.5t208 -100.5q207 0 278 226q35 -14 164 -43q-54 -153 -167 -237.5t-281 -84.5z
M596 924q-121 0 -196.5 -85t-94.5 -233q5 0 541 23q-3 126 -68 210.5t-182 84.5zM391 1192q-50 0 -82.5 33t-32.5 86q0 51 34 80.5t83 29.5q55 0 86 -34t31 -80q0 -54 -32.5 -84.5t-86.5 -30.5zM762 1194q-49 0 -81 32.5t-32 86.5q0 46 32.5 77t82.5 31q46 0 77 -30t31 -82
t-30 -83.5t-80 -31.5z" />
    <glyph glyph-name="igrave" unicode="&#xec;" horiz-adv-x="534" 
d="M184 4q4 271 -4 1022q72 0 176 2q1 -396 9 -1022q-77 0 -181 -2zM289 1139q-96 114 -295 323q41 29 127 92q94 -131 266 -344q-24 -16 -98 -71z" />
    <glyph glyph-name="iacute" unicode="&#xed;" horiz-adv-x="534" 
d="M184 4q4 271 -4 1022q72 0 176 2q1 -396 9 -1022q-77 0 -181 -2zM254 1145l-96 72q77 96 143.5 182.5t94.5 124.5l28 39l127 -90q-88 -93 -162.5 -175t-104.5 -118z" />
    <glyph glyph-name="icircumflex" unicode="&#xee;" horiz-adv-x="534" 
d="M184 4q4 271 -4 1022q72 0 176 2q1 -396 9 -1022q-77 0 -181 -2zM49 1130q-33 31 -92 76q107 117 242 281q49 -2 145 0q90 -109 244 -273q-29 -20 -90 -77q-99 112 -228 243q-80 -76 -221 -250z" />
    <glyph glyph-name="idieresis" unicode="&#xef;" horiz-adv-x="534" 
d="M184 4q4 271 -4 1022q72 0 176 2q1 -396 9 -1022q-77 0 -181 -2zM90 1192q-50 0 -82.5 33t-32.5 86q0 51 34 80.5t83 29.5q55 0 86 -34t31 -80q0 -54 -32.5 -84.5t-86.5 -30.5zM461 1194q-49 0 -81 32.5t-32 86.5q0 46 32.5 77t82.5 31q46 0 77 -30t31 -82t-30 -83.5
t-80 -31.5z" />
    <glyph glyph-name="eth" unicode="&#xf0;" horiz-adv-x="1187" 
d="M592 -43q-221 0 -350 155.5t-129 409.5q0 142 52.5 263.5t153.5 196.5t230 75q108 0 207 -77t145 -194q-30 246 -158 390l-73 -72q-27 29 -80 76q33 32 74 77q-39 33 -134 97q37 44 84 112q86 -50 146 -102q14 15 29 32t32.5 37.5t28.5 32.5q26 -29 94 -92l-96 -96
q227 -263 227 -707q0 -154 -39.5 -274t-107.5 -193t-153 -110t-183 -37zM598 94q128 0 211.5 109.5t83.5 316.5q0 95 -38 186.5t-111.5 153.5t-163.5 62q-117 0 -201 -113t-84 -297q0 -180 84.5 -299t218.5 -119z" />
    <glyph glyph-name="ntilde" unicode="&#xf1;" horiz-adv-x="1142" 
d="M829 -45l2 663q0 136 -43 207.5t-151 71.5q-87 0 -159.5 -60t-112.5 -158t-41 -210q-2 -64 -2 -171t1 -182l1 -75q-97 2 -181 0q1 42 1.5 118t1.5 330t-1 506q80 -2 152 2q-1 -14 -2 -39t-2 -93t0 -124q52 147 161 229.5t240 80.5q83 0 144 -29t96 -81.5t52.5 -117.5
t19.5 -147l4 -719zM358 1186q-40 12 -110 20q5 120 61 188t152 68q36 0 70 -17.5t60 -43t49.5 -51t48.5 -43t48 -17.5q38 0 60 32.5t34 117.5q37 -11 113 -23q-13 -138 -64.5 -193t-140.5 -55q-38 0 -74 17.5t-63 43t-51.5 51t-50 43t-47.5 17.5q-80 0 -95 -155z" />
    <glyph glyph-name="ograve" unicode="&#xf2;" horiz-adv-x="1187" 
d="M592 -41q-226 0 -352.5 148.5t-126.5 408.5q0 245 132 394t349 149q220 0 350.5 -148t130.5 -397q0 -265 -133 -410t-350 -145zM594 96q134 0 215 108t82 310q0 182 -76 295t-219 113q-131 0 -215 -110t-84 -292q0 -210 80 -317t217 -107zM610 1139q-96 114 -295 323
q41 29 127 92q95 -131 267 -344q-25 -16 -99 -71z" />
    <glyph glyph-name="oacute" unicode="&#xf3;" horiz-adv-x="1187" 
d="M592 -41q-226 0 -352.5 148.5t-126.5 408.5q0 245 132 394t349 149q220 0 350.5 -148t130.5 -397q0 -265 -133 -410t-350 -145zM594 96q134 0 215 108t82 310q0 182 -76 295t-219 113q-131 0 -215 -110t-84 -292q0 -210 80 -317t217 -107zM575 1145l-96 72
q77 96 143.5 182.5t94.5 124.5l28 39l127 -90q-88 -93 -162.5 -175t-104.5 -118z" />
    <glyph glyph-name="ocircumflex" unicode="&#xf4;" horiz-adv-x="1187" 
d="M592 -41q-226 0 -352.5 148.5t-126.5 408.5q0 245 132 394t349 149q220 0 350.5 -148t130.5 -397q0 -265 -133 -410t-350 -145zM594 96q134 0 215 108t82 310q0 182 -76 295t-219 113q-131 0 -215 -110t-84 -292q0 -210 80 -317t217 -107zM371 1130q-33 31 -92 76
q106 117 241 281q50 -2 146 0q89 -109 243 -273q-29 -20 -90 -77q-98 112 -227 243q-80 -76 -221 -250z" />
    <glyph glyph-name="otilde" unicode="&#xf5;" horiz-adv-x="1187" 
d="M592 -41q-226 0 -352.5 148.5t-126.5 408.5q0 245 132 394t349 149q220 0 350.5 -148t130.5 -397q0 -265 -133 -410t-350 -145zM594 96q134 0 215 108t82 310q0 182 -76 295t-219 113q-131 0 -215 -110t-84 -292q0 -210 80 -317t217 -107zM356 1186q-40 12 -110 20
q5 120 61 188t152 68q36 0 70 -17.5t60 -43t49.5 -51t48.5 -43t48 -17.5q38 0 60 32.5t34 117.5q37 -11 113 -23q-13 -138 -64.5 -193t-140.5 -55q-38 0 -74 17.5t-63 43t-51.5 51t-50 43t-47.5 17.5q-80 0 -95 -155z" />
    <glyph glyph-name="odieresis" unicode="&#xf6;" horiz-adv-x="1187" 
d="M592 -41q-226 0 -352.5 148.5t-126.5 408.5q0 245 132 394t349 149q220 0 350.5 -148t130.5 -397q0 -265 -133 -410t-350 -145zM594 96q134 0 215 108t82 310q0 182 -76 295t-219 113q-131 0 -215 -110t-84 -292q0 -210 80 -317t217 -107zM412 1192q-50 0 -82.5 33
t-32.5 86q0 51 34 80.5t83 29.5q55 0 85.5 -34t30.5 -80q0 -54 -32 -84.5t-86 -30.5zM782 1194q-48 0 -80 32.5t-32 86.5q0 46 32 77t82 31q46 0 77.5 -30t31.5 -82q0 -51 -30 -83t-81 -32z" />
    <glyph glyph-name="divide" unicode="&#xf7;" horiz-adv-x="1058" 
d="M104 750q136 -2 294.5 -2.5t265.5 0t198.5 1.5t93.5 1v-154q-101 2 -222 3t-226.5 1t-191 -0.5t-148 -1t-66.5 -0.5zM526 1180q51 0 84 -36.5t33 -94.5q0 -59 -32.5 -95t-86.5 -36q-56 0 -86 34.5t-30 96.5q0 63 31.5 97t86.5 34zM528 430q54 0 85.5 -36.5t31.5 -100.5
q0 -56 -33 -89.5t-86 -33.5q-56 0 -86 33.5t-30 89.5q0 68 31.5 102.5t86.5 34.5z" />
    <glyph glyph-name="oslash" unicode="&#xf8;" horiz-adv-x="1187" 
d="M594 -33q-113 0 -203 35q-10 -19 -21 -41.5t-24.5 -51t-21.5 -44.5q-43 24 -117 61q29 52 76 142q-172 141 -172 448q0 114 30 212t88.5 174.5t154 120.5t216.5 44q86 0 174 -31q13 24 35 69.5t31 63.5q37 -16 125 -57q-29 -51 -76 -141q91 -72 139.5 -189t48.5 -262
q0 -254 -128 -403.5t-355 -149.5zM596 102q136 0 215.5 109.5t79.5 310.5q0 189 -82 299q-224 -427 -352 -686q56 -33 139 -33zM295 516q0 -184 70 -293q126 241 346 684q-55 25 -115 25q-140 0 -220.5 -118t-80.5 -298z" />
    <glyph glyph-name="ugrave" unicode="&#xf9;" horiz-adv-x="1136" 
d="M492 -6q-166 0 -260.5 110.5t-94.5 315.5l-4 579q59 -4 182 -4q-4 -220 -4 -553q0 -158 51.5 -229.5t172.5 -71.5q113 0 194.5 119t85.5 318q3 120 2.5 229.5t-2.5 186.5l-2 77q49 -2 180 -2q-6 -449 0 -1089q-73 0 -159 2q4 112 6 274q-49 -126 -140 -194t-208 -68z
M580 1139q-96 114 -295 323q41 29 127 92q94 -131 266 -344q-24 -16 -98 -71z" />
    <glyph glyph-name="uacute" unicode="&#xfa;" horiz-adv-x="1136" 
d="M492 -6q-166 0 -260.5 110.5t-94.5 315.5l-4 579q59 -4 182 -4q-4 -220 -4 -553q0 -158 51.5 -229.5t172.5 -71.5q113 0 194.5 119t85.5 318q3 120 2.5 229.5t-2.5 186.5l-2 77q49 -2 180 -2q-6 -449 0 -1089q-73 0 -159 2q4 112 6 274q-49 -126 -140 -194t-208 -68z
M545 1145l-96 72q77 96 143.5 182.5t94.5 124.5l28 39l127 -90q-88 -93 -162.5 -175t-104.5 -118z" />
    <glyph glyph-name="ucircumflex" unicode="&#xfb;" horiz-adv-x="1136" 
d="M492 -6q-166 0 -260.5 110.5t-94.5 315.5l-4 579q59 -4 182 -4q-4 -220 -4 -553q0 -158 51.5 -229.5t172.5 -71.5q113 0 194.5 119t85.5 318q3 120 2.5 229.5t-2.5 186.5l-2 77q49 -2 180 -2q-6 -449 0 -1089q-73 0 -159 2q4 112 6 274q-49 -126 -140 -194t-208 -68z
M340 1130q-33 31 -92 76q106 117 241 281q50 -2 146 0q90 -109 244 -273q-30 -20 -91 -77q-98 112 -227 243q-80 -76 -221 -250z" />
    <glyph glyph-name="udieresis" unicode="&#xfc;" horiz-adv-x="1136" 
d="M492 -6q-166 0 -260.5 110.5t-94.5 315.5l-4 579q59 -4 182 -4q-4 -220 -4 -553q0 -158 51.5 -229.5t172.5 -71.5q113 0 194.5 119t85.5 318q3 120 2.5 229.5t-2.5 186.5l-2 77q49 -2 180 -2q-6 -449 0 -1089q-73 0 -159 2q4 112 6 274q-49 -126 -140 -194t-208 -68z
M381 1192q-50 0 -82.5 33t-32.5 86q0 51 34 80.5t83 29.5q55 0 86 -34t31 -80q0 -54 -32.5 -84.5t-86.5 -30.5zM752 1194q-49 0 -81 32.5t-32 86.5q0 46 32.5 77t82.5 31q46 0 77 -30t31 -82t-30 -83.5t-80 -31.5z" />
    <glyph glyph-name="yacute" unicode="&#xfd;" horiz-adv-x="1009" 
d="M979 1059l-512 -1542l-172 37q99 280 131 391q-109 299 -208 560.5t-143 373.5l-44 112l194 10q102 -310 293 -864q84 267 154.5 500.5t99.5 333.5l29 100zM485 1145l-96 72q77 96 143.5 182.5t94.5 124.5l28 39l127 -90q-88 -93 -162.5 -175t-104.5 -118z" />
    <glyph glyph-name="thorn" unicode="&#xfe;" horiz-adv-x="1210" 
d="M145 -438q2 442 1.5 849.5t-2.5 695.5l-1 288l185 2q-9 -298 -9 -574q53 115 148 178.5t205 63.5q203 0 318.5 -155t115.5 -396q1 -261 -122.5 -406t-328.5 -145q-97 0 -187.5 50t-148.5 141q3 -170 7 -317.5t7 -210.5l3 -62zM633 88q127 0 208 109.5t81 312.5
q0 117 -31.5 211t-99.5 153.5t-162 59.5q-80 0 -150.5 -60t-111.5 -158t-41 -206q0 -177 87.5 -299.5t219.5 -122.5z" />
    <glyph glyph-name="ydieresis" unicode="&#xff;" horiz-adv-x="1009" 
d="M979 1059l-512 -1542l-172 37q99 280 131 391q-109 299 -208 560.5t-143 373.5l-44 112l194 10q102 -310 293 -864q84 267 154.5 500.5t99.5 333.5l29 100zM322 1192q-50 0 -82.5 33t-32.5 86q0 51 34 80.5t83 29.5q55 0 85.5 -34t30.5 -80q0 -54 -32 -84.5t-86 -30.5z
M692 1194q-48 0 -80 32.5t-32 86.5q0 46 32 77t82 31q46 0 77.5 -30t31.5 -82q0 -51 -30 -83t-81 -32z" />
    <glyph glyph-name="Amacron" unicode="&#x100;" horiz-adv-x="1280" 
d="M55 45q175 539 434 1393l271 4q227 -738 465 -1485q-99 0 -193 -4q-42 143 -112 379q-234 6 -594 6q-3 -9 -82 -297q-93 4 -189 4zM616 1335q-136 -460 -249 -854q168 -2 510 -2q-46 156 -261 856zM358 1649q2 45 -2 127q163 -2 568 4l-2 -129q-207 4 -564 -2z" />
    <glyph glyph-name="amacron" unicode="&#x101;" horiz-adv-x="1114" 
d="M446 -33q-153 0 -248.5 79.5t-95.5 225.5q0 173 171.5 270.5t519.5 110.5v21q0 119 -57.5 188.5t-170.5 69.5q-99 0 -163 -52t-99 -167q-66 25 -162 43q104 307 434 307q186 0 291 -106.5t109 -315.5q4 -157 4.5 -325.5t-1.5 -258.5l-1 -90q-54 -2 -154 -4q4 99 6 246
q-52 -111 -149 -176.5t-234 -65.5zM801 469v66q-273 -15 -394.5 -78t-121.5 -174q0 -82 53.5 -129t150.5 -48q135 -2 223.5 93t88.5 270zM281 1249q2 45 -2 127q162 -2 567 4l-2 -129q-206 4 -563 -2z" />
    <glyph glyph-name="Abreve" unicode="&#x102;" horiz-adv-x="1280" 
d="M55 45q175 539 434 1393l271 4q227 -738 465 -1485q-99 0 -193 -4q-42 143 -112 379q-234 6 -594 6q-3 -9 -82 -297q-93 4 -189 4zM616 1335q-136 -460 -249 -854q168 -2 510 -2q-46 156 -261 856zM643 1567q-148 0 -227.5 71.5t-79.5 204.5q55 -2 131 4q0 -86 46.5 -130
t131.5 -44q78 0 121.5 48t42.5 149q47 -2 131 2q4 -145 -74 -225t-223 -80z" />
    <glyph glyph-name="abreve" unicode="&#x103;" horiz-adv-x="1114" 
d="M446 -33q-153 0 -248.5 79.5t-95.5 225.5q0 173 171.5 270.5t519.5 110.5v21q0 119 -57.5 188.5t-170.5 69.5q-99 0 -163 -52t-99 -167q-66 25 -162 43q104 307 434 307q186 0 291 -106.5t109 -315.5q4 -157 4.5 -325.5t-1.5 -258.5l-1 -90q-54 -2 -154 -4q4 99 6 246
q-52 -111 -149 -176.5t-234 -65.5zM801 469v66q-273 -15 -394.5 -78t-121.5 -174q0 -82 53.5 -129t150.5 -48q135 -2 223.5 93t88.5 270zM567 1167q-148 0 -227.5 72t-79.5 205q55 -2 131 4q0 -86 46.5 -130t131.5 -44q79 0 122 48t42 148q47 -1 131 3q4 -145 -74 -225.5
t-223 -80.5z" />
    <glyph glyph-name="Aogonek" unicode="&#x104;" horiz-adv-x="1280" 
d="M1163 -440q-37 -6 -73 -6q-113 0 -182.5 46t-69.5 128q-2 64 47.5 132t140.5 109l-106 363q-234 6 -594 6q-3 -9 -82 -297q-93 4 -189 4q175 539 434 1393l271 4q227 -738 465 -1485h-101q-74 -41 -112.5 -96t-38.5 -101q0 -49 52 -71.5t142 -16.5q-4 -40 -4 -112z
M616 1335q-136 -460 -249 -854q168 -2 510 -2q-46 156 -261 856z" />
    <glyph glyph-name="aogonek" unicode="&#x105;" horiz-adv-x="1114" 
d="M942 -428q-37 -6 -74 -6q-113 0 -182.5 46t-69.5 128q-2 68 53 139.5t154 110.5l6 219q-52 -111 -149 -176.5t-234 -65.5q-153 0 -248.5 79.5t-95.5 225.5q0 173 171.5 270.5t519.5 110.5v21q0 119 -57.5 188.5t-170.5 69.5q-99 0 -163 -52t-99 -167q-66 25 -162 43
q104 307 434 307q186 0 291 -106.5t109 -315.5q4 -157 4.5 -325.5t-1.5 -258.5l-1 -90q-31 -2 -82 -2q-70 -42 -106.5 -94.5t-36.5 -97.5q0 -49 52 -71.5t142 -16.5q-4 -41 -4 -113zM801 469v66q-273 -15 -394.5 -78t-121.5 -174q0 -82 53.5 -129t150.5 -48q135 -2 223.5 93
t88.5 270z" />
    <glyph glyph-name="Cacute" unicode="&#x106;" horiz-adv-x="1353" 
d="M715 -41q-151 0 -265.5 55t-186 156t-107 237.5t-35.5 305.5q0 349 155.5 550t442.5 201q221 0 345 -128t159 -359q-57 -8 -105 -16.5t-67 -13.5l-19 -5q-27 179 -103 271t-214 92q-100 0 -177.5 -45.5t-125.5 -126t-72.5 -185t-24.5 -229.5q0 -102 14.5 -191t46 -164.5
t78 -129t113 -83.5t148.5 -30q156 0 244.5 99.5t109.5 314.5l195 -27q-30 -274 -169.5 -411.5t-379.5 -137.5zM674 1544l-96 72q77 96 143.5 182.5t94.5 125.5l28 38l127 -90q-88 -93 -162.5 -175t-104.5 -117z" />
    <glyph glyph-name="cacute" unicode="&#x107;" horiz-adv-x="1132" 
d="M590 -45q-95 0 -173.5 28t-134.5 78t-94 119.5t-56 152.5t-17 177q0 238 128 393.5t345 155.5q182 0 288.5 -94.5t143.5 -266.5q-48 -4 -93 -11t-66 -12l-21 -5q-26 115 -84.5 180t-169.5 65q-141 0 -216 -112t-75 -297q0 -188 75 -297t218 -109q106 0 170 60t100 200
q49 -14 172 -30q-41 -192 -149 -283.5t-291 -91.5zM555 1145l-96 72q77 96 143.5 182.5t94.5 124.5l28 39l127 -90q-88 -93 -162.5 -175t-104.5 -118z" />
    <glyph glyph-name="Ccircumflex" unicode="&#x108;" horiz-adv-x="1353" 
d="M715 -41q-151 0 -265.5 55t-186 156t-107 237.5t-35.5 305.5q0 349 155.5 550t442.5 201q221 0 345 -128t159 -359q-57 -8 -105 -16.5t-67 -13.5l-19 -5q-27 179 -103 271t-214 92q-100 0 -177.5 -45.5t-125.5 -126t-72.5 -185t-24.5 -229.5q0 -102 14.5 -191t46 -164.5
t78 -129t113 -83.5t148.5 -30q156 0 244.5 99.5t109.5 314.5l195 -27q-30 -274 -169.5 -411.5t-379.5 -137.5zM469 1530q-33 31 -92 76q106 116 241 280q50 -2 146 0q90 -108 244 -272q-29 -21 -90 -78q-99 113 -228 244q-80 -76 -221 -250z" />
    <glyph glyph-name="ccircumflex" unicode="&#x109;" horiz-adv-x="1132" 
d="M590 -45q-95 0 -173.5 28t-134.5 78t-94 119.5t-56 152.5t-17 177q0 238 128 393.5t345 155.5q182 0 288.5 -94.5t143.5 -266.5q-48 -4 -93 -11t-66 -12l-21 -5q-26 115 -84.5 180t-169.5 65q-141 0 -216 -112t-75 -297q0 -188 75 -297t218 -109q106 0 170 60t100 200
q49 -14 172 -30q-41 -192 -149 -283.5t-291 -91.5zM350 1130q-33 31 -92 76q107 117 242 281q49 -2 145 0q90 -109 244 -273q-29 -20 -90 -77q-99 112 -228 243q-80 -76 -221 -250z" />
    <glyph glyph-name="Ccaron" unicode="&#x10c;" horiz-adv-x="1353" 
d="M715 -41q-151 0 -265.5 55t-186 156t-107 237.5t-35.5 305.5q0 349 155.5 550t442.5 201q221 0 345 -128t159 -359q-57 -8 -105 -16.5t-67 -13.5l-19 -5q-27 179 -103 271t-214 92q-100 0 -177.5 -45.5t-125.5 -126t-72.5 -185t-24.5 -229.5q0 -102 14.5 -191t46 -164.5
t78 -129t113 -83.5t148.5 -30q156 0 244.5 99.5t109.5 314.5l195 -27q-30 -274 -169.5 -411.5t-379.5 -137.5zM915 1886q34 -31 93 -76q-111 -116 -246 -280q-41 2 -137 0q-94 108 -248 272q29 21 90 78q98 -113 227 -244q74 74 221 250z" />
    <glyph glyph-name="ccaron" unicode="&#x10d;" horiz-adv-x="1132" 
d="M590 -45q-95 0 -173.5 28t-134.5 78t-94 119.5t-56 152.5t-17 177q0 238 128 393.5t345 155.5q182 0 288.5 -94.5t143.5 -266.5q-48 -4 -93 -11t-66 -12l-21 -5q-26 115 -84.5 180t-169.5 65q-141 0 -216 -112t-75 -297q0 -188 75 -297t218 -109q106 0 170 60t100 200
q49 -14 172 -30q-41 -192 -149 -283.5t-291 -91.5zM797 1487q33 -31 92 -76q-111 -117 -246 -281q-41 2 -137 0q-94 109 -248 273q29 21 90 78q98 -113 227 -244q75 74 222 250z" />
    <glyph glyph-name="Dcaron" unicode="&#x10e;" horiz-adv-x="1351" 
d="M350 150q46 -3 88 -3q148 0 256.5 30.5t187 97.5t117.5 178t39 268q0 258 -146.5 406.5t-428.5 148.5q-57 0 -125 -6q1 -265 4 -545t6 -427zM160 4q3 401 2.5 714t-2.5 503l-2 190q160 23 303 23q194 0 342.5 -52.5t241.5 -148t139.5 -225t46.5 -289.5
q0 -359 -203.5 -545t-615.5 -186q-108 0 -252 16zM827 1886q34 -31 93 -76q-111 -116 -246 -280q-41 2 -137 0q-94 108 -248 272q29 21 90 78q98 -113 227 -244q74 74 221 250z" />
    <glyph glyph-name="dcaron" unicode="&#x10f;" horiz-adv-x="1212" 
d="M1069 -37q-92 2 -166 2q4 98 8 248q-47 -123 -151 -186.5t-228 -63.5q-187 0 -303 147t-116 388q0 250 120 405.5t312 155.5q119 0 209 -61t139 -158q-7 437 -10 565q43 -2 186 2q-6 -647 0 -1444zM582 94q133 0 221 111.5t88 290.5q-5 123 -39.5 217t-106.5 152.5
t-174 58.5q-125 0 -199.5 -120t-74.5 -296q0 -189 72.5 -301.5t212.5 -112.5zM1434 1282q0 -71 -50 -151t-133 -144q-52 55 -59 57q63 54 113 136q-48 9 -74.5 40t-26.5 72q0 46 29 80.5t86 34.5q53 0 84 -35t31 -90z" />
    <glyph glyph-name="Dcroat" unicode="&#x110;" horiz-adv-x="1435" 
d="M41 625l2 157q66 -4 203 -8l-4 637q160 23 303 23q194 0 342.5 -52.5t241.5 -148t139.5 -225t46.5 -289.5q0 -359 -203.5 -545t-615.5 -186q-108 0 -252 16q2 233 2 621h-205zM434 150q53 -3 98 -3q293 0 441.5 134t148.5 440q0 261 -148 408t-442 147q-52 0 -110 -6
q0 -346 2 -498q80 -2 281 -2q-2 -53 2 -147q-111 2 -281 2z" />
    <glyph glyph-name="dcroat" unicode="&#x111;" horiz-adv-x="1212" 
d="M1069 -37q-92 2 -166 2q4 98 8 248q-47 -123 -151 -186.5t-228 -63.5q-187 0 -303 147t-116 388q0 250 120 405.5t312 155.5q119 0 209 -61t139 -158q0 56 -4 282h-160l-2 125h160q-4 98 -4 158q43 -2 186 2q0 -66 -2 -160l199 4l-2 -131q-66 2 -197 2q-4 -480 2 -1159z
M582 94q133 0 221 111.5t88 290.5q-5 123 -39.5 217t-106.5 152.5t-174 58.5q-125 0 -199.5 -120t-74.5 -296q0 -189 72.5 -301.5t212.5 -112.5z" />
    <glyph glyph-name="Emacron" unicode="&#x112;" horiz-adv-x="1148" 
d="M174 8q-2 588 -16 1413q388 5 872 15q0 -54 2 -154q-322 -2 -690 -10q0 -200 4 -533q458 0 606 2q0 -63 2 -161q-36 1 -93 1.5t-227.5 1.5t-285.5 -1q5 -295 8 -426l697 -9q0 -57 -2 -153q-475 12 -877 14zM334 1649q2 45 -2 127q162 -2 567 4l-2 -129q-206 4 -563 -2z
" />
    <glyph glyph-name="emacron" unicode="&#x113;" horiz-adv-x="1138" 
d="M584 -43q-118 0 -209.5 43.5t-147.5 120t-84.5 175.5t-27.5 216q0 152 55.5 274.5t168 197.5t265.5 75q114 -1 202 -50t137.5 -129.5t67.5 -181.5t1 -209q-214 -2 -713 -18q8 -174 83 -274.5t208 -100.5q207 0 278 226q35 -14 164 -43q-54 -153 -167 -237.5t-281 -84.5z
M596 924q-121 0 -196.5 -85t-94.5 -233q5 0 541 23q-3 126 -68 210.5t-182 84.5zM293 1249q2 45 -2 127q162 -2 567 4l-2 -129q-206 4 -563 -2z" />
    <glyph glyph-name="Edotaccent" unicode="&#x116;" horiz-adv-x="1148" 
d="M174 8q-2 588 -16 1413q388 5 872 15q0 -54 2 -154q-322 -2 -690 -10q0 -200 4 -533q458 0 606 2q0 -63 2 -161q-36 1 -93 1.5t-227.5 1.5t-285.5 -1q5 -295 8 -426l697 -9q0 -57 -2 -153q-475 12 -877 14zM614 1581q-70 0 -108.5 42.5t-38.5 105.5q0 58 39 96.5
t108 38.5q70 0 109 -42t39 -98q0 -68 -40 -105.5t-108 -37.5z" />
    <glyph glyph-name="edotaccent" unicode="&#x117;" horiz-adv-x="1138" 
d="M584 -43q-118 0 -209.5 43.5t-147.5 120t-84.5 175.5t-27.5 216q0 152 55.5 274.5t168 197.5t265.5 75q114 -1 202 -50t137.5 -129.5t67.5 -181.5t1 -209q-214 -2 -713 -18q8 -174 83 -274.5t208 -100.5q207 0 278 226q35 -14 164 -43q-54 -153 -167 -237.5t-281 -84.5z
M596 924q-121 0 -196.5 -85t-94.5 -233q5 0 541 23q-3 126 -68 210.5t-182 84.5zM573 1182q-70 0 -108.5 42t-38.5 105q0 58 39 96.5t108 38.5q70 0 109 -41.5t39 -97.5q0 -68 -40 -105.5t-108 -37.5z" />
    <glyph glyph-name="Eogonek" unicode="&#x118;" horiz-adv-x="1148" 
d="M1055 -399q-44 -7 -72 -7q-112 -2 -183 45t-71 130q-2 60 41.5 123.5t124.5 105.5q-286 7 -721 10q-2 588 -16 1413q388 5 872 15q0 -54 2 -154q-322 -2 -690 -10q0 -200 4 -533q458 0 606 2q0 -63 2 -161q-36 1 -93 1.5t-227.5 1.5t-285.5 -1q5 -295 8 -426l697 -9
q0 -37 -2 -133q-91 -41 -139 -101.5t-48 -111.5q0 -49 52.5 -71.5t142.5 -16.5q-4 -40 -4 -112z" />
    <glyph glyph-name="eogonek" unicode="&#x119;" horiz-adv-x="1138" 
d="M678 -436q-37 -6 -74 -6q-113 0 -182.5 46t-69.5 128q-2 60 41 123.5t123 105.5q-101 12 -179 59.5t-126 122t-72.5 167.5t-23.5 202q0 152 55.5 274.5t168 197.5t265.5 75q114 -1 202 -50t137.5 -129.5t67.5 -181.5t1 -209q-214 -2 -713 -18q8 -174 83 -274.5
t208 -100.5q207 0 278 226q35 -14 164 -43q-48 -140 -148.5 -223.5t-246.5 -96.5q-73 -40 -111.5 -94.5t-38.5 -100.5q0 -49 52.5 -71.5t142.5 -16.5q-4 -40 -4 -112zM596 924q-121 0 -196.5 -85t-94.5 -233q5 0 541 23q-3 126 -68 210.5t-182 84.5z" />
    <glyph glyph-name="Ecaron" unicode="&#x11a;" horiz-adv-x="1148" 
d="M174 8q-2 588 -16 1413q388 5 872 15q0 -54 2 -154q-322 -2 -690 -10q0 -200 4 -533q458 0 606 2q0 -63 2 -161q-36 1 -93 1.5t-227.5 1.5t-285.5 -1q5 -295 8 -426l697 -9q0 -57 -2 -153q-475 12 -877 14zM838 1886q33 -31 92 -76q-111 -116 -246 -280q-41 2 -137 0
q-94 108 -248 272q29 21 90 78q98 -113 227 -244q75 74 222 250z" />
    <glyph glyph-name="ecaron" unicode="&#x11b;" horiz-adv-x="1138" 
d="M584 -43q-118 0 -209.5 43.5t-147.5 120t-84.5 175.5t-27.5 216q0 152 55.5 274.5t168 197.5t265.5 75q114 -1 202 -50t137.5 -129.5t67.5 -181.5t1 -209q-214 -2 -713 -18q8 -174 83 -274.5t208 -100.5q207 0 278 226q35 -14 164 -43q-54 -153 -167 -237.5t-281 -84.5z
M596 924q-121 0 -196.5 -85t-94.5 -233q5 0 541 23q-3 126 -68 210.5t-182 84.5zM797 1487q33 -31 92 -76q-111 -117 -246 -281q-41 2 -137 0q-94 109 -248 273q29 21 90 78q98 -113 227 -244q75 74 222 250z" />
    <glyph glyph-name="Gcircumflex" unicode="&#x11c;" horiz-adv-x="1380" 
d="M723 -49q-289 0 -445.5 194t-156.5 568q0 124 23.5 235.5t73 206.5t120.5 164t170.5 108t218.5 39q206 0 336 -117.5t164 -332.5q-61 -10 -174 -37q-28 160 -114 247t-218 87q-133 0 -226.5 -77t-138.5 -207.5t-45 -303.5q0 -616 428 -616q165 0 265.5 122.5t91.5 348.5
q-130 0 -455 -5q0 60 -2 162q152 -4 614 0q15 -94 15 -178q0 -283 -147.5 -445.5t-397.5 -162.5zM461 1530q-33 31 -92 76q106 116 241 280q50 -2 146 0q89 -108 243 -272q-29 -21 -90 -78q-98 113 -227 244q-80 -76 -221 -250z" />
    <glyph glyph-name="gcircumflex" unicode="&#x11d;" horiz-adv-x="1107" 
d="M543 264q-45 0 -88 6q-80 -48 -80 -92q0 -38 55.5 -60t190.5 -32q171 -14 271 -52t137.5 -92t37.5 -135q0 -109 -75.5 -193t-201.5 -127.5t-280 -43.5q-210 0 -329.5 79t-119.5 206q0 86 65.5 157t164.5 117q-82 49 -82 131q0 42 33.5 88t95.5 80q-120 48 -188.5 148
t-67.5 231q2 172 127.5 281.5t325.5 109.5q106 0 194 -32.5t145.5 -87.5t89 -127.5t31.5 -153.5q0 -185 -131.5 -295.5t-320.5 -110.5zM539 395q128 0 202 71t74 208q0 110 -73.5 186t-204.5 76q-128 0 -202.5 -70t-74.5 -192q0 -128 74.5 -203.5t204.5 -75.5zM893 -211
q0 22 -8.5 40.5t-28 33t-42.5 26t-59.5 20.5t-72 15.5t-87 11.5t-97 9t-109.5 8q-145 -90 -145 -201q0 -77 74 -122.5t208 -45.5q164 0 265.5 59t101.5 146zM309 1130q-33 31 -92 76q107 117 242 281q49 -2 145 0q90 -109 244 -273q-29 -20 -90 -77q-99 112 -228 243
q-80 -76 -221 -250z" />
    <glyph glyph-name="Gbreve" unicode="&#x11e;" horiz-adv-x="1380" 
d="M723 -49q-289 0 -445.5 194t-156.5 568q0 124 23.5 235.5t73 206.5t120.5 164t170.5 108t218.5 39q206 0 336 -117.5t164 -332.5q-61 -10 -174 -37q-28 160 -114 247t-218 87q-133 0 -226.5 -77t-138.5 -207.5t-45 -303.5q0 -616 428 -616q165 0 265.5 122.5t91.5 348.5
q-130 0 -455 -5q0 60 -2 162q152 -4 614 0q15 -94 15 -178q0 -283 -147.5 -445.5t-397.5 -162.5zM688 1567q-148 0 -227.5 71.5t-79.5 204.5q55 -2 131 4q0 -86 46.5 -130t131.5 -44q78 0 121.5 48t42.5 149q47 -2 131 2q4 -145 -74 -225t-223 -80z" />
    <glyph glyph-name="gbreve" unicode="&#x11f;" horiz-adv-x="1107" 
d="M543 264q-45 0 -88 6q-80 -48 -80 -92q0 -38 55.5 -60t190.5 -32q171 -14 271 -52t137.5 -92t37.5 -135q0 -109 -75.5 -193t-201.5 -127.5t-280 -43.5q-210 0 -329.5 79t-119.5 206q0 86 65.5 157t164.5 117q-82 49 -82 131q0 42 33.5 88t95.5 80q-120 48 -188.5 148
t-67.5 231q2 172 127.5 281.5t325.5 109.5q106 0 194 -32.5t145.5 -87.5t89 -127.5t31.5 -153.5q0 -185 -131.5 -295.5t-320.5 -110.5zM539 395q128 0 202 71t74 208q0 110 -73.5 186t-204.5 76q-128 0 -202.5 -70t-74.5 -192q0 -128 74.5 -203.5t204.5 -75.5zM893 -211
q0 22 -8.5 40.5t-28 33t-42.5 26t-59.5 20.5t-72 15.5t-87 11.5t-97 9t-109.5 8q-145 -90 -145 -201q0 -77 74 -122.5t208 -45.5q164 0 265.5 59t101.5 146zM543 1167q-148 0 -227.5 72t-79.5 205q55 -2 131 4q0 -86 46.5 -130t131.5 -44q79 0 122 48t42 148q47 -1 131 3
q4 -145 -74 -225.5t-223 -80.5z" />
    <glyph glyph-name="Gcommaaccent" unicode="&#x122;" horiz-adv-x="1380" 
d="M723 -49q-289 0 -445.5 194t-156.5 568q0 124 23.5 235.5t73 206.5t120.5 164t170.5 108t218.5 39q206 0 336 -117.5t164 -332.5q-61 -10 -174 -37q-28 160 -114 247t-218 87q-133 0 -226.5 -77t-138.5 -207.5t-45 -303.5q0 -616 428 -616q165 0 265.5 122.5t91.5 348.5
q-130 0 -455 -5q0 60 -2 162q152 -4 614 0q15 -94 15 -178q0 -283 -147.5 -445.5t-397.5 -162.5zM805 -246q0 -71 -50 -151t-132 -144q-53 56 -60 58q65 55 113 135q-48 9 -74.5 40t-26.5 72q0 46 29 80.5t86 34.5q53 0 84 -35t31 -90z" />
    <glyph glyph-name="gcommaaccent" unicode="&#x123;" horiz-adv-x="1107" 
d="M543 264q-45 0 -88 6q-80 -48 -80 -92q0 -38 55.5 -60t190.5 -32q171 -14 271 -52t137.5 -92t37.5 -135q0 -109 -75.5 -193t-201.5 -127.5t-280 -43.5q-210 0 -329.5 79t-119.5 206q0 86 65.5 157t164.5 117q-82 49 -82 131q0 42 33.5 88t95.5 80q-120 48 -188.5 148
t-67.5 231q2 172 127.5 281.5t325.5 109.5q106 0 194 -32.5t145.5 -87.5t89 -127.5t31.5 -153.5q0 -185 -131.5 -295.5t-320.5 -110.5zM539 395q128 0 202 71t74 208q0 110 -73.5 186t-204.5 76q-128 0 -202.5 -70t-74.5 -192q0 -128 74.5 -203.5t204.5 -75.5zM893 -211
q0 22 -8.5 40.5t-28 33t-42.5 26t-59.5 20.5t-72 15.5t-87 11.5t-97 9t-109.5 8q-145 -90 -145 -201q0 -77 74 -122.5t208 -45.5q164 0 265.5 59t101.5 146zM403 1280q0 71 50 151t133 144q52 -55 59 -57q-63 -54 -113 -136q48 -9 74.5 -40t26.5 -72q0 -46 -29 -80.5
t-86 -34.5q-53 0 -84 35t-31 90z" />
    <glyph glyph-name="Hcircumflex" unicode="&#x124;" horiz-adv-x="1304" 
d="M963 -43v555q-148 4 -617 -2l6 -469q-104 0 -186 -2q2 511 -8 1343q82 0 180 2q2 -287 6 -706q189 -6 617 -4q0 127 -3 403t-4 389q83 0 187 2q0 -675 6 -1511q-92 2 -184 0zM428 1530q-33 31 -92 76q107 116 242 280q49 -2 145 0q90 -108 244 -272q-29 -21 -90 -78
q-99 113 -228 244q-80 -76 -221 -250z" />
    <glyph glyph-name="hcircumflex" unicode="&#x125;" horiz-adv-x="1148" 
d="M150 39q1 561 -7 1345q66 0 183 2l-2 -595q56 124 151 193t217 69q154 0 233.5 -95t84.5 -278q4 -175 4.5 -355t-0.5 -273l-2 -93h-178q1 31 2 86.5t2 233.5t-2 339q-3 143 -47.5 212t-147.5 69q-93 0 -166 -67t-110 -168.5t-39 -214.5l2 -408q-76 0 -178 -2zM12 1434
q-33 30 -92 75q107 117 242 281q49 -2 145 0q90 -108 244 -272q-29 -21 -90 -78q-99 112 -228 243q-80 -75 -221 -249z" />
    <glyph glyph-name="Imacron" unicode="&#x12a;" horiz-adv-x="550" 
d="M186 -2q0 626 -8 1423q65 2 184 2q3 -683 11 -1425q-85 2 -187 0zM-6 1649q2 45 -2 127q162 -2 567 4l-2 -129q-206 4 -563 -2z" />
    <glyph glyph-name="imacron" unicode="&#x12b;" horiz-adv-x="534" 
d="M184 4q4 271 -4 1022q72 0 176 2q1 -396 9 -1022q-77 0 -181 -2zM-8 1249q2 45 -2 127q162 -2 567 4l-2 -129q-206 4 -563 -2z" />
    <glyph glyph-name="Iogonek" unicode="&#x12e;" horiz-adv-x="550" 
d="M326 -399q-44 -7 -74 -7q-113 0 -182.5 46.5t-69.5 128.5q-2 65 47 132.5t139 106.5q0 629 -8 1413q65 2 184 2q3 -683 11 -1425q-39 2 -82 2q-77 -41 -116.5 -96.5t-39.5 -102.5q0 -49 52.5 -71.5t142.5 -16.5q-4 -40 -4 -112z" />
    <glyph glyph-name="iogonek" unicode="&#x12f;" horiz-adv-x="534" 
d="M338 -395q-38 -6 -74 -6q-113 0 -182.5 46t-69.5 128q-2 62 43 127t129 106q4 276 -4 1020q72 0 176 2q1 -396 9 -1022h-58q-79 -41 -119.5 -97t-40.5 -104q0 -49 52.5 -71.5t142.5 -16.5q-4 -40 -4 -112zM270 1157q-60 0 -98.5 34.5t-38.5 94.5q0 58 38 92.5t99 34.5
q60 0 95.5 -37.5t35.5 -87.5q0 -61 -36 -96t-95 -35z" />
    <glyph glyph-name="Idotaccent" unicode="&#x130;" horiz-adv-x="550" 
d="M186 -2q0 626 -8 1423q65 2 184 2q3 -683 11 -1425q-85 2 -187 0zM274 1581q-70 0 -108.5 42.5t-38.5 105.5q0 58 39 96.5t108 38.5q70 0 109 -42t39 -98q0 -68 -40 -105.5t-108 -37.5z" />
    <glyph glyph-name="dotlessi" unicode="&#x131;" horiz-adv-x="534" 
d="M184 4q4 271 -4 1022q72 0 176 2q1 -396 9 -1022q-77 0 -181 -2z" />
    <glyph glyph-name="Jcircumflex" unicode="&#x134;" horiz-adv-x="1093" 
d="M526 -39q-227 0 -333.5 138t-106.5 405q0 60 6 127q68 -4 189 -6q-5 -98 -5 -111q0 -199 63 -291t189 -92q128 0 194 97.5t66 324.5q0 228 -2 449t-4 328l-2 108q70 0 195 6q-2 -347 -2 -926q0 -275 -116 -416t-331 -141zM651 1530q-33 31 -92 76q107 116 242 280
q49 -2 145 0q90 -108 244 -272q-29 -21 -90 -78q-99 113 -228 244q-80 -76 -221 -250z" />
    <glyph glyph-name="jcircumflex" unicode="&#x135;" horiz-adv-x="534" 
d="M-78 -424q4 70 6 168q58 -12 105 -12q73 0 111.5 37t39.5 120q2 265 1 518t-3 436l-2 183q60 -1 99 -0.5t57 1.5l18 1q1 -58 2.5 -157.5t4 -413t-0.5 -578.5q0 -160 -86.5 -236.5t-232.5 -76.5q-51 0 -119 10zM43 1130q-33 31 -92 76q107 117 242 281q49 -2 145 0
q90 -109 244 -273q-29 -20 -90 -77q-99 112 -228 243q-80 -76 -221 -250z" />
    <glyph glyph-name="Kcommaaccent" unicode="&#x136;" horiz-adv-x="1273" 
d="M1022 -47q-243 347 -473 661q-116 -144 -209 -264l6 -317l-186 -2l-2 1351l182 -2q-3 -487 0 -802q188 246 351.5 464.5t233.5 313.5l70 96l205 -12q-332 -427 -524 -697q141 -202 279 -396t206 -287l68 -93q-62 -3 -113.5 -6.5t-72.5 -5.5zM776 -246q0 -71 -50 -151
t-132 -144q-53 56 -59 58q63 53 112 135q-48 9 -74 40t-26 72q0 46 29 80.5t86 34.5q53 0 83.5 -35t30.5 -90z" />
    <glyph glyph-name="kcommaaccent" unicode="&#x137;" horiz-adv-x="1058" 
d="M823 -43q-253 403 -344 539l-155 -177l4 -282l-181 4q2 480 1 779t-3 432l-2 134l181 -2q-3 -588 0 -878q153 180 267.5 319t152.5 187l38 49l217 -8q-261 -287 -395 -447q119 -189 222.5 -349.5t147.5 -226.5l44 -65q-62 -1 -110.5 -3t-66.5 -4zM635 -246
q0 -71 -50 -151t-132 -144q-53 56 -60 58q65 55 113 135q-48 9 -74 40t-26 72q0 47 28.5 81t85.5 34q53 0 84 -35t31 -90z" />
    <glyph glyph-name="Lacute" unicode="&#x139;" horiz-adv-x="1067" 
d="M170 6q-2 621 -12 1405q53 -2 184 0q-2 -393 8 -1243q189 -4 351 -6.5t229 -3.5h67l-2 -164q-222 5 -428.5 8t-301.5 4h-95zM289 1544l-96 72q77 96 143.5 182.5t94.5 125.5l28 38l127 -90q-88 -93 -162.5 -175t-104.5 -117z" />
    <glyph glyph-name="lacute" unicode="&#x13a;" horiz-adv-x="491" 
d="M334 6l-180 2q3 434 3.5 787t-0.5 489l-1 135l182 -2q-4 -504 -5 -857t0 -454zM289 1505l-96 72q77 96 143.5 182.5t94.5 124.5l28 39l127 -90q-88 -93 -162.5 -175t-104.5 -118z" />
    <glyph glyph-name="Lcommaaccent" unicode="&#x13b;" horiz-adv-x="1067" 
d="M170 6q-2 621 -12 1405q53 -2 184 0q-2 -393 8 -1243q189 -4 351 -6.5t229 -3.5h67l-2 -164q-222 5 -428.5 8t-301.5 4h-95zM698 -246q0 -71 -50 -151t-132 -144q-53 56 -59 58q63 53 112 135q-48 9 -74 40t-26 72q0 46 29 80.5t86 34.5q53 0 83.5 -35t30.5 -90z" />
    <glyph glyph-name="lcommaaccent" unicode="&#x13c;" horiz-adv-x="491" 
d="M334 6l-180 2q3 434 3.5 787t-0.5 489l-1 135l182 -2q-4 -504 -5 -857t0 -454zM367 -246q0 -71 -50 -151t-133 -144q-53 56 -59 58q65 55 113 135q-48 9 -74.5 40t-26.5 72q0 46 29 80.5t86 34.5q53 0 84 -35t31 -90z" />
    <glyph glyph-name="Lcaron" unicode="&#x13d;" horiz-adv-x="1067" 
d="M170 6q-2 621 -12 1405q53 -2 184 0q-2 -393 8 -1243q189 -4 351 -6.5t229 -3.5h67l-2 -164q-222 5 -428.5 8t-301.5 4h-95zM776 1405q0 -71 -50 -151t-132 -144q-52 55 -59 57q61 52 112 136q-48 9 -74 40t-26 72q0 46 29 80.5t86 34.5q53 0 83.5 -35t30.5 -90z" />
    <glyph glyph-name="lcaron" unicode="&#x13e;" horiz-adv-x="491" 
d="M334 6l-180 2q3 434 3.5 787t-0.5 489l-1 135l182 -2q-4 -504 -5 -857t0 -454zM702 1294q0 -71 -50 -151t-132 -144q-53 56 -59 58q63 53 112 135q-48 9 -74 40t-26 73q0 46 29 80t86 34q53 0 83.5 -35t30.5 -90z" />
    <glyph glyph-name="Lslash" unicode="&#x141;" horiz-adv-x="1138" 
d="M51 561l2 162q72 20 185 55l-9 633q58 -2 189 0q-2 -187 0 -573q171 56 299 102q-2 -62 2 -156q-117 -35 -299 -96l6 -524l643 -10l-2 -160q-222 5 -428.5 8t-301.5 4h-95q0 245 -4 621z" />
    <glyph glyph-name="lslash" unicode="&#x142;" horiz-adv-x="624" 
d="M571 823l-172 -67q-1 -286 -0.5 -452.5t1.5 -231.5l1 -66l-182 2l4 676l-172 -70v148q134 51 172 67v590l180 -2l-4 -518q49 20 92.5 39t62.5 28l19 9z" />
    <glyph glyph-name="Nacute" unicode="&#x143;" horiz-adv-x="1343" 
d="M164 41q4 501 -6 1335q87 7 200 13q309 -565 658 -1182q-9 790 -23 1259q74 -2 176 -2q3 -586 17 -1495l-209 -14q-285 525 -651 1171q0 -551 14 -1089q-78 2 -176 4zM653 1544l-96 72q77 96 143.5 182.5t94.5 125.5l28 38l127 -90q-88 -93 -162.5 -175t-104.5 -117z" />
    <glyph glyph-name="nacute" unicode="&#x144;" horiz-adv-x="1142" 
d="M829 -45l2 663q0 136 -43 207.5t-151 71.5q-87 0 -159.5 -60t-112.5 -158t-41 -210q-2 -64 -2 -171t1 -182l1 -75q-97 2 -181 0q1 42 1.5 118t1.5 330t-1 506q80 -2 152 2q-1 -14 -2 -39t-2 -93t0 -124q52 147 161 229.5t240 80.5q83 0 144 -29t96 -81.5t52.5 -117.5
t19.5 -147l4 -719zM578 1145l-97 72q77 96 144 182.5t95 124.5l28 39l126 -90q-88 -93 -162 -175t-104 -118z" />
    <glyph glyph-name="Ncommaaccent" unicode="&#x145;" horiz-adv-x="1343" 
d="M164 41q4 501 -6 1335q87 7 200 13q309 -565 658 -1182q-9 790 -23 1259q74 -2 176 -2q3 -586 17 -1495l-209 -14q-285 525 -651 1171q0 -551 14 -1089q-78 2 -176 4zM793 -246q0 -71 -50 -151t-133 -144q-53 56 -59 58q65 55 113 135q-48 9 -74.5 40t-26.5 72
q0 46 29 80.5t86 34.5q53 0 84 -35t31 -90z" />
    <glyph glyph-name="ncommaaccent" unicode="&#x146;" horiz-adv-x="1142" 
d="M829 -45l2 663q0 136 -43 207.5t-151 71.5q-87 0 -159.5 -60t-112.5 -158t-41 -210q-2 -64 -2 -171t1 -182l1 -75q-97 2 -181 0q1 42 1.5 118t1.5 330t-1 506q80 -2 152 2q-1 -14 -2 -39t-2 -93t0 -124q52 147 161 229.5t240 80.5q83 0 144 -29t96 -81.5t52.5 -117.5
t19.5 -147l4 -719zM717 -246q0 -71 -50 -151t-132 -144q-53 56 -60 58q65 55 113 135q-48 9 -74.5 40t-26.5 72q0 46 29 80.5t86 34.5q53 0 84 -35t31 -90z" />
    <glyph glyph-name="Ncaron" unicode="&#x147;" horiz-adv-x="1343" 
d="M164 41q4 501 -6 1335q87 7 200 13q309 -565 658 -1182q-9 790 -23 1259q74 -2 176 -2q3 -586 17 -1495l-209 -14q-285 525 -651 1171q0 -551 14 -1089q-78 2 -176 4zM895 1886q33 -31 92 -76q-111 -116 -246 -280q-41 2 -137 0q-94 108 -248 272q29 21 90 78
q99 -113 228 -244q74 74 221 250z" />
    <glyph glyph-name="ncaron" unicode="&#x148;" horiz-adv-x="1142" 
d="M829 -45l2 663q0 136 -43 207.5t-151 71.5q-87 0 -159.5 -60t-112.5 -158t-41 -210q-2 -64 -2 -171t1 -182l1 -75q-97 2 -181 0q1 42 1.5 118t1.5 330t-1 506q80 -2 152 2q-1 -14 -2 -39t-2 -93t0 -124q52 147 161 229.5t240 80.5q83 0 144 -29t96 -81.5t52.5 -117.5
t19.5 -147l4 -719zM819 1487q33 -31 92 -76q-110 -117 -245 -281q-42 2 -138 0q-93 109 -247 273q29 21 90 78q98 -113 227 -244q74 74 221 250z" />
    <glyph glyph-name="Omacron" unicode="&#x14c;" horiz-adv-x="1433" 
d="M717 -47q-272 0 -433 196t-161 545q0 358 162 565t440 207q270 0 428 -208t158 -560q0 -356 -158 -550.5t-436 -194.5zM715 111q178 0 288.5 151.5t110.5 444.5q0 288 -105 446t-290 158q-191 0 -295.5 -163t-104.5 -441q0 -276 106.5 -436t289.5 -160zM436 1649
q2 45 -2 127q162 -2 567 4l-2 -129q-206 4 -563 -2z" />
    <glyph glyph-name="omacron" unicode="&#x14d;" horiz-adv-x="1187" 
d="M592 -41q-226 0 -352.5 148.5t-126.5 408.5q0 245 132 394t349 149q220 0 350.5 -148t130.5 -397q0 -265 -133 -410t-350 -145zM594 96q134 0 215 108t82 310q0 182 -76 295t-219 113q-131 0 -215 -110t-84 -292q0 -210 80 -317t217 -107zM313 1249q2 45 -2 127
q163 -2 568 4l-2 -129q-207 4 -564 -2z" />
    <glyph glyph-name="Ohungarumlaut" unicode="&#x150;" horiz-adv-x="1433" 
d="M717 -47q-272 0 -433 196t-161 545q0 358 162 565t440 207q270 0 428 -208t158 -560q0 -356 -158 -550.5t-436 -194.5zM715 111q178 0 288.5 151.5t110.5 444.5q0 288 -105 446t-290 158q-191 0 -295.5 -163t-104.5 -441q0 -276 106.5 -436t289.5 -160zM854 1544l-102 58
q67 102 122.5 189.5t77.5 124.5l23 36l133 -72q-79 -100 -142.5 -184t-87.5 -118zM553 1556l-102 54q65 103 119.5 190.5t75.5 123.5l22 36q38 -24 71 -42.5t47 -25.5l13 -6q-78 -101 -139.5 -183.5t-83.5 -114.5z" />
    <glyph glyph-name="ohungarumlaut" unicode="&#x151;" horiz-adv-x="1187" 
d="M592 -41q-226 0 -352.5 148.5t-126.5 408.5q0 245 132 394t349 149q220 0 350.5 -148t130.5 -397q0 -265 -133 -410t-350 -145zM594 96q134 0 215 108t82 310q0 182 -76 295t-219 113q-131 0 -215 -110t-84 -292q0 -210 80 -317t217 -107zM731 1145q-35 21 -60.5 35
t-33.5 18l-8 4q67 102 122.5 189.5t78.5 124.5l22 36l133 -71q-79 -100 -142.5 -184t-87.5 -118zM430 1157l-102 53q65 103 119.5 190.5t76.5 123.5l21 37q38 -24 71 -42.5t46 -24.5l14 -7q-78 -101 -139.5 -183.5t-84.5 -114.5z" />
    <glyph glyph-name="OE" unicode="&#x152;" horiz-adv-x="2088" 
d="M1894 575q-32 1 -86 2t-219 2t-291 -1q3 -230 9 -418q32 -1 91 -3t239 -5t356 -2q-4 -76 -4 -160q-120 14 -850 26q0 6 0.5 19.5t1.5 63.5t0 116q-50 -130 -171.5 -204t-275.5 -74q-181 0 -311.5 97t-196 265.5t-65.5 390.5q0 224 69 396t203.5 271t317.5 99
q133 0 246 -72.5t171 -189.5q0 35 -4 223q226 -3 850 13q0 -72 4 -152q-304 0 -682 -10q-2 -241 0 -535q6 0 119 -1t233.5 -0.5t243.5 3.5q-2 -78 2 -160zM713 92q83 0 153 34t127 104t89 188.5t32 275.5q0 178 -46.5 314.5t-139.5 215.5t-221 79q-182 0 -287 -167
t-105 -438q0 -278 107 -442t291 -164z" />
    <glyph glyph-name="oe" unicode="&#x153;" horiz-adv-x="1921" 
d="M1380 -55q-151 0 -253.5 70.5t-151.5 197.5q-59 -112 -162 -177t-227 -65q-215 0 -344 147t-129 412q0 152 57 275t165.5 194.5t248.5 71.5q150 0 251 -75.5t148 -194.5q109 246 401 246q149 0 248.5 -76t138 -202t19.5 -286q-159 0 -713 -20q9 -186 88.5 -283.5
t216.5 -97.5q94 0 160.5 53t122.5 170q52 -18 150 -55q-53 -135 -164.5 -220t-270.5 -85zM600 111q130 0 209.5 107t79.5 298q0 113 -28.5 204.5t-96 152.5t-166.5 61q-142 0 -222.5 -115.5t-80.5 -290.5q0 -201 81 -309t224 -108zM1360 920q-107 0 -183 -86t-96 -236
q363 13 539 23q5 135 -66 217t-194 82z" />
    <glyph glyph-name="Racute" unicode="&#x154;" horiz-adv-x="1277" 
d="M1026 -53q-143 267 -354 637q-82 -9 -178 -9q-61 0 -150 7q0 -242 8 -545q-100 2 -184 -2q2 502 -10 1362q208 41 395 41q298 0 457 -110.5t159 -313.5q0 -305 -327 -400l370 -641q-75 -8 -186 -26zM342 737q104 -14 203 -14q220 0 329 68.5t109 212.5q0 278 -408 278
q-101 0 -239 -22zM608 1544l-96 72q77 96 143.5 182.5t94.5 125.5l28 38l127 -90q-88 -93 -162.5 -175t-104.5 -117z" />
    <glyph glyph-name="racute" unicode="&#x155;" horiz-adv-x="774" 
d="M145 2q2 470 -2 991q68 -2 156 2q-4 -125 -4 -268q50 146 162 226t256 85q0 -64 -2 -168q-195 -23 -288.5 -141t-98.5 -338q-2 -103 -1 -189t3 -142l2 -56q-68 -2 -183 -2zM426 1145l-96 72q77 96 143.5 182.5t94.5 124.5l28 39l127 -90q-88 -93 -162.5 -175t-104.5 -118
z" />
    <glyph glyph-name="Rcommaaccent" unicode="&#x156;" horiz-adv-x="1277" 
d="M1026 -53q-143 267 -354 637q-82 -9 -178 -9q-61 0 -150 7q0 -242 8 -545q-100 2 -184 -2q2 502 -10 1362q208 41 395 41q298 0 457 -110.5t159 -313.5q0 -305 -327 -400l370 -641q-75 -8 -186 -26zM342 737q104 -14 203 -14q220 0 329 68.5t109 212.5q0 278 -408 278
q-101 0 -239 -22zM748 -246q0 -71 -50 -151t-133 -144q-53 56 -59 58q63 53 112 135q-48 9 -74 40t-26 72q0 46 29 80.5t86 34.5q53 0 84 -35t31 -90z" />
    <glyph glyph-name="rcommaaccent" unicode="&#x157;" horiz-adv-x="774" 
d="M145 2q2 470 -2 991q68 -2 156 2q-4 -125 -4 -268q50 146 162 226t256 85q0 -64 -2 -168q-195 -23 -288.5 -141t-98.5 -338q-2 -103 -1 -189t3 -142l2 -56q-68 -2 -183 -2zM360 -246q0 -71 -50 -151t-132 -144q-53 56 -59 58q63 53 112 135q-48 9 -74 40t-26 72
q0 46 29 80.5t86 34.5q53 0 83.5 -35t30.5 -90z" />
    <glyph glyph-name="Rcaron" unicode="&#x158;" horiz-adv-x="1277" 
d="M1026 -53q-143 267 -354 637q-82 -9 -178 -9q-61 0 -150 7q0 -242 8 -545q-100 2 -184 -2q2 502 -10 1362q208 41 395 41q298 0 457 -110.5t159 -313.5q0 -305 -327 -400l370 -641q-75 -8 -186 -26zM342 737q104 -14 203 -14q220 0 329 68.5t109 212.5q0 278 -408 278
q-101 0 -239 -22zM850 1886q33 -31 92 -76q-111 -116 -246 -280q-41 2 -137 0q-94 108 -248 272q29 21 90 78q99 -113 228 -244q74 74 221 250z" />
    <glyph glyph-name="rcaron" unicode="&#x159;" horiz-adv-x="774" 
d="M145 2q2 470 -2 991q68 -2 156 2q-4 -125 -4 -268q50 146 162 226t256 85q0 -64 -2 -168q-195 -23 -288.5 -141t-98.5 -338q-2 -103 -1 -189t3 -142l2 -56q-68 -2 -183 -2zM668 1487q33 -31 92 -76q-111 -117 -246 -281q-41 2 -137 0q-94 109 -248 273q29 21 90 78
q98 -113 227 -244q75 74 222 250z" />
    <glyph glyph-name="Sacute" unicode="&#x15a;" horiz-adv-x="1239" 
d="M616 -41q-239 9 -372 133.5t-148 366.5q62 4 197 20q6 -172 92.5 -266.5t235.5 -99.5q133 -3 226 58.5t93 172.5q0 37 -7 64.5t-30.5 60t-64.5 60.5t-112.5 58.5t-172.5 59.5q-219 64 -318.5 169t-99.5 265q0 167 134.5 274t351.5 107q210 0 340.5 -117.5t150.5 -336.5
q-77 -13 -186 -25q-2 143 -82 232.5t-223 89.5q-140 0 -221 -60t-81 -162q0 -107 84.5 -173.5t288.5 -127.5q138 -41 229 -91t135.5 -107.5t60.5 -111t16 -122.5q0 -117 -68.5 -208.5t-187 -139.5t-261.5 -43zM596 1544l-96 72q77 96 143.5 182.5t94.5 125.5l28 38l127 -90
q-88 -93 -162.5 -175t-104.5 -117z" />
    <glyph glyph-name="sacute" unicode="&#x15b;" horiz-adv-x="1054" 
d="M520 -47q-87 0 -162 22.5t-136 67.5t-100 120t-50 173q63 2 172 16q24 -136 93 -195.5t191 -62.5q112 -3 179 42.5t67 117.5q0 40 -18.5 67.5t-85 59t-191.5 63.5q-193 50 -275.5 127t-82.5 199q0 132 110 213.5t289 81.5q165 0 274 -90.5t146 -255.5q-66 -7 -164 -23
q-27 110 -98 173t-174 63q-98 0 -152.5 -46t-54.5 -116q0 -71 63 -114.5t211 -77.5q217 -51 299 -122t82 -190q0 -151 -118.5 -232t-313.5 -81zM494 1145l-97 72q77 96 144 182.5t95 124.5l28 39l127 -90q-88 -93 -162.5 -175t-104.5 -118z" />
    <glyph glyph-name="Scircumflex" unicode="&#x15c;" horiz-adv-x="1239" 
d="M616 -41q-239 9 -372 133.5t-148 366.5q62 4 197 20q6 -172 92.5 -266.5t235.5 -99.5q133 -3 226 58.5t93 172.5q0 37 -7 64.5t-30.5 60t-64.5 60.5t-112.5 58.5t-172.5 59.5q-219 64 -318.5 169t-99.5 265q0 167 134.5 274t351.5 107q210 0 340.5 -117.5t150.5 -336.5
q-77 -13 -186 -25q-2 143 -82 232.5t-223 89.5q-140 0 -221 -60t-81 -162q0 -107 84.5 -173.5t288.5 -127.5q138 -41 229 -91t135.5 -107.5t60.5 -111t16 -122.5q0 -117 -68.5 -208.5t-187 -139.5t-261.5 -43zM391 1530q-33 31 -92 76q107 116 242 280q49 -2 145 0
q90 -108 244 -272q-29 -21 -90 -78q-99 113 -228 244q-80 -76 -221 -250z" />
    <glyph glyph-name="scircumflex" unicode="&#x15d;" horiz-adv-x="1054" 
d="M520 -47q-87 0 -162 22.5t-136 67.5t-100 120t-50 173q63 2 172 16q24 -136 93 -195.5t191 -62.5q112 -3 179 42.5t67 117.5q0 40 -18.5 67.5t-85 59t-191.5 63.5q-193 50 -275.5 127t-82.5 199q0 132 110 213.5t289 81.5q165 0 274 -90.5t146 -255.5q-66 -7 -164 -23
q-27 110 -98 173t-174 63q-98 0 -152.5 -46t-54.5 -116q0 -71 63 -114.5t211 -77.5q217 -51 299 -122t82 -190q0 -151 -118.5 -232t-313.5 -81zM289 1130q-33 31 -92 76q106 117 241 281q50 -2 146 0q89 -109 243 -273q-29 -20 -90 -77q-98 112 -227 243q-80 -76 -221 -250z
" />
    <glyph glyph-name="Scedilla" unicode="&#x15e;" horiz-adv-x="1239" 
d="M1133 350q0 -165 -132 -274t-331 -117q-6 -55 -8 -100q106 0 160.5 -44t54.5 -104q0 -81 -74 -128.5t-197 -47.5q-50 0 -108.5 15.5t-102.5 41.5q19 40 39 97q86 -51 172 -51q53 0 88 19t35 52q0 83 -197 60q15 71 35 194q-445 42 -471 496q62 4 197 20
q6 -172 92.5 -266.5t235.5 -99.5q133 -3 226 58.5t93 172.5q0 37 -7 64.5t-30.5 60t-64.5 60.5t-112.5 58.5t-172.5 59.5q-219 64 -318.5 169t-99.5 265q0 167 134.5 274t351.5 107q210 0 340.5 -117.5t150.5 -336.5q-77 -13 -186 -25q-2 143 -82 232.5t-223 89.5
q-140 0 -221 -60t-81 -162q0 -107 84.5 -173.5t288.5 -127.5q138 -41 229 -91t135.5 -107.5t60.5 -111t16 -122.5z" />
    <glyph glyph-name="scedilla" unicode="&#x15f;" horiz-adv-x="1054" 
d="M952 266q0 -140 -104 -220t-279 -91l-6 -92q106 0 160.5 -44t54.5 -104q0 -81 -74 -128.5t-196 -47.5q-50 0 -108.5 16t-102.5 42q19 39 39 96q86 -51 172 -51q53 0 88 19t35 52q0 83 -197 60q15 67 33 182q-162 13 -269 107.5t-126 273.5q63 2 172 16q24 -136 93 -195.5
t191 -62.5q112 -3 179 42.5t67 117.5q0 40 -18.5 67.5t-85 59t-191.5 63.5q-193 50 -275.5 127t-82.5 199q0 132 110 213.5t289 81.5q165 0 274 -90.5t146 -255.5q-66 -7 -164 -23q-27 110 -98 173t-174 63q-98 0 -152.5 -46t-54.5 -116q0 -71 63 -114.5t211 -77.5
q217 -51 299 -122t82 -190z" />
    <glyph glyph-name="Scaron" unicode="&#x160;" horiz-adv-x="1239" 
d="M616 -41q-239 9 -372 133.5t-148 366.5q62 4 197 20q6 -172 92.5 -266.5t235.5 -99.5q133 -3 226 58.5t93 172.5q0 37 -7 64.5t-30.5 60t-64.5 60.5t-112.5 58.5t-172.5 59.5q-219 64 -318.5 169t-99.5 265q0 167 134.5 274t351.5 107q210 0 340.5 -117.5t150.5 -336.5
q-77 -13 -186 -25q-2 143 -82 232.5t-223 89.5q-140 0 -221 -60t-81 -162q0 -107 84.5 -173.5t288.5 -127.5q138 -41 229 -91t135.5 -107.5t60.5 -111t16 -122.5q0 -117 -68.5 -208.5t-187 -139.5t-261.5 -43zM838 1886q33 -31 92 -76q-111 -116 -246 -280q-41 2 -137 0
q-94 108 -248 272q29 21 90 78q98 -113 227 -244q75 74 222 250z" />
    <glyph glyph-name="scaron" unicode="&#x161;" horiz-adv-x="1054" 
d="M520 -47q-87 0 -162 22.5t-136 67.5t-100 120t-50 173q63 2 172 16q24 -136 93 -195.5t191 -62.5q112 -3 179 42.5t67 117.5q0 40 -18.5 67.5t-85 59t-191.5 63.5q-193 50 -275.5 127t-82.5 199q0 132 110 213.5t289 81.5q165 0 274 -90.5t146 -255.5q-66 -7 -164 -23
q-27 110 -98 173t-174 63q-98 0 -152.5 -46t-54.5 -116q0 -71 63 -114.5t211 -77.5q217 -51 299 -122t82 -190q0 -151 -118.5 -232t-313.5 -81zM735 1487q33 -31 92 -76q-110 -117 -245 -281q-42 2 -138 0q-93 109 -247 273q29 21 90 78q98 -113 227 -244q74 74 221 250z
" />
    <glyph glyph-name="Tcommaaccent" unicode="&#x162;" horiz-adv-x="1128" 
d="M57 1262q0 73 -2 165q503 1 1018 9q-2 -80 0 -168h-416q0 -356 11 -1288q-87 -1 -189 -3q0 519 -6 1289q-146 0 -416 -4zM684 -246q0 -71 -50 -151t-132 -144q-53 56 -60 58q65 55 113 135q-48 9 -74 40t-26 72q0 47 28.5 81t85.5 34q53 0 84 -35t31 -90z" />
    <glyph glyph-name="tcommaaccent" unicode="&#x163;" horiz-adv-x="874" 
d="M803 53q-143 -61 -275 -61q-139 0 -223.5 86t-87.5 262q-4 178 -4 547h-160l-2 145l162 -4l4 291l176 -2q-4 -119 -6 -291h387l-2 -143q-300 4 -385 4q-3 -222 4 -520q3 -109 41.5 -163t122.5 -54q83 0 217 55q8 -47 16 -85t12 -52zM608 -246q0 -71 -50 -151t-132 -144
q-53 56 -59 58q63 53 112 135q-48 9 -74 40t-26 72q0 46 29 80.5t86 34.5q53 0 83.5 -35t30.5 -90z" />
    <glyph glyph-name="Tcaron" unicode="&#x164;" horiz-adv-x="1128" 
d="M57 1262q0 73 -2 165q503 1 1018 9q-2 -80 0 -168h-416q0 -356 11 -1288q-87 -1 -189 -3q0 519 -6 1289q-146 0 -416 -4zM786 1886q34 -31 93 -76q-111 -116 -246 -280q-41 2 -137 0q-94 108 -248 272q29 21 90 78q98 -113 227 -244q74 74 221 250z" />
    <glyph glyph-name="tcaron" unicode="&#x165;" horiz-adv-x="874" 
d="M803 53q-143 -61 -275 -61q-139 0 -223.5 86t-87.5 262q-4 178 -4 547h-160l-2 145l162 -4l4 291l176 -2q-4 -119 -6 -291h387l-2 -143q-300 4 -385 4q-3 -222 4 -520q3 -109 41.5 -163t122.5 -54q83 0 217 55q8 -47 16 -85t12 -52zM778 1473q0 -71 -50 -151t-132 -144
q-52 55 -59 57q63 53 112 135q-48 9 -74 40t-26 73q0 46 29 80t86 34q53 0 83.5 -34.5t30.5 -89.5z" />
    <glyph glyph-name="Umacron" unicode="&#x16a;" horiz-adv-x="1296" 
d="M659 -29q-269 0 -393.5 158.5t-124.5 464.5l-4 788l191 -2q-4 -559 -4 -768q0 -250 82 -362.5t260 -112.5q167 0 240 118t73 368l-2 835q55 -2 182 4q-4 -579 -4 -848q0 -643 -496 -643zM367 1649q2 45 -2 127q162 -2 567 4l-2 -129q-206 4 -563 -2z" />
    <glyph glyph-name="umacron" unicode="&#x16b;" horiz-adv-x="1136" 
d="M492 -6q-166 0 -260.5 110.5t-94.5 315.5l-4 579q59 -4 182 -4q-4 -220 -4 -553q0 -158 51.5 -229.5t172.5 -71.5q113 0 194.5 119t85.5 318q3 120 2.5 229.5t-2.5 186.5l-2 77q49 -2 180 -2q-6 -449 0 -1089q-73 0 -159 2q4 112 6 274q-49 -126 -140 -194t-208 -68z
M283 1249q2 45 -2 127q162 -2 567 4l-2 -129q-206 4 -563 -2z" />
    <glyph glyph-name="Ubreve" unicode="&#x16c;" horiz-adv-x="1296" 
d="M659 -29q-269 0 -393.5 158.5t-124.5 464.5l-4 788l191 -2q-4 -559 -4 -768q0 -250 82 -362.5t260 -112.5q167 0 240 118t73 368l-2 835q55 -2 182 4q-4 -579 -4 -848q0 -643 -496 -643zM651 1567q-148 0 -227.5 71.5t-79.5 204.5q55 -2 131 4q0 -86 46.5 -130t131.5 -44
q78 0 121.5 48t42.5 149q47 -2 131 2q4 -145 -74 -225t-223 -80z" />
    <glyph glyph-name="ubreve" unicode="&#x16d;" horiz-adv-x="1136" 
d="M492 -6q-166 0 -260.5 110.5t-94.5 315.5l-4 579q59 -4 182 -4q-4 -220 -4 -553q0 -158 51.5 -229.5t172.5 -71.5q113 0 194.5 119t85.5 318q3 120 2.5 229.5t-2.5 186.5l-2 77q49 -2 180 -2q-6 -449 0 -1089q-73 0 -159 2q4 112 6 274q-49 -126 -140 -194t-208 -68z
M569 1167q-148 0 -227.5 72t-79.5 205q55 -2 131 4q0 -86 46.5 -130t131.5 -44q79 0 122 48t42 148q47 -1 131 3q4 -145 -74 -225.5t-223 -80.5z" />
    <glyph glyph-name="Uring" unicode="&#x16e;" horiz-adv-x="1296" 
d="M659 -29q-269 0 -393.5 158.5t-124.5 464.5l-4 788l191 -2q-4 -559 -4 -768q0 -250 82 -362.5t260 -112.5q167 0 240 118t73 368l-2 835q55 -2 182 4q-4 -579 -4 -848q0 -643 -496 -643zM643 1538q-105 0 -169 62.5t-64 154.5t64.5 153.5t168.5 61.5q117 0 179.5 -63
t62.5 -152q0 -97 -68 -157t-174 -60zM647 1624q62 0 98.5 34t36.5 97q0 60 -34 96.5t-99 36.5t-100 -36.5t-35 -94.5q0 -57 35 -95t98 -38z" />
    <glyph glyph-name="uring" unicode="&#x16f;" horiz-adv-x="1136" 
d="M492 -6q-166 0 -260.5 110.5t-94.5 315.5l-4 579q59 -4 182 -4q-4 -220 -4 -553q0 -158 51.5 -229.5t172.5 -71.5q113 0 194.5 119t85.5 318q3 120 2.5 229.5t-2.5 186.5l-2 77q49 -2 180 -2q-6 -449 0 -1089q-73 0 -159 2q4 112 6 274q-49 -126 -140 -194t-208 -68z
M559 1139q-105 0 -169 62.5t-64 154.5t64.5 153.5t168.5 61.5q117 0 179.5 -63t62.5 -152q0 -97 -68 -157t-174 -60zM563 1225q62 0 98.5 34t36.5 97q0 60 -34 96.5t-99 36.5t-100 -36.5t-35 -94.5q0 -57 35 -95t98 -38z" />
    <glyph glyph-name="Uhungarumlaut" unicode="&#x170;" horiz-adv-x="1296" 
d="M659 -29q-269 0 -393.5 158.5t-124.5 464.5l-4 788l191 -2q-4 -559 -4 -768q0 -250 82 -362.5t260 -112.5q167 0 240 118t73 368l-2 835q55 -2 182 4q-4 -579 -4 -848q0 -643 -496 -643zM784 1544l-102 58q67 102 122.5 189.5t77.5 124.5l23 36l133 -72
q-79 -100 -142.5 -184t-87.5 -118zM483 1556l-102 54q65 103 119.5 190.5t75.5 123.5l22 36q38 -24 71 -42.5t47 -25.5l13 -6q-78 -101 -139.5 -183.5t-83.5 -114.5z" />
    <glyph glyph-name="uhungarumlaut" unicode="&#x171;" horiz-adv-x="1136" 
d="M492 -6q-166 0 -260.5 110.5t-94.5 315.5l-4 579q59 -4 182 -4q-4 -220 -4 -553q0 -158 51.5 -229.5t172.5 -71.5q113 0 194.5 119t85.5 318q3 120 2.5 229.5t-2.5 186.5l-2 77q49 -2 180 -2q-6 -449 0 -1089q-73 0 -159 2q4 112 6 274q-49 -126 -140 -194t-208 -68z
M700 1145q-35 21 -60.5 35t-33.5 18l-8 4q67 102 122.5 189.5t77.5 124.5l23 36l133 -71q-79 -100 -142.5 -184t-87.5 -118zM399 1157l-102 53q65 103 119.5 190.5t75.5 123.5l22 37q38 -24 71 -42.5t47 -24.5l13 -7q-78 -101 -139.5 -183.5t-83.5 -114.5z" />
    <glyph glyph-name="Uogonek" unicode="&#x172;" horiz-adv-x="1296" 
d="M735 -420q-37 -6 -73 -6q-113 0 -182.5 46t-69.5 128q-2 59 40 123t121 106q-223 24 -326.5 180.5t-103.5 436.5l-4 788l191 -2q-4 -559 -4 -768q0 -250 82 -362.5t260 -112.5q167 0 240 118t73 368l-2 835q55 -2 182 4q-4 -579 -4 -848q0 -626 -469 -643
q-69 -40 -105 -92.5t-36 -97.5q0 -49 52 -71.5t142 -16.5q-4 -41 -4 -113z" />
    <glyph glyph-name="uogonek" unicode="&#x173;" horiz-adv-x="1136" 
d="M965 -416q-38 -6 -74 -6q-113 0 -182.5 46t-69.5 128q-2 66 50 135.5t145 110.5q3 42 6 258q-49 -126 -140 -194t-208 -68q-166 0 -260.5 110.5t-94.5 315.5l-4 579q59 -4 182 -4q-4 -220 -4 -553q0 -158 51.5 -229.5t172.5 -71.5q113 0 194.5 119t85.5 318
q3 120 2.5 229.5t-2.5 186.5l-2 77q49 -2 180 -2q-6 -449 0 -1089h-69q-73 -40 -111.5 -94.5t-38.5 -100.5q0 -49 52.5 -71.5t142.5 -16.5q-4 -41 -4 -113z" />
    <glyph glyph-name="Ydieresis" unicode="&#x178;" horiz-adv-x="1245" 
d="M510 -20q-1 8 -1 73.5t-2 172.5t-5 198q-122 278 -457 971q64 2 203 10q94 -226 348 -774q142 269 401 813q82 -2 203 -6q-204 -374 -512 -1012q-2 -164 6 -444q-71 2 -184 -2zM440 1591q-50 0 -82 33t-32 86q0 51 33.5 81t82.5 30q55 0 86 -34.5t31 -80.5
q0 -54 -32.5 -84.5t-86.5 -30.5zM811 1593q-49 0 -81 32.5t-32 86.5q0 46 32.5 77.5t82.5 31.5q46 0 77.5 -30.5t31.5 -82.5q0 -51 -30 -83t-81 -32z" />
    <glyph glyph-name="Zacute" unicode="&#x179;" horiz-adv-x="1146" 
d="M1024 -4q-180 4 -407.5 6.5t-364.5 3.5h-137l2 139q473 747 700 1125q-196 -2 -369 -5t-248 -5l-75 -3l-2 164q263 2 488.5 5.5t318.5 6.5l94 3l4 -148q-507 -801 -700 -1120q126 -3 301 -4.5t287 -1.5h112zM553 1544l-96 72q77 96 143.5 182.5t94.5 125.5l28 38l127 -90
q-88 -93 -162.5 -175t-104.5 -117z" />
    <glyph glyph-name="zacute" unicode="&#x17a;" horiz-adv-x="1028" 
d="M911 -6q-260 8 -459.5 12t-269.5 4h-69l4 129q208 264 352.5 450t185.5 240l41 54q-204 -2 -346 -5t-182 -6l-39 -2l-4 150l778 8l2 -127q-174 -222 -317.5 -409.5t-200.5 -263.5l-57 -76q189 -4 335.5 -5t198.5 -1l51 1zM496 1145l-97 72q77 96 144 182.5t95 124.5
l28 39l127 -90q-88 -93 -162.5 -175t-104.5 -118z" />
    <glyph glyph-name="Zdotaccent" unicode="&#x17b;" horiz-adv-x="1146" 
d="M1024 -4q-180 4 -407.5 6.5t-364.5 3.5h-137l2 139q473 747 700 1125q-196 -2 -369 -5t-248 -5l-75 -3l-2 164q263 2 488.5 5.5t318.5 6.5l94 3l4 -148q-507 -801 -700 -1120q126 -3 301 -4.5t287 -1.5h112zM571 1581q-70 0 -108.5 42.5t-38.5 105.5q0 58 39 96.5
t108 38.5q70 0 109 -42t39 -98q0 -68 -40 -105.5t-108 -37.5z" />
    <glyph glyph-name="zdotaccent" unicode="&#x17c;" horiz-adv-x="1028" 
d="M911 -6q-260 8 -459.5 12t-269.5 4h-69l4 129q208 264 352.5 450t185.5 240l41 54q-204 -2 -346 -5t-182 -6l-39 -2l-4 150l778 8l2 -127q-174 -222 -317.5 -409.5t-200.5 -263.5l-57 -76q189 -4 335.5 -5t198.5 -1l51 1zM514 1182q-70 0 -108.5 42t-38.5 105
q0 58 39 96.5t108 38.5q70 0 109 -41.5t39 -97.5q0 -68 -40 -105.5t-108 -37.5z" />
    <glyph glyph-name="Zcaron" unicode="&#x17d;" horiz-adv-x="1146" 
d="M1024 -4q-180 4 -407.5 6.5t-364.5 3.5h-137l2 139q473 747 700 1125q-196 -2 -369 -5t-248 -5l-75 -3l-2 164q263 2 488.5 5.5t318.5 6.5l94 3l4 -148q-507 -801 -700 -1120q126 -3 301 -4.5t287 -1.5h112zM795 1886q33 -31 92 -76q-111 -116 -246 -280q-41 2 -137 0
q-94 108 -248 272q29 21 90 78q98 -113 227 -244q75 74 222 250z" />
    <glyph glyph-name="zcaron" unicode="&#x17e;" horiz-adv-x="1028" 
d="M911 -6q-260 8 -459.5 12t-269.5 4h-69l4 129q208 264 352.5 450t185.5 240l41 54q-204 -2 -346 -5t-182 -6l-39 -2l-4 150l778 8l2 -127q-174 -222 -317.5 -409.5t-200.5 -263.5l-57 -76q189 -4 335.5 -5t198.5 -1l51 1zM737 1487q33 -31 92 -76q-110 -117 -245 -281
q-42 2 -138 0q-93 109 -247 273q29 21 90 78q98 -113 227 -244q74 74 221 250z" />
    <glyph glyph-name="florin" unicode="&#x192;" horiz-adv-x="1107" 
d="M907 705l-262 6q-13 -66 -40 -209t-49 -253t-44 -202q-45 -187 -133.5 -269.5t-235.5 -82.5q-71 0 -153 18q8 48 18 144q60 -13 101 -13q89 0 139 53t80 173q40 162 133 643h-199l4 143q168 -4 223 -4l37 182q38 179 123.5 263.5t220.5 84.5q89 0 187 -26
q-8 -40 -13.5 -76t-7.5 -52l-2 -16q-68 23 -123 23q-81 0 -128.5 -54t-73.5 -165l-37 -168l233 2z" />
    <glyph glyph-name="Scommaaccent" unicode="&#x218;" horiz-adv-x="1239" 
d="M616 -41q-239 9 -372 133.5t-148 366.5q62 4 197 20q6 -172 92.5 -266.5t235.5 -99.5q133 -3 226 58.5t93 172.5q0 37 -7 64.5t-30.5 60t-64.5 60.5t-112.5 58.5t-172.5 59.5q-219 64 -318.5 169t-99.5 265q0 167 134.5 274t351.5 107q210 0 340.5 -117.5t150.5 -336.5
q-77 -13 -186 -25q-2 143 -82 232.5t-223 89.5q-140 0 -221 -60t-81 -162q0 -107 84.5 -173.5t288.5 -127.5q138 -41 229 -91t135.5 -107.5t60.5 -111t16 -122.5q0 -117 -68.5 -208.5t-187 -139.5t-261.5 -43zM735 -246q0 -71 -50 -151t-132 -144q-53 56 -59 58
q63 53 112 135q-48 9 -74 40t-26 72q0 46 29 80.5t86 34.5q53 0 83.5 -35t30.5 -90z" />
    <glyph glyph-name="scommaaccent" unicode="&#x219;" horiz-adv-x="1054" 
d="M520 -47q-87 0 -162 22.5t-136 67.5t-100 120t-50 173q63 2 172 16q24 -136 93 -195.5t191 -62.5q112 -3 179 42.5t67 117.5q0 40 -18.5 67.5t-85 59t-191.5 63.5q-193 50 -275.5 127t-82.5 199q0 132 110 213.5t289 81.5q165 0 274 -90.5t146 -255.5q-66 -7 -164 -23
q-27 110 -98 173t-174 63q-98 0 -152.5 -46t-54.5 -116q0 -71 63 -114.5t211 -77.5q217 -51 299 -122t82 -190q0 -151 -118.5 -232t-313.5 -81zM633 -246q0 -71 -50 -151t-132 -144q-53 56 -60 58q65 55 113 135q-48 9 -74.5 40t-26.5 72q0 46 29 80.5t86 34.5q53 0 84 -35
t31 -90z" />
    <glyph glyph-name="uni0237" unicode="&#x237;" horiz-adv-x="534" 
d="M-78 -424q4 70 6 168q58 -12 105 -12q73 0 111.5 37t39.5 120q2 265 1 518t-3 436l-2 183q60 -1 99 -0.5t57 1.5l18 1q1 -58 2.5 -157.5t4 -413t-0.5 -578.5q0 -160 -86.5 -236.5t-232.5 -76.5q-51 0 -119 10z" />
    <glyph glyph-name="circumflex" unicode="&#x2c6;" horiz-adv-x="1187" 
d="M354 1130q-33 31 -92 76q107 117 242 281q49 -2 145 0q90 -109 244 -273q-29 -20 -90 -77q-99 112 -228 243q-80 -76 -221 -250z" />
    <glyph glyph-name="caron" unicode="&#x2c7;" horiz-adv-x="1187" 
d="M850 1487q33 -31 92 -76q-111 -117 -246 -281q-41 2 -137 0q-94 109 -248 273q29 21 90 78q99 -113 228 -244q74 74 221 250z" />
    <glyph glyph-name="breve" unicode="&#x2d8;" horiz-adv-x="1187" 
d="M588 1167q-148 0 -227.5 72t-79.5 205q55 -2 131 4q0 -86 46.5 -130t131.5 -44q79 0 122 48t42 148q47 -1 131 3q4 -145 -74 -225.5t-223 -80.5z" />
    <glyph glyph-name="dotaccent" unicode="&#x2d9;" horiz-adv-x="1187" 
d="M588 1182q-71 0 -109.5 42t-38.5 105q0 58 39.5 96.5t108.5 38.5q70 0 108.5 -41.5t38.5 -97.5q0 -68 -39.5 -105.5t-107.5 -37.5z" />
    <glyph glyph-name="ring" unicode="&#x2da;" horiz-adv-x="1187" 
d="M594 1139q-105 0 -169.5 62.5t-64.5 154.5t65 153.5t169 61.5q117 0 179.5 -63t62.5 -152q0 -97 -68 -157t-174 -60zM598 1225q62 0 98.5 34t36.5 97q0 60 -34 96.5t-99 36.5t-100 -36.5t-35 -94.5q0 -57 35 -95t98 -38z" />
    <glyph glyph-name="ogonek" unicode="&#x2db;" horiz-adv-x="1187" 
d="M741 -424q-38 -6 -73 -6q-113 0 -182.5 46t-69.5 128q-2 68 53.5 139.5t155.5 110.5l112 -4q-91 -41 -138.5 -101t-47.5 -112q0 -49 52 -71.5t142 -16.5q-4 -41 -4 -113z" />
    <glyph glyph-name="tilde" unicode="&#x2dc;" horiz-adv-x="1187" 
d="M342 1186q-41 12 -111 20q5 120 61 188t152 68q44 0 86.5 -27t70 -59t60 -59t60.5 -27q38 0 60 32.5t34 117.5q37 -11 113 -23q-13 -138 -64.5 -193t-140.5 -55q-38 0 -74 17.5t-63.5 43t-52 51t-50 43t-47.5 17.5q-79 0 -94 -155z" />
    <glyph glyph-name="hungarumlaut" unicode="&#x2dd;" horiz-adv-x="1187" 
d="M707 1145q-35 21 -60.5 35t-34.5 18l-8 4q67 102 122.5 189.5t77.5 124.5l23 36l134 -71q-79 -100 -142.5 -184t-87.5 -118zM406 1157l-103 53q65 103 119.5 190.5t75.5 123.5l22 37q38 -24 71 -42.5t47 -24.5l13 -7q-78 -101 -139.5 -183.5t-83.5 -114.5z" />
    <glyph glyph-name="endash" unicode="&#x2013;" horiz-adv-x="966" 
d="M893 780q-1 -62 -0.5 -98t1.5 -50l1 -14q-236 4 -442 5.5t-293 0.5l-88 -1l2 157q256 -2 460.5 -2t281.5 1z" />
    <glyph glyph-name="emdash" unicode="&#x2014;" horiz-adv-x="1163" 
d="M74 614q2 66 -2 158q470 -2 1020 4q-1 -7 -1.5 -20.5t-1.5 -57t1 -84.5q-446 6 -1016 0z" />
    <glyph glyph-name="quoteleft" unicode="&#x2018;" horiz-adv-x="526" 
d="M356 1505l78 -82q-104 -85 -145 -215q55 -4 90 -45.5t35 -99.5q0 -69 -39.5 -114.5t-102.5 -45.5q-69 0 -114 49.5t-45 130.5q0 115 69.5 230.5t173.5 191.5z" />
    <glyph glyph-name="quoteright" unicode="&#x2019;" horiz-adv-x="532" 
d="M268 1470q67 0 109.5 -50.5t42.5 -135.5q0 -106 -73.5 -220.5t-178.5 -186.5l-76 73q88 71 154 205q-63 14 -93 56t-30 100q0 74 40.5 116.5t104.5 42.5z" />
    <glyph glyph-name="quotesinglbase" unicode="&#x201a;" horiz-adv-x="526" 
d="M170 -317l-78 81q98 80 146 216q-56 4 -90.5 45t-34.5 100q0 69 39 114.5t102 45.5q69 0 114.5 -50.5t45.5 -130.5q0 -115 -70 -230t-174 -191z" />
    <glyph glyph-name="quotedblleft" unicode="&#x201c;" horiz-adv-x="927" 
d="M670 895q-70 0 -114 48.5t-44 141.5q0 95 68.5 216t175.5 196l80 -78q-88 -75 -150 -217q59 -7 93 -50.5t34 -92.5q0 -80 -43 -122t-100 -42zM264 926q-67 0 -109 50.5t-42 135.5q0 106 74 221t178 187l73 -74q-91 -77 -151 -205q63 -14 93 -56t30 -100q0 -74 -41 -116.5
t-105 -42.5z" />
    <glyph glyph-name="quotedblright" unicode="&#x201d;" horiz-adv-x="925" 
d="M563 872q-19 22 -38 42t-29 29l-9 9q58 49 96 109t52 104q-55 7 -89 53t-34 105q0 67 43 110.5t107 43.5q68 0 109.5 -49.5t41.5 -131.5q0 -113 -72 -230t-178 -194zM170 844l-78 82q98 78 146 213q-56 6 -90.5 47t-34.5 100q0 68 43.5 114t107.5 46q70 0 110 -52
t40 -128q0 -115 -70 -230.5t-174 -191.5z" />
    <glyph glyph-name="quotedblbase" unicode="&#x201e;" horiz-adv-x="907" 
d="M258 276q70 0 114 -48.5t44 -141.5q0 -95 -68.5 -216t-175.5 -196l-80 78q90 78 150 217q-59 7 -93 50.5t-34 93.5q0 80 43 121.5t100 41.5zM643 309q67 0 109.5 -50.5t42.5 -135.5q0 -106 -74 -221t-178 -187l-76 74q86 71 154 205q-63 14 -93 56t-30 100
q0 74 40.5 116.5t104.5 42.5z" />
    <glyph glyph-name="dagger" unicode="&#x2020;" horiz-adv-x="765" 
d="M72 1059q0 5 0.5 14.5t1.5 44t0 76.5q69 -4 237 -6v252q48 0 144 2q-2 -104 -2 -254h239q-2 -47 2 -135q-93 2 -243 4q0 -404 4 -629l-148 2q2 278 4 629h-239z" />
    <glyph glyph-name="daggerdbl" unicode="&#x2021;" horiz-adv-x="786" 
d="M705 791q-1 -5 -1.5 -14.5t-1.5 -44.5t0 -77q-71 2 -237 4v-229q-47 0 -143 -2q0 93 2 234h-240q2 47 -2 135q92 -2 242 -4v286h-242q0 5 0.5 14.5t1.5 44t0 76.5q72 -4 240 -6l-2 234l147 -2q-2 -91 -4 -232h237q-1 -47 3 -135q-93 2 -240 4v-286h240z" />
    <glyph glyph-name="bullet" unicode="&#x2022;" horiz-adv-x="718" 
d="M362 422q-111 0 -190.5 75.5t-79.5 204.5q0 123 73.5 200t196.5 77q117 0 191 -76.5t74 -197.5q0 -131 -77.5 -207t-187.5 -76z" />
    <glyph glyph-name="ellipsis" unicode="&#x2026;" horiz-adv-x="1513" 
d="M272 -12q-65 0 -107 41.5t-42 115.5q0 60 41.5 104t105.5 44q65 0 108.5 -42.5t43.5 -105.5q-1 -72 -42.5 -114.5t-107.5 -42.5zM756 -53q-63 0 -105.5 40.5t-42.5 110.5q0 69 42.5 110.5t107.5 41.5q67 0 106 -42t39 -104q0 -72 -40 -114.5t-107 -42.5zM1247 -16
q-65 0 -107 40t-42 113q0 65 41 107.5t106 42.5t105.5 -43t40.5 -107q0 -72 -39.5 -112.5t-104.5 -40.5z" />
    <glyph glyph-name="perthousand" unicode="&#x2030;" horiz-adv-x="2387" 
d="M1217 -37q-154 0 -238 104.5t-84 268.5q0 99 37 183.5t112.5 139t174.5 54.5q154 0 239.5 -106.5t85.5 -268.5q0 -182 -89.5 -278.5t-237.5 -96.5zM1995 733q153 0 237 -105t84 -274q0 -154 -84 -262t-233 -108q-155 0 -243.5 103.5t-88.5 272.5q0 166 94.5 269.5
t233.5 103.5zM393 618q-153 0 -237 105t-84 274q0 73 22 139.5t62 118.5t102.5 82.5t138.5 30.5q155 0 239.5 -103.5t84.5 -273.5q0 -166 -94.5 -269.5t-233.5 -103.5zM434 -41l-110 16q249 401 458 743t293 484l84 141l119 -14zM393 727q87 0 136 74.5t51 195.5
q0 116 -47 190.5t-136 74.5q-83 0 -133.5 -76t-50.5 -191q0 -126 46.5 -197t133.5 -71zM1995 625q-87 0 -136 -75t-51 -196q0 -116 47 -190t136 -74q83 0 133.5 75.5t50.5 190.5q0 126 -46.5 197.5t-133.5 71.5zM1221 72q86 0 133 73t47 185q0 129 -46.5 200.5t-140.5 71.5
q-79 0 -127.5 -75.5t-48.5 -184.5q0 -126 49 -198t134 -72z" />
    <glyph glyph-name="guilsinglleft" unicode="&#x2039;" horiz-adv-x="563" 
d="M338 1147q54 -8 154 -12q-132 -199 -273 -443q100 -199 258 -477q-59 0 -155 -8q-97 193 -261 489q138 207 277 451z" />
    <glyph glyph-name="guilsinglright" unicode="&#x203a;" horiz-adv-x="577" 
d="M248 1169q88 -172 268 -495q-131 -200 -291 -469q-53 6 -153 8q136 211 288 465q-96 187 -262 475q60 2 150 16z" />
    <glyph glyph-name="fraction" unicode="&#x2044;" horiz-adv-x="1011" 
d="M111 -41l-111 16q249 401 472.5 767.5t321.5 531.5l99 166l119 -15z" />
    <glyph glyph-name="Euro" unicode="&#x20ac;" horiz-adv-x="1439" 
d="M53 737q0 63 -2 133q40 0 185 2q46 233 194.5 366.5t372.5 133.5q222 0 343.5 -115.5t164.5 -334.5q-43 -4 -87.5 -11t-67.5 -13l-23 -5q-30 160 -108.5 242t-219.5 82q-148 0 -244 -87.5t-133 -252.5l426 8l-4 -133q-91 -1 -442 -7q-1 -8 -1.5 -21t-1.5 -53.5t1 -70.5
q301 5 473 10q-2 -70 0 -133q-91 0 -459 -6q32 -172 127 -267t250 -95q73 0 129.5 19t105 63t81 124t46.5 195l189 -10q-30 -266 -171.5 -409t-381.5 -140q-240 0 -383 138.5t-181 379.5q-110 -4 -172 -4q2 55 2 133q64 -2 156 0q-2 43 -1.5 74.5t2.5 49.5l1 19z" />
    <glyph glyph-name="servicemark" unicode="&#x2120;" horiz-adv-x="1560" 
d="M705 760q12 279 14 624q72 -1 166 5q102 -271 194 -498q95 266 181 541q78 -7 170 -9q5 -304 32 -698q-58 -2 -119 -6q-4 278 -18 594q-81 -212 -178 -514q-59 0 -131 2q-95 243 -193 483q-6 -337 2 -524q-48 2 -120 0zM354 713q-115 0 -193.5 56.5t-88.5 170.5l123 14
q14 -147 155 -147q133 0 133 111q0 31 -33 56.5t-135 53.5q-111 31 -163 81t-52 126q0 92 65.5 147.5t176.5 55.5q232 0 266 -217q-53 -3 -116 -15q-13 72 -44 107t-102 35q-55 0 -91 -29t-36 -78q0 -46 39 -75t131 -54q122 -34 166.5 -78t44.5 -114q0 -96 -71.5 -151.5
t-174.5 -55.5z" />
    <glyph glyph-name="trademark" unicode="&#x2122;" horiz-adv-x="1503" 
d="M647 764q11 261 17 610q75 -2 167 4q95 -246 193 -473q71 199 180 518q78 -6 170 -10q6 -278 31 -672q-56 -2 -119 -6q-4 260 -16 572q-117 -309 -180 -498q-62 0 -132 4q-94 232 -192 465q-5 -289 4 -514q-51 2 -123 0zM61 1311q3 32 5 106q216 -4 522 6q-2 -46 -2 -112
q-86 2 -195 2q0 -324 6 -586q-47 4 -125 0q4 261 0 586z" />
    <glyph glyph-name="minus" unicode="&#x2212;" horiz-adv-x="991" 
d="M899 748l-2 -152q-193 4 -394 4.5t-306 -0.5l-105 -2v152q177 -4 379 -4.5t315 0.5z" />
    <glyph glyph-name="Pcircle" unicode="&#x24c5;" horiz-adv-x="1490" 
d="M756 1364q295 0 464 -196t169 -527q0 -118 -24.5 -221t-76.5 -190t-128 -148.5t-184.5 -96t-240.5 -34.5q-292 0 -462.5 188t-170.5 516q0 209 75.5 368t224.5 250t354 91zM745 1282q-252 0 -402 -174t-150 -449q0 -295 144 -459.5t406 -164.5q180 0 306.5 80
t188.5 219.5t62 327.5q0 125 -36 236t-104 197.5t-175 136.5t-240 50zM477 270q4 180 -4 777q106 14 205 14q399 0 399 -266q0 -127 -102 -199t-285 -72q-44 0 -69 2l6 -254q-87 0 -150 -2zM618 942q-2 -98 0 -303q27 -2 74 -2q122 0 182 41.5t60 118.5q0 149 -225 149
q-25 0 -91 -4z" />
    <glyph glyph-name="Pcircle" unicode="&#x24df;" horiz-adv-x="1490" 
d="M756 1364q295 0 464 -196t169 -527q0 -118 -24.5 -221t-76.5 -190t-128 -148.5t-184.5 -96t-240.5 -34.5q-292 0 -462.5 188t-170.5 516q0 209 75.5 368t224.5 250t354 91zM745 1282q-252 0 -402 -174t-150 -449q0 -295 144 -459.5t406 -164.5q180 0 306.5 80
t188.5 219.5t62 327.5q0 125 -36 236t-104 197.5t-175 136.5t-240 50zM477 270q4 180 -4 777q106 14 205 14q399 0 399 -266q0 -127 -102 -199t-285 -72q-44 0 -69 2l6 -254q-87 0 -150 -2zM618 942q-2 -98 0 -303q27 -2 74 -2q122 0 182 41.5t60 118.5q0 149 -225 149
q-25 0 -91 -4z" />
    <glyph glyph-name="commaaccent" horiz-adv-x="1247" 
d="M717 -225q0 -71 -50 -151t-132 -144q-51 54 -60 57q65 55 113 135q-48 9 -74.5 40.5t-26.5 72.5q0 46 29 80.5t86 34.5q53 0 84 -35t31 -90z" />
    <glyph glyph-name="space.tab" horiz-adv-x="628" 
 />
    <glyph glyph-name="dollar.tab" 
d="M737 -270h-170q8 164 8 229q-93 10 -170 42t-137 86.5t-94.5 137t-36.5 185.5q89 6 189 20q3 -162 86 -243t229 -81q131 0 215 61.5t84 149.5q0 43 -13 75.5t-48 66.5t-103.5 64.5t-173.5 60.5q-233 66 -332.5 153t-99.5 240q0 154 107 262t292 123l-8 229l180 -2
q-10 -202 -10 -233q181 -29 281 -152.5t102 -314.5q-67 -3 -182 -19q2 154 -74.5 250.5t-228.5 96.5q-125 0 -199 -65.5t-74 -160.5q0 -89 77 -149.5t278 -120.5q127 -38 211 -81.5t127.5 -93.5t60 -99t16.5 -113q0 -146 -112.5 -247.5t-278.5 -125.5z" />
    <glyph glyph-name="cent.tab" 
d="M559 -135q8 167 8 231q-205 31 -315.5 196t-110.5 410q0 251 112 419t312 200l-8 233l180 2l-12 -231q165 -20 267.5 -129t127.5 -291q-52 -4 -97.5 -10t-64.5 -10l-20 -4q-31 151 -95.5 225t-187.5 74q-107 0 -182.5 -63.5t-111 -167t-35.5 -234.5q0 -225 88.5 -346
t242.5 -121q118 0 189 65t102 222q61 -17 180 -35q-30 -180 -134.5 -283.5t-266.5 -122.5q0 -63 1.5 -120t3.5 -83l1 -26h-174z" />
    <glyph glyph-name="Euro.tab" 
d="M29 737q0 63 -2 133q26 0 161 2q44 228 181.5 364t343.5 136q389 0 477 -450q-43 -4 -87.5 -11t-67.5 -13l-23 -5q-30 159 -102 241.5t-195 82.5q-137 0 -222 -88t-118 -252l389 8l-4 -133q-51 1 -402 -7q-1 -7 -1.5 -19.5t-1.5 -51.5t1 -74q261 5 432 10q-2 -70 0 -133
q-51 2 -417 -6q29 -169 115.5 -265.5t224.5 -96.5q278 0 327 401l189 -10q-30 -271 -169 -411.5t-353 -137.5q-114 0 -206.5 39t-155.5 110t-103 163t-58 204l-147 -2q2 55 2 133q47 -2 131 0q-2 43 -1.5 74.5t1.5 49.5l2 17z" />
    <glyph glyph-name="sterling.tab" 
d="M326 530h-183l-2 152q43 -2 123 -2q-29 58 -44 94t-30.5 94.5t-15.5 112.5q0 184 137 293.5t344 109.5q221 0 345.5 -120.5t148.5 -339.5q-62 -8 -193 -31q-6 154 -81.5 242t-219.5 88q-135 0 -211.5 -72.5t-76.5 -171.5q0 -34 12 -76.5t21.5 -67t37.5 -83.5t35 -74
l424 2l2 -156q-282 4 -377 4q4 -32 4 -49q0 -92 -40 -176.5t-109 -140.5q204 -7 756 0q-1 -7 -2 -21t-2.5 -59.5t-0.5 -93.5q-231 8 -978 12q2 86 2 158q182 113 182 313q0 32 -8 59z" />
    <glyph glyph-name="yen.tab" 
d="M193 393q-1 57 -5 137q87 0 263 2q-76 172 -373 793q65 0 198 8q177 -412 349 -784q132 249 403 846q74 -7 197 -9q-203 -381 -426 -845q7 0 106 2t162 4l-2 -137q-113 0 -346 -4q-2 -52 -2 -132l354 9q0 -61 2 -133l-354 -3l6 -172q-73 0 -190 -2q2 68 2 170l-353 -8
q2 59 2 137q120 -2 349 0l-5 129z" />
    <glyph glyph-name="florin.tab" 
d="M983 705l-262 6q-13 -66 -40 -209t-49 -253t-44 -202q-45 -187 -133.5 -269.5t-235.5 -82.5q-71 0 -153 18q8 48 18 144q60 -13 100 -13q89 0 139 53t80 173q44 182 134 643h-199l4 143q168 -4 223 -4l37 182q38 179 123.5 263.5t220.5 84.5q89 0 187 -26
q-8 -40 -13.5 -76t-7.5 -52l-2 -16q-68 23 -123 23q-81 0 -129.5 -54.5t-73.5 -164.5l-36 -168l233 2z" />
    <glyph glyph-name="zero.tab" 
d="M631 -45q-115 0 -211 43.5t-169 130t-114 227t-41 322.5q0 324 148 513t387 189q256 0 395 -185t139 -509q0 -329 -144 -530t-390 -201zM639 117q153 0 245.5 143.5t92.5 427.5q0 109 -20.5 204t-61.5 170t-107.5 118t-152.5 43q-112 0 -192 -72t-118 -191t-38 -272
q0 -278 88.5 -424.5t263.5 -146.5z" />
    <glyph glyph-name="one.tab" 
d="M268 -14l-2 161q182 -6 344 -6q2 693 -4 1004l-325 -180l-60 143q112 60 222.5 122.5t165.5 95.5l55 32l116 -17q0 -658 15 -1202l319 2l-4 -155q-181 2 -391.5 2t-330.5 -1z" />
    <glyph glyph-name="two.tab" 
d="M1110 -6q-245 6 -487 9.5t-362 4.5h-120l-4 174q230 134 383 243t245 206t130.5 181.5t38.5 176.5q0 105 -72.5 175.5t-187.5 70.5q-162 0 -248.5 -102t-89.5 -289q-91 12 -197 24q17 263 156.5 390.5t374.5 127.5q126 0 230.5 -46.5t168.5 -139t64 -213.5
q0 -231 -183 -425t-559 -396q227 -4 387.5 -3.5t247.5 3.5l86 4z" />
    <glyph glyph-name="three.tab" 
d="M641 -47q-246 0 -392 113.5t-159 353.5q68 4 191 20q7 -178 97 -256t269 -78q138 0 226 69t88 187q0 72 -46.5 126.5t-134.5 80.5q-109 33 -317 33q0 74 -2 146q97 -5 104 -5q147 0 246 41q59 24 96 78.5t37 124.5q0 122 -86 190t-227 68q-283 0 -322 -311l-194 39
q19 111 67 193.5t117.5 131.5t153 73t182.5 24q220 0 360 -107.5t140 -283.5q0 -130 -77.5 -215.5t-199.5 -108.5q133 -27 213 -114t80 -210q0 -182 -145 -292.5t-365 -110.5z" />
    <glyph glyph-name="four.tab" 
d="M844 -2q0 107 4 295q-336 0 -766 -6q-2 47 0 153l692 940l252 -4q-4 -397 -4 -936q98 0 147 2q-2 -61 -2 -147h-143l2 -295zM852 1233q-134 -182 -259.5 -355t-214 -295.5t-104.5 -144.5h574q4 446 4 795z" />
    <glyph glyph-name="five.tab" 
d="M662 -45q-212 0 -346.5 99t-180.5 282q50 8 101 19t76 17l26 7q51 -281 330 -281q145 0 233 98t88 255q0 138 -78.5 227.5t-224.5 89.5q-219 0 -332 -219q-80 10 -180 14q12 360 16 791q546 0 916 8q-2 -66 -2 -160q-435 2 -737 -4q-15 -354 -17 -463q69 82 167 126
t212 44q208 0 330.5 -125.5t124.5 -337.5q0 -223 -141.5 -355t-380.5 -132z" />
    <glyph glyph-name="six.tab" 
d="M662 -53q-259 0 -408.5 182.5t-149.5 523.5q0 340 150 535.5t412 195.5q384 0 471 -374q-51 -3 -103.5 -8.5t-79.5 -9.5l-26 -5q-26 124 -88 186t-176 62q-170 0 -268.5 -147.5t-98.5 -421.5v-48q70 102 181.5 165t240.5 63q215 0 341 -118t126 -300q0 -152 -69 -262
t-186.5 -164.5t-268.5 -54.5zM702 696q-122 0 -222.5 -60.5t-168.5 -166.5q34 -190 131 -280.5t236 -90.5q138 0 222.5 88.5t84.5 225.5q2 126 -76 205t-207 79z" />
    <glyph glyph-name="seven.tab" 
d="M451 -18q-10 360 118 666t367 548l-797 -4v164l987 8l4 -172q-173 -180 -277 -351t-157 -384t-47 -475h-198z" />
    <glyph glyph-name="eight.tab" 
d="M639 -55q-265 0 -408 106t-143 297q0 131 85.5 224.5t234.5 132.5q-132 42 -201.5 129.5t-69.5 203.5q0 147 130 249t364 102q239 0 368 -98.5t129 -248.5q0 -122 -70 -208t-206 -129q150 -44 233.5 -140t85.5 -221q0 -96 -41.5 -173t-114.5 -126t-169 -74.5t-207 -25.5z
M633 90q154 0 247 68t93 188q0 117 -103.5 195t-271.5 102q-148 -30 -230.5 -102.5t-82.5 -184.5q0 -124 93.5 -195t254.5 -71zM670 760q127 24 198.5 91.5t71.5 172.5q-2 106 -81 167.5t-228 61.5q-138 0 -222.5 -61.5t-84.5 -167.5q0 -198 346 -264z" />
    <glyph glyph-name="nine.tab" 
d="M604 -47q-219 0 -349.5 113t-164.5 329q47 3 97 7.5t76 7.5l26 4q24 -157 104 -229t213 -72q81 0 143 29.5t111 96.5t75 186t26 286v10q-66 -95 -174.5 -149t-243.5 -54q-210 0 -329.5 121.5t-119.5 304.5q0 199 140 323t370 124q250 0 396.5 -178.5t146.5 -512.5
q1 -377 -143 -562t-400 -185zM588 662q107 0 203 54.5t159 145.5q-26 184 -117 280.5t-233 96.5q-143 0 -227 -85.5t-84 -217.5q0 -131 82 -202.5t217 -71.5z" />
    <glyph glyph-name="plus.tab" 
d="M549 193q4 266 4 413l-379 -2l-2 154q176 -6 381 -6v397l154 -4q-5 -352 -5 -393l388 2l-5 -150q-121 2 -383 2l5 -411z" />
    <glyph glyph-name="minus.tab" 
d="M1055 748l-2 -152q-193 4 -404.5 4.5t-326.5 -0.5l-115 -2v152q177 -4 389 -4.5t336 0.5z" />
    <glyph glyph-name="multiply.tab" 
d="M303 225q-32 33 -100 94q152 160 338 361l-328 348l98 98q110 -125 320 -350q160 171 330 363q43 -48 98 -99q-154 -159 -340 -360l334 -354q-31 -27 -57 -51t-36 -34l-10 -10q-221 245 -321 353q-162 -174 -326 -359z" />
    <glyph glyph-name="divide.tab" 
d="M184 750q136 -2 301 -2.5t279.5 0t213 1.5t99.5 1q-1 -25 -1 -49.5v-42t0.5 -31t0.5 -22v-9.5q-101 2 -226 3t-236.5 1t-203.5 -0.5t-158.5 -1t-70.5 -0.5zM627 1180q51 0 83.5 -36.5t32.5 -94.5q0 -59 -32 -95t-86 -36q-56 0 -86.5 34.5t-30.5 96.5q0 63 32 97t87 34z
M629 430q54 0 85 -36.5t31 -100.5q0 -56 -32.5 -89.5t-85.5 -33.5q-56 0 -86.5 34t-30.5 89q0 68 32 102.5t87 34.5z" />
    <glyph glyph-name="equal.tab" 
d="M207 401q0 38 -4 138q390 -2 854 4l-2 -142q-364 4 -848 0zM1057 805q-216 4 -429.5 5t-319.5 0l-105 -1l4 141q198 -2 410.5 -2t326.5 1l113 1v-145z" />
    <glyph glyph-name="less.tab" 
d="M1075 313q-1 -9 -2 -24t-2 -59.5t0 -86.5q-423 205 -907 432q4 72 4 166q392 180 897 430q-4 -67 -4 -176q-345 -152 -739 -336q456 -215 753 -346z" />
    <glyph glyph-name="greater.tab" 
d="M199 141l-4 164q393 184 745 357q-169 82 -351.5 166t-280.5 128l-97 43q2 61 -4 172q226 -114 445 -221t325 -157l106 -50l4 -161q-208 -101 -430 -211t-340 -170z" />
    <glyph glyph-name="period.tab" horiz-adv-x="628" 
d="M315 -20q-69 0 -108 43t-39 114t40.5 113.5t104.5 42.5q69 0 109.5 -44t40.5 -106q0 -76 -40 -119.5t-108 -43.5z" />
    <glyph glyph-name="comma.tab" horiz-adv-x="628" 
d="M207 -324q-23 27 -42.5 48t-27.5 28l-8 8q114 89 160 224q-55 4 -90 45.5t-35 103.5q0 63 41.5 109.5t109.5 46.5q69 0 109.5 -50t40.5 -130q0 -123 -70.5 -233.5t-187.5 -199.5z" />
    <glyph glyph-name="colon.tab" horiz-adv-x="628" 
d="M315 -29q-66 0 -106.5 43t-40.5 117q0 70 41 114t108 44q77 0 112.5 -46.5t35.5 -111.5q0 -75 -40.5 -117.5t-109.5 -42.5zM313 551q-67 0 -107 44t-40 118q0 68 40.5 110.5t108.5 42.5t108 -44t40 -109q0 -79 -41.5 -120.5t-108.5 -41.5z" />
    <glyph glyph-name="semicolon.tab" horiz-adv-x="628" 
d="M217 -322q-12 13 -24.5 25t-22.5 20.5t-17.5 15.5t-12.5 11l-5 4q98 77 160 230q-56 2 -94.5 41t-38.5 100q0 71 42.5 117.5t108.5 46.5q71 0 111.5 -54.5t40.5 -128.5q0 -109 -74.5 -232.5t-173.5 -195.5zM313 553q-63 0 -105 43t-42 123q0 62 41 105.5t110 43.5
q60 0 103 -42t43 -107q0 -75 -40 -120.5t-110 -45.5z" />
    <glyph glyph-name="parenleft.tab" horiz-adv-x="737" 
d="M440 -281q-237 435 -237 895q0 264 64.5 501t187.5 423l151 -57q-215 -364 -215 -856q0 -217 48.5 -415.5t164.5 -432.5q-42 -13 -83 -27.5t-61 -22.5z" />
    <glyph glyph-name="parenright.tab" horiz-adv-x="737" 
d="M297 -285q-70 31 -166 58q109 226 162 433.5t53 426.5q0 227 -53.5 449t-159.5 403q64 24 154 65q122 -192 185 -431t63 -494q0 -460 -238 -910z" />
    <glyph glyph-name="bracketleft.tab" horiz-adv-x="737" 
d="M631 -240q-199 7 -422 7q4 524 -8 1732q163 0 417 4q1 -59 5 -139q-99 0 -234 -4q-4 -908 2 -1444q99 -4 244 -4q-4 -60 -4 -152z" />
    <glyph glyph-name="bracketright.tab" horiz-adv-x="737" 
d="M113 -246q0 38 -1 73.5t-2 56.5l-1 20q59 0 116.5 1t91.5 2t37 1q2 361 0 861.5t-4 606.5q-81 4 -231 4q2 37 2 142q233 -4 416 -4q-8 -1032 -2 -1758q-85 1 -184 -0.5t-167 -3.5t-71 -2z" />
    <glyph glyph-name="braceleft.tab" horiz-adv-x="737" 
d="M674 -229q-84 -15 -133 -15q-152 0 -218.5 71t-66.5 226l16 305q0 118 -48.5 171t-178.5 49l4 165q131 -6 178 34t47 143q0 47 -10 165.5t-10 171.5q0 134 65.5 196.5t198.5 62.5q56 0 141 -19v-137q-49 6 -86 6q-76 0 -108.5 -38t-32.5 -122q0 -44 9.5 -152t9.5 -155
q0 -109 -36.5 -163.5t-138.5 -78.5q97 -23 132.5 -84.5t35.5 -175.5l-12 -282q0 -117 36 -162t134 -45q18 0 68 4z" />
    <glyph glyph-name="braceright.tab" horiz-adv-x="737" 
d="M63 -242q5 48 5 140q54 -7 84 -7q88 0 123.5 42t35.5 143q0 48 -9 164t-9 170q0 106 37.5 165.5t132.5 81.5q-96 20 -135 76t-39 168q0 54 10 165t10 153q0 81 -38 116t-117 35q-35 0 -76 -6l2 139q73 17 133 17q142 0 208 -61.5t66 -192.5q0 -56 -12 -172.5t-12 -165.5
q0 -108 49 -150t176 -35q0 -147 4 -163q-125 6 -176 -43.5t-51 -163.5q0 -52 11 -176t11 -181q0 -140 -68 -205.5t-214 -66.5q-79 0 -142 14z" />
    <glyph glyph-name="section.tab" 
d="M647 -410q-254 0 -386.5 106t-154.5 322q52 8 98 17t66 13l19 5q26 -170 109 -238.5t249 -68.5q119 0 204 60.5t85 160.5q0 28 -5 48t-26.5 47t-59.5 46.5t-109 40t-171 35.5q-230 35 -329 110.5t-99 215.5q0 94 74 165t172 101q-102 35 -166.5 123t-64.5 191
q0 165 124.5 270.5t352.5 105.5q214 0 334 -108.5t145 -313.5q-56 -6 -100.5 -12.5t-61.5 -9.5l-16 -4q-14 147 -90 224t-209 77q-140 0 -215.5 -58.5t-75.5 -158.5q0 -96 82.5 -150.5t277.5 -83.5q133 -20 222.5 -50.5t136.5 -72t65.5 -87t18.5 -105.5q0 -92 -59 -172.5
t-152 -126.5q90 -30 145 -99.5t58 -168.5q0 -76 -26.5 -141.5t-72.5 -111.5t-108 -78.5t-133.5 -48.5t-147.5 -16zM328 537q0 -37 9 -62t37 -51.5t80 -46.5t138.5 -39.5t212.5 -36.5q68 39 108.5 94t40.5 113q0 45 -11 74.5t-37.5 53.5t-81 40.5t-130.5 30t-198 28.5
q-168 -81 -168 -198z" />
    <glyph glyph-name="numbersign.tab" 
d="M774 106q2 129 2 291l-299 -2q4 -177 8 -262q-63 4 -147 4q0 109 2 256l-231 -4q1 53 -3 141q87 -2 234 -2q0 246 -2 396q-65 0 -221 -4q2 53 -2 139h221q0 88 -4 256q57 -2 145 2q-2 -106 -2 -258l297 2q0 101 -4 285q63 -4 143 2q-2 -113 -2 -285q72 0 240 4
q-4 -57 -4 -135h-236q0 -102 4 -402q32 0 242 5l-2 -140q-97 2 -238 2q0 -46 5 -291q-60 4 -146 0zM475 926q0 -255 2 -398h299l-2 402q-77 0 -299 -4z" />
    <glyph glyph-name="zero.numerator" horiz-adv-x="876" 
d="M440 590q-169 0 -263.5 119t-94.5 327q0 202 98.5 316t265.5 114q172 0 260.5 -113.5t88.5 -310.5q0 -216 -94.5 -334t-260.5 -118zM442 705q98 0 153.5 84t55.5 255q0 143 -54.5 227.5t-154.5 84.5q-103 0 -160 -84.5t-57 -229.5q0 -163 57 -250t160 -87z" />
    <glyph glyph-name="one.numerator" horiz-adv-x="573" 
d="M260 614q2 386 -4 680l-168 -94l-47 111q68 37 131 73t92 53l29 17l98 -8q0 -188 2 -395.5t4 -320.5l2 -114z" />
    <glyph glyph-name="two.numerator" horiz-adv-x="778" 
d="M686 733v-119l-600 9l-4 127q221 103 346 221t125 239q0 74 -40 115t-114 41q-87 0 -126.5 -53t-45.5 -156q-61 10 -135 14q1 142 86 222t221 80q144 0 220.5 -70t76.5 -189q0 -135 -122.5 -264.5t-313.5 -220.5q138 -2 233 -1t144 3z" />
    <glyph glyph-name="three.numerator" horiz-adv-x="827" 
d="M410 588q-152 0 -243.5 73t-105.5 203q66 9 148 25q10 -100 60.5 -146.5t142.5 -46.5t141 37.5t49 102.5q0 48 -25.5 81.5t-66.5 47.5q-75 26 -211 18v102q160 -10 225 25q32 14 51 44.5t19 70.5q0 67 -46.5 108t-131.5 41q-147 0 -172 -172l-146 19q15 122 100 189
t220 67q143 0 230 -65.5t87 -172.5q0 -80 -55 -136.5t-145 -66.5q101 -12 155.5 -69t54.5 -138q0 -107 -91.5 -174t-243.5 -67z" />
    <glyph glyph-name="four.numerator" horiz-adv-x="815" 
d="M524 616q0 126 2 187l-473 -6q0 33 -2 96q114 152 220 295.5t155 211.5l49 68l182 -4q-2 -328 -2 -559l88 2v-104h-88v-185zM528 1352q-86 -114 -333 -449h331q2 258 2 449z" />
    <glyph glyph-name="five.numerator" horiz-adv-x="831" 
d="M416 590q-124 0 -212 62.5t-112 185.5q38 3 74.5 8t53.5 8l18 4q18 -85 65 -123.5t125 -38.5q77 0 127.5 50.5t50.5 152.5q0 88 -44.5 137t-129.5 49q-66 0 -114 -33t-72 -83q-74 8 -137 10q6 208 10 473q352 0 581 4q-2 -51 -2 -110q-260 1 -448 -3l-8 -249
q40 42 99.5 67t121.5 25q132 0 209 -77t78 -212q0 -143 -92.5 -225t-241.5 -82z" />
    <glyph glyph-name="six.numerator" horiz-adv-x="849" 
d="M440 586q-170 0 -264 115.5t-94 318.5q0 212 97.5 332.5t271.5 120.5q122 0 201.5 -61.5t101.5 -176.5l-146 -16q-29 145 -159 145q-107 0 -166.5 -93.5t-59.5 -242.5v-6q44 57 112.5 91t145.5 34q134 -2 215.5 -77t81.5 -196q0 -130 -97 -209t-241 -79zM453 1044
q-67 0 -124.5 -35.5t-97.5 -95.5q20 -112 76.5 -165.5t141.5 -53.5q76 0 130 46.5t54 127.5q2 75 -43.5 125.5t-136.5 50.5z" />
    <glyph glyph-name="seven.numerator" horiz-adv-x="690" 
d="M211 608q-6 446 283 729l-463 -2v119l618 2v-110q-157 -159 -227.5 -334t-67.5 -404h-143z" />
    <glyph glyph-name="eight.numerator" horiz-adv-x="827" 
d="M420 586q-165 0 -256.5 70.5t-91.5 187.5q0 75 54 131t140 78q-84 27 -127 78.5t-43 117.5q0 102 85.5 163t232.5 61q166 0 244.5 -64t78.5 -156q0 -72 -44 -124.5t-130 -75.5q87 -22 140 -83.5t53 -129.5q0 -119 -94.5 -186.5t-241.5 -67.5zM416 688q87 0 140.5 44
t53.5 110q0 59 -50 105.5t-148 62.5q-85 -11 -140 -55t-55 -105q0 -72 54.5 -117t144.5 -45zM422 1094q172 34 172 145q0 63 -46.5 98t-131.5 35t-131.5 -35t-46.5 -96q0 -111 184 -147z" />
    <glyph glyph-name="nine.numerator" horiz-adv-x="843" 
d="M410 590q-285 0 -336 256l141 18q41 -166 197 -166q100 0 154 78t57 256q-97 -102 -256 -102q-133 0 -214 70t-81 186q0 131 92 210t244 79q169 0 261.5 -109.5t92.5 -314.5q0 -236 -94.5 -348.5t-257.5 -112.5zM401 1026q126 0 217 111q-13 116 -69 176.5t-146 60.5
q-85 0 -135.5 -51.5t-50.5 -128.5q0 -80 47 -124t137 -44z" />
    <glyph glyph-name="zero.denominator" horiz-adv-x="876" 
d="M440 -47q-169 0 -263.5 119t-94.5 327q0 202 98.5 316t265.5 114q172 0 260.5 -113t88.5 -310q0 -216 -94.5 -334.5t-260.5 -118.5zM442 68q98 0 153.5 84.5t55.5 255.5q0 143 -54.5 227t-154.5 84q-103 0 -160 -84.5t-57 -228.5q0 -163 57 -250.5t160 -87.5z" />
    <glyph glyph-name="one.denominator" horiz-adv-x="573" 
d="M260 -23q2 386 -4 680l-168 -94l-47 111q68 37 131 73t92 53l29 17l98 -8q0 -188 2 -395t4 -320l2 -114z" />
    <glyph glyph-name="two.denominator" horiz-adv-x="778" 
d="M686 96v-119l-600 9l-4 127q221 103 346 221t125 239q0 74 -40 115t-114 41q-87 0 -126.5 -53t-45.5 -156q-61 11 -135 15q1 142 85.5 221.5t221.5 79.5q144 0 220.5 -69.5t76.5 -188.5q0 -135 -122.5 -265t-313.5 -221q138 -2 233 -1t144 3z" />
    <glyph glyph-name="three.denominator" horiz-adv-x="827" 
d="M410 -49q-152 0 -243.5 73t-105.5 203q66 9 148 25q10 -100 60.5 -146.5t142.5 -46.5t141 37.5t49 102.5q0 48 -25.5 81.5t-66.5 47.5q-75 26 -211 18v103q161 -10 225 24q32 14 51 44.5t19 70.5q0 67 -46.5 108t-131.5 41q-147 0 -172 -172l-146 19q15 122 100 189
t220 67q143 0 230 -65.5t87 -172.5q0 -80 -55 -136.5t-145 -66.5q101 -12 155.5 -68.5t54.5 -137.5q0 -107 -91.5 -174.5t-243.5 -67.5z" />
    <glyph glyph-name="four.denominator" horiz-adv-x="815" 
d="M524 -20q0 125 2 186l-473 -6q0 33 -2 96q114 152 220 295.5t155 211.5l49 68l182 -4q-2 -328 -2 -559l88 2v-104h-88v-184zM528 715q-86 -114 -333 -449h331q2 258 2 449z" />
    <glyph glyph-name="five.denominator" horiz-adv-x="831" 
d="M416 -47q-124 0 -212 62.5t-112 185.5q38 3 74.5 8t53.5 9l18 3q18 -85 65 -123.5t125 -38.5q77 0 127.5 50.5t50.5 152.5q0 88 -44.5 137.5t-129.5 49.5q-66 0 -114 -33.5t-72 -83.5q-74 8 -137 10q6 208 10 473q352 0 581 4q-2 -51 -2 -110q-260 2 -448 -2l-8 -250
q40 42 99.5 67t121.5 25q132 0 209 -77t78 -212q0 -143 -92.5 -225t-241.5 -82z" />
    <glyph glyph-name="six.denominator" horiz-adv-x="849" 
d="M440 -51q-170 0 -264 115.5t-94 318.5q0 212 97.5 332.5t271.5 120.5q122 0 201.5 -61.5t101.5 -176.5l-146 -16q-29 145 -159 145q-107 0 -166.5 -93.5t-59.5 -242.5v-6q44 57 112.5 91t145.5 34q134 -2 215.5 -76.5t81.5 -195.5q0 -130 -97 -209.5t-241 -79.5zM453 408
q-67 0 -124.5 -35.5t-97.5 -96.5q20 -112 76.5 -165.5t141.5 -53.5q76 0 130 46.5t54 127.5q2 75 -43.5 126t-136.5 51z" />
    <glyph glyph-name="seven.denominator" horiz-adv-x="690" 
d="M211 -29q-6 446 283 729l-463 -2v119l618 2v-110q-157 -159 -227.5 -334t-67.5 -404h-143z" />
    <glyph glyph-name="eight.denominator" horiz-adv-x="827" 
d="M420 -51q-165 0 -256.5 70.5t-91.5 187.5q0 75 54 131t140 78q-84 27 -127 78.5t-43 117.5q0 102 85.5 163t232.5 61q166 0 244.5 -64t78.5 -156q0 -72 -44 -124.5t-130 -75.5q87 -22 140 -83.5t53 -129.5q0 -119 -94.5 -186.5t-241.5 -67.5zM416 51q87 0 140.5 44
t53.5 110q0 59 -50 105.5t-148 62.5q-85 -11 -140 -55t-55 -105q0 -72 54.5 -117t144.5 -45zM422 457q172 34 172 145q0 63 -46.5 98t-131.5 35t-131.5 -35t-46.5 -96q0 -111 184 -147z" />
    <glyph glyph-name="nine.denominator" horiz-adv-x="843" 
d="M410 -47q-285 0 -336 256l141 18q41 -166 197 -166q100 0 154 78t57 256q-97 -102 -256 -102q-133 0 -214 70t-81 186q0 131 92 210t244 79q169 0 261.5 -109.5t92.5 -314.5q0 -236 -94.5 -348.5t-257.5 -112.5zM401 389q126 0 217 111q-13 116 -69 176.5t-146 60.5
q-85 0 -135.5 -51.5t-50.5 -128.5q0 -80 47 -124t137 -44z" />
    <glyph glyph-name="dollar.cap" horiz-adv-x="1218" 
d="M692 -248h-170l8 213q-198 27 -309.5 150t-124.5 344q62 4 197 20q6 -167 87.5 -264.5t229.5 -101.5q132 -3 221 58.5t89 172.5q0 47 -13 82t-49 73.5t-107.5 73t-181.5 68.5q-237 73 -335.5 173.5t-98.5 266.5q0 149 107.5 251t279.5 124l-8 215l180 -2q-2 -40 -10 -211
q180 -22 285.5 -139.5t122.5 -310.5q-78 -13 -187 -25q-2 141 -77.5 231.5t-217.5 90.5q-138 0 -214.5 -60.5t-76.5 -161.5q0 -106 80.5 -175t280.5 -130q167 -51 262 -112t132.5 -135t37.5 -181q0 -156 -119 -264t-305 -125z" />
    <glyph glyph-name="cent.cap" horiz-adv-x="1202" 
d="M530 -135q9 190 9 241q-137 21 -234.5 106t-144.5 212.5t-47 288.5q0 251 111.5 418.5t312.5 199.5l-9 244l181 2l-13 -242q165 -20 268 -129t128 -291q-52 -4 -97.5 -10t-65.5 -10l-20 -4q-31 151 -95 225t-187 74q-107 0 -183 -63.5t-111.5 -167t-35.5 -234.5
q0 -225 89 -346t243 -121q118 0 189 65t102 222q61 -17 180 -35q-30 -180 -135 -283.5t-267 -122.5q0 -63 2 -122.5t4 -87.5l1 -29h-175z" />
    <glyph glyph-name="Euro.cap" horiz-adv-x="1462" 
d="M63 768q0 67 -2 137q58 -2 183 0q43 258 191.5 414t377.5 156q216 0 348.5 -122t173.5 -335q-59 -6 -109 -13.5t-70 -11.5l-21 -4q-32 163 -107 243.5t-211 80.5q-154 0 -250 -106t-129 -298q252 4 525 11l-5 -138q-152 0 -534 -6q-8 -75 0 -143l563 12q-2 -74 0 -137
q-155 0 -549 -6q33 -188 127.5 -290.5t245.5 -102.5q140 0 232.5 83t136.5 277l190 -37q-46 -236 -190 -360t-367 -121q-229 0 -377.5 142.5t-191.5 406.5q-114 -4 -174 -4q2 59 2 137h157q-1 6 -1.5 16.5t-1.5 47t1 75.5z" />
    <glyph glyph-name="sterling.cap" horiz-adv-x="1239" 
d="M295 582h-170l-2 151l108 -2q-79 166 -79 291q0 200 130 320t355 120q130 0 229.5 -41t159 -112t89.5 -159.5t32 -191.5q-74 -8 -199 -26q-9 181 -82.5 272.5t-230.5 91.5q-133 0 -208 -76.5t-75 -205.5q0 -55 12.5 -110t26.5 -89t39 -86l449 2l2 -156q-367 5 -389 5
q16 -56 16 -113q0 -91 -36.5 -171.5t-100.5 -133.5q234 -7 743 0q-1 -7 -2 -21t-2 -59.5t0 -93.5q-232 8 -979 12q2 86 2 158q182 113 182 313q0 49 -20 111z" />
    <glyph glyph-name="yen.cap" horiz-adv-x="1245" 
d="M510 -20q-1 5 -1 25v58t-1 72q-256 -5 -363 -8q2 59 2 137q117 -2 359 0q0 48 -4 150l-348 -11q0 58 -4 138q99 0 296 2q-103 231 -401 852q64 2 203 10q94 -226 348 -774q142 269 401 813q82 -2 203 -6q-177 -327 -452 -889l301 8l-2 -137q-121 0 -359 -4q-2 -60 0 -150
l365 8q0 -61 2 -133q-127 0 -365 -2q0 -39 4 -157q-71 2 -184 -2z" />
    <glyph glyph-name="florin.cap" horiz-adv-x="1112" 
d="M913 735l-258 6q-53 -311 -92 -471q-43 -185 -133 -268.5t-233 -83.5q-66 0 -156 19q8 47 18 143q59 -12 105 -12q88 0 139.5 53.5t81.5 171.5q45 184 94 450h-190l4 140q156 -4 209 -4q41 207 45 223q38 180 122 264t218 84q82 0 184 -27q-8 -40 -13.5 -75.5t-7.5 -51.5
l-1 -16q-74 23 -121 23q-82 0 -131 -54.5t-74 -165.5q-32 -145 -43 -206h231z" />
    <glyph glyph-name="zero.cap" horiz-adv-x="1406" 
d="M705 -47q-270 0 -426 196t-156 564q0 209 67 375t200.5 265t314.5 99q149 0 262.5 -58.5t181.5 -161t101.5 -231t33.5 -278.5q0 -358 -151.5 -564t-427.5 -206zM713 111q170 0 273.5 161t103.5 453q0 108 -24.5 209.5t-70.5 184t-120 132t-166 49.5q-119 0 -209.5 -79.5
t-136.5 -209t-46 -286.5q0 -301 105.5 -457.5t290.5 -156.5z" />
    <glyph glyph-name="one.cap" horiz-adv-x="825" 
d="M397 -6q5 714 -4 1223l-291 -160l-61 149q117 64 220.5 123t148.5 86l45 27l123 -17q0 -320 3 -677.5t6 -554.5l3 -197z" />
    <glyph glyph-name="two.cap" horiz-adv-x="1226" 
d="M1108 -6q-258 6 -508.5 9.5t-371.5 4.5h-122l-4 178q182 97 322.5 190.5t257 198.5t178.5 217t62 224q0 130 -81 208.5t-223 78.5q-135 0 -215.5 -95.5t-87.5 -277.5q-75 12 -194 20q6 246 140 378t366 132q235 0 366 -122t131 -312q0 -103 -39 -205t-106 -190.5
t-162 -173.5t-201.5 -155.5t-230.5 -135.5q232 -3 393 -2.5t246 3.5l86 3z" />
    <glyph glyph-name="three.cap" horiz-adv-x="1284" 
d="M647 -49q-247 0 -395 125t-170 350q72 7 201 23q53 -343 381 -343q137 0 233 72t96 201q0 169 -186 227q-95 29 -229 29q-70 0 -111 -2q0 77 -2 153q68 -6 123 -6q161 0 260 45q59 29 95 84.5t36 128.5q0 117 -86.5 198t-245.5 81q-274 0 -342 -330l-199 37
q34 204 176.5 324t366.5 120q121 0 221 -33t165 -89t100.5 -130.5t35.5 -158.5q0 -131 -83 -225t-216 -117q151 -24 235.5 -120.5t84.5 -221.5q0 -127 -73.5 -224t-196.5 -147.5t-275 -50.5z" />
    <glyph glyph-name="four.cap" horiz-adv-x="1280" 
d="M866 -2q0 111 4 315q-201 0 -807 -8q-2 47 0 158l730 991l260 -6q-4 -420 -4 -985q106 0 159 2q-2 -60 -2 -150h-155l2 -315zM874 1305q-284 -386 -614 -844h610q4 475 4 844z" />
    <glyph glyph-name="five.cap" horiz-adv-x="1282" 
d="M641 -47q-92 0 -176.5 23.5t-160 70.5t-131.5 129t-81 189l195 45q35 -148 132 -229t232 -81q147 0 242.5 102t95.5 283q0 161 -86.5 255t-236.5 94q-227 0 -349 -234q-84 10 -190 14q12 357 18 811q575 1 963 9q-2 -66 -2 -164q-462 2 -780 -4q-15 -358 -17 -482
q144 191 402 191q221 0 349 -134.5t130 -363.5q0 -235 -151 -379.5t-398 -144.5z" />
    <glyph glyph-name="six.cap" horiz-adv-x="1357" 
d="M711 -55q-278 0 -433 202t-155 541q0 178 45 324.5t123.5 243.5t185.5 149.5t232 52.5q407 0 505 -379q-54 -8 -105 -18.5t-75 -16.5l-24 -6q-63 265 -303 265q-117 0 -205.5 -79.5t-134 -215.5t-45.5 -308v-32q76 103 192.5 163t257.5 60q228 0 355.5 -121.5
t127.5 -308.5q0 -127 -44 -227t-119.5 -162t-172.5 -94.5t-208 -32.5zM739 752q-109 0 -215 -61t-190 -175q33 -210 137 -316t262 -106q143 0 229.5 98.5t86.5 245.5q2 134 -77 224t-233 90z" />
    <glyph glyph-name="seven.cap" horiz-adv-x="1124" 
d="M360 -18q-10 383 129 706.5t398 577.5q-148 2 -329 1t-334 -3l-152 -2v165l997 9l4 -181q-262 -263 -389 -576t-123 -697h-201z" />
    <glyph glyph-name="eight.cap" horiz-adv-x="1318" 
d="M668 -57q-270 0 -423 115t-153 315q0 133 88.5 230.5t243.5 137.5q-139 49 -215 141.5t-76 204.5q0 163 139.5 268t386.5 105q258 0 395.5 -105t137.5 -263q0 -122 -79.5 -214t-221.5 -137q157 -48 245.5 -150.5t90.5 -221.5q0 -133 -77 -231t-202.5 -146.5t-279.5 -48.5
zM662 86q153 0 255.5 79.5t102.5 205.5q0 112 -99 197t-284 112q-147 -22 -244.5 -103.5t-97.5 -195.5q0 -133 104.5 -214t262.5 -81zM684 799q139 25 225 94.5t86 177.5q-2 109 -88 181.5t-248 72.5q-147 0 -240 -70.5t-93 -183.5q0 -204 358 -272z" />
    <glyph glyph-name="nine.cap" horiz-adv-x="1329" 
d="M637 -49q-215 0 -353.5 116.5t-179.5 335.5q52 4 102.5 11t74.5 12l24 4q35 -167 117.5 -245.5t224.5 -78.5q78 0 141 32t114 101.5t80 193.5t30 294q-73 -79 -186 -130.5t-242 -51.5q-214 0 -348 117.5t-134 320.5q0 215 151.5 348t383.5 133q264 0 415.5 -195.5
t151.5 -531.5q1 -398 -148.5 -592t-418.5 -194zM621 684q225 0 383 209q-26 199 -123 308.5t-248 109.5q-144 0 -236 -92.5t-92 -233.5q0 -143 84.5 -222t231.5 -79z" />
    <glyph glyph-name="percent.cap" horiz-adv-x="1595" 
d="M403 721q-158 0 -244.5 105.5t-86.5 281.5q0 161 91 261.5t245 100.5q158 0 245.5 -99.5t87.5 -276.5q0 -76 -18 -138.5t-49 -105.5t-74 -72.5t-92.5 -43t-104.5 -13.5zM403 829q92 0 144 67.5t53 203.5q0 126 -51.5 195t-140.5 69q-88 0 -141.5 -74t-53.5 -192
q0 -124 51 -196.5t139 -72.5zM391 -41l-110 16q249 401 472.5 767.5t322.5 531.5l98 166l118 -15zM1186 -37q-158 0 -245 103t-87 270q0 165 91 271t243 106q160 0 248 -103.5t88 -271.5q0 -181 -94.5 -278t-243.5 -97zM1190 72q87 0 138.5 68t51.5 190q0 131 -49 201.5
t-147 70.5q-85 0 -136 -73.5t-51 -186.5q0 -123 50 -196.5t143 -73.5z" />
    <glyph glyph-name="perthousand.cap" horiz-adv-x="2383" 
d="M403 721q-158 0 -244.5 105.5t-86.5 281.5q0 160 92 261t244 101q158 0 245.5 -100.5t87.5 -275.5q0 -184 -96 -278.5t-242 -94.5zM391 -41l-110 16q249 401 472.5 767.5t322.5 531.5l98 166l118 -15zM403 829q91 0 143.5 68t53.5 203q0 126 -51.5 194t-140.5 68
q-87 0 -141 -73t-54 -191q0 -124 51 -196.5t139 -72.5zM1186 -37q-157 0 -244.5 103t-87.5 270q0 164 90.5 270.5t243.5 106.5q160 0 248 -103.5t88 -271.5q0 -180 -94.5 -277.5t-243.5 -97.5zM1190 72q86 0 138 68t52 190q0 131 -48.5 201.5t-147.5 70.5
q-84 0 -135.5 -74.5t-51.5 -185.5q0 -126 50 -198t143 -72zM1976 -14q-149 0 -241.5 99t-92.5 275q0 169 91 273t245 104q156 0 245 -100t89 -264q0 -182 -92 -284.5t-244 -102.5zM1972 96q91 0 144.5 69.5t54.5 201.5q0 123 -52.5 192.5t-140.5 69.5q-86 0 -140 -72.5
t-54 -194.5q0 -126 50.5 -196t137.5 -70z" />
    <glyph glyph-name="questiondown.cap" horiz-adv-x="1212" 
d="M739 1059l6 -377q-238 12 -342 -58.5t-104 -224.5q0 -119 79.5 -199.5t223.5 -80.5q145 0 226 87t114 259q71 -23 188 -41q-33 -207 -169 -334t-347 -127q-124 0 -223.5 35.5t-161.5 96t-94.5 135.5t-32.5 157q0 201 119.5 310t331.5 118q3 53 3.5 113t-0.5 94l-1 33z
M637 1464q72 0 109.5 -41t37.5 -110q0 -63 -40.5 -103.5t-104.5 -40.5q-68 0 -105.5 41.5t-37.5 110.5q0 65 39 104t102 39z" />
    <glyph glyph-name="exclamdown.cap" horiz-adv-x="645" 
d="M319 1452q70 0 111 -43t41 -113q0 -64 -38.5 -106.5t-110.5 -42.5q-69 0 -108.5 45t-39.5 111t42 107.5t103 41.5zM406 1032q6 -446 26 -1059q-105 4 -209 0q9 497 13 1057q76 -2 170 2z" />
    <glyph glyph-name="parenleft.cap" horiz-adv-x="628" 
d="M381 -154q-238 435 -238 830q0 231 67 457t185 405l152 -57q-102 -175 -158.5 -384t-56.5 -409q0 -190 53 -378t160 -408z" />
    <glyph glyph-name="parenright.cap" horiz-adv-x="628" 
d="M248 -158q-70 29 -166 58q107 220 161 412t54 382q0 200 -56.5 408.5t-156.5 382.5q64 24 154 65q116 -183 181.5 -409t65.5 -453q0 -399 -237 -846z" />
    <glyph glyph-name="bracketleft.cap" horiz-adv-x="694" 
d="M608 -115q-22 1 -61.5 2t-150.5 3t-210 1q4 400 -8 1608q164 0 418 4q0 -59 4 -139q-98 0 -233 -4q-4 -783 2 -1319q98 -4 243 -4q-4 -60 -4 -152z" />
    <glyph glyph-name="bracketright.cap" horiz-adv-x="694" 
d="M90 -121q0 38 -1 73.5t-2 55.5l-1 21q59 0 116.5 1t92 2t37.5 1q2 364 0 799t-4 544q-81 4 -232 4q2 37 2 142q233 -4 416 -4q-8 -969 -2 -1631q-330 0 -422 -8z" />
    <glyph glyph-name="braceleft.cap" horiz-adv-x="772" 
d="M690 -104q-77 -15 -129 -15q-147 0 -218 67t-71 220l17 266q0 109 -51 160t-177 45l5 168q125 -7 175 31.5t50 140.5q0 41 -10.5 139t-10.5 144q0 130 64 192t196 62q57 0 146 -19v-137q-46 6 -84 6q-77 0 -110 -37t-33 -123q0 -36 9 -125t9 -129q0 -103 -37.5 -156.5
t-136.5 -74.5q96 -23 132 -83t36 -167l-12 -246q0 -104 36 -147t129 -43q18 0 72 4z" />
    <glyph glyph-name="braceright.cap" horiz-adv-x="772" 
d="M82 -117q4 48 4 140q47 -7 74 -7q87 -2 128.5 39t41.5 138q0 41 -9.5 138.5t-9.5 143.5q0 105 37.5 163.5t132.5 82.5q-93 17 -134.5 74t-41.5 161q0 46 11.5 138t11.5 127q0 79 -38.5 113t-123.5 34q-20 0 -70 -4l2 139q83 17 140 17q268 0 268 -244q0 -49 -12.5 -149.5
t-12.5 -143.5q0 -99 50 -140.5t176 -37.5q0 -144 4 -164q-122 7 -175 -42t-53 -157q0 -46 11.5 -151t11.5 -154q0 -138 -71 -204t-216 -66q-62 0 -137 16z" />
    <glyph glyph-name="slash.cap" horiz-adv-x="784" 
d="M31 -96q143 407 280 806t202 595l65 196q47 -2 91 -2t65 1l20 1q-195 -555 -332 -954.5t-177 -520.5l-40 -122h-174z" />
    <glyph glyph-name="backslash.cap" horiz-adv-x="784" 
d="M754 -94q-76 2 -176 0q-112 348 -547 1597q68 -4 174 0q226 -684 549 -1597z" />
    <glyph glyph-name="bar.cap" horiz-adv-x="550" 
d="M195 -104q1 753 -7 1615q57 -4 170 -4q-4 -597 4 -1607q-67 0 -167 -4z" />
    <glyph glyph-name="at.cap" horiz-adv-x="1849" 
d="M913 1180q98 0 164 -75t86 -185l35 202q72 -4 156 0q-84 -380 -117 -577q-6 -37 -6 -66q0 -64 27.5 -90.5t82.5 -26.5q95 0 170.5 114.5t75.5 314.5q0 247 -173.5 403t-450.5 156q-137 0 -253 -38.5t-197.5 -104.5t-139 -155t-84.5 -190t-27 -209q0 -143 47 -257
t129.5 -187t190.5 -111.5t233 -38.5q213 0 383 64l37 -135q-230 -66 -426 -66q-219 0 -388 91.5t-262 259t-93 384.5q0 134 37.5 257t110.5 225.5t175 178.5t238.5 118.5t292.5 42.5q177 0 324 -55.5t243.5 -150t149.5 -217.5t53 -259q0 -137 -36 -247t-97 -179
t-136.5 -105.5t-158.5 -36.5q-98 0 -162 58t-68 168q-58 -101 -140 -159t-173 -58q-134 0 -218.5 102.5t-84.5 261.5q0 117 43 233.5t131 208.5q60 63 132.5 99.5t143.5 36.5zM934 1040q-85 0 -164 -79q-69 -69 -103 -160.5t-34 -184.5q0 -117 47 -182t119 -65
q41 0 85.5 21.5t78.5 55.5q60 60 95.5 146.5t35.5 183.5q0 106 -42.5 185t-117.5 79z" />
    <glyph glyph-name="copyright.cap" horiz-adv-x="1648" 
d="M829 250q-178 0 -293.5 129t-115.5 321q0 207 112 341.5t297 134.5q162 0 261.5 -95.5t119.5 -234.5q-41 -3 -80 -8t-58 -9l-19 -4q-26 226 -224 226q-120 0 -190 -98t-70 -251q0 -148 75.5 -232.5t193.5 -84.5q89 0 145.5 55.5t77.5 157.5l147 -29q-26 -146 -131 -232.5
t-248 -86.5zM813 -49q-145 0 -269.5 50.5t-218.5 146t-148 244t-54 333.5q0 149 49.5 285t139 240.5t225 166.5t297.5 62q211 0 369 -99.5t240.5 -273t82.5 -395.5q0 -183 -52.5 -327.5t-147.5 -239t-225.5 -144t-287.5 -49.5zM823 37q124 0 231 40t192.5 119t134.5 210.5
t49 300.5q0 312 -160.5 498t-442.5 186q-186 0 -326 -92t-212 -246.5t-72 -347.5q0 -157 45.5 -284t126.5 -211t192 -128.5t242 -44.5z" />
    <glyph glyph-name="Pcircle.cap" horiz-adv-x="1648" 
d="M836 1479q218 0 375.5 -101t236 -274.5t78.5 -398.5q0 -166 -54 -307.5t-148.5 -239t-225.5 -152.5t-283 -55q-211 0 -369 99.5t-240.5 273t-82.5 395.5q0 175 57 320t155 240.5t227 147.5t274 52zM825 1393q-268 0 -437 -183.5t-169 -486.5q0 -312 160 -498t442 -186
q140 0 256 53.5t193 146t119.5 217.5t42.5 269q0 300 -167 484t-440 184zM516 270q4 282 -4 879q118 14 225 14q239 0 350 -83.5t111 -223.5q0 -138 -119.5 -224.5t-335.5 -86.5q-52 0 -81 2q0 -95 4 -275q-87 0 -150 -2zM657 1044q0 -170 2 -385q62 -4 91 -4
q154 0 229.5 55t75.5 148q0 86 -72.5 138.5t-239.5 52.5q-9 0 -86 -5z" />
    <glyph glyph-name="space.captab" horiz-adv-x="665" 
 />
    <glyph glyph-name="dollar.captab" horiz-adv-x="1331" 
d="M750 -248h-170l8 213q-198 27 -309.5 150t-124.5 344q61 4 196 20q6 -167 88 -264.5t230 -101.5q132 -3 220.5 58.5t88.5 172.5q0 47 -13 82t-48.5 73.5t-107 73t-181.5 68.5q-237 73 -335.5 173.5t-98.5 266.5q0 149 107.5 251t279.5 124l-9 215l181 -2
q-6 -104 -11 -211q180 -22 285.5 -139.5t122.5 -310.5q-77 -13 -186 -25q-2 141 -77.5 231.5t-217.5 90.5q-138 0 -214.5 -60.5t-76.5 -161.5q0 -107 80 -175.5t280 -129.5q167 -51 262 -112t132.5 -135t37.5 -181q0 -156 -119 -264t-305 -125z" />
    <glyph glyph-name="cent.captab" horiz-adv-x="1331" 
d="M596 -135q8 169 8 241q-137 21 -234.5 106t-144.5 212.5t-47 288.5q0 251 111.5 418.5t312.5 199.5l-8 244l180 2l-12 -242q165 -20 267.5 -129t127.5 -291q-52 -4 -97.5 -10t-65.5 -10l-19 -4q-31 151 -95.5 225t-187.5 74q-107 0 -183 -63.5t-111.5 -167t-35.5 -234.5
q0 -225 89 -346t243 -121q118 0 189 65t102 222q61 -17 180 -35q-30 -180 -134.5 -283.5t-266.5 -122.5q0 -63 1.5 -122.5t2.5 -87.5l2 -29h-174z" />
    <glyph glyph-name="Euro.captab" horiz-adv-x="1331" 
d="M41 768q0 67 -2 137q45 0 168 2q41 255 183.5 411.5t357.5 156.5q105 0 191 -34.5t145 -97.5t97.5 -144.5t57.5 -180.5q-59 -6 -109.5 -13.5t-71.5 -11.5l-20 -4q-14 73 -33.5 126.5t-52 101t-83 72t-117.5 24.5q-144 0 -232.5 -107.5t-118.5 -296.5l476 11l-5 -138
q-113 0 -483 -6q-6 -67 0 -141q339 5 512 10q-2 -74 0 -137q-116 0 -500 -6q33 -185 122.5 -289t221.5 -104q258 0 338 360l191 -37q-44 -227 -180 -355.5t-346 -125.5q-218 0 -358.5 144t-182.5 403l-160 -2q2 59 2 137h146l-2 139q-106 -4 -152 -4z" />
    <glyph glyph-name="sterling.captab" horiz-adv-x="1331" 
d="M342 582h-170l-2 151l109 -2q-80 168 -80 291q0 200 130 320t355 120q130 0 229.5 -41t159 -112t89.5 -159.5t32 -191.5q-74 -8 -199 -26q-9 181 -82.5 272.5t-230.5 91.5q-133 0 -208 -76.5t-75 -205.5q0 -55 12.5 -110t26.5 -89t39 -86l449 2l2 -156q-368 5 -389 5
q16 -56 16 -113q0 -91 -36.5 -171.5t-100.5 -133.5q234 -7 743 0q-1 -7 -2 -21t-2 -59.5t0 -93.5q-232 8 -979 12q2 86 2 158q182 113 182 313q0 49 -20 111z" />
    <glyph glyph-name="yen.captab" horiz-adv-x="1331" 
d="M553 -20q-1 5 -1 25v58t-1 72q-256 -5 -363 -8q2 59 2 137q117 -2 359 0q0 48 -4 150l-348 -11q0 58 -4 138q99 0 296 2q-103 231 -401 852q64 2 203 10q94 -226 348 -774q142 269 401 813q82 -2 203 -6q-177 -327 -452 -889l301 8l-2 -137q-121 0 -359 -4q-2 -60 0 -150
l365 8q0 -61 2 -133q-127 0 -365 -2q0 -39 4 -157q-71 2 -184 -2z" />
    <glyph glyph-name="florin.captab" horiz-adv-x="1331" 
d="M1024 735l-258 6q-53 -311 -92 -471q-43 -185 -133.5 -268.5t-233.5 -83.5q-65 0 -155 19q8 47 18 143q58 -12 104 -12q88 0 140 53.5t82 171.5q45 184 94 450h-191l4 140q156 -4 209 -4q41 207 45 223q38 180 122 264t218 84q83 0 185 -27q-8 -40 -13.5 -75.5
t-7.5 -51.5l-2 -16q-74 23 -121 23q-81 0 -130 -54.5t-74 -165.5q-32 -145 -43 -206h231z" />
    <glyph glyph-name="zero.captab" horiz-adv-x="1331" 
d="M666 -47q-118 0 -217 46.5t-174 137.5t-117.5 238.5t-42.5 337.5q0 124 21.5 234t66.5 202.5t109.5 160t155 105t198.5 37.5q111 0 203 -38.5t155 -106t106.5 -160t63.5 -199t20 -225.5q0 -365 -147.5 -567.5t-400.5 -202.5zM674 111q57 0 108 22.5t95 71t75.5 120
t49.5 173.5t18 227q0 122 -19.5 223.5t-60 181.5t-109.5 125t-161 45q-176 0 -268.5 -153t-92.5 -422q0 -301 97.5 -457.5t267.5 -156.5z" />
    <glyph glyph-name="one.captab" horiz-adv-x="1331" 
d="M270 -10l-2 162q222 -7 361 -7q4 613 -4 1072l-332 -179l-62 150q117 64 231 127.5t169 94.5l55 32l123 -17q0 -832 10 -1282l324 2l-4 -155q-181 2 -398.5 2t-344.5 -1z" />
    <glyph glyph-name="two.captab" horiz-adv-x="1331" 
d="M1161 -6q-258 6 -508 9.5t-371 4.5h-122l-4 178q182 97 322.5 190.5t256.5 198.5t178 217t62 224q0 130 -80.5 208.5t-222.5 78.5q-135 0 -215.5 -95.5t-87.5 -277.5q-76 12 -195 20q6 246 140 378t366 132q235 0 366.5 -122t131.5 -312q0 -128 -58.5 -253t-163 -233
t-233 -200t-285.5 -174q232 -3 393 -2.5t247 3.5l85 3z" />
    <glyph glyph-name="three.captab" horiz-adv-x="1331" 
d="M672 -49q-247 0 -395.5 125t-170.5 350q72 7 201 23q53 -343 381 -343q65 0 124 17.5t105.5 51t73.5 86.5t27 118q0 169 -187 227q-95 29 -229 29q-69 0 -110 -2q-1 77 -3 153q68 -6 123 -6q161 0 260 45q59 29 95.5 85t36.5 128q0 117 -86.5 198t-245.5 81
q-274 0 -342 -330l-199 37q34 204 176.5 324t366.5 120q121 0 221 -33t165 -89t100.5 -130.5t35.5 -158.5q0 -131 -83 -225t-216 -117q151 -24 235.5 -120.5t84.5 -221.5q0 -127 -73.5 -224t-196.5 -147.5t-275 -50.5z" />
    <glyph glyph-name="four.captab" horiz-adv-x="1331" 
d="M893 -2q0 111 4 315q-201 0 -807 -8q-2 47 0 158l729 991l260 -6q-4 -420 -4 -985q107 0 160 2q-2 -60 -2 -150h-156l2 -315zM901 1305q-284 -386 -614 -844h610q4 475 4 844z" />
    <glyph glyph-name="five.captab" horiz-adv-x="1331" 
d="M666 -47q-92 0 -176.5 23.5t-160 70.5t-131.5 129t-81 189l194 45q35 -147 132.5 -228.5t232.5 -81.5q147 0 242.5 102t95.5 283q0 160 -87 254.5t-237 94.5q-118 0 -203 -59t-145 -175q-84 10 -190 14q12 357 18 811q575 1 963 9q-3 -66 -3 -164q-462 2 -780 -4
q-13 -311 -16 -482q144 191 401 191q221 0 349 -134.5t130 -363.5q0 -235 -150.5 -379.5t-397.5 -144.5z" />
    <glyph glyph-name="six.captab" horiz-adv-x="1331" 
d="M690 -55q-262 0 -418.5 200t-156.5 543q0 180 44 327t121.5 243t182 148t225.5 52q397 0 494 -379q-54 -8 -105 -18.5t-75 -16.5l-25 -6q-32 131 -101.5 198t-189.5 67q-168 0 -270.5 -168t-102.5 -435v-32q75 103 191 163t248 60q220 0 345.5 -120t125.5 -310
q0 -122 -42.5 -221.5t-116.5 -163t-169.5 -97.5t-204.5 -34zM719 752q-102 0 -204.5 -60.5t-188.5 -177.5q32 -207 132.5 -313.5t254.5 -106.5q132 0 217.5 97.5t85.5 246.5q1 65 -15.5 119.5t-50.5 99t-93 70t-138 25.5z" />
    <glyph glyph-name="seven.captab" horiz-adv-x="1331" 
d="M465 -18q-10 380 136.5 703t410.5 581q-151 2 -341 1t-353 -3l-162 -2v165l1038 9l4 -181q-267 -268 -401.5 -581.5t-130.5 -691.5h-201z" />
    <glyph glyph-name="eight.captab" horiz-adv-x="1331" 
d="M674 -57q-270 0 -423 115t-153 315q0 133 88.5 230.5t243.5 137.5q-139 49 -215 141.5t-76 204.5q0 163 140 268t387 105q258 0 395 -105t137 -263q0 -122 -79.5 -214t-221.5 -137q157 -48 245.5 -150.5t90.5 -221.5q0 -133 -77 -231t-202.5 -146.5t-279.5 -48.5zM668 86
q153 0 255.5 79.5t102.5 205.5q0 112 -99 197t-284 112q-147 -22 -244.5 -103.5t-97.5 -195.5q0 -133 104.5 -214t262.5 -81zM690 799q139 25 225 94.5t86 177.5q-2 109 -87.5 181.5t-247.5 72.5q-147 0 -240.5 -70.5t-93.5 -183.5q0 -204 358 -272z" />
    <glyph glyph-name="nine.captab" horiz-adv-x="1331" 
d="M639 -49q-215 0 -353.5 116.5t-179.5 335.5q52 4 102 11t74 12l25 4q35 -167 117.5 -245.5t224.5 -78.5q78 0 141 32t114 101.5t80 193.5t30 294q-73 -79 -186 -130.5t-242 -51.5q-214 0 -348 117.5t-134 320.5q0 215 151.5 348t383.5 133q264 0 415.5 -195.5
t151.5 -531.5q1 -398 -148.5 -592t-418.5 -194zM623 684q225 0 383 209q-26 199 -123 308.5t-248 109.5q-144 0 -236 -92.5t-92 -233.5q0 -143 84.5 -222t231.5 -79z" />
    <glyph glyph-name="plus.captab" horiz-adv-x="1331" 
d="M586 193q4 266 4 413l-379 -2l-2 154q176 -6 381 -6v397l153 -4q-4 -282 -4 -393l387 2q-3 -43 -4 -80.5t0 -53.5v-16q-121 2 -383 2l4 -411z" />
    <glyph glyph-name="minus.captab" horiz-adv-x="1331" 
d="M1092 748l-2 -152q-193 4 -404.5 4.5t-326.5 -0.5l-115 -2v152q177 -4 389 -4.5t335 0.5z" />
    <glyph glyph-name="multiply.captab" horiz-adv-x="1331" 
d="M340 225q-32 33 -100 94q152 160 338 361l-328 348l98 98q110 -125 320 -350q140 150 329 363q44 -48 99 -99q-154 -159 -340 -360l334 -354q-31 -27 -57 -51t-36 -34l-10 -10q-221 245 -321 353q-162 -174 -326 -359z" />
    <glyph glyph-name="divide.captab" horiz-adv-x="1331" 
d="M221 750q136 -2 301 -2.5t279.5 0t213 1.5t99.5 1q-1 -25 -1 -49.5v-42t0.5 -31t0.5 -22v-9.5q-101 2 -226 3t-236.5 1t-203.5 -0.5t-158.5 -1t-70.5 -0.5zM664 1180q51 0 83.5 -36.5t32.5 -94.5q0 -59 -32 -95t-86 -36q-56 0 -86.5 34.5t-30.5 96.5q0 63 32 97t87 34z
M666 430q54 0 85 -36.5t31 -100.5q0 -56 -32.5 -89.5t-85.5 -33.5q-56 0 -86.5 34t-30.5 89q0 68 32 102.5t87 34.5z" />
    <glyph glyph-name="equal.captab" horiz-adv-x="1331" 
d="M244 401q0 38 -4 138q390 -2 854 4l-2 -142q-364 4 -848 0zM1094 805q-216 4 -429.5 5t-318.5 0l-106 -1l4 141q198 -2 410.5 -2t325.5 1l114 1v-145z" />
    <glyph glyph-name="less.captab" horiz-adv-x="1331" 
d="M1112 313q-1 -9 -2 -24t-2 -59.5t0 -86.5q-423 205 -907 432q4 72 4 166q392 180 897 430q-4 -67 -4 -176q-346 -152 -740 -336q442 -209 754 -346z" />
    <glyph glyph-name="greater.captab" horiz-adv-x="1331" 
d="M236 141l-5 164q417 196 746 357q-169 82 -351.5 166t-279.5 128l-98 43q2 61 -4 172q226 -114 445 -221t325 -157l106 -50l4 -161q-208 -101 -430 -211t-340 -170z" />
    <glyph glyph-name="period.captab" horiz-adv-x="665" 
d="M334 -20q-69 0 -108.5 43.5t-39.5 113.5q0 71 41 113.5t105 42.5q69 0 109 -44t40 -106q0 -76 -39.5 -119.5t-107.5 -43.5z" />
    <glyph glyph-name="comma.captab" horiz-adv-x="665" 
d="M225 -324q-23 27 -42.5 48t-27.5 28l-8 8q114 89 160 224q-55 4 -90 45.5t-35 103.5q0 63 42 109.5t110 46.5q69 0 109 -50t40 -130q0 -123 -70.5 -233.5t-187.5 -199.5z" />
    <glyph glyph-name="colon.captab" horiz-adv-x="665" 
d="M334 -29q-66 0 -107 43t-41 117q0 69 41.5 113.5t108.5 44.5q77 0 112 -46t35 -112q0 -76 -40.5 -118t-108.5 -42zM332 551q-67 0 -107.5 44t-40.5 118q0 68 41 110.5t109 42.5t107.5 -43.5t39.5 -109.5q0 -79 -41 -120.5t-108 -41.5z" />
    <glyph glyph-name="semicolon.captab" horiz-adv-x="665" 
d="M236 -322q-12 13 -24.5 25t-22.5 20.5t-17.5 15.5t-12.5 11l-5 4q96 76 159 230q-56 2 -94.5 41t-38.5 100q0 71 43 117.5t109 46.5q71 0 111 -54.5t40 -128.5q0 -109 -74 -232.5t-173 -195.5zM332 553q-64 0 -106 43t-42 123q0 61 41.5 105t110.5 44q60 0 102.5 -42
t42.5 -107q0 -75 -40 -120.5t-109 -45.5z" />
    <glyph glyph-name="parenleft.captab" horiz-adv-x="798" 
d="M467 -154q-238 435 -238 830q0 231 67 457t185 405l152 -57q-102 -175 -158.5 -384t-56.5 -409q0 -190 53 -378t160 -408z" />
    <glyph glyph-name="parenright.captab" horiz-adv-x="798" 
d="M334 -158q-70 29 -166 58q107 220 161 412t54 382q0 200 -56.5 408.5t-156.5 382.5q64 24 154 65q116 -183 181.5 -409t65.5 -453q0 -399 -237 -846z" />
    <glyph glyph-name="bracketleft.captab" horiz-adv-x="798" 
d="M662 -115q-22 1 -61.5 2t-150.5 3t-210 1q3 400 -9 1608q164 0 418 4q0 -59 4 -139q-98 0 -233 -4q-4 -783 2 -1319q99 -4 244 -4q-4 -60 -4 -152z" />
    <glyph glyph-name="bracketright.captab" horiz-adv-x="798" 
d="M143 -121q0 38 -1 73.5t-2 55.5l-1 21q59 0 116.5 1t92 2t37.5 1q2 364 0 799t-4 544q-81 4 -231 4q2 37 2 142q233 -4 415 -4q-8 -969 -2 -1631q-330 0 -422 -8z" />
    <glyph glyph-name="braceleft.captab" horiz-adv-x="798" 
d="M705 -104q-77 -15 -130 -15q-146 0 -217 67t-71 220l16 266q0 110 -51 160.5t-176 44.5l4 168q125 -7 175 31.5t50 140.5q0 41 -10 139t-10 144q0 130 64 192t196 62q56 0 145 -19v-137q-46 6 -84 6q-77 0 -110 -37t-33 -123q0 -36 9 -125t9 -129q0 -103 -37.5 -156.5
t-136.5 -74.5q96 -23 132 -83t36 -167l-12 -246q0 -104 36.5 -147t129.5 -43q17 0 71 4q0 -44 1 -80t3 -49z" />
    <glyph glyph-name="braceright.captab" horiz-adv-x="798" 
d="M96 -117q4 48 4 140q47 -7 74 -7q87 -2 128.5 39t41.5 138q0 41 -9 138.5t-9 143.5q0 105 37.5 163.5t132.5 82.5q-93 17 -135 74t-42 161q0 46 11.5 138t11.5 127q0 79 -38.5 113t-123.5 34q-19 0 -69 -4l2 139q83 17 139 17q268 0 268 -244q0 -49 -12 -149.5
t-12 -143.5q0 -99 49.5 -140.5t175.5 -37.5q0 -144 4 -164q-122 7 -174.5 -42t-52.5 -157q0 -46 11 -151t11 -154q0 -138 -71 -204t-216 -66q-62 0 -137 16z" />
    <glyph glyph-name="section.captab" horiz-adv-x="1331" 
d="M684 -410q-508 0 -551 428q52 8 97.5 17t65.5 13l19 5q26 -169 113.5 -238t255.5 -69q121 0 210 60.5t89 160.5q0 40 -14 68.5t-53 57t-116.5 51t-197.5 40.5q-226 33 -332 108t-106 218q0 94 74 165t172 101q-103 35 -167.5 123t-64.5 191q0 164 129.5 270t358.5 106
q215 0 339.5 -109t149.5 -313q-56 -6 -100.5 -12.5t-60.5 -9.5l-17 -4q-13 145 -94 223t-215 78q-141 0 -221 -59t-80 -158q0 -98 86 -151.5t303 -86.5q168 -26 264 -68.5t133 -99.5t37 -143q0 -92 -59 -172.5t-152 -126.5q90 -30 145 -99.5t58 -168.5q0 -76 -27.5 -141.5
t-75 -111.5t-111 -79t-136 -48.5t-148.5 -15.5zM354 537q0 -60 34.5 -98.5t145 -73.5t318.5 -64q68 39 108.5 94t40.5 113q0 45 -13 74.5t-42 53t-87.5 40.5t-135.5 30.5t-201 28.5q-168 -81 -168 -198z" />
    <glyph glyph-name="numbersign.captab" horiz-adv-x="1331" 
d="M811 106q2 129 2 291l-299 -2q4 -177 8 -262q-63 4 -147 4q0 109 2 256l-232 -4q2 53 -2 141q87 -2 234 -2q0 246 -2 396q-65 0 -221 -4q2 53 -2 139h221q0 88 -4 256q57 -2 145 2q-2 -106 -2 -258l297 2q0 101 -4 285q63 -4 143 2q-2 -113 -2 -285q72 0 240 4
q-4 -57 -4 -135h-236q0 -102 4 -402q32 0 242 5l-2 -140q-97 2 -238 2q0 -95 4 -291q-59 4 -145 0zM512 926q0 -255 2 -398h299l-2 402q-77 0 -299 -4z" />
    </font>
</defs>
</svg>
