<?xml version="1.0" standalone="no"?>
<!DOCTYPE svg PUBLIC "-//W3C//DTD SVG 1.1//EN" "http://www.w3.org/Graphics/SVG/1.1/DTD/svg11.dtd" >
<svg xmlns="http://www.w3.org/2000/svg" xmlns:xlink="http://www.w3.org/1999/xlink" version="1.1">
<metadata>
Created by FontForge 20170731 at Tue Jun 28 17:43:38 2022
 By Aleksey,,,
Copyright 2006 House Industries/Brand Design Co., Inc. All Rights Reserved.
</metadata>
<defs>
<font id="BurbankSmall-Bold" horiz-adv-x="1331" >
  <font-face 
    font-family="Burbank Small Bold"
    font-weight="700"
    font-variant="small-caps"
    font-stretch="normal"
    units-per-em="2048"
    panose-1="0 0 0 0 0 0 0 0 0 0"
    ascent="1536"
    descent="-512"
    x-height="1036"
    cap-height="1423"
    bbox="-117 -567 2441 1972"
    underline-thickness="102"
    underline-position="-307"
    unicode-range="U+0020-FB04"
  />
<missing-glyph horiz-adv-x="532" 
 />
    <glyph glyph-name="ff" unicode="ff" horiz-adv-x="1710" 
d="M778 756q-96 2 -268 2q-1 -158 0 -341.5t2 -287.5l2 -104q-129 2 -295 -2q-8 369 -8 735h-154q2 63 -2 235q56 -4 158 -6v23q3 206 95 308.5t290 102.5q106 0 233 -26q-8 -59 -14 -213q-80 14 -139 14q-87 0 -124.5 -39t-37.5 -135v-39q86 -2 264 -2zM1638 797
q-116 2 -288 2q-1 -158 0 -362t2 -329l2 -124q-129 2 -295 -2q-8 451 -8 817h-154q2 63 -2 235q56 -4 158 -6v23q3 206 95 308.5t290 102.5q106 0 233 -26q-8 -59 -14 -213q-80 14 -139 14q-87 0 -124.5 -39t-37.5 -135v-39q86 -2 284 -2z" />
    <glyph glyph-name="fi" unicode="fi" horiz-adv-x="1417" 
d="M778 776q-96 2 -268 2q-1 -158 0 -356.5t2 -317.5l2 -120q-129 2 -295 -2q-8 430 -8 796h-154q2 64 -2 236q56 -4 158 -6v43q3 206 95 308.5t290 102.5q86 0 213 -26q-8 -59 -14 -213q-80 14 -119 14q-87 0 -124.5 -39t-37.5 -135v-59q129 -3 264 -3zM989 23
q2 211 -6 962q115 0 299 4q0 -408 8 -964q-129 2 -301 -2zM1137 1092q-95 0 -152 54.5t-57 139.5q0 76 56 112t153 36q94 0 148 -46.5t54 -121.5q0 -84 -53 -129t-149 -45z" />
    <glyph glyph-name="fl" unicode="fl" horiz-adv-x="1400" 
d="M1274 31l-301 4q4 447 4.5 787t-1.5 456l-1 117l303 -4q-4 -495 -5 -835t0 -432zM799 776q-117 2 -289 2q-1 -158 0 -356.5t2 -317.5l2 -120q-129 2 -295 -2q-8 430 -8 796h-154q2 64 -2 236q56 -4 158 -6v43q3 206 95 308.5t290 102.5q86 0 213 -26q-8 -59 -14 -213
q-80 14 -119 14q-87 0 -124.5 -39t-37.5 -135v-59q129 -3 285 -3z" />
    <glyph glyph-name="ffi" unicode="ffi" horiz-adv-x="2267" 
d="M1839 23q2 209 -6 960q115 0 299 4q0 -406 8 -962q-129 2 -301 -2zM1987 1090q-98 0 -153.5 45.5t-55.5 128.5q0 78 57.5 123t151.5 45t148 -46.5t54 -121.5q0 -84 -53 -129t-149 -45zM778 756q-96 2 -268 2q-1 -158 0 -341.5t2 -287.5l2 -104q-129 2 -295 -2
q-8 369 -8 735h-154q2 63 -2 235q56 -4 158 -6v23q3 206 95 308.5t290 102.5q106 0 233 -26q-8 -59 -14 -213q-80 14 -139 14q-87 0 -124.5 -39t-37.5 -135v-39q86 -2 264 -2zM1638 797q-116 2 -288 2q-1 -158 0 -362t2 -329l2 -124q-129 2 -295 -2q-8 451 -8 817h-154
q2 63 -2 235q56 -4 158 -6v23q3 206 95 308.5t290 102.5q83 0 213 -26q-9 -59 -15 -213q-82 14 -118 14q-87 0 -124.5 -39t-37.5 -135v-39q86 -2 284 -2z" />
    <glyph glyph-name="ffl" unicode="ffl" horiz-adv-x="2250" 
d="M2124 31l-301 4q4 447 4.5 787t-1.5 456l-1 117l303 -4q-4 -495 -5 -835t0 -432zM778 756q-96 2 -268 2q-1 -158 0 -341.5t2 -287.5l2 -104q-129 2 -295 -2q-8 369 -8 735h-154q2 63 -2 235q56 -4 158 -6v23q3 206 95 308.5t290 102.5q106 0 233 -26q-8 -59 -14 -213
q-80 14 -139 14q-87 0 -124.5 -39t-37.5 -135v-39q86 -2 264 -2zM1638 797q-116 2 -288 2q-1 -158 0 -362t2 -329l2 -124q-129 2 -295 -2q-8 451 -8 817h-154q2 63 -2 235q56 -4 158 -6v23q3 206 95 308.5t290 102.5q106 0 233 -26q-8 -59 -14 -213q-80 14 -139 14
q-87 0 -124.5 -39t-37.5 -135v-39q86 -2 284 -2z" />
    <glyph glyph-name=".notdef" horiz-adv-x="532" 
 />
    <glyph glyph-name=".null" horiz-adv-x="0" 
 />
    <glyph glyph-name="nonmarkingreturn" horiz-adv-x="682" 
 />
    <glyph glyph-name="space" unicode=" " horiz-adv-x="532" 
 />
    <glyph glyph-name="exclam" unicode="!" horiz-adv-x="679" 
d="M346 -25q-100 0 -157.5 53.5t-57.5 143.5q0 83 54.5 135.5t156.5 52.5q97 0 152 -55.5t55 -138.5q0 -87 -58.5 -139t-144.5 -52zM205 463q-10 384 -43 979q21 -1 54 -1.5t131.5 -1.5t164.5 1q-15 -401 -29 -975q-120 4 -278 -2z" />
    <glyph glyph-name="quotedbl" unicode="&#x22;" horiz-adv-x="800" 
d="M127 872q-8 227 -33 558q84 0 234 6q-9 -196 -11 -553q-67 -1 -190 -11zM477 868q2 179 -8 588q78 -6 238 -6q-21 -227 -39 -586q-9 1 -25.5 2t-66.5 2t-99 0z" />
    <glyph glyph-name="numbersign" unicode="#" horiz-adv-x="1273" 
d="M768 158q0 107 2 254l-270 -2q0 -18 6 -228q-94 6 -223 6q0 91 2 220q-170 -5 -209 -5q4 87 -2 218q84 -3 211 -3q0 199 -2 322q-63 0 -199 -4q4 84 -2 217q99 -2 199 -2q0 38 -5 223q91 -4 222 2q-2 -90 -2 -225l270 2q0 88 -4 252q96 -6 221 2q-2 -100 -2 -250
q65 0 213 4q-1 -10 -2 -27.5t-3 -74.5t1 -111h-209q0 -85 4 -327q67 0 215 4q-1 -10 -2 -27t-2 -74.5t2 -113.5q-94 2 -211 2q0 -82 4 -254q-84 4 -223 0zM496 944v-328q174 0 274 2q0 205 -2 330z" />
    <glyph glyph-name="dollar" unicode="$" horiz-adv-x="1204" 
d="M748 -258q-73 3 -144 3.5t-106 -0.5l-35 -1q4 50 6 98t3.5 86t2.5 47q-122 19 -213.5 72t-146.5 145.5t-56 213.5q134 13 306 40q1 -128 67 -192t176 -64q91 0 150 45.5t59 112.5q0 31 -10.5 54t-44 49.5t-103 53t-178.5 54.5q-194 50 -294.5 144.5t-100.5 254.5
q0 149 102.5 258t280.5 138l-12 221h297q-12 -159 -15 -227q177 -35 275 -148t104 -282q-125 -8 -299 -31q-2 113 -62 180.5t-167 67.5q-89 0 -139 -47t-50 -119q0 -74 69 -120t257 -97q119 -31 201 -73t125.5 -93.5t61.5 -104.5t18 -119q0 -154 -109 -256t-281 -131
q-1 -59 0.5 -117.5t2.5 -87.5z" />
    <glyph glyph-name="percent" unicode="%" horiz-adv-x="1693" 
d="M408 602q-174 0 -261.5 110t-87.5 292q0 162 95 267t258 105q169 0 259.5 -103t90.5 -286q0 -189 -99 -287t-255 -98zM410 754q128 0 131 237q0 232 -129 232q-63 0 -98 -63t-35 -169q0 -237 131 -237zM473 -39l-145 19q261 399 480.5 741t308.5 485l89 142
q41 -6 79 -10.5t55 -5.5l18 -1zM1280 -47q-168 0 -258 107.5t-90 283.5q0 105 40 191.5t121 140t191 53.5q168 0 259 -107t91 -282q0 -191 -97 -289t-257 -98zM1284 104q63 0 96 59t33 171q0 119 -32 177t-101 58q-59 0 -93 -60.5t-34 -162.5q0 -242 131 -242z" />
    <glyph glyph-name="ampersand" unicode="&#x26;" horiz-adv-x="1501" 
d="M596 -70q-153 0 -272.5 48.5t-188.5 143t-69 220.5q0 73 21.5 133t62.5 105t87 77t109 64q-160 190 -160 354q0 186 128.5 290.5t342.5 104.5q187 0 305.5 -100t118.5 -254q0 -68 -21 -127t-51.5 -100t-82 -81t-94 -64t-105.5 -56q109 -90 299 -213q41 113 59 258
q67 -20 130.5 -37t93.5 -24l30 -6q-26 -185 -90 -328q83 -49 240 -137q-47 -62 -135 -203q-80 45 -236 139q-192 -207 -522 -207zM504 565q-119 -84 -119 -196q0 -99 71 -159t181 -60q153 0 266 122q-233 149 -399 293zM815 1096q0 71 -44.5 118.5t-123.5 47.5
q-78 0 -127 -52t-49 -139q0 -118 111 -244q112 53 172.5 114.5t60.5 154.5z" />
    <glyph glyph-name="quotesingle" unicode="'" horiz-adv-x="423" 
d="M104 881q4 158 -10 565q9 -1 26.5 -2t79 -3t130.5 -1q-17 -206 -33 -561z" />
    <glyph glyph-name="parenleft" unicode="(" horiz-adv-x="679" 
d="M360 -295q-251 427 -251 913q0 276 67.5 520t200.5 427l252 -95q-205 -361 -205 -841q0 -202 49 -402.5t160 -429.5q-70 -21 -138.5 -44t-101.5 -35z" />
    <glyph glyph-name="parenright" unicode=")" horiz-adv-x="679" 
d="M322 -305q-117 47 -275 92q209 441 209 844q0 477 -203 844q102 37 256 98q132 -186 197 -433t65 -511q0 -482 -249 -934z" />
    <glyph glyph-name="asterisk" unicode="*" horiz-adv-x="839" 
d="M309 666l-188 88q97 148 162 258q-61 8 -117.5 14t-82.5 8l-26 2q11 48 20 96t12 72l3 23q145 -42 238 -64q-5 71 -12.5 138.5t-11.5 98.5l-5 32l229 8q-25 -234 -28 -277l246 62q7 -51 15.5 -100t13.5 -72l5 -23q-61 -6 -213 -20q37 -63 77 -126t62 -94l21 -32
q-52 -19 -99.5 -39.5t-69.5 -31.5l-21 -11l-113 262z" />
    <glyph glyph-name="plus" unicode="+" horiz-adv-x="1048" 
d="M395 207q4 230 4 348l-313 -2q2 72 1.5 126.5t-1.5 86.5l-2 33q8 0 317 -6l-2 340l248 -5q-4 -242 -4 -335l322 2l-7 -242q-102 2 -315 2l4 -346z" />
    <glyph glyph-name="comma" unicode="," horiz-adv-x="561" 
d="M193 -342q-36 36 -69 65t-48 41l-15 11q109 94 160 217q-60 13 -96.5 64.5t-36.5 117.5q0 84 55 142.5t142 58.5q91 0 149 -62.5t58 -167.5q0 -245 -299 -487z" />
    <glyph glyph-name="hyphen" unicode="-" horiz-adv-x="755" 
d="M63 555l-4 260q202 -4 361.5 -5.5t217.5 -1.5l58 1q-4 -94 -5 -157.5t0 -79.5l1 -17q-175 2 -332 2t-227 -1z" />
    <glyph glyph-name="period" unicode="." horiz-adv-x="571" 
d="M285 -25q-93 0 -146 56.5t-53 146.5t56 144.5t143 54.5q88 0 144 -56t54 -139q0 -97 -53 -152t-145 -55z" />
    <glyph glyph-name="slash" unicode="/" horiz-adv-x="925" 
d="M41 -240q136 408 276 845t211 669l72 233q77 -2 148.5 -2t103.5 1l33 1q-184 -558 -323.5 -994.5t-187.5 -594.5l-48 -158q-73 2 -144 2t-106 -1z" />
    <glyph glyph-name="zero" unicode="0" horiz-adv-x="1349" 
d="M674 -49q-129 0 -236 46t-186.5 135t-123.5 227t-44 313q0 335 160 517.5t430 182.5q284 0 438 -177.5t154 -514.5q0 -342 -158 -535.5t-434 -193.5zM680 205q123 0 193.5 117t70.5 362q0 207 -70 325.5t-196 118.5q-134 0 -203 -117.5t-69 -332.5q0 -231 68 -352
t206 -121z" />
    <glyph glyph-name="one" unicode="1" horiz-adv-x="835" 
d="M344 -6q7 678 2 1007l-233 -122q-24 73 -46 136.5t-32 90.5l-10 27q119 60 224.5 115.5t150.5 80.5l46 25l193 -21q0 -305 3.5 -639t7.5 -516l3 -182q-82 -3 -159 -3.5t-114 0.5z" />
    <glyph glyph-name="two" unicode="2" horiz-adv-x="1208" 
d="M1120 -4q-292 6 -550 9.5t-370 4.5h-112q-4 64 -6 138.5t-2 116.5v42q386 174 560.5 327.5t174.5 321.5q0 86 -51.5 141.5t-136.5 55.5q-117 0 -176.5 -83.5t-63.5 -260.5q-129 21 -317 37q21 273 165.5 405.5t395.5 132.5q232 0 373 -113.5t141 -303.5
q0 -218 -177.5 -399.5t-543.5 -311.5q176 -1 350 2.5t260 7.5l86 4v-274z" />
    <glyph glyph-name="three" unicode="3" horiz-adv-x="1257" 
d="M637 -49q-255 0 -410.5 112t-179.5 340q121 11 336 46q8 -265 260 -265q102 0 164.5 53t62.5 146q0 54 -33 97t-102 65q-108 34 -295 22q0 94 -6 215q207 -12 314 29q53 19 82.5 61t29.5 99q0 93 -61.5 144.5t-163.5 51.5q-210 0 -234 -249q-88 16 -168.5 30t-117.5 20
l-37 5q76 418 565 418q235 0 384 -111.5t149 -280.5q0 -123 -75 -204t-216 -107q152 -30 231.5 -117t79.5 -213q0 -186 -154.5 -296.5t-404.5 -110.5z" />
    <glyph glyph-name="four" unicode="4" horiz-adv-x="1253" 
d="M764 -2l2 260q-113 0 -372.5 -2.5t-344.5 -3.5q-2 68 -4 252l569 868l447 -10q-4 -730 -4 -870q98 0 147 2q-2 -82 -2 -234h-143l2 -260q-89 -3 -163.5 -3.5t-103.5 0.5zM770 1174q-263 -406 -430 -685h428q2 395 2 685z" />
    <glyph glyph-name="five" unicode="5" horiz-adv-x="1259" 
d="M647 -43q-233 0 -381 101.5t-188 289.5q88 10 171.5 23t122.5 21l40 7q35 -215 237 -215q102 0 165 70t63 197q0 117 -58 186.5t-166 69.5q-152 0 -229 -160q-135 12 -311 22q14 342 18 781q431 0 995 12q-4 -74 -4 -242q-332 2 -704 -8q-7 -293 -8 -344q60 67 150.5 104
t195.5 37q219 0 333.5 -127t116.5 -336q0 -231 -151 -360t-408 -129z" />
    <glyph glyph-name="six" unicode="6" horiz-adv-x="1298" 
d="M674 -51q-283 0 -436.5 181t-153.5 525q0 342 155 534.5t445 192.5q438 0 508 -387q-94 -7 -177 -16.5t-119 -14.5l-36 -6q-19 98 -62 143.5t-120 45.5q-128 0 -197 -120t-69 -355v-8q67 87 171 135.5t220 48.5q109 0 194.5 -33t137 -90t78 -128.5t26.5 -154.5
q0 -122 -43.5 -217.5t-120.5 -155t-178.5 -90t-222.5 -30.5zM705 641q-77 0 -150.5 -48.5t-126.5 -127.5q55 -279 262 -279q101 0 159 65.5t58 174.5q2 98 -51.5 156.5t-150.5 58.5z" />
    <glyph glyph-name="seven" unicode="7" horiz-adv-x="1097" 
d="M319 -16q-10 352 102 629.5t327 473.5q-131 0 -308.5 -2.5t-289.5 -4.5l-111 -3q3 76 3.5 144.5t-0.5 98.5l-1 30l1018 12l4 -301q-226 -212 -322.5 -462t-89.5 -624z" />
    <glyph glyph-name="eight" unicode="8" horiz-adv-x="1300" 
d="M666 -49q-298 0 -450.5 107t-152.5 302q0 120 75 205.5t212 122.5q-116 46 -181 133t-65 199q0 162 140.5 264t408.5 102q269 0 411 -102t142 -264q0 -117 -67 -200t-193 -126q136 -42 213 -128.5t78 -205.5q0 -83 -30 -151.5t-82.5 -116t-125 -79.5t-156 -47t-177.5 -15
zM655 172q110 0 179 50.5t69 139.5q0 92 -75.5 156.5t-198.5 85.5q-113 -25 -175.5 -86t-62.5 -145q0 -93 70.5 -147t193.5 -54zM684 772q91 22 146 80.5t55 138.5q0 84 -61.5 132t-172.5 48q-112 0 -172.5 -47.5t-60.5 -128.5q0 -80 69 -138.5t197 -84.5z" />
    <glyph glyph-name="nine" unicode="9" horiz-adv-x="1277" 
d="M618 -45q-105 0 -194 25t-162.5 76t-123.5 135.5t-70 197.5q92 9 172 18.5t114 14.5l35 6q18 -120 74.5 -173.5t154.5 -53.5q82 0 136 41t87 143.5t36 271.5q-127 -143 -357 -143q-215 0 -336 113t-121 301q0 213 151.5 337t399.5 124q273 0 426.5 -180.5t153.5 -528.5
q0 -187 -41 -327t-117.5 -226.5t-181 -129t-236.5 -42.5zM610 702q70 0 141 41.5t115 104.5q-38 307 -248 307q-107 0 -167 -64t-60 -171q0 -105 57.5 -161.5t161.5 -56.5z" />
    <glyph glyph-name="colon" unicode=":" horiz-adv-x="595" 
d="M297 -33q-85 0 -139 55t-54 144q0 88 55 144.5t142 56.5q92 0 143.5 -57t51.5 -144q0 -96 -54.5 -147.5t-144.5 -51.5zM295 584q-88 0 -141.5 57.5t-53.5 149.5q0 85 54.5 138.5t142.5 53.5t141.5 -55t53.5 -137q0 -100 -56.5 -153.5t-140.5 -53.5z" />
    <glyph glyph-name="semicolon" unicode=";" horiz-adv-x="600" 
d="M207 -342q-34 30 -67.5 56.5t-50.5 37.5l-17 12q100 91 166 226q-59 9 -98.5 57t-39.5 117q0 89 51.5 148t141.5 59q94 0 150.5 -65t56.5 -165q0 -125 -85.5 -257.5t-207.5 -225.5zM293 586q-82 0 -136.5 54t-54.5 148q0 87 54 141t141 54q84 0 137 -55t53 -140
q0 -94 -53 -148t-141 -54z" />
    <glyph glyph-name="less" unicode="&#x3c;" horiz-adv-x="1026" 
d="M932 387q-1 -13 -2 -36.5t-3 -94.5t-1 -139q-386 194 -846 407q1 12 2 34t2 93.5t0 147.5q354 165 840 411q-9 -108 -9 -280q-287 -123 -608 -266q409 -188 625 -277z" />
    <glyph glyph-name="equal" unicode="=" horiz-adv-x="993" 
d="M104 360q0 48 -6 218q352 -2 797 4l-2 -222q-335 4 -789 0zM895 764q-208 4 -407 5t-294 0l-96 -1l6 221q188 -3 385 -3t301 2l103 1q-1 -81 -0.5 -131t1.5 -72z" />
    <glyph glyph-name="greater" unicode="&#x3e;" horiz-adv-x="1017" 
d="M96 115q2 80 1.5 139.5t-1.5 93.5l-2 35q265 110 625 279q-140 64 -292 131t-234 102l-82 35q3 171 -7 280q215 -110 422.5 -212.5t307.5 -149.5l100 -47q-1 -76 0 -142.5t2 -94.5l2 -29q-197 -96 -407.5 -201t-322.5 -162z" />
    <glyph glyph-name="question" unicode="?" horiz-adv-x="1284" 
d="M434 436q0 90 -1.5 175.5t-2.5 126.5l-2 40q234 -13 334 43t100 185q0 98 -57 157.5t-162 59.5q-204 0 -246 -258q-135 23 -334 43q37 213 185.5 333.5t390.5 120.5q259 0 410 -119t151 -309q0 -200 -119.5 -308t-330.5 -126l-2 -160q-92 1 -170.5 0t-111.5 -2zM604 -41
q-108 0 -162.5 53t-54.5 142q0 86 58.5 137t154.5 51q100 0 154.5 -52.5t54.5 -144.5q0 -86 -56 -136t-149 -50z" />
    <glyph glyph-name="at" unicode="@" horiz-adv-x="2113" 
d="M997 -420q-215 0 -386.5 63t-286 179t-175.5 280.5t-61 366.5q0 134 32.5 260t92.5 235t149.5 199.5t199.5 155t247.5 100t288.5 35.5q182 0 335.5 -45t261.5 -123t183 -182.5t111 -223t36 -245.5q0 -157 -41.5 -287t-112.5 -214t-162.5 -130.5t-192.5 -46.5
q-130 0 -207 65.5t-90 194.5q-63 -125 -160.5 -190.5t-212.5 -65.5q-159 0 -256.5 112.5t-97.5 321.5q0 144 53.5 293t152.5 248q143 143 318 143q117 0 194 -79.5t97 -204.5q10 53 34 221q11 -1 30.5 -1.5t87 -1.5t138.5 1q-70 -307 -131 -654q-10 -62 -10 -96
q0 -135 107 -135q53 0 105 34.5t94.5 96t69 156.5t26.5 205q0 211 -97.5 366.5t-270 235.5t-400.5 80q-195 0 -354 -65.5t-263 -180t-160.5 -267t-56.5 -327.5q0 -339 196.5 -535t553.5 -196q230 0 485 102l53 -151q-292 -103 -547 -103zM936 170q61 0 123 59
q68 65 110.5 173.5t42.5 215.5q0 102 -40 172t-109 70q-66 0 -127 -61q-66 -66 -108 -182t-42 -234q0 -98 41.5 -155.5t108.5 -57.5z" />
    <glyph glyph-name="A" unicode="A" 
d="M41 31q162 571 383 1403l467 6q186 -709 399 -1479q-165 2 -323 -4q-29 114 -76 311q-176 4 -483 4l-56 -245q-155 4 -311 4zM647 1272q-114 -457 -188 -772q78 -2 377 -2q-95 396 -189 774z" />
    <glyph glyph-name="B" unicode="B" horiz-adv-x="1323" 
d="M141 -2q-2 674 -16 1423q264 41 455 41q308 0 459 -102.5t151 -294.5q0 -127 -74 -215.5t-213 -120.5q179 -27 269 -116.5t90 -227.5q0 -425 -682 -422q-216 3 -439 35zM438 199q102 -13 174 -13q314 0 314 211q0 101 -87 153t-292 52q-72 0 -115 -4q1 -96 2.5 -187.5
t2.5 -144t1 -67.5zM430 1225q0 -279 2 -398q31 -2 88 -2q191 0 276 51t85 160q0 99 -74.5 151t-218.5 52q-58 0 -158 -14z" />
    <glyph glyph-name="C" unicode="C" horiz-adv-x="1376" 
d="M713 -37q-301 0 -461 194.5t-160 553.5q0 354 162 550.5t461 196.5q245 0 385.5 -138t179.5 -378q-103 -10 -187.5 -21.5t-117.5 -17.5l-33 -6q-32 309 -235 309q-139 0 -210 -128.5t-69 -362.5q0 -233 70 -364.5t213 -131.5q114 0 178.5 83t77.5 265l342 -30
q-26 -286 -181 -430t-415 -144z" />
    <glyph glyph-name="D" unicode="D" horiz-adv-x="1361" 
d="M444 227q20 -2 60 -2q107 0 184 24t135 79t86.5 151t28.5 234q0 229 -102.5 352t-309.5 123q-44 0 -94 -6q1 -236 4 -474.5t6 -359.5zM125 -2q3 366 3 718.5t-2 522.5l-1 170q184 29 348 29q403 3 601 -186.5t198 -544.5q0 -370 -204.5 -549t-623.5 -181q-144 0 -319 21z
" />
    <glyph glyph-name="E" unicode="E" horiz-adv-x="1157" 
d="M141 8q-2 586 -16 1411q378 7 934 15q0 -86 4 -252q-272 -3 -627 -11q0 -139 2 -370q353 0 533 4q-2 -84 2 -246q-26 1 -71 1.5t-189 1.5t-271 -1q3 -145 9 -309q263 -6 624 -10q-2 -86 -2 -252q-462 14 -932 18z" />
    <glyph glyph-name="F" unicode="F" horiz-adv-x="1105" 
d="M141 4q-2 594 -16 1417q457 5 911 11q2 -103 4 -271q-316 -2 -602 -8q0 -136 2 -422q307 0 510 4q-2 -98 2 -268l-508 2l9 -463z" />
    <glyph glyph-name="G" unicode="G" horiz-adv-x="1406" 
d="M721 -47q-295 0 -462 191t-167 569q0 225 71 392t214.5 262t345.5 95q236 0 377 -125.5t182 -353.5q-133 -12 -317 -43q-19 128 -82.5 201t-165.5 73q-146 0 -222.5 -131t-76.5 -366q0 -522 336 -522q123 0 195.5 80.5t78.5 246.5q-132 9 -366 6q1 80 -3 238l648 -2
q42 -391 -114.5 -601t-471.5 -210z" />
    <glyph glyph-name="H" unicode="H" horiz-adv-x="1314" 
d="M879 -39v500q-102 3 -439 -2l6 -422q-155 2 -313 -2q2 534 -8 1351q129 1 307 3q2 -268 6 -662q10 0 80 -1t146.5 -1.5t212.5 0.5q0 121 -3 377t-4 360q138 -2 314 2q0 -669 6 -1505z" />
    <glyph glyph-name="I" unicode="I" horiz-adv-x="614" 
d="M154 -2q-1 628 -9 1423q113 0 314 2q2 -685 10 -1425q-137 2 -315 0z" />
    <glyph glyph-name="J" unicode="J" horiz-adv-x="1179" 
d="M582 -31q-286 0 -408 176t-96 543q120 -8 319 -12q-18 -234 28 -335t150 -101q59 0 97 32t60 113t22 215q0 213 -4 422t-8 312l-3 102q127 0 338 10q-4 -304 -4 -844q0 -633 -491 -633z" />
    <glyph glyph-name="K" unicode="K" horiz-adv-x="1310" 
d="M930 -49q-207 386 -326 592q-93 -133 -170 -250l4 -264l-313 -2v1364l309 -2q-4 -549 -2 -730q141 228 262.5 427t172.5 284l51 86l346 -14q-308 -467 -433 -680q114 -211 224.5 -409.5t164.5 -290.5l54 -93q-99 -3 -185 -7.5t-123 -7.5z" />
    <glyph glyph-name="L" unicode="L" horiz-adv-x="1069" 
d="M137 6q-2 663 -12 1405q96 -4 311 0q-2 -292 8 -1132l574 -9l-2 -274q-217 4 -437 6.5t-331 3.5h-111z" />
    <glyph glyph-name="M" unicode="M" horiz-adv-x="1898" 
d="M117 37q26 540 51 1347q221 1 446 9q156 -497 324 -1018q197 602 326 1089q225 -4 452 -14q23 -637 68 -1483l-320 -8q2 560 -16 1276q-191 -576 -358 -1161q-160 4 -318 -2q-143 456 -360 1108q0 -45 -1 -258.5t-1 -446.5t2 -444q-141 4 -295 6z" />
    <glyph glyph-name="N" unicode="N" horiz-adv-x="1366" 
d="M131 37q4 507 -6 1339q168 11 336 17q226 -480 512 -1024q-12 512 -39 1093q123 -2 285 -2q4 -571 24 -1480q-147 -11 -325 -21q-227 464 -529 1028q13 -544 27 -954q-125 4 -285 4z" />
    <glyph glyph-name="O" unicode="O" horiz-adv-x="1437" 
d="M719 -43q-293 2 -459 195t-166 546q-3 352 165 556t464 204q299 0 461 -201t162 -555q0 -368 -167.5 -556.5t-459.5 -188.5zM719 205q134 0 211.5 122t77.5 380q0 252 -74.5 377.5t-212.5 125.5q-142 0 -216.5 -128.5t-74.5 -376.5q-1 -243 75 -371.5t214 -128.5z" />
    <glyph glyph-name="P" unicode="P" horiz-adv-x="1230" 
d="M129 12q6 527 -2 1383q172 24 326 24q169 0 301.5 -29.5t228 -88.5t146.5 -154t51 -221q0 -106 -32 -191t-90 -144.5t-142.5 -99.5t-186 -58.5t-223.5 -18.5l-66 2l9 -402q-173 2 -320 -2zM434 1167q0 -305 2 -516q25 -2 74 -2q360 0 360 277q0 113 -82.5 180.5
t-248.5 67.5q-40 0 -105 -7z" />
    <glyph glyph-name="Q" unicode="Q" horiz-adv-x="1435" 
d="M1077 -340q-168 285 -190 320q-93 -21 -172 -21q-286 0 -454.5 191.5t-168.5 539.5q0 190 47.5 337.5t132 239.5t197.5 139.5t248 47.5q313 0 469.5 -197t156.5 -573q0 -390 -215 -582q59 -72 115.5 -138.5t83.5 -97.5l27 -30q-84 -51 -153 -95t-97 -63zM721 203
q287 0 287 495q0 255 -75.5 382.5t-217.5 127.5q-136 0 -211.5 -133.5t-75.5 -378.5q0 -247 77 -370t216 -123z" />
    <glyph glyph-name="R" unicode="R" horiz-adv-x="1292" 
d="M944 -53q-113 230 -293 575q-84 -7 -221 -4l8 -491q-166 2 -309 -2q4 516 -4 1376q219 47 418 47q323 3 497 -119.5t174 -347.5q0 -295 -280 -401q166 -312 323 -590q-125 -16 -313 -43zM430 748q73 -9 139 -9q334 0 334 230q0 109 -77 171t-236 62q-81 0 -166 -14z" />
    <glyph glyph-name="S" unicode="S" horiz-adv-x="1282" 
d="M633 -39q-249 3 -399 128t-173 374q117 1 338 26q3 -140 67.5 -216t180.5 -78q96 -2 157.5 41t61.5 124q0 54 -27.5 92t-105 77t-219.5 79q-205 58 -306.5 160t-101.5 276q0 187 145 301.5t386 114.5q243 0 387 -125.5t164 -361.5q-142 -7 -318 -23q5 126 -55 200.5
t-172 74.5q-99 0 -155 -45t-56 -119q0 -83 71 -140t253 -106q132 -35 221 -80t136.5 -100.5t67 -114.5t19.5 -135q0 -200 -154.5 -313.5t-412.5 -110.5z" />
    <glyph glyph-name="T" unicode="T" horiz-adv-x="1161" 
d="M55 1151q0 108 -2 274q585 1 1055 7l-2 -279h-367q0 -477 9 -1165q-140 0 -318 -2q2 459 -4 1167z" />
    <glyph glyph-name="U" unicode="U" 
d="M676 -29q-296 0 -429.5 171t-133.5 540l-2 696q114 -10 319 -14q-4 -397 -4 -602q0 -196 26.5 -311t78 -163t137.5 -48q84 0 133.5 43t74.5 150.5t25 295.5q0 124 -3 301.5t-6 293.5l-3 116q121 -6 332 4q-2 -440 -2 -746q0 -373 -134 -550t-409 -177z" />
    <glyph glyph-name="V" unicode="V" horiz-adv-x="1288" 
d="M408 -35q-94 371 -185.5 722t-136.5 517l-45 166l330 4q107 -520 272 -1188l289 1252q88 -3 166.5 -4t113.5 0h35l-375 -1477q-224 2 -464 8z" />
    <glyph glyph-name="W" unicode="W" horiz-adv-x="1873" 
d="M1161 -29q-136 755 -225 1178q-72 -317 -133.5 -600.5t-86.5 -408.5l-26 -126l-446 17q-29 238 -59.5 469t-52.5 389.5t-40 283t-27.5 187t-9.5 63.5l299 7q66 -647 135 -1186q87 367 151 648.5t84 379.5l21 98l381 -4q167 -795 256 -1180q56 457 94 776.5t48 410.5
l10 91l293 -6q-75 -500 -126.5 -867.5t-66.5 -484.5l-14 -118z" />
    <glyph glyph-name="X" unicode="X" horiz-adv-x="1341" 
d="M408 10l-365 8q249 430 381 684q-118 246 -350 699q172 2 348 12q78 -188 240 -543q84 177 151 325.5t92 208.5l25 60l346 -10q-271 -521 -377 -739q116 -227 216 -412t141 -257l42 -71l-360 -14q-167 365 -276 586q-71 -140 -134.5 -274t-91.5 -199z" />
    <glyph glyph-name="Y" unicode="Y" horiz-adv-x="1300" 
d="M471 -23q-1 14 -1.5 83t-2.5 167.5t-6 186.5q-120 279 -443 983q92 2 344 14q68 -200 261 -680q100 222 288 715q102 -4 338 -6q-175 -361 -471 -1024q-2 -156 6 -436q-92 -1 -313 -3z" />
    <glyph glyph-name="Z" unicode="Z" horiz-adv-x="1165" 
d="M1071 -6q-236 5 -482 8t-373 4h-128l2 252q404 577 625 895q-170 -1 -323.5 -4t-221.5 -5l-68 -3l-2 280q272 1 513.5 4t346.5 6l105 3l4 -271l-625 -889q140 -3 298 -4t246 0h87z" />
    <glyph glyph-name="bracketleft" unicode="[" horiz-adv-x="735" 
d="M666 -256q-29 1 -78.5 2t-186.5 2t-254 0q4 572 -8 1780q212 -2 516 4q0 -98 4 -227q-98 -1 -204 -7q-6 -770 2 -1306q98 -4 215 -4q-4 -97 -6 -244z" />
    <glyph glyph-name="backslash" unicode="\" horiz-adv-x="925" 
d="M885 -238q-121 4 -285 0q-146 494 -559 1749q111 -6 283 0q255 -833 561 -1749z" />
    <glyph glyph-name="bracketright" unicode="]" horiz-adv-x="733" 
d="M74 -256l-8 242q50 0 102 1t84 2t33 1q3 389 1 814.5t-5 510.5q-67 3 -134.5 3.5t-70.5 -1.5l2 231q291 -4 514 -4q-11 -1127 -2 -1794q-70 1 -138 0.5t-136 -1.5t-118.5 -2t-86 -2t-37.5 -1z" />
    <glyph glyph-name="asciicircum" unicode="^" horiz-adv-x="1060" 
d="M993 586q-7 1 -24 2.5t-82 4t-154 -0.5q-68 230 -205 616q-90 -257 -204 -633q-84 11 -256 11q118 297 311 833q11 -1 32.5 -1.5t99 -1.5t171.5 1q100 -295 311 -831z" />
    <glyph glyph-name="underscore" unicode="_" horiz-adv-x="958" 
d="M35 -225q1 89 0.5 132t-1.5 74.5t-1 32.5q382 -10 899 -4q-2 -93 -2 -237q-136 2 -895 2z" />
    <glyph glyph-name="grave" unicode="`" horiz-adv-x="1220" 
d="M645 1116q-88 99 -299 314q59 41 176 133q88 -123 264 -344q-49 -33 -141 -103z" />
    <glyph glyph-name="a" unicode="a" horiz-adv-x="1140" 
d="M432 -35q-159 0 -259.5 80t-100.5 221q0 180 160.5 274t494.5 113v13q-9 200 -164 200q-143 0 -182 -170q-120 33 -272 58q112 309 466 309q448 0 457 -449q4 -148 4.5 -309t-0.5 -249l-2 -87q-96 0 -252 -4q7 82 9 209q-45 -100 -141 -154.5t-218 -54.5zM741 453v43
q-366 -20 -366 -193q0 -66 38.5 -103t110.5 -38q97 0 157 71t60 220z" />
    <glyph glyph-name="b" unicode="b" horiz-adv-x="1226" 
d="M117 -35q4 324 -4 1430q9 0 30 -0.5t98.5 -1.5t178.5 0q-8 -227 -12 -539q50 97 133.5 150t187.5 53q191 0 300.5 -148t109.5 -395q0 -257 -122 -399t-325 -142q-116 0 -204.5 56t-133.5 164q5 -173 8 -228q-124 2 -245 0zM621 160q97 0 150.5 92t53.5 270
q0 149 -51 242.5t-149 93.5q-95 0 -157 -94.5t-62 -253.5q0 -161 59.5 -255.5t155.5 -94.5z" />
    <glyph glyph-name="c" unicode="c" horiz-adv-x="1153" 
d="M598 -37q-249 0 -379.5 145.5t-130.5 407.5q0 160 57.5 282.5t172 192.5t272.5 70q203 0 321.5 -101.5t159.5 -275.5q-76 -6 -154 -15.5t-119 -15.5l-40 -6q-32 199 -170 199q-90 0 -141.5 -88.5t-51.5 -247.5q0 -155 51.5 -239.5t143.5 -84.5q68 0 109.5 46.5
t64.5 148.5q98 -16 311 -43q-41 -189 -167 -282t-310 -93z" />
    <glyph glyph-name="d" unicode="d" horiz-adv-x="1228" 
d="M1114 -20l-252 2q6 84 10 225q-44 -116 -138.5 -176t-211.5 -60q-198 0 -316 143.5t-118 397.5q0 248 114.5 397.5t313.5 149.5q98 0 177 -50t126 -135q-6 368 -12 533q61 -2 309 2q-1 -71 -1.5 -193.5t-1.5 -511t1 -724.5zM608 166q97 0 157 87.5t60 252.5
q-5 161 -61.5 256.5t-161.5 95.5q-94 0 -146.5 -94.5t-52.5 -251.5q0 -166 53.5 -256t151.5 -90z" />
    <glyph glyph-name="e" unicode="e" horiz-adv-x="1189" 
d="M610 -39q-245 0 -383.5 148.5t-138.5 396.5q0 115 34 215t98 176t164 120t224 44q137 -1 238.5 -47.5t158.5 -128t77 -189.5t1 -235q-226 -2 -682 -12q11 -134 66.5 -206.5t153.5 -72.5q153 0 215 174q90 -31 272 -74q-76 -154 -202.5 -231.5t-295.5 -77.5zM610 879
q-84 0 -136.5 -69t-67.5 -196l391 17q-3 116 -49 182t-138 66z" />
    <glyph glyph-name="f" unicode="f" horiz-adv-x="870" 
d="M799 776q-117 2 -289 2q-1 -158 0 -351.5t2 -308.5l2 -114q-129 2 -295 -2q-8 410 -8 776h-154q2 64 -2 236q56 -4 158 -6v22q3 206 95 309t290 103q101 0 233 -27q-8 -59 -14 -213q-86 15 -139 15q-87 0 -124.5 -39.5t-37.5 -135.5v-38q129 -3 285 -3z" />
    <glyph glyph-name="g" unicode="g" horiz-adv-x="1130" 
d="M518 -567q-224 0 -352.5 74t-128.5 194q0 78 57 142.5t172 101.5q-104 55 -104 159q0 125 174 191q-128 46 -198.5 143.5t-69.5 233.5q0 180 137 291.5t346 111.5q99 0 192 -26l93 280q95 -55 249 -129q-77 -86 -192 -229q72 -57 109.5 -136.5t37.5 -170.5
q0 -100 -40 -179t-107.5 -127t-151 -73t-176.5 -25l-80 4q-51 -30 -51 -63q0 -17 13 -28.5t58.5 -22t127.5 -17.5q252 -19 354.5 -96.5t102.5 -218.5q0 -177 -159.5 -281t-412.5 -104zM553 444q90 0 144.5 55t54.5 167q0 90 -53 149t-146 59q-94 0 -148.5 -56.5
t-54.5 -151.5q0 -101 54.5 -161.5t148.5 -60.5zM805 -236q0 64 -91 90.5t-306 34.5q-76 -61 -76 -139q0 -59 55.5 -96t161.5 -37q117 0 186.5 43.5t69.5 103.5z" />
    <glyph glyph-name="h" unicode="h" horiz-adv-x="1167" 
d="M115 37q8 584 0 1352q104 0 299 2l-2 -568q45 108 131 172t196 64q152 0 232.5 -96.5t85.5 -272.5q5 -161 6 -343t-1 -284l-1 -102q-121 2 -297 2q6 308 0 639q-2 101 -33.5 151t-103.5 50q-95 0 -150 -87t-57 -210q-3 -96 -3.5 -212.5t0.5 -185.5l1 -69q-121 2 -303 -2z
" />
    <glyph glyph-name="i" unicode="i" horiz-adv-x="567" 
d="M139 2q2 271 -6 1022q115 0 299 4q0 -468 8 -1024q-129 2 -301 -2zM287 1130q-97 0 -153 46t-56 129q0 78 57.5 123t151.5 45t148 -46.5t54 -121.5q0 -84 -53 -129.5t-149 -45.5z" />
    <glyph glyph-name="j" unicode="j" horiz-adv-x="563" 
d="M285 1130q-100 0 -154.5 51t-54.5 124q0 75 55.5 122.5t149.5 47.5q92 0 148 -48t56 -120q0 -82 -56 -129.5t-144 -47.5zM-117 -444q8 85 8 251q66 -8 89 -8q80 0 118 38.5t39 127.5q3 232 2 467t-3 412l-3 178q101 -2 166 -1.5t96 1.5l31 2q2 -51 3.5 -141t5 -382.5
t-0.5 -563.5q-3 -392 -405 -392q-76 0 -146 11z" />
    <glyph glyph-name="k" unicode="k" horiz-adv-x="1130" 
d="M780 -45l-237 473q-93 -122 -129 -174l4 -221q-82 3 -157.5 4t-110.5 1l-35 -1q4 437 4 775.5t-2 458.5l-2 120q91 -3 166.5 -3.5t104.5 0.5l30 1q-2 -408 -2 -850q99 155 179.5 287t110.5 186l31 55l350 -12q-262 -348 -327 -439q96 -186 182.5 -347.5t125.5 -230.5
l38 -69q-104 -2 -185 -5.5t-110 -5.5z" />
    <glyph glyph-name="l" unicode="l" horiz-adv-x="550" 
d="M424 10l-301 4q4 447 4.5 797.5t-1.5 476.5l-1 127l303 -4q-4 -495 -5 -845.5t0 -453.5z" />
    <glyph glyph-name="m" unicode="m" horiz-adv-x="1777" 
d="M119 35q2 399 -6 969q106 -3 243 -3q-4 -104 -4 -231q53 134 148.5 210.5t214.5 76.5q129 0 201.5 -73.5t95.5 -201.5q48 113 139.5 174.5t198.5 61.5q304 0 319 -377q4 -134 4.5 -303.5t-1.5 -271.5l-1 -103q-117 2 -297 0q6 326 -4 604q-6 197 -133 197
q-88 0 -140 -79.5t-55 -199.5q-2 -100 -1.5 -193t1.5 -160l2 -66h-303q1 31 2.5 82t4 203.5t-2.5 260.5q-7 189 -127 189q-79 0 -139 -85t-61 -216q-3 -112 -2.5 -215.5t2.5 -176.5l2 -73h-301z" />
    <glyph glyph-name="n" unicode="n" horiz-adv-x="1163" 
d="M758 -41q1 37 2 101t2 234t0 308q-2 98 -33 148.5t-106 50.5q-90 0 -146.5 -82t-58.5 -203q-3 -65 -3.5 -185.5t0.5 -208.5l1 -87q-168 4 -303 0q1 43 1.5 120.5t1.5 335t-1 508.5q128 -2 241 2l-2 -233q55 142 152.5 216.5t222.5 72.5q159 -1 239.5 -99.5t86.5 -273.5
q3 -67 4 -247.5t1 -328.5l-1 -147z" />
    <glyph glyph-name="o" unicode="o" horiz-adv-x="1220" 
d="M606 -31q-247 0 -382.5 145.5t-135.5 411.5q0 246 142 390.5t378 144.5q244 0 384.5 -146.5t140.5 -396.5q0 -138 -40 -244.5t-111.5 -172t-166.5 -99t-209 -33.5zM610 172q98 0 153.5 85t55.5 263q0 159 -52.5 247.5t-154.5 88.5q-98 0 -155.5 -85t-57.5 -243
q0 -356 211 -356z" />
    <glyph glyph-name="p" unicode="p" horiz-adv-x="1239" 
d="M113 -430q3 328 3 690.5t-2 561.5l-1 198l256 2q-2 -56 -2 -193q53 108 150 170t202 62q134 0 233 -75.5t148 -198t49 -273.5q1 -255 -117 -400t-317 -145q-96 0 -177 42.5t-130 127.5q4 -175 9 -316.5t8 -196.5l3 -54zM637 162q96 0 147.5 88.5t51.5 263.5
q0 155 -53.5 251.5t-147.5 96.5q-103 0 -162 -98t-59 -252q0 -163 59.5 -256.5t163.5 -93.5z" />
    <glyph glyph-name="q" unicode="q" horiz-adv-x="1234" 
d="M809 -436q12 311 18 598q-41 -95 -123.5 -145t-183.5 -50q-202 0 -317 148t-115 401q0 246 121 398.5t311 152.5q119 0 211.5 -65t140.5 -171l-8 222q91 -2 155.5 -2t83.5 1l19 1q-3 -405 -3 -776.5t1 -540.5l2 -170zM602 162q99 0 161 94t62 256q-1 95 -25 172.5
t-75 127.5t-121 50q-93 0 -148 -97t-55 -247q0 -163 52.5 -259.5t148.5 -96.5z" />
    <glyph glyph-name="r" unicode="r" horiz-adv-x="827" 
d="M115 0q2 503 -2 1006q87 -2 249 2q-4 -113 -4 -242q51 137 163 213t257 70q-4 -105 -6 -281q-193 -13 -273 -105.5t-85 -297.5q-1 -70 0 -161t2 -146l2 -56q-106 0 -303 -2z" />
    <glyph glyph-name="s" unicode="s" horiz-adv-x="1081" 
d="M553 -49q-98 0 -180 20t-150.5 61.5t-115 113t-64.5 167.5q125 12 293 41q40 -193 219 -196q75 0 119.5 29t44.5 81q0 51 -51 84t-203 66q-189 41 -279 118.5t-90 217.5q0 144 123 231.5t316 87.5q389 0 475 -344q-120 -14 -267 -43q-19 79 -71 128.5t-135 49.5
q-65 0 -106.5 -28.5t-41.5 -79.5q0 -55 54.5 -88.5t199.5 -65.5q143 -32 225.5 -79t113 -103t30.5 -135q0 -159 -129.5 -246.5t-329.5 -87.5z" />
    <glyph glyph-name="t" unicode="t" horiz-adv-x="905" 
d="M834 43q-168 -51 -281 -51q-352 0 -358 389q-5 176 -5 424h-149q1 89 0.5 141.5t-1.5 73.5l-1 22l154 -4l4 277l295 -2q-5 -115 -7 -277h332l-2 -235q-238 4 -332 4q0 -197 6 -381q3 -87 37.5 -130.5t108.5 -43.5q69 0 172 33q6 -71 13 -131t10 -84z" />
    <glyph glyph-name="u" unicode="u" horiz-adv-x="1157" 
d="M465 -6q-180 0 -270.5 118.5t-90.5 364.5l-2 533q100 -7 301 -9q-8 -226 -8 -542q0 -111 38 -166t122 -55q83 0 134.5 76.5t55.5 211.5q4 136 3.5 255.5t-2.5 201.5l-3 82q74 -4 299 -4q-4 -444 2 -1084q-10 1 -28.5 1.5t-84.5 1.5t-138 0q4 98 4 231q-44 -103 -131 -160
t-201 -57z" />
    <glyph glyph-name="v" unicode="v" horiz-adv-x="1079" 
d="M745 10q-116 2 -214.5 2t-139.5 -1l-41 -1l-319 996q87 2 164.5 5.5t112.5 6.5l34 2q108 -457 203 -823q58 230 109 445.5t72 315.5l22 101l301 -8z" />
    <glyph glyph-name="w" unicode="w" horiz-adv-x="1587" 
d="M967 -16q-43 190 -179 749q-51 -209 -92 -390t-56 -257l-15 -76l-385 4l-205 1016q80 0 152 2t103 4l32 2q27 -181 54.5 -356.5t48.5 -302t26 -160.5l196 809h279q118 -476 213 -815q39 236 73 451.5t48 313.5l14 97q89 -4 158.5 -5.5t94.5 -1.5l25 1
q-68 -318 -120.5 -587.5t-71.5 -380.5l-19 -111q-108 0 -201.5 -1.5t-133.5 -2.5z" />
    <glyph glyph-name="x" unicode="x" horiz-adv-x="1183" 
d="M47 6q226 354 318 516q-86 148 -163.5 276t-111.5 182l-35 54q94 -1 177 0t119 2l36 2q121 -245 201 -389q67 123 122.5 228t77.5 149l23 43l315 -14q-197 -312 -323 -527q94 -165 177.5 -305t119.5 -198l37 -58q-98 0 -180 -1.5t-115 -3.5l-33 -1q-159 304 -227 426
q-61 -110 -110 -205.5t-68 -135.5l-19 -40q-108 2 -192.5 2t-114.5 -1z" />
    <glyph glyph-name="y" unicode="y" horiz-adv-x="1093" 
d="M604 -481l-289 45q83 271 101 340q-99 292 -195.5 563.5t-142.5 397.5l-47 126q94 2 174.5 6t114.5 7l34 4q38 -151 205 -772q55 215 104 424t71 311l22 102l307 -16z" />
    <glyph glyph-name="z" unicode="z" horiz-adv-x="1034" 
d="M942 -4q-288 9 -501.5 13t-282.5 3h-70l4 197q168 198 291 345.5t162 195.5l39 49q-167 -2 -286.5 -5.5t-155.5 -6.5l-36 -3l-4 242q257 1 465 3.5t287 4.5l80 2q-1 -63 0 -114t2 -71l2 -20q-154 -176 -277 -325t-169 -210l-46 -60q171 -2 282.5 -1.5t164.5 1.5l53 2z
" />
    <glyph glyph-name="braceleft" unicode="{" horiz-adv-x="835" 
d="M778 -246q-99 -24 -205 -24q-164 0 -235.5 75t-71.5 242l10 272q0 119 -48.5 167t-184.5 42q4 124 4 267q132 -9 182 26t50 131q0 45 -10.5 158.5t-10.5 165.5q0 142 75.5 207t223.5 65q104 0 205 -24q-1 -72 0 -129t2 -78l2 -21q-117 17 -160 -13.5t-43 -115.5
q0 -38 7.5 -128t7.5 -134q0 -100 -49 -159.5t-150 -86.5q101 -29 145.5 -96t44.5 -178l-10 -231q0 -113 42 -146.5t171 -21.5q0 -74 1.5 -132t2.5 -79z" />
    <glyph glyph-name="bar" unicode="|" horiz-adv-x="651" 
d="M195 -246q3 900 -7 1762q9 -1 28 -2t90 -2.5t155 -0.5q-6 -741 0 -1753q-90 4 -266 -4z" />
    <glyph glyph-name="braceright" unicode="}" horiz-adv-x="835" 
d="M57 -256q6 65 6 225q124 -15 172 16.5t48 131.5q0 41 -8.5 135.5t-8.5 142.5q0 210 199 260q-107 24 -156 87t-49 169q0 48 8 135.5t8 124.5q0 83 -45.5 110.5t-160.5 16.5q1 8 2 24.5t3 76t1 127.5q86 22 190 22q166 0 239 -66.5t73 -205.5q0 -53 -10.5 -161t-10.5 -154
q0 -101 51.5 -139t179.5 -29l5 -261q-126 7 -181 -40t-55 -154q0 -49 9 -160.5t9 -165.5q0 -153 -73 -224t-234 -71q-112 0 -211 27z" />
    <glyph glyph-name="asciitilde" unicode="~" horiz-adv-x="1056" 
d="M260 1044q-77 11 -190 21q-6 187 68.5 290t205.5 103q58 0 114 -29t92 -63t77.5 -63t74.5 -29q92 0 97 180q73 -6 188 -12q6 -195 -66 -294t-200 -99q-48 0 -95 18.5t-82.5 45t-67.5 53t-62.5 45t-55.5 18.5q-46 0 -70 -42t-28 -143z" />
    <glyph glyph-name="exclamdown" unicode="&#xa1;" horiz-adv-x="679" 
d="M336 1151q100 0 156.5 -52.5t56.5 -142.5q0 -84 -54 -137t-157 -53q-98 0 -152.5 56t-54.5 141q0 86 59 137t146 51zM477 666q8 -384 43 -981q-21 1 -54.5 2t-132.5 3t-165 -1q17 399 29 973q122 -2 280 4z" />
    <glyph glyph-name="cent" unicode="&#xa2;" horiz-adv-x="1224" 
d="M487 -127q11 180 11 215q-193 41 -301.5 200.5t-108.5 405.5t105.5 405.5t302.5 198.5q-1 54 -4 110.5t-6 85.5l-3 30q81 -2 147 -1.5t108 1.5l42 2q-3 -47 -8 -125.5t-6 -106.5q165 -36 264 -149.5t111 -274.5q-92 -6 -172 -14.5t-114 -13.5l-34 -6q-15 122 -62.5 183.5
t-133.5 61.5q-111 0 -167.5 -101t-56.5 -271q0 -195 60.5 -291t169.5 -96q81 0 130 55t66 174q107 -23 320 -43q-26 -179 -124 -284.5t-257 -135.5q1 -57 3.5 -111t4.5 -79l2 -25q-76 2 -148.5 2t-106.5 -1z" />
    <glyph glyph-name="sterling" unicode="&#xa3;" horiz-adv-x="1259" 
d="M260 504h-162q1 55 0 106t-2 75l-2 24q37 -2 111 -2q-26 61 -36.5 88t-24 81.5t-13.5 102.5q0 190 142 300t378 110q245 0 380 -124t159 -335q-121 -17 -311 -58q-10 125 -63.5 197t-156.5 72q-97 0 -151.5 -55t-54.5 -144q0 -13 1.5 -26t2.5 -24t5 -25.5t6.5 -23
t8.5 -24t8 -22.5t10 -24t10 -22t10.5 -23.5t10.5 -22.5l430 4l2 -215l-383 6q-9 -151 -116 -244q271 -6 715 2q-1 -10 -3 -30.5t-4.5 -91t-1.5 -150.5q-349 14 -1065 16q1 14 2 37.5t2 86t0 112.5q153 88 156 266z" />
    <glyph glyph-name="yen" unicode="&#xa5;" horiz-adv-x="1304" 
d="M160 401q2 64 -4 181q77 -2 229 0q-110 266 -326 735q101 -2 332 12q115 -314 254 -690q109 265 287 745q14 -1 39.5 -2.5t110 -4t173.5 -1.5q-151 -308 -352 -784l232 6l-2 -180q-119 0 -332 -2v-113q17 0 141 2t197 4q-2 -57 2 -170q-123 0 -338 -2l6 -164
q-127 4 -315 -2q2 70 2 162l-344 -8q2 61 2 174q123 -2 340 0q-2 35 -2 111q-159 -3 -332 -9z" />
    <glyph glyph-name="section" unicode="&#xa7;" horiz-adv-x="1300" 
d="M662 -416q-251 0 -404.5 99t-198.5 294q86 13 164 28t113 23l35 9q24 -110 95.5 -161.5t190.5 -51.5q92 0 154.5 45t62.5 119q0 40 -25 66t-101 49t-216 40q-85 10 -150 25.5t-121.5 41.5t-93 61.5t-57 86t-20.5 115.5q0 93 74 168.5t180 101.5q-108 42 -171.5 131.5
t-63.5 192.5q0 173 143.5 285t386.5 112q239 0 379 -107.5t180 -293.5q-102 -10 -181.5 -21t-108.5 -16l-29 -6q-18 101 -74 152t-158 51q-101 0 -157 -42t-56 -112t72.5 -111.5t236.5 -64.5q119 -17 206 -41.5t139.5 -53t83.5 -66.5t42 -76t11 -87q0 -79 -56.5 -159.5
t-146.5 -130.5q88 -32 135.5 -103.5t50.5 -175.5q0 -124 -75 -220t-198.5 -146t-272.5 -50zM410 539q0 -51 31.5 -84t123.5 -60t262 -47q84 70 84 150q0 85 -84.5 124.5t-308.5 59.5q-108 -61 -108 -143z" />
    <glyph glyph-name="dieresis" unicode="&#xa8;" horiz-adv-x="1220" 
d="M395 1163q-67 0 -105 39.5t-38 100.5q0 60 41.5 96.5t103.5 36.5q68 0 107 -39t39 -97q0 -68 -41.5 -102.5t-106.5 -34.5zM813 1165q-62 0 -100.5 39.5t-38.5 104.5q0 56 38.5 92.5t104.5 36.5q63 0 99 -37.5t36 -97.5q0 -64 -38.5 -101t-100.5 -37z" />
    <glyph glyph-name="copyright" unicode="&#xa9;" horiz-adv-x="1556" 
d="M780 246q-181 0 -286 111t-105 294q0 179 106.5 299.5t284.5 120.5q157 0 254 -81.5t119 -219.5q-64 -4 -124 -11t-88 -11l-28 -5q-28 152 -131 152q-72 0 -111.5 -65.5t-39.5 -176.5q0 -107 42.5 -165t112.5 -58q100 0 132 158l239 -29q-32 -154 -129 -233.5t-248 -79.5
zM762 -47q-209 0 -363.5 92t-234.5 255.5t-80 377.5q0 145 50.5 272.5t141 220.5t225 147t294.5 54q146 0 272 -52t215.5 -144.5t140 -224t50.5 -285.5q0 -175 -53.5 -312t-150 -224t-225 -132t-282.5 -45zM774 59q261 0 420.5 160t159.5 443q0 265 -154.5 434.5
t-411.5 169.5q-183 0 -317.5 -79.5t-202 -216t-67.5 -311.5q0 -270 155.5 -435t417.5 -165z" />
    <glyph glyph-name="ordfeminine" unicode="&#xaa;" horiz-adv-x="933" 
d="M344 584q-124 0 -200 66t-76 179q0 120 123.5 196t398.5 89v29q0 143 -119 143q-104 0 -135 -119q-82 17 -242 37q29 113 130 177.5t249 64.5q181 0 272 -92t97 -262q3 -100 2.5 -209t-3.5 -195l-3 -86q-64 -2 -197 0q6 82 10 174q-39 -94 -119.5 -143t-187.5 -49z
M594 936v72q-142 -14 -206 -59.5t-64 -110.5q0 -51 29.5 -79t82.5 -28q67 0 112.5 61.5t45.5 143.5z" />
    <glyph glyph-name="guillemotleft" unicode="&#xab;" horiz-adv-x="952" 
d="M291 221q-84 187 -242 481q114 176 264 451q70 -6 222 -8q-132 -207 -265 -451q95 -193 238 -456q-78 -3 -217 -17zM649 684q86 -177 244 -455q-84 2 -219 -6q-88 189 -242 469q97 151 240 416q84 -6 217 -10q-117 -183 -240 -414z" />
    <glyph glyph-name="registered" unicode="&#xae;" horiz-adv-x="1054" 
d="M535 451q-223 0 -351.5 136.5t-128.5 368.5q0 138 54.5 252t162 183t248.5 69q117 0 210.5 -43t151 -115.5t87.5 -163.5t30 -192q0 -116 -36.5 -210.5t-99.5 -156t-147.5 -95t-180.5 -33.5zM537 528q100 0 183.5 44.5t137 139t53.5 224.5q0 196 -105.5 321t-291.5 125
q-163 0 -268 -120.5t-105 -311.5q0 -197 105 -309.5t291 -112.5zM602 682q-22 78 -65 195q-30 -3 -68 -3q0 -114 4 -182q-47 2 -145 0q6 192 6 537q83 14 158 14q131 0 195.5 -50.5t64.5 -131.5q0 -93 -95 -148q27 -78 88 -206q-57 -9 -143 -25zM469 969q67 -4 102 17.5
t35 66.5q0 82 -106 82l-33 -2z" />
    <glyph glyph-name="macron" unicode="&#xaf;" horiz-adv-x="1220" 
d="M313 1214q2 54 -2 179q159 -4 592 4q-4 -55 -4 -180q-186 3 -586 -3z" />
    <glyph glyph-name="degree" unicode="&#xb0;" horiz-adv-x="739" 
d="M373 840q-133 0 -223.5 84t-90.5 235q0 128 82 212.5t226 84.5q150 0 231.5 -81.5t81.5 -215.5q0 -144 -81.5 -231.5t-225.5 -87.5zM373 981q64 0 102.5 45.5t38.5 128.5q0 69 -38.5 117.5t-104.5 48.5q-67 0 -105.5 -48.5t-38.5 -117.5q0 -74 39.5 -124t106.5 -50z" />
    <glyph glyph-name="twosuperior" unicode="&#xb2;" horiz-adv-x="819" 
d="M743 625l-667 8l-6 198q201 73 330.5 174t129.5 205q0 58 -28.5 89.5t-81.5 31.5q-130 0 -133 -182q-86 15 -217 25q6 147 97.5 229t256.5 82q159 0 245.5 -71t86.5 -191q0 -131 -118 -246t-304 -184q107 0 209 3t151 6l49 3v-180z" />
    <glyph glyph-name="threesuperior" unicode="&#xb3;" horiz-adv-x="864" 
d="M428 596q-344 0 -383 278q101 7 236 25q17 -145 147 -145q67 0 105 27t38 79q0 38 -20.5 65t-56.5 38q-77 24 -205 12q0 53 -4 137q145 -10 211 16q69 26 69 95q0 51 -35.5 81.5t-97.5 30.5q-120 0 -135 -137l-231 27q14 124 109 193t259 69q161 0 257.5 -67t96.5 -175
q0 -74 -51.5 -128.5t-134.5 -67.5q94 -15 146.5 -70.5t52.5 -128.5q0 -116 -103.5 -185t-269.5 -69z" />
    <glyph glyph-name="acute" unicode="&#xb4;" horiz-adv-x="1220" 
d="M618 1118l-141 101q78 98 143.5 184t91.5 123l27 37l181 -129q-95 -96 -170.5 -175t-103.5 -110z" />
    <glyph glyph-name="paragraph" unicode="&#xb6;" horiz-adv-x="1517" 
d="M66 819q0 297 220 462t668 165q167 0 418 -31q-9 -710 14 -1798q-92 6 -319 6q8 1081 10 1559q-79 3 -194 -4q0 -721 10 -1520q-149 2 -313 -2q1 265 -5 571q-252 52 -380.5 202t-128.5 390z" />
    <glyph glyph-name="periodcentered" unicode="&#xb7;" horiz-adv-x="595" 
d="M297 584q-85 0 -139 55.5t-54 144.5q0 88 54.5 143.5t142.5 55.5q92 0 143.5 -56.5t51.5 -142.5q0 -91 -52 -145.5t-147 -54.5z" />
    <glyph glyph-name="cedilla" unicode="&#xb8;" horiz-adv-x="1236" 
d="M555 -8l143 2q-4 -51 -4 -117q111 -1 169.5 -44.5t58.5 -111.5q0 -86 -81.5 -136t-224.5 -50q-113 0 -213 49q15 51 29 123q86 -45 172 -45q49 0 79 16.5t30 47.5q0 78 -197 59q19 76 39 207z" />
    <glyph glyph-name="onesuperior" unicode="&#xb9;" horiz-adv-x="616" 
d="M256 625q3 466 0 592l-152 -78q-15 46 -30.5 91t-23.5 67l-9 22l278 145l152 -12q0 -188 2 -394.5t4 -318.5l2 -112z" />
    <glyph glyph-name="ordmasculine" unicode="&#xba;" horiz-adv-x="966" 
d="M483 571q-197 0 -305 119t-108 336q0 190 115 308t300 118q200 0 306 -119t106 -319q0 -211 -117 -327t-297 -116zM485 739q78 0 118 70.5t40 204.5q0 130 -40.5 203t-117.5 73t-119 -70.5t-42 -191.5q0 -289 161 -289z" />
    <glyph glyph-name="guillemotright" unicode="&#xbb;" horiz-adv-x="952" 
d="M272 227q-82 11 -213 15q115 176 244 426q-86 187 -229 456q78 1 217 13q77 -176 229 -478q-117 -186 -248 -432zM657 231q-65 9 -221 11q109 178 244 432q-84 183 -229 454q84 -1 223 9q86 -191 229 -471q-123 -193 -246 -435z" />
    <glyph glyph-name="onequarter" unicode="&#xbc;" horiz-adv-x="1761" 
d="M256 625q3 466 0 592l-152 -78q-15 46 -30.5 91t-23.5 67l-9 22l278 145l152 -12q0 -188 2 -394.5t4 -318.5l2 -112zM434 -39l-145 19q261 399 494 762.5t335 527.5l103 164q41 -6 78.5 -10.5t54.5 -5.5l18 -1zM1413 -12q0 109 2 162q-454 -7 -471 -7q0 47 -4 160
l365 535q90 -4 170 -6.5t115 -2.5h34q-2 -221 -2 -522l86 2v-159h-86l2 -160zM1419 698q-115 -166 -268 -393h266q2 213 2 393z" />
    <glyph glyph-name="onehalf" unicode="&#xbd;" horiz-adv-x="1802" 
d="M256 625q3 466 0 592l-152 -78q-15 46 -30.5 91t-23.5 67l-9 22l278 145l152 -12q0 -188 2 -394.5t4 -318.5l2 -112zM434 -39l-145 19q261 399 494 762.5t335 527.5l103 164q41 -6 78.5 -10.5t54.5 -5.5l18 -1zM1726 -14l-667 8l-6 199q130 48 231.5 106.5t165 130
t63.5 141.5q0 58 -28.5 89.5t-81.5 31.5q-130 0 -133 -182q-86 15 -217 25q6 147 97.5 229t256.5 82q159 0 245.5 -71t86.5 -191q0 -131 -118 -246t-304 -184q107 0 209 3t151 6l49 3v-180z" />
    <glyph glyph-name="threequarters" unicode="&#xbe;" horiz-adv-x="1957" 
d="M428 596q-344 0 -383 278q101 7 236 25q17 -145 147 -145q67 0 105 27t38 79q0 38 -20.5 65t-56.5 38q-77 24 -205 12q0 53 -4 137q145 -10 211 16q69 26 69 95q0 51 -35.5 81.5t-97.5 30.5q-120 0 -135 -137l-231 27q14 124 109 193t259 69q161 0 257.5 -67t96.5 -175
q0 -74 -51.5 -128.5t-134.5 -67.5q94 -15 146.5 -70.5t52.5 -128.5q0 -116 -103.5 -185t-269.5 -69zM631 -39l-146 19q261 399 494 762.5t335 527.5l103 164q41 -6 79 -10.5t56 -5.5l17 -1zM1610 -12q0 109 2 162q-454 -7 -471 -7q0 47 -4 160q101 146 192 279.5t131 194.5
l41 61q90 -4 170 -6.5t115 -2.5h35q-2 -221 -2 -522l86 2v-159h-86l2 -160zM1616 698q-115 -166 -268 -393h266q2 213 2 393z" />
    <glyph glyph-name="questiondown" unicode="&#xbf;" horiz-adv-x="1284" 
d="M848 678q0 -90 1.5 -175.5t2.5 -126.5l2 -40q-233 13 -333.5 -42.5t-100.5 -184.5q0 -98 58 -158t163 -60q205 0 244 259q137 -24 336 -44q-37 -213 -185.5 -333.5t-390.5 -120.5q-259 0 -410 119t-151 309q0 200 119.5 308t331.5 126q2 39 2 79t-1 61l-1 20
q92 -1 170.5 0t110.5 2zM680 1155q108 0 162.5 -52.5t54.5 -141.5q0 -86 -59 -137.5t-154 -51.5q-100 0 -154.5 52.5t-54.5 144.5q0 86 56 136t149 50z" />
    <glyph glyph-name="Agrave" unicode="&#xc0;" 
d="M41 31q162 571 383 1403l467 6q186 -709 399 -1479q-165 2 -323 -4q-29 114 -76 311q-176 4 -483 4l-56 -245q-155 4 -311 4zM647 1272q-114 -457 -188 -772q78 -2 377 -2q-95 396 -189 774zM684 1516q-88 98 -299 313q59 41 176 133q88 -123 264 -344q-49 -32 -141 -102
z" />
    <glyph glyph-name="Aacute" unicode="&#xc1;" 
d="M41 31q162 571 383 1403l467 6q186 -709 399 -1479q-165 2 -323 -4q-29 114 -76 311q-176 4 -483 4l-56 -245q-155 4 -311 4zM647 1272q-114 -457 -188 -772q78 -2 377 -2q-95 396 -189 774zM647 1518l-141 100q78 98 143.5 184t92.5 123l26 37l180 -129
q-95 -96 -170 -174.5t-103 -109.5z" />
    <glyph glyph-name="Acircumflex" unicode="&#xc2;" 
d="M41 31q162 571 383 1403l467 6q186 -709 399 -1479q-165 2 -323 -4q-29 114 -76 311q-176 4 -483 4l-56 -245q-155 4 -311 4zM647 1272q-114 -457 -188 -772q78 -2 377 -2q-95 396 -189 774zM440 1509q-36 41 -118 115q111 112 258 266q43 -4 176 2q90 -100 256 -258
q-37 -33 -119 -121q-88 93 -229 220q-87 -79 -224 -224z" />
    <glyph glyph-name="Atilde" unicode="&#xc3;" 
d="M41 31q162 571 383 1403l467 6q186 -709 399 -1479q-165 2 -323 -4q-29 114 -76 311q-176 4 -483 4l-56 -245q-155 4 -311 4zM647 1272q-114 -457 -188 -772q78 -2 377 -2q-95 396 -189 774zM461 1552q-54 7 -160 7q-5 138 52.5 222.5t164.5 84.5q44 0 87 -22t72 -49
t62.5 -49t59.5 -22q35 0 52.5 30t18.5 97q47 -2 156 0q14 -305 -199 -305q-47 0 -93 21t-75.5 46.5t-63 46.5t-58.5 21q-35 0 -55.5 -34t-20.5 -95z" />
    <glyph glyph-name="Adieresis" unicode="&#xc4;" 
d="M41 31q162 571 383 1403l467 6q186 -709 399 -1479q-165 2 -323 -4q-29 114 -76 311q-176 4 -483 4l-56 -245q-155 4 -311 4zM647 1272q-114 -457 -188 -772q78 -2 377 -2q-95 396 -189 774zM459 1563q-67 0 -105.5 39.5t-38.5 99.5t42 96.5t104 36.5q68 0 106.5 -38.5
t38.5 -96.5q0 -68 -41.5 -102.5t-105.5 -34.5zM877 1565q-62 0 -101 39t-39 104q0 56 39 92.5t105 36.5q63 0 99 -37.5t36 -97.5q0 -64 -38.5 -100.5t-100.5 -36.5z" />
    <glyph glyph-name="Aring" unicode="&#xc5;" 
d="M41 31q162 571 383 1403l467 6q186 -709 399 -1479q-165 2 -323 -4q-29 114 -76 311q-176 4 -483 4l-56 -245q-155 4 -311 4zM647 1272q-114 -457 -188 -772q78 -2 377 -2q-95 396 -189 774zM662 1524q-116 0 -185 62.5t-69 164.5q0 98 70.5 159.5t183.5 61.5
q125 0 193.5 -64t68.5 -157q0 -108 -72.5 -167.5t-189.5 -59.5zM668 1628q54 0 87 34t33 89q0 51 -31.5 87t-88.5 36q-56 0 -89.5 -34t-33.5 -87q0 -52 33 -88.5t90 -36.5z" />
    <glyph glyph-name="AE" unicode="&#xc6;" horiz-adv-x="1806" 
d="M1645 565q-23 1 -64 1.5t-178.5 1.5t-272.5 -1l80 -331q183 -2 512 10l-2 -254q-249 -1 -776 -17q-20 109 -57 293q-164 4 -471 4l-58 -239l-317 2q176 576 397 1401q427 -4 711.5 -3.5t426.5 3.5l142 2q-2 -100 4 -260q-247 6 -727 0q31 -146 82 -377q352 0 565 4
q-1 -99 3 -240zM672 1292q-70 -261 -199 -790q189 -4 369 -2q-94 454 -170 792z" />
    <glyph glyph-name="Ccedilla" unicode="&#xc7;" horiz-adv-x="1376" 
d="M1309 537q-24 -268 -162.5 -411t-370.5 -161q0 -2 -1 -39.5t-1 -68.5q111 -1 169 -44.5t58 -111.5q0 -86 -81 -136t-224 -50q-113 0 -213 49q15 51 29 123q86 -45 172 -45q49 0 79 16t30 47q0 78 -197 59q17 74 37 203q-263 25 -402 217t-139 527q0 354 162 550.5
t461 196.5q245 0 385.5 -138t179.5 -378q-103 -10 -187.5 -21.5t-117.5 -17.5l-33 -6q-32 309 -235 309q-139 0 -210 -128.5t-69 -362.5q0 -233 70 -364.5t213 -131.5q114 0 178.5 83t77.5 265z" />
    <glyph glyph-name="Egrave" unicode="&#xc8;" horiz-adv-x="1157" 
d="M141 8q-2 586 -16 1411q378 7 934 15q0 -86 4 -252q-272 -3 -627 -11q0 -139 2 -370q353 0 533 4q-2 -84 2 -246q-26 1 -71 1.5t-189 1.5t-271 -1q3 -145 9 -309q263 -6 624 -10q-2 -86 -2 -252q-462 14 -932 18zM629 1516q-88 98 -299 313q59 41 176 133
q88 -123 264 -344q-49 -32 -141 -102z" />
    <glyph glyph-name="Eacute" unicode="&#xc9;" horiz-adv-x="1157" 
d="M141 8q-2 586 -16 1411q378 7 934 15q0 -86 4 -252q-272 -3 -627 -11q0 -139 2 -370q353 0 533 4q-2 -84 2 -246q-26 1 -71 1.5t-189 1.5t-271 -1q3 -145 9 -309q263 -6 624 -10q-2 -86 -2 -252q-462 14 -932 18zM592 1518l-141 100q78 98 143.5 184t91.5 123l27 37
l180 -129q-95 -96 -170 -174.5t-103 -109.5z" />
    <glyph glyph-name="Ecircumflex" unicode="&#xca;" horiz-adv-x="1157" 
d="M141 8q-2 586 -16 1411q378 7 934 15q0 -86 4 -252q-272 -3 -627 -11q0 -139 2 -370q353 0 533 4q-2 -84 2 -246q-26 1 -71 1.5t-189 1.5t-271 -1q3 -145 9 -309q263 -6 624 -10q-2 -86 -2 -252q-462 14 -932 18zM385 1509q-37 41 -119 115q111 112 258 266q43 -4 176 2
q90 -100 256 -258q-36 -33 -118 -121q-89 93 -230 220q-86 -79 -223 -224z" />
    <glyph glyph-name="Edieresis" unicode="&#xcb;" horiz-adv-x="1157" 
d="M141 8q-2 586 -16 1411q378 7 934 15q0 -86 4 -252q-272 -3 -627 -11q0 -139 2 -370q353 0 533 4q-2 -84 2 -246q-26 1 -71 1.5t-189 1.5t-271 -1q3 -145 9 -309q263 -6 624 -10q-2 -86 -2 -252q-462 14 -932 18zM403 1563q-67 0 -105 39t-38 100q0 60 42 96.5t104 36.5
q68 0 106.5 -38.5t38.5 -96.5q0 -68 -41.5 -102.5t-106.5 -34.5zM821 1565q-62 0 -100.5 39t-38.5 104q0 56 38.5 92.5t104.5 36.5q63 0 99.5 -37.5t36.5 -97.5q0 -64 -39 -100.5t-101 -36.5z" />
    <glyph glyph-name="Igrave" unicode="&#xcc;" horiz-adv-x="614" 
d="M154 -2q-1 628 -9 1423q113 0 314 2q2 -685 10 -1425q-137 2 -315 0zM326 1516q-88 98 -299 313q59 41 176 133q88 -123 264 -344q-49 -32 -141 -102z" />
    <glyph glyph-name="Iacute" unicode="&#xcd;" horiz-adv-x="614" 
d="M154 -2q-1 628 -9 1423q113 0 314 2q2 -685 10 -1425q-137 2 -315 0zM289 1518l-142 100q78 98 144 184t93 123l26 37l180 -129q-95 -96 -170 -174.5t-103 -109.5z" />
    <glyph glyph-name="Icircumflex" unicode="&#xce;" horiz-adv-x="614" 
d="M154 -2q-1 628 -9 1423q113 0 314 2q2 -685 10 -1425q-137 2 -315 0zM82 1509q-37 41 -119 115q111 112 258 266q43 -4 176 2q90 -100 256 -258q-36 -33 -118 -121q-89 93 -230 220q-86 -79 -223 -224z" />
    <glyph glyph-name="Idieresis" unicode="&#xcf;" horiz-adv-x="614" 
d="M154 -2q-1 628 -9 1423q113 0 314 2q2 -685 10 -1425q-137 2 -315 0zM100 1563q-67 0 -105 39t-38 100q0 60 41.5 96.5t103.5 36.5q68 0 107 -38.5t39 -96.5q0 -68 -41.5 -102.5t-106.5 -34.5zM518 1565q-62 0 -100.5 39t-38.5 104q0 56 38.5 92.5t104.5 36.5
q63 0 99 -37.5t36 -97.5q0 -64 -38.5 -100.5t-100.5 -36.5z" />
    <glyph glyph-name="Eth" unicode="&#xd0;" horiz-adv-x="1441" 
d="M35 580q1 8 2 25t2 80.5t0 139.5q59 -4 168 -8l-4 592q187 29 350 29q403 3 600 -186t197 -545q0 -369 -204.5 -548.5t-621.5 -181.5q-146 0 -319 21q2 223 2 584zM522 227q23 -2 68 -2q105 0 181 24.5t132.5 80t84.5 151t28 232.5q0 472 -412 475q-45 0 -94 -6
q0 -256 2 -371h215q-2 -65 2 -223q-84 0 -215 -2z" />
    <glyph glyph-name="Ntilde" unicode="&#xd1;" horiz-adv-x="1366" 
d="M131 37q4 507 -6 1339q168 11 336 17q226 -480 512 -1024q-12 512 -39 1093q123 -2 285 -2q4 -571 24 -1480q-147 -11 -325 -21q-227 464 -529 1028q13 -544 27 -954q-125 4 -285 4zM479 1552q-54 7 -160 7q-5 138 53 222.5t165 84.5q44 0 87 -22t71.5 -49t62 -49
t59.5 -22q69 0 72 127q46 -2 155 0q14 -305 -198 -305q-47 0 -93 21t-75.5 46.5t-63.5 46.5t-59 21q-35 0 -55.5 -34t-20.5 -95z" />
    <glyph glyph-name="Ograve" unicode="&#xd2;" horiz-adv-x="1437" 
d="M719 -43q-293 2 -459 195t-166 546q-3 352 165 556t464 204q299 0 461 -201t162 -555q0 -368 -167.5 -556.5t-459.5 -188.5zM719 205q134 0 211.5 122t77.5 380q0 252 -74.5 377.5t-212.5 125.5q-142 0 -216.5 -128.5t-74.5 -376.5q-1 -243 75 -371.5t214 -128.5z
M737 1516q-88 98 -299 313q59 41 176 133q89 -123 265 -344q-50 -32 -142 -102z" />
    <glyph glyph-name="Oacute" unicode="&#xd3;" horiz-adv-x="1437" 
d="M719 -43q-293 2 -459 195t-166 546q-3 352 165 556t464 204q299 0 461 -201t162 -555q0 -368 -167.5 -556.5t-459.5 -188.5zM719 205q134 0 211.5 122t77.5 380q0 252 -74.5 377.5t-212.5 125.5q-142 0 -216.5 -128.5t-74.5 -376.5q-1 -243 75 -371.5t214 -128.5z
M700 1518l-141 100q78 98 143.5 184t91.5 123l27 37l180 -129q-95 -96 -170 -174.5t-103 -109.5z" />
    <glyph glyph-name="Ocircumflex" unicode="&#xd4;" horiz-adv-x="1437" 
d="M719 -43q-293 2 -459 195t-166 546q-3 352 165 556t464 204q299 0 461 -201t162 -555q0 -368 -167.5 -556.5t-459.5 -188.5zM719 205q134 0 211.5 122t77.5 380q0 252 -74.5 377.5t-212.5 125.5q-142 0 -216.5 -128.5t-74.5 -376.5q-1 -243 75 -371.5t214 -128.5z
M494 1509q-37 41 -119 115q111 112 258 266q43 -4 176 2q90 -100 256 -258q-37 -33 -119 -121q-88 93 -229 220q-86 -79 -223 -224z" />
    <glyph glyph-name="Otilde" unicode="&#xd5;" horiz-adv-x="1437" 
d="M719 -43q-293 2 -459 195t-166 546q-3 352 165 556t464 204q299 0 461 -201t162 -555q0 -368 -167.5 -556.5t-459.5 -188.5zM719 205q134 0 211.5 122t77.5 380q0 252 -74.5 377.5t-212.5 125.5q-142 0 -216.5 -128.5t-74.5 -376.5q-1 -243 75 -371.5t214 -128.5z
M516 1552q-54 7 -160 7q-5 138 52.5 222.5t164.5 84.5q44 0 87 -22t72 -49t62.5 -49t59.5 -22q69 0 72 127q46 -2 155 0q14 -305 -198 -305q-47 0 -93 21t-75.5 46.5t-63.5 46.5t-59 21q-35 0 -55.5 -34t-20.5 -95z" />
    <glyph glyph-name="Odieresis" unicode="&#xd6;" horiz-adv-x="1437" 
d="M719 -43q-293 2 -459 195t-166 546q-3 352 165 556t464 204q299 0 461 -201t162 -555q0 -368 -167.5 -556.5t-459.5 -188.5zM719 205q134 0 211.5 122t77.5 380q0 252 -74.5 377.5t-212.5 125.5q-142 0 -216.5 -128.5t-74.5 -376.5q-1 -243 75 -371.5t214 -128.5z
M512 1563q-67 0 -105 39t-38 100q0 60 41.5 96.5t103.5 36.5q68 0 106.5 -38.5t38.5 -96.5q0 -68 -41.5 -102.5t-105.5 -34.5zM930 1565q-62 0 -100.5 39t-38.5 104q0 56 38.5 92.5t104.5 36.5q63 0 99 -37.5t36 -97.5q0 -64 -38.5 -100.5t-100.5 -36.5z" />
    <glyph glyph-name="multiply" unicode="&#xd7;" horiz-adv-x="1038" 
d="M231 213q-51 56 -157 154q131 133 297 305l-295 307q48 45 87.5 84.5t54.5 56.5l15 17q155 -173 287 -310l287 312q66 -70 158 -154q-133 -135 -299 -309l299 -307q-50 -46 -90.5 -85.5t-56.5 -55.5l-15 -17l-287 307q-174 -181 -285 -305z" />
    <glyph glyph-name="Oslash" unicode="&#xd8;" horiz-adv-x="1437" 
d="M410 -233q-94 55 -246 129q53 71 137 204q-104 98 -158.5 253.5t-54.5 355.5q0 349 167 546t464 197q109 0 221 -33q2 3 94 207q78 -47 248 -125q-37 -51 -133 -211q194 -191 194 -581q0 -360 -164 -558t-468 -198q-108 0 -203 31q-33 -64 -98 -217zM711 201
q141 0 217 127t76 389q0 229 -74.5 360t-214.5 131q-143 0 -217 -130t-74 -369q0 -248 74 -378t213 -130z" />
    <glyph glyph-name="Ugrave" unicode="&#xd9;" 
d="M676 -29q-296 0 -429.5 171t-133.5 540l-2 696q114 -10 319 -14q-4 -397 -4 -602q0 -196 26.5 -311t78 -163t137.5 -48q84 0 133.5 43t74.5 150.5t25 295.5q0 124 -3 301.5t-6 293.5l-3 116q121 -6 332 4q-2 -440 -2 -746q0 -373 -134 -550t-409 -177zM684 1516
q-88 98 -299 313q59 41 176 133q88 -123 264 -344q-49 -32 -141 -102z" />
    <glyph glyph-name="Uacute" unicode="&#xda;" 
d="M676 -29q-296 0 -429.5 171t-133.5 540l-2 696q114 -10 319 -14q-4 -397 -4 -602q0 -196 26.5 -311t78 -163t137.5 -48q84 0 133.5 43t74.5 150.5t25 295.5q0 124 -3 301.5t-6 293.5l-3 116q121 -6 332 4q-2 -440 -2 -746q0 -373 -134 -550t-409 -177zM647 1518l-141 100
q78 98 143.5 184t92.5 123l26 37l180 -129q-95 -96 -170 -174.5t-103 -109.5z" />
    <glyph glyph-name="Ucircumflex" unicode="&#xdb;" 
d="M676 -29q-296 0 -429.5 171t-133.5 540l-2 696q114 -10 319 -14q-4 -397 -4 -602q0 -196 26.5 -311t78 -163t137.5 -48q84 0 133.5 43t74.5 150.5t25 295.5q0 124 -3 301.5t-6 293.5l-3 116q121 -6 332 4q-2 -440 -2 -746q0 -373 -134 -550t-409 -177zM440 1509
q-36 41 -118 115q111 112 258 266q43 -4 176 2q90 -100 256 -258q-37 -33 -119 -121q-88 93 -229 220q-87 -79 -224 -224z" />
    <glyph glyph-name="Udieresis" unicode="&#xdc;" 
d="M676 -29q-296 0 -429.5 171t-133.5 540l-2 696q114 -10 319 -14q-4 -397 -4 -602q0 -196 26.5 -311t78 -163t137.5 -48q84 0 133.5 43t74.5 150.5t25 295.5q0 124 -3 301.5t-6 293.5l-3 116q121 -6 332 4q-2 -440 -2 -746q0 -373 -134 -550t-409 -177zM459 1563
q-67 0 -105.5 39.5t-38.5 99.5t42 96.5t104 36.5q68 0 106.5 -38.5t38.5 -96.5q0 -68 -41.5 -102.5t-105.5 -34.5zM877 1565q-62 0 -101 39t-39 104q0 56 39 92.5t105 36.5q63 0 99 -37.5t36 -97.5q0 -64 -38.5 -100.5t-100.5 -36.5z" />
    <glyph glyph-name="Yacute" unicode="&#xdd;" horiz-adv-x="1300" 
d="M471 -23q-1 14 -1.5 83t-2.5 167.5t-6 186.5q-120 279 -443 983q92 2 344 14q68 -200 261 -680q100 222 288 715q102 -4 338 -6q-175 -361 -471 -1024q-2 -156 6 -436q-92 -1 -313 -3zM614 1518l-141 100q78 98 143.5 184t91.5 123l27 37l180 -129q-95 -96 -170 -174.5
t-103 -109.5z" />
    <glyph glyph-name="Thorn" unicode="&#xde;" horiz-adv-x="1243" 
d="M125 2q1 64 2 180t3 498t-3 752q125 -7 307 -7q-2 -94 -2 -229q78 4 111 4q161 0 285.5 -37t201 -102.5t115.5 -150.5t39 -187q0 -241 -175 -368.5t-481 -127.5q-57 0 -88 2l6 -225q-131 6 -321 -2zM432 967q0 -320 4 -521q54 -4 78 -4q170 0 265 71.5t95 203.5
q0 120 -89.5 187t-268.5 67q-22 0 -84 -4z" />
    <glyph glyph-name="germandbls" unicode="&#xdf;" horiz-adv-x="1234" 
d="M113 37q4 437 4 846q0 268 135 414.5t405 146.5q224 0 355 -116t131 -288q0 -125 -75.5 -213t-195.5 -122q140 -31 211.5 -123t71.5 -217q0 -197 -124.5 -297.5t-344.5 -100.5q-64 0 -156 10q5 62 9 205q140 -16 220.5 34.5t80.5 166.5q0 100 -73 157t-222 54q4 66 0 211
q289 -10 289 213q0 92 -53 146.5t-146 54.5q-106 0 -161.5 -80t-55.5 -232l6 -876q-86 0 -163.5 1.5t-112.5 3.5z" />
    <glyph glyph-name="agrave" unicode="&#xe0;" horiz-adv-x="1140" 
d="M432 -35q-159 0 -259.5 80t-100.5 221q0 180 160.5 274t494.5 113v13q-9 200 -164 200q-143 0 -182 -170q-120 33 -272 58q112 309 466 309q448 0 457 -449q4 -148 4.5 -309t-0.5 -249l-2 -87q-96 0 -252 -4q7 82 9 209q-45 -100 -141 -154.5t-218 -54.5zM741 453v43
q-366 -20 -366 -193q0 -66 38.5 -103t110.5 -38q97 0 157 71t60 220zM594 1116q-88 99 -299 314q59 41 176 133q88 -123 264 -344q-49 -33 -141 -103z" />
    <glyph glyph-name="aacute" unicode="&#xe1;" horiz-adv-x="1140" 
d="M432 -35q-159 0 -259.5 80t-100.5 221q0 180 160.5 274t494.5 113v13q-9 200 -164 200q-143 0 -182 -170q-120 33 -272 58q112 309 466 309q448 0 457 -449q4 -148 4.5 -309t-0.5 -249l-2 -87q-96 0 -252 -4q7 82 9 209q-45 -100 -141 -154.5t-218 -54.5zM741 453v43
q-366 -20 -366 -193q0 -66 38.5 -103t110.5 -38q97 0 157 71t60 220zM557 1118l-141 101q78 98 143.5 184t92.5 123l26 37l180 -129q-95 -96 -170 -175t-103 -110z" />
    <glyph glyph-name="acircumflex" unicode="&#xe2;" horiz-adv-x="1140" 
d="M432 -35q-159 0 -259.5 80t-100.5 221q0 180 160.5 274t494.5 113v13q-9 200 -164 200q-143 0 -182 -170q-120 33 -272 58q112 309 466 309q448 0 457 -449q4 -148 4.5 -309t-0.5 -249l-2 -87q-96 0 -252 -4q7 82 9 209q-45 -100 -141 -154.5t-218 -54.5zM741 453v43
q-366 -20 -366 -193q0 -66 38.5 -103t110.5 -38q97 0 157 71t60 220zM350 1110q-37 41 -119 115q111 112 258 266q44 -4 177 2q90 -100 256 -258q-37 -33 -119 -121q-89 92 -230 219q-86 -78 -223 -223z" />
    <glyph glyph-name="atilde" unicode="&#xe3;" horiz-adv-x="1140" 
d="M432 -35q-159 0 -259.5 80t-100.5 221q0 180 160.5 274t494.5 113v13q-9 200 -164 200q-143 0 -182 -170q-120 33 -272 58q112 309 466 309q448 0 457 -449q4 -148 4.5 -309t-0.5 -249l-2 -87q-96 0 -252 -4q7 82 9 209q-45 -100 -141 -154.5t-218 -54.5zM741 453v43
q-366 -20 -366 -193q0 -66 38.5 -103t110.5 -38q97 0 157 71t60 220zM373 1153q-54 6 -160 6q-5 138 52.5 222.5t164.5 84.5q44 0 87 -22t72 -48.5t62.5 -48.5t59.5 -22q35 0 52.5 30t18.5 97q47 -2 156 0q14 -305 -199 -305q-47 0 -93 21t-75.5 46.5t-63 46.5t-58.5 21
q-35 0 -55.5 -34t-20.5 -95z" />
    <glyph glyph-name="adieresis" unicode="&#xe4;" horiz-adv-x="1140" 
d="M432 -35q-159 0 -259.5 80t-100.5 221q0 180 160.5 274t494.5 113v13q-9 200 -164 200q-143 0 -182 -170q-120 33 -272 58q112 309 466 309q448 0 457 -449q4 -148 4.5 -309t-0.5 -249l-2 -87q-96 0 -252 -4q7 82 9 209q-45 -100 -141 -154.5t-218 -54.5zM741 453v43
q-366 -20 -366 -193q0 -66 38.5 -103t110.5 -38q97 0 157 71t60 220zM369 1163q-67 0 -105.5 39.5t-38.5 100.5q0 60 42 96.5t104 36.5q68 0 106.5 -39t38.5 -97q0 -68 -41.5 -102.5t-105.5 -34.5zM786 1165q-62 0 -100.5 39.5t-38.5 104.5q0 56 39 92.5t105 36.5
q63 0 99 -37.5t36 -97.5q0 -64 -39 -101t-101 -37z" />
    <glyph glyph-name="aring" unicode="&#xe5;" horiz-adv-x="1140" 
d="M432 -35q-159 0 -259.5 80t-100.5 221q0 180 160.5 274t494.5 113v13q-9 200 -164 200q-143 0 -182 -170q-120 33 -272 58q112 309 466 309q448 0 457 -449q4 -148 4.5 -309t-0.5 -249l-2 -87q-96 0 -252 -4q7 82 9 209q-45 -100 -141 -154.5t-218 -54.5zM741 453v43
q-366 -20 -366 -193q0 -66 38.5 -103t110.5 -38q97 0 157 71t60 220zM571 1124q-116 0 -185 63t-69 165q0 98 70.5 159.5t183.5 61.5q125 0 194 -64.5t69 -156.5q0 -108 -73 -168t-190 -60zM578 1229q54 0 87 34t33 89q0 51 -31.5 87t-88.5 36q-56 0 -89.5 -34t-33.5 -87
q0 -52 33 -88.5t90 -36.5z" />
    <glyph glyph-name="ae" unicode="&#xe6;" horiz-adv-x="1824" 
d="M1268 -43q-297 0 -404 229q-55 -103 -163.5 -163t-235.5 -60q-186 0 -289.5 81t-103.5 226q0 163 163 255t494 96v24q-10 219 -166 219q-72 0 -116 -42t-68 -124q-86 27 -266 58q48 143 160.5 224t287.5 81q244 0 350 -184q55 88 150 136t225 48q82 0 152 -23
t120.5 -63.5t89 -97t57 -123t25 -141t-7.5 -152.5q-183 2 -682 -8q10 -136 68.5 -209.5t151.5 -73.5q149 0 213 172q104 -39 268 -82q-67 -148 -197.5 -225.5t-275.5 -77.5zM526 160q96 0 155.5 70t59.5 208v21q-137 -2 -220 -24.5t-114.5 -58.5t-31.5 -91q0 -56 38.5 -90.5
t112.5 -34.5zM1255 879q-88 0 -142.5 -69.5t-68.5 -193.5l394 11q-2 113 -47.5 182.5t-135.5 69.5z" />
    <glyph glyph-name="ccedilla" unicode="&#xe7;" horiz-adv-x="1153" 
d="M1075 338q-39 -173 -148 -266t-270 -107q-2 -20 -2 -92q111 -1 169.5 -44.5t58.5 -111.5q0 -86 -81 -136t-224 -50q-113 0 -213 49q14 51 28 123q86 -45 172 -45q49 0 79 16t30 47q0 35 -47.5 52.5t-149.5 7.5q17 69 35 188q-208 23 -316 166t-108 381q0 160 57.5 282.5
t172 192.5t272.5 70q203 0 321.5 -101.5t159.5 -275.5q-76 -6 -154 -15.5t-119 -15.5l-40 -6q-32 199 -170 199q-90 0 -141.5 -88.5t-51.5 -247.5q0 -155 51.5 -239.5t143.5 -84.5q68 0 109.5 46.5t64.5 148.5q98 -16 311 -43z" />
    <glyph glyph-name="egrave" unicode="&#xe8;" horiz-adv-x="1189" 
d="M610 -39q-245 0 -383.5 148.5t-138.5 396.5q0 115 34 215t98 176t164 120t224 44q137 -1 238.5 -47.5t158.5 -128t77 -189.5t1 -235q-226 -2 -682 -12q11 -134 66.5 -206.5t153.5 -72.5q153 0 215 174q90 -31 272 -74q-76 -154 -202.5 -231.5t-295.5 -77.5zM610 879
q-84 0 -136.5 -69t-67.5 -196l391 17q-3 116 -49 182t-138 66zM616 1116q-88 99 -299 314q60 41 177 133q88 -123 264 -344q-50 -33 -142 -103z" />
    <glyph glyph-name="eacute" unicode="&#xe9;" horiz-adv-x="1189" 
d="M610 -39q-245 0 -383.5 148.5t-138.5 396.5q0 115 34 215t98 176t164 120t224 44q137 -1 238.5 -47.5t158.5 -128t77 -189.5t1 -235q-226 -2 -682 -12q11 -134 66.5 -206.5t153.5 -72.5q153 0 215 174q90 -31 272 -74q-76 -154 -202.5 -231.5t-295.5 -77.5zM610 879
q-84 0 -136.5 -69t-67.5 -196l391 17q-3 116 -49 182t-138 66zM580 1118l-142 101q78 98 143.5 184t92.5 123l26 37l181 -129q-95 -96 -170 -175t-103 -110z" />
    <glyph glyph-name="ecircumflex" unicode="&#xea;" horiz-adv-x="1189" 
d="M610 -39q-245 0 -383.5 148.5t-138.5 396.5q0 115 34 215t98 176t164 120t224 44q137 -1 238.5 -47.5t158.5 -128t77 -189.5t1 -235q-226 -2 -682 -12q11 -134 66.5 -206.5t153.5 -72.5q153 0 215 174q90 -31 272 -74q-76 -154 -202.5 -231.5t-295.5 -77.5zM610 879
q-84 0 -136.5 -69t-67.5 -196l391 17q-3 116 -49 182t-138 66zM373 1110q-37 41 -119 115q111 112 258 266q43 -4 176 2q90 -100 256 -258q-37 -33 -119 -121q-88 92 -229 219q-86 -78 -223 -223z" />
    <glyph glyph-name="edieresis" unicode="&#xeb;" horiz-adv-x="1189" 
d="M610 -39q-245 0 -383.5 148.5t-138.5 396.5q0 115 34 215t98 176t164 120t224 44q137 -1 238.5 -47.5t158.5 -128t77 -189.5t1 -235q-226 -2 -682 -12q11 -134 66.5 -206.5t153.5 -72.5q153 0 215 174q90 -31 272 -74q-76 -154 -202.5 -231.5t-295.5 -77.5zM610 879
q-84 0 -136.5 -69t-67.5 -196l391 17q-3 116 -49 182t-138 66zM391 1163q-67 0 -105 39.5t-38 100.5q0 60 41.5 96.5t103.5 36.5q68 0 107 -39t39 -97q0 -68 -41.5 -102.5t-106.5 -34.5zM809 1165q-62 0 -100.5 39.5t-38.5 104.5q0 56 38.5 92.5t104.5 36.5q63 0 99 -37.5
t36 -97.5q0 -64 -38.5 -101t-100.5 -37z" />
    <glyph glyph-name="igrave" unicode="&#xec;" horiz-adv-x="567" 
d="M139 2q2 271 -6 1022q115 0 299 4q0 -468 8 -1024q-129 2 -301 -2zM305 1116q-88 99 -299 314q59 41 176 133q88 -123 264 -344q-49 -33 -141 -103z" />
    <glyph glyph-name="iacute" unicode="&#xed;" horiz-adv-x="567" 
d="M139 2q2 271 -6 1022q115 0 299 4q0 -468 8 -1024q-129 2 -301 -2zM268 1118l-141 101q78 98 143.5 184t91.5 123l27 37l180 -129q-95 -96 -170 -175t-103 -110z" />
    <glyph glyph-name="icircumflex" unicode="&#xee;" horiz-adv-x="567" 
d="M139 2q2 271 -6 1022q115 0 299 4q0 -468 8 -1024q-129 2 -301 -2zM61 1110q-36 41 -118 115q111 112 258 266q43 -4 176 2q90 -100 256 -258q-37 -33 -119 -121q-88 92 -229 219q-87 -78 -224 -223z" />
    <glyph glyph-name="idieresis" unicode="&#xef;" horiz-adv-x="567" 
d="M139 2q2 271 -6 1022q115 0 299 4q0 -468 8 -1024q-129 2 -301 -2zM80 1163q-67 0 -105 39.5t-38 100.5q0 60 41.5 96.5t103.5 36.5q68 0 106.5 -39t38.5 -97q0 -68 -41.5 -102.5t-105.5 -34.5zM498 1165q-62 0 -101 39.5t-39 104.5q0 56 39 92.5t105 36.5q63 0 99 -37.5
t36 -97.5q0 -64 -38.5 -101t-100.5 -37z" />
    <glyph glyph-name="eth" unicode="&#xf0;" horiz-adv-x="1216" 
d="M606 -41q-246 0 -382 152.5t-136 420.5q0 232 118 380.5t298 148.5q102 0 195.5 -72.5t136.5 -175.5q-24 158 -92.5 271.5t-211.5 222.5q138 130 158 157q79 -52 148 -118l96 104q56 -76 160 -195q-48 -37 -111 -90q147 -242 147 -583q0 -156 -38.5 -276t-109 -195
t-165.5 -113.5t-211 -38.5zM618 164q94 0 150.5 89t56.5 265q0 75 -26 150t-78.5 128.5t-116.5 53.5q-90 0 -147.5 -91t-57.5 -247q0 -159 58 -253.5t161 -94.5z" />
    <glyph glyph-name="ntilde" unicode="&#xf1;" horiz-adv-x="1163" 
d="M758 -41q1 37 2 101t2 234t0 308q-2 98 -33 148.5t-106 50.5q-90 0 -146.5 -82t-58.5 -203q-3 -65 -3.5 -185.5t0.5 -208.5l1 -87q-168 4 -303 0q1 43 1.5 120.5t1.5 335t-1 508.5q128 -2 241 2l-2 -233q55 142 152.5 216.5t222.5 72.5q159 -1 239.5 -99.5t86.5 -273.5
q3 -67 4 -247.5t1 -328.5l-1 -147zM395 1153q-53 6 -159 6q-5 138 52.5 222.5t164.5 84.5q44 0 87 -22t71.5 -48.5t62 -48.5t59.5 -22q69 0 72 127q47 -2 156 0q14 -305 -199 -305q-47 0 -93 21t-75.5 46.5t-63.5 46.5t-59 21q-35 0 -55.5 -34t-20.5 -95z" />
    <glyph glyph-name="ograve" unicode="&#xf2;" horiz-adv-x="1220" 
d="M606 -31q-247 0 -382.5 145.5t-135.5 411.5q0 246 142 390.5t378 144.5q244 0 384.5 -146.5t140.5 -396.5q0 -138 -40 -244.5t-111.5 -172t-166.5 -99t-209 -33.5zM610 172q98 0 153.5 85t55.5 263q0 159 -52.5 247.5t-154.5 88.5q-98 0 -155.5 -85t-57.5 -243
q0 -356 211 -356zM629 1116q-88 99 -299 314q59 41 176 133q88 -123 264 -344q-49 -33 -141 -103z" />
    <glyph glyph-name="oacute" unicode="&#xf3;" horiz-adv-x="1220" 
d="M606 -31q-247 0 -382.5 145.5t-135.5 411.5q0 246 142 390.5t378 144.5q244 0 384.5 -146.5t140.5 -396.5q0 -138 -40 -244.5t-111.5 -172t-166.5 -99t-209 -33.5zM610 172q98 0 153.5 85t55.5 263q0 159 -52.5 247.5t-154.5 88.5q-98 0 -155.5 -85t-57.5 -243
q0 -356 211 -356zM592 1118l-141 101q78 98 143.5 184t91.5 123l27 37l180 -129q-95 -96 -170 -175t-103 -110z" />
    <glyph glyph-name="ocircumflex" unicode="&#xf4;" horiz-adv-x="1220" 
d="M606 -31q-247 0 -382.5 145.5t-135.5 411.5q0 246 142 390.5t378 144.5q244 0 384.5 -146.5t140.5 -396.5q0 -138 -40 -244.5t-111.5 -172t-166.5 -99t-209 -33.5zM610 172q98 0 153.5 85t55.5 263q0 159 -52.5 247.5t-154.5 88.5q-98 0 -155.5 -85t-57.5 -243
q0 -356 211 -356zM385 1110q-37 41 -119 115q111 112 258 266q43 -4 176 2q90 -100 256 -258q-36 -33 -118 -121q-89 92 -230 219q-86 -78 -223 -223z" />
    <glyph glyph-name="otilde" unicode="&#xf5;" horiz-adv-x="1220" 
d="M606 -31q-247 0 -382.5 145.5t-135.5 411.5q0 246 142 390.5t378 144.5q244 0 384.5 -146.5t140.5 -396.5q0 -138 -40 -244.5t-111.5 -172t-166.5 -99t-209 -33.5zM610 172q98 0 153.5 85t55.5 263q0 159 -52.5 247.5t-154.5 88.5q-98 0 -155.5 -85t-57.5 -243
q0 -356 211 -356zM406 1153q-54 6 -160 6q-5 138 52.5 222.5t164.5 84.5q44 0 87 -22t71.5 -48.5t62 -48.5t59.5 -22q69 0 72 127q47 -2 156 0q14 -305 -199 -305q-47 0 -93 21t-75.5 46.5t-63.5 46.5t-59 21q-35 0 -55 -34t-20 -95z" />
    <glyph glyph-name="odieresis" unicode="&#xf6;" horiz-adv-x="1220" 
d="M606 -31q-247 0 -382.5 145.5t-135.5 411.5q0 246 142 390.5t378 144.5q244 0 384.5 -146.5t140.5 -396.5q0 -138 -40 -244.5t-111.5 -172t-166.5 -99t-209 -33.5zM610 172q98 0 153.5 85t55.5 263q0 159 -52.5 247.5t-154.5 88.5q-98 0 -155.5 -85t-57.5 -243
q0 -356 211 -356zM403 1163q-67 0 -105 39.5t-38 100.5q0 60 42 96.5t104 36.5q68 0 106.5 -39t38.5 -97q0 -68 -41.5 -102.5t-106.5 -34.5zM821 1165q-62 0 -100.5 39.5t-38.5 104.5q0 56 38.5 92.5t104.5 36.5q63 0 99.5 -37.5t36.5 -97.5q0 -64 -39 -101t-101 -37z" />
    <glyph glyph-name="divide" unicode="&#xf7;" horiz-adv-x="1013" 
d="M84 795q108 -2 232 -3t228 -1t187 0.5t140.5 1t58.5 0.5l-2 -242q-115 2 -241 3t-227.5 0.5t-182.5 -1t-135 -1.5t-56 -1zM504 1231q67 0 108 -43.5t41 -112.5q0 -72 -42 -114.5t-111 -42.5q-72 0 -111 41.5t-39 115.5q0 76 41 116t113 40zM506 432q71 0 111 -42.5
t40 -121.5q0 -67 -42.5 -107t-110.5 -40q-72 0 -112 40t-40 107q0 81 42.5 122.5t111.5 41.5z" />
    <glyph glyph-name="oslash" unicode="&#xf8;" horiz-adv-x="1222" 
d="M608 -27q-70 0 -147 17q-58 -132 -78 -183q-88 49 -227 117q40 58 106 156q-174 140 -174 444q0 249 135 395t391 146q63 0 138 -14l77 184q85 -45 230 -117q-21 -25 -105 -164q89 -72 135 -183.5t46 -250.5q0 -254 -140 -400.5t-387 -146.5zM610 176q209 0 209 344
q0 166 -53 254t-156 88q-102 0 -157.5 -90t-55.5 -248q0 -348 213 -348z" />
    <glyph glyph-name="ugrave" unicode="&#xf9;" horiz-adv-x="1157" 
d="M465 -6q-180 0 -270.5 118.5t-90.5 364.5l-2 533q100 -7 301 -9q-8 -226 -8 -542q0 -111 38 -166t122 -55q83 0 134.5 76.5t55.5 211.5q4 136 3.5 255.5t-2.5 201.5l-3 82q74 -4 299 -4q-4 -444 2 -1084q-10 1 -28.5 1.5t-84.5 1.5t-138 0q4 98 4 231q-44 -103 -131 -160
t-201 -57zM592 1116q-88 99 -299 314q59 41 176 133q88 -123 264 -344q-49 -33 -141 -103z" />
    <glyph glyph-name="uacute" unicode="&#xfa;" horiz-adv-x="1157" 
d="M465 -6q-180 0 -270.5 118.5t-90.5 364.5l-2 533q100 -7 301 -9q-8 -226 -8 -542q0 -111 38 -166t122 -55q83 0 134.5 76.5t55.5 211.5q4 136 3.5 255.5t-2.5 201.5l-3 82q74 -4 299 -4q-4 -444 2 -1084q-10 1 -28.5 1.5t-84.5 1.5t-138 0q4 98 4 231q-44 -103 -131 -160
t-201 -57zM555 1118l-141 101q78 98 143.5 184t92.5 123l26 37l180 -129q-95 -96 -170 -175t-103 -110z" />
    <glyph glyph-name="ucircumflex" unicode="&#xfb;" horiz-adv-x="1157" 
d="M465 -6q-180 0 -270.5 118.5t-90.5 364.5l-2 533q100 -7 301 -9q-8 -226 -8 -542q0 -111 38 -166t122 -55q83 0 134.5 76.5t55.5 211.5q4 136 3.5 255.5t-2.5 201.5l-3 82q74 -4 299 -4q-4 -444 2 -1084q-10 1 -28.5 1.5t-84.5 1.5t-138 0q4 98 4 231q-44 -103 -131 -160
t-201 -57zM348 1110q-37 41 -119 115q111 112 258 266q44 -4 177 2q90 -100 256 -258q-37 -33 -119 -121q-89 92 -230 219q-86 -78 -223 -223z" />
    <glyph glyph-name="udieresis" unicode="&#xfc;" horiz-adv-x="1157" 
d="M465 -6q-180 0 -270.5 118.5t-90.5 364.5l-2 533q100 -7 301 -9q-8 -226 -8 -542q0 -111 38 -166t122 -55q83 0 134.5 76.5t55.5 211.5q4 136 3.5 255.5t-2.5 201.5l-3 82q74 -4 299 -4q-4 -444 2 -1084q-10 1 -28.5 1.5t-84.5 1.5t-138 0q4 98 4 231q-44 -103 -131 -160
t-201 -57zM367 1163q-67 0 -105.5 39.5t-38.5 100.5q0 60 42 96.5t104 36.5q68 0 106.5 -39t38.5 -97q0 -68 -41.5 -102.5t-105.5 -34.5zM784 1165q-62 0 -100.5 39.5t-38.5 104.5q0 56 38.5 92.5t104.5 36.5q63 0 99.5 -37.5t36.5 -97.5q0 -64 -39 -101t-101 -37z" />
    <glyph glyph-name="yacute" unicode="&#xfd;" horiz-adv-x="1093" 
d="M604 -481l-289 45q83 271 101 340q-99 292 -195.5 563.5t-142.5 397.5l-47 126q94 2 174.5 6t114.5 7l34 4q38 -151 205 -772q55 215 104 424t71 311l22 102l307 -16zM528 1118l-141 101q78 98 143.5 184t91.5 123l27 37l180 -129q-95 -96 -170 -175t-103 -110z" />
    <glyph glyph-name="thorn" unicode="&#xfe;" horiz-adv-x="1236" 
d="M113 -430q3 344 3 802t-2 744l-1 287l301 2q-7 -249 -11 -567q52 107 139 166t189 59q131 0 227.5 -74t144.5 -197t48 -278q1 -259 -119.5 -401t-318.5 -142q-94 0 -175 43t-130 127q4 -174 9 -316t8 -197l3 -56q-67 2 -137 1.5t-124 -1.5zM631 162q97 0 152 87.5
t55 264.5q0 158 -54 253t-153 95q-95 0 -155 -96.5t-60 -251.5q0 -165 57 -258.5t158 -93.5z" />
    <glyph glyph-name="ydieresis" unicode="&#xff;" horiz-adv-x="1093" 
d="M604 -481l-289 45q83 271 101 340q-99 292 -195.5 563.5t-142.5 397.5l-47 126q94 2 174.5 6t114.5 7l34 4q38 -151 205 -772q55 215 104 424t71 311l22 102l307 -16zM340 1163q-67 0 -105 39.5t-38 100.5q0 60 41.5 96.5t103.5 36.5q68 0 106.5 -39t38.5 -97
q0 -68 -41.5 -102.5t-105.5 -34.5zM758 1165q-62 0 -101 39.5t-39 104.5q0 56 39 92.5t105 36.5q63 0 99 -37.5t36 -97.5q0 -64 -38.5 -101t-100.5 -37z" />
    <glyph glyph-name="Amacron" unicode="&#x100;" 
d="M41 31q162 571 383 1403l467 6q186 -709 399 -1479q-165 2 -323 -4q-29 114 -76 311q-176 4 -483 4l-56 -245q-155 4 -311 4zM647 1272q-114 -457 -188 -772q78 -2 377 -2q-95 396 -189 774zM373 1614q2 53 -2 178q159 -4 592 4q-5 -55 -5 -180q-185 4 -585 -2z" />
    <glyph glyph-name="amacron" unicode="&#x101;" horiz-adv-x="1140" 
d="M432 -35q-159 0 -259.5 80t-100.5 221q0 180 160.5 274t494.5 113v13q-9 200 -164 200q-143 0 -182 -170q-120 33 -272 58q112 309 466 309q448 0 457 -449q4 -148 4.5 -309t-0.5 -249l-2 -87q-96 0 -252 -4q7 82 9 209q-45 -100 -141 -154.5t-218 -54.5zM741 453v43
q-366 -20 -366 -193q0 -66 38.5 -103t110.5 -38q97 0 157 71t60 220zM283 1214q2 54 -2 179q158 -4 591 4q-4 -55 -4 -180q-185 3 -585 -3z" />
    <glyph glyph-name="Abreve" unicode="&#x102;" 
d="M41 31q162 571 383 1403l467 6q186 -709 399 -1479q-165 2 -323 -4q-29 114 -76 311q-176 4 -483 4l-56 -245q-155 4 -311 4zM647 1272q-114 -457 -188 -772q78 -2 377 -2q-95 396 -189 774zM666 1544q-161 0 -248 79.5t-82 217.5q73 -2 192 8q-1 -75 35.5 -114
t104.5 -39q64 0 99.5 44t29.5 130q63 -2 194 2q10 -160 -78 -244t-247 -84z" />
    <glyph glyph-name="abreve" unicode="&#x103;" horiz-adv-x="1140" 
d="M432 -35q-159 0 -259.5 80t-100.5 221q0 180 160.5 274t494.5 113v13q-9 200 -164 200q-143 0 -182 -170q-120 33 -272 58q112 309 466 309q448 0 457 -449q4 -148 4.5 -309t-0.5 -249l-2 -87q-96 0 -252 -4q7 82 9 209q-45 -100 -141 -154.5t-218 -54.5zM741 453v43
q-366 -20 -366 -193q0 -66 38.5 -103t110.5 -38q97 0 157 71t60 220zM578 1145q-161 0 -248 79.5t-82 217.5q73 -2 192 8q-1 -76 35.5 -115t104.5 -39q64 0 99.5 44t29.5 130q63 -1 194 3q10 -160 -78 -244t-247 -84z" />
    <glyph glyph-name="Aogonek" unicode="&#x104;" 
d="M1126 -459q-50 -6 -92 -6q-125 0 -200.5 53.5t-75.5 145.5q-2 71 49 138.5t151 109.5l-67 286q-176 4 -483 4l-56 -245q-155 4 -311 4q162 571 383 1403l467 6q186 -709 399 -1479q-100 2 -217 0q-64 -36 -96.5 -82t-32.5 -86q0 -49 52 -70.5t143 -15.5q-9 -55 -13 -166z
M647 1272q-114 -457 -188 -772q78 -2 377 -2q-95 396 -189 774z" />
    <glyph glyph-name="aogonek" unicode="&#x105;" horiz-adv-x="1140" 
d="M938 -459q-49 -6 -92 -6q-125 0 -201 53.5t-76 145.5q-2 75 52.5 143.5t162.5 110.5q4 63 7 186q-45 -100 -141 -154.5t-218 -54.5q-159 0 -259.5 80t-100.5 221q0 180 160.5 274t494.5 113v13q-9 200 -164 200q-143 0 -182 -170q-120 33 -272 58q112 309 466 309
q448 0 457 -449q4 -148 4.5 -309t-0.5 -249l-2 -87h-133q-71 -36 -108 -85t-37 -91q0 -49 51.5 -70.5t142.5 -15.5q-8 -55 -12 -166zM741 453v43q-366 -20 -366 -193q0 -66 38.5 -103t110.5 -38q97 0 157 71t60 220z" />
    <glyph glyph-name="Cacute" unicode="&#x106;" horiz-adv-x="1376" 
d="M713 -37q-301 0 -461 194.5t-160 553.5q0 354 162 550.5t461 196.5q245 0 385.5 -138t179.5 -378q-103 -10 -187.5 -21.5t-117.5 -17.5l-33 -6q-32 309 -235 309q-139 0 -210 -128.5t-69 -362.5q0 -233 70 -364.5t213 -131.5q114 0 178.5 83t77.5 265l342 -30
q-26 -286 -181 -430t-415 -144zM682 1518l-141 100q78 98 143.5 184t91.5 123l27 37l180 -129q-95 -96 -170 -174.5t-103 -109.5z" />
    <glyph glyph-name="cacute" unicode="&#x107;" horiz-adv-x="1153" 
d="M598 -37q-249 0 -379.5 145.5t-130.5 407.5q0 160 57.5 282.5t172 192.5t272.5 70q203 0 321.5 -101.5t159.5 -275.5q-76 -6 -154 -15.5t-119 -15.5l-40 -6q-32 199 -170 199q-90 0 -141.5 -88.5t-51.5 -247.5q0 -155 51.5 -239.5t143.5 -84.5q68 0 109.5 46.5
t64.5 148.5q98 -16 311 -43q-41 -189 -167 -282t-310 -93zM563 1118l-141 101q78 98 143.5 184t92.5 123l26 37l180 -129q-95 -96 -170 -175t-103 -110z" />
    <glyph glyph-name="Ccircumflex" unicode="&#x108;" horiz-adv-x="1376" 
d="M713 -37q-301 0 -461 194.5t-160 553.5q0 354 162 550.5t461 196.5q245 0 385.5 -138t179.5 -378q-103 -10 -187.5 -21.5t-117.5 -17.5l-33 -6q-32 309 -235 309q-139 0 -210 -128.5t-69 -362.5q0 -233 70 -364.5t213 -131.5q114 0 178.5 83t77.5 265l342 -30
q-26 -286 -181 -430t-415 -144zM475 1509q-37 41 -119 115q111 112 258 266q44 -4 177 2q90 -100 256 -258q-37 -33 -119 -121q-89 93 -230 220q-86 -79 -223 -224z" />
    <glyph glyph-name="ccircumflex" unicode="&#x109;" horiz-adv-x="1153" 
d="M598 -37q-249 0 -379.5 145.5t-130.5 407.5q0 160 57.5 282.5t172 192.5t272.5 70q203 0 321.5 -101.5t159.5 -275.5q-76 -6 -154 -15.5t-119 -15.5l-40 -6q-32 199 -170 199q-90 0 -141.5 -88.5t-51.5 -247.5q0 -155 51.5 -239.5t143.5 -84.5q68 0 109.5 46.5
t64.5 148.5q98 -16 311 -43q-41 -189 -167 -282t-310 -93zM356 1110q-36 41 -118 115q111 112 258 266q43 -4 176 2q90 -100 256 -258q-37 -33 -119 -121q-88 92 -229 219q-87 -78 -224 -223z" />
    <glyph glyph-name="Ccaron" unicode="&#x10c;" horiz-adv-x="1376" 
d="M713 -37q-301 0 -461 194.5t-160 553.5q0 354 162 550.5t461 196.5q245 0 385.5 -138t179.5 -378q-103 -10 -187.5 -21.5t-117.5 -17.5l-33 -6q-32 309 -235 309q-139 0 -210 -128.5t-69 -362.5q0 -233 70 -364.5t213 -131.5q114 0 178.5 83t77.5 265l342 -30
q-26 -286 -181 -430t-415 -144zM473 1905q68 -63 227 -222q143 120 228 224q74 -88 119 -121q-169 -150 -259 -262q-47 2 -174 2q-154 147 -260 262q29 28 67.5 67t51.5 50z" />
    <glyph glyph-name="ccaron" unicode="&#x10d;" horiz-adv-x="1153" 
d="M598 -37q-249 0 -379.5 145.5t-130.5 407.5q0 160 57.5 282.5t172 192.5t272.5 70q203 0 321.5 -101.5t159.5 -275.5q-76 -6 -154 -15.5t-119 -15.5l-40 -6q-32 199 -170 199q-90 0 -141.5 -88.5t-51.5 -247.5q0 -155 51.5 -239.5t143.5 -84.5q68 0 109.5 46.5
t64.5 148.5q98 -16 311 -43q-41 -189 -167 -282t-310 -93zM354 1505q96 -89 228 -221q142 120 227 223q74 -88 119 -121q-165 -147 -258 -262q-47 2 -174 2q-146 140 -260 263l67 67t51 49z" />
    <glyph glyph-name="Dcaron" unicode="&#x10e;" horiz-adv-x="1361" 
d="M444 227q20 -2 60 -2q107 0 184 24t135 79t86.5 151t28.5 234q0 229 -102.5 352t-309.5 123q-44 0 -94 -6q1 -236 4 -474.5t6 -359.5zM125 -2q3 366 3 718.5t-2 522.5l-1 170q184 29 348 29q403 3 601 -186.5t198 -544.5q0 -370 -204.5 -549t-623.5 -181q-144 0 -319 21z
M393 1905q82 -76 228 -222q140 117 227 224q74 -88 119 -121q-165 -147 -258 -262q-47 2 -174 2q-163 155 -261 262q30 28 68.5 67t50.5 50z" />
    <glyph glyph-name="dcaron" unicode="&#x10f;" horiz-adv-x="1228" 
d="M1114 -20l-252 2q6 84 10 225q-44 -116 -138.5 -176t-211.5 -60q-198 0 -316 143.5t-118 397.5q0 248 114.5 397.5t313.5 149.5q98 0 177 -50t126 -135q-6 368 -12 533q61 -2 309 2q-1 -71 -1.5 -193.5t-1.5 -511t1 -724.5zM608 166q97 0 157 87.5t60 252.5
q-5 161 -61.5 256.5t-161.5 95.5q-94 0 -146.5 -94.5t-52.5 -251.5q0 -166 53.5 -256t151.5 -90zM1522 1270q0 -79 -63.5 -163t-166.5 -151l-73 76q66 50 124 133q-46 9 -73 42t-27 75q0 53 37.5 90t101.5 37t102 -38t38 -101z" />
    <glyph glyph-name="Dcroat" unicode="&#x110;" horiz-adv-x="1441" 
d="M35 580q1 8 2 25t2 80.5t0 139.5q59 -4 168 -8l-4 592q187 29 350 29q403 3 600 -186t197 -545q0 -369 -204.5 -548.5t-621.5 -181.5q-146 0 -319 21q2 223 2 584zM522 227q23 -2 68 -2q105 0 181 24.5t132.5 80t84.5 151t28 232.5q0 472 -412 475q-45 0 -94 -6
q0 -256 2 -371h215q-2 -65 2 -223q-84 0 -215 -2z" />
    <glyph glyph-name="dcroat" unicode="&#x111;" horiz-adv-x="1228" 
d="M1114 -20l-252 2q6 84 10 225q-44 -116 -138.5 -176t-211.5 -60q-198 0 -316 143.5t-118 397.5q0 248 114.5 397.5t313.5 149.5q98 0 177 -50t126 -135q0 40 -4 228l-151 2l-5 176q99 0 152 2l-4 125q61 -2 309 2q0 -47 -2 -119l184 6q-4 -61 -5 -113t-1 -74v-22l-178 7
q-3 -403 0 -1114zM608 166q97 0 157 87.5t60 252.5q-5 161 -61.5 256.5t-161.5 95.5q-94 0 -146.5 -94.5t-52.5 -251.5q0 -166 53.5 -256t151.5 -90z" />
    <glyph glyph-name="Emacron" unicode="&#x112;" horiz-adv-x="1157" 
d="M141 8q-2 586 -16 1411q378 7 934 15q0 -86 4 -252q-272 -3 -627 -11q0 -139 2 -370q353 0 533 4q-2 -84 2 -246q-26 1 -71 1.5t-189 1.5t-271 -1q3 -145 9 -309q263 -6 624 -10q-2 -86 -2 -252q-462 14 -932 18zM317 1614q2 53 -2 178q159 -4 592 4q-4 -55 -4 -180
q-186 4 -586 -2z" />
    <glyph glyph-name="emacron" unicode="&#x113;" horiz-adv-x="1189" 
d="M610 -39q-245 0 -383.5 148.5t-138.5 396.5q0 115 34 215t98 176t164 120t224 44q137 -1 238.5 -47.5t158.5 -128t77 -189.5t1 -235q-226 -2 -682 -12q11 -134 66.5 -206.5t153.5 -72.5q153 0 215 174q90 -31 272 -74q-76 -154 -202.5 -231.5t-295.5 -77.5zM610 879
q-84 0 -136.5 -69t-67.5 -196l391 17q-3 116 -49 182t-138 66zM305 1214q2 54 -2 179q159 -4 592 4q-4 -55 -4 -180q-186 3 -586 -3z" />
    <glyph glyph-name="Edotaccent" unicode="&#x116;" horiz-adv-x="1157" 
d="M141 8q-2 586 -16 1411q378 7 934 15q0 -86 4 -252q-272 -3 -627 -11q0 -139 2 -370q353 0 533 4q-2 -84 2 -246q-26 1 -71 1.5t-189 1.5t-271 -1q3 -145 9 -309q263 -6 624 -10q-2 -86 -2 -252q-462 14 -932 18zM610 1554q-84 0 -129 48t-45 118q0 68 46 113t128 45
q83 0 128.5 -48.5t45.5 -113.5q0 -76 -48 -119t-126 -43z" />
    <glyph glyph-name="edotaccent" unicode="&#x117;" horiz-adv-x="1189" 
d="M610 -39q-245 0 -383.5 148.5t-138.5 396.5q0 115 34 215t98 176t164 120t224 44q137 -1 238.5 -47.5t158.5 -128t77 -189.5t1 -235q-226 -2 -682 -12q11 -134 66.5 -206.5t153.5 -72.5q153 0 215 174q90 -31 272 -74q-76 -154 -202.5 -231.5t-295.5 -77.5zM610 879
q-84 0 -136.5 -69t-67.5 -196l391 17q-3 116 -49 182t-138 66zM598 1155q-84 0 -129 48t-45 118q0 68 46 113t128 45q83 0 128.5 -48.5t45.5 -113.5q0 -76 -48 -119t-126 -43z" />
    <glyph glyph-name="Eogonek" unicode="&#x118;" horiz-adv-x="1157" 
d="M1071 -434q-46 -6 -88 -6q-128 0 -204.5 53t-76.5 145q-2 68 43.5 132t135.5 106q-439 10 -740 12q-2 586 -16 1411q378 7 934 15q0 -86 4 -252q-272 -3 -627 -11q0 -139 2 -370q353 0 533 4q-2 -84 2 -246q-26 1 -71 1.5t-189 1.5t-271 -1q3 -145 9 -309q263 -6 624 -10
q-2 -66 -2 -232q-90 -36 -137 -90t-47 -102q0 -49 51.5 -70.5t142.5 -15.5q-8 -55 -12 -166z" />
    <glyph glyph-name="eogonek" unicode="&#x119;" horiz-adv-x="1189" 
d="M713 -459q-50 -6 -92 -6q-125 0 -201 53.5t-76 145.5q-2 66 42 128t130 105q-203 27 -315.5 171t-112.5 368q0 115 34 215t98 176t164 120t224 44q137 -1 238.5 -47.5t158.5 -128t77 -189.5t1 -235q-226 -2 -682 -12q11 -134 66.5 -206.5t153.5 -72.5q153 0 215 174
q90 -31 272 -74q-140 -282 -442 -307q-66 -36 -101 -83t-35 -87q0 -49 52 -70.5t143 -15.5q-8 -55 -12 -166zM610 879q-84 0 -136.5 -69t-67.5 -196l391 17q-3 116 -49 182t-138 66z" />
    <glyph glyph-name="Ecaron" unicode="&#x11a;" horiz-adv-x="1157" 
d="M141 8q-2 586 -16 1411q378 7 934 15q0 -86 4 -252q-272 -3 -627 -11q0 -139 2 -370q353 0 533 4q-2 -84 2 -246q-26 1 -71 1.5t-189 1.5t-271 -1q3 -145 9 -309q263 -6 624 -10q-2 -86 -2 -252q-462 14 -932 18zM383 1905q68 -63 227 -222q143 120 228 224
q75 -90 118 -121q-165 -147 -258 -262q-47 2 -174 2q-154 147 -260 262q30 28 68 67t51 50z" />
    <glyph glyph-name="ecaron" unicode="&#x11b;" horiz-adv-x="1189" 
d="M610 -39q-245 0 -383.5 148.5t-138.5 396.5q0 115 34 215t98 176t164 120t224 44q137 -1 238.5 -47.5t158.5 -128t77 -189.5t1 -235q-226 -2 -682 -12q11 -134 66.5 -206.5t153.5 -72.5q153 0 215 174q90 -31 272 -74q-76 -154 -202.5 -231.5t-295.5 -77.5zM610 879
q-84 0 -136.5 -69t-67.5 -196l391 17q-3 116 -49 182t-138 66zM371 1505q82 -76 227 -221q142 120 227 223q74 -88 119 -121q-165 -147 -258 -262q-47 2 -174 2q-146 140 -260 263q27 26 66.5 65t52.5 51z" />
    <glyph glyph-name="Gcircumflex" unicode="&#x11c;" horiz-adv-x="1406" 
d="M721 -47q-295 0 -462 191t-167 569q0 225 71 392t214.5 262t345.5 95q236 0 377 -125.5t182 -353.5q-133 -12 -317 -43q-19 128 -82.5 201t-165.5 73q-146 0 -222.5 -131t-76.5 -366q0 -522 336 -522q123 0 195.5 80.5t78.5 246.5q-132 9 -366 6q1 80 -3 238l648 -2
q42 -391 -114.5 -601t-471.5 -210zM463 1509q-37 41 -119 115q111 112 258 266q43 -4 176 2q90 -100 256 -258q-37 -33 -119 -121q-88 93 -229 220q-86 -79 -223 -224z" />
    <glyph glyph-name="gcircumflex" unicode="&#x11d;" horiz-adv-x="1130" 
d="M518 -567q-224 0 -352.5 74t-128.5 194q0 78 57 142.5t172 101.5q-104 55 -104 159q0 125 174 191q-128 46 -198.5 143.5t-69.5 233.5q0 180 137 291.5t346 111.5q229 0 359 -118t130 -293q0 -100 -40 -179t-107.5 -127t-151 -73t-176.5 -25l-80 4q-51 -30 -51 -63
q0 -17 13 -28.5t58.5 -22t127.5 -17.5q252 -19 354.5 -96.5t102.5 -218.5q0 -177 -159.5 -281t-412.5 -104zM553 444q90 0 144.5 55t54.5 167q0 90 -53 149t-146 59q-94 0 -148.5 -56.5t-54.5 -151.5q0 -101 54.5 -161.5t148.5 -60.5zM805 -236q0 64 -91 90.5t-306 34.5
q-76 -61 -76 -139q0 -59 55.5 -96t161.5 -37q117 0 186.5 43.5t69.5 103.5zM311 1120q-36 41 -118 115q111 112 258 266q43 -4 176 2q90 -100 256 -258q-37 -33 -119 -121q-88 92 -229 219q-87 -78 -224 -223z" />
    <glyph glyph-name="Gbreve" unicode="&#x11e;" horiz-adv-x="1406" 
d="M721 -47q-295 0 -462 191t-167 569q0 225 71 392t214.5 262t345.5 95q236 0 377 -125.5t182 -353.5q-133 -12 -317 -43q-19 128 -82.5 201t-165.5 73q-146 0 -222.5 -131t-76.5 -366q0 -522 336 -522q123 0 195.5 80.5t78.5 246.5q-132 9 -366 6q1 80 -3 238l648 -2
q42 -391 -114.5 -601t-471.5 -210zM688 1544q-161 0 -248 79.5t-82 217.5q74 -2 193 8q-1 -76 35 -114.5t104 -38.5q64 0 99.5 44t29.5 130q64 -2 195 2q10 -160 -78.5 -244t-247.5 -84z" />
    <glyph glyph-name="gbreve" unicode="&#x11f;" horiz-adv-x="1130" 
d="M518 -567q-224 0 -352.5 74t-128.5 194q0 78 57 142.5t172 101.5q-104 55 -104 159q0 125 174 191q-128 46 -198.5 143.5t-69.5 233.5q0 180 137 291.5t346 111.5q229 0 359 -118t130 -293q0 -100 -40 -179t-107.5 -127t-151 -73t-176.5 -25l-80 4q-51 -30 -51 -63
q0 -17 13 -28.5t58.5 -22t127.5 -17.5q252 -19 354.5 -96.5t102.5 -218.5q0 -177 -159.5 -281t-412.5 -104zM553 444q90 0 144.5 55t54.5 167q0 90 -53 149t-146 59q-94 0 -148.5 -56.5t-54.5 -151.5q0 -101 54.5 -161.5t148.5 -60.5zM805 -236q0 64 -91 90.5t-306 34.5
q-76 -61 -76 -139q0 -59 55.5 -96t161.5 -37q117 0 186.5 43.5t69.5 103.5zM543 1145q-161 0 -248 79.5t-82 217.5q74 -2 193 8q-1 -76 35 -115t104 -39q64 0 99.5 44t29.5 130q63 -1 194 3q10 -160 -78 -244t-247 -84z" />
    <glyph glyph-name="Gcommaaccent" unicode="&#x122;" horiz-adv-x="1406" 
d="M721 -47q-295 0 -462 191t-167 569q0 225 71 392t214.5 262t345.5 95q236 0 377 -125.5t182 -353.5q-133 -12 -317 -43q-19 128 -82.5 201t-165.5 73q-146 0 -222.5 -131t-76.5 -366q0 -522 336 -522q123 0 195.5 80.5t78.5 246.5q-132 9 -366 6q1 80 -3 238l648 -2
q42 -391 -114.5 -601t-471.5 -210zM852 -244q0 -79 -63.5 -162.5t-165.5 -150.5l-74 76q68 51 125 133q-46 9 -73.5 42t-27.5 75q0 53 38 90t102 37t101.5 -38.5t37.5 -101.5z" />
    <glyph glyph-name="gcommaaccent" unicode="&#x123;" horiz-adv-x="1130" 
d="M518 -567q-224 0 -352.5 74t-128.5 194q0 78 57 142.5t172 101.5q-104 55 -104 159q0 125 174 191q-128 46 -198.5 143.5t-69.5 233.5q0 180 137 291.5t346 111.5q229 0 359 -118t130 -293q0 -100 -40 -179t-107.5 -127t-151 -73t-176.5 -25l-80 4q-51 -30 -51 -63
q0 -17 13 -28.5t58.5 -22t127.5 -17.5q252 -19 354.5 -96.5t102.5 -218.5q0 -177 -159.5 -281t-412.5 -104zM553 444q90 0 144.5 55t54.5 167q0 90 -53 149t-146 59q-94 0 -148.5 -56.5t-54.5 -151.5q0 -101 54.5 -161.5t148.5 -60.5zM805 -236q0 64 -91 90.5t-306 34.5
q-76 -61 -76 -139q0 -59 55.5 -96t161.5 -37q117 0 186.5 43.5t69.5 103.5zM406 1305q0 79 63.5 162.5t165.5 150.5l74 -76q-68 -51 -125 -133q46 -9 73 -42t27 -75q0 -53 -37.5 -90t-101.5 -37t-101.5 38.5t-37.5 101.5z" />
    <glyph glyph-name="Hcircumflex" unicode="&#x124;" horiz-adv-x="1314" 
d="M879 -39v500q-102 3 -439 -2l6 -422q-155 2 -313 -2q2 534 -8 1351q129 1 307 3q2 -268 6 -662q10 0 80 -1t146.5 -1.5t212.5 0.5q0 121 -3 377t-4 360q138 -2 314 2q0 -669 6 -1505zM432 1509q-37 41 -119 115q111 112 258 266q44 -4 177 2q90 -100 256 -258
q-37 -33 -119 -121q-89 93 -230 220q-86 -79 -223 -224z" />
    <glyph glyph-name="hcircumflex" unicode="&#x125;" horiz-adv-x="1167" 
d="M115 37q8 584 0 1352q104 0 299 2l-2 -568q45 108 131 172t196 64q152 0 232.5 -96.5t85.5 -272.5q5 -161 6 -343t-1 -284l-1 -102q-121 2 -297 2q6 308 0 639q-2 101 -33.5 151t-103.5 50q-95 0 -150 -87t-57 -210q-3 -96 -3.5 -212.5t0.5 -185.5l1 -69q-121 2 -303 -2z
M33 1405q-37 41 -119 115q111 112 258 266q43 -4 176 2q90 -100 256 -258q-37 -33 -119 -121q-88 92 -229 219q-86 -78 -223 -223z" />
    <glyph glyph-name="Imacron" unicode="&#x12a;" horiz-adv-x="614" 
d="M154 -2q-1 628 -9 1423q113 0 314 2q2 -685 10 -1425q-137 2 -315 0zM14 1614q2 53 -2 178q159 -4 592 4q-4 -55 -4 -180q-186 4 -586 -2z" />
    <glyph glyph-name="imacron" unicode="&#x12b;" horiz-adv-x="567" 
d="M139 2q2 271 -6 1022q115 0 299 4q0 -468 8 -1024q-129 2 -301 -2zM-6 1214q2 54 -2 179q159 -4 592 4q-4 -55 -4 -180q-186 3 -586 -3z" />
    <glyph glyph-name="Iogonek" unicode="&#x12e;" horiz-adv-x="614" 
d="M434 -426q-49 -6 -92 -6q-125 0 -200.5 53.5t-75.5 145.5q-2 66 41 128t129 105l-82 -2q-1 628 -9 1423q113 0 314 2q2 -685 10 -1425q-35 2 -76 2q-69 -36 -105 -84t-36 -90q0 -49 51.5 -70.5t142.5 -15.5q-8 -55 -12 -166z" />
    <glyph glyph-name="iogonek" unicode="&#x12f;" horiz-adv-x="567" 
d="M418 -422q-49 -6 -92 -6q-125 0 -201 53.5t-76 145.5q-2 66 42 128t130 105l-82 -2q2 271 -6 1022q115 0 299 4q0 -468 8 -1024h-61q-70 -34 -106.5 -83t-36.5 -91q0 -49 51.5 -70.5t142.5 -15.5q-8 -55 -12 -166zM287 1130q-97 0 -153 46t-56 129q0 78 57.5 123
t151.5 45t148 -46.5t54 -121.5q0 -84 -53 -129.5t-149 -45.5z" />
    <glyph glyph-name="Idotaccent" unicode="&#x130;" horiz-adv-x="614" 
d="M154 -2q-1 628 -9 1423q113 0 314 2q2 -685 10 -1425q-137 2 -315 0zM307 1554q-84 0 -129 48t-45 118q0 68 46 113t128 45q83 0 128.5 -48.5t45.5 -113.5q0 -76 -48 -119t-126 -43z" />
    <glyph glyph-name="dotlessi" unicode="&#x131;" horiz-adv-x="567" 
d="M139 2q2 271 -6 1022q115 0 299 4q0 -468 8 -1024q-129 2 -301 -2z" />
    <glyph glyph-name="Jcircumflex" unicode="&#x134;" horiz-adv-x="1179" 
d="M582 -31q-286 0 -408 176t-96 543q120 -8 319 -12q-18 -234 28 -335t150 -101q59 0 97 32t60 113t22 215q0 213 -4 422t-8 312l-3 102q127 0 338 10q-4 -304 -4 -844q0 -633 -491 -633zM672 1509q-37 41 -119 115q111 112 258 266q43 -4 176 2q90 -100 256 -258
q-37 -33 -119 -121q-88 93 -229 220q-86 -79 -223 -224z" />
    <glyph glyph-name="jcircumflex" unicode="&#x135;" horiz-adv-x="563" 
d="M-117 -444q8 85 8 251q66 -8 89 -8q80 0 118 38.5t39 127.5q3 232 2 467t-3 412l-3 178q101 -2 166 -1.5t96 1.5l31 2q2 -51 3.5 -141t5 -382.5t-0.5 -563.5q-3 -392 -405 -392q-76 0 -146 11zM53 1110q-37 41 -119 115q112 112 259 266q43 -4 176 2q90 -100 256 -258
q-37 -33 -119 -121q-89 92 -230 219q-86 -78 -223 -223z" />
    <glyph glyph-name="Kcommaaccent" unicode="&#x136;" horiz-adv-x="1310" 
d="M930 -49q-207 386 -326 592q-93 -133 -170 -250l4 -264l-313 -2v1364l309 -2q-4 -549 -2 -730q141 228 262.5 427t172.5 284l51 86l346 -14q-308 -467 -433 -680q114 -211 224.5 -409.5t164.5 -290.5l54 -93q-99 -3 -185 -7.5t-123 -7.5zM813 -244q0 -79 -63.5 -162.5
t-165.5 -150.5l-74 76q68 51 125 133q-46 9 -73 42t-27 75q0 53 37.5 90t101.5 37t101.5 -38.5t37.5 -101.5z" />
    <glyph glyph-name="kcommaaccent" unicode="&#x137;" horiz-adv-x="1130" 
d="M780 -45l-237 473q-93 -122 -129 -174l4 -221q-82 3 -157.5 4t-110.5 1l-35 -1q4 437 4 775.5t-2 458.5l-2 120q91 -3 166.5 -3.5t104.5 0.5l30 1q-2 -408 -2 -850q99 155 179.5 287t110.5 186l31 55l350 -12q-262 -348 -327 -439q96 -186 182.5 -347.5t125.5 -230.5
l38 -69q-104 -2 -185 -5.5t-110 -5.5zM772 -244q0 -79 -63.5 -162.5t-165.5 -150.5l-74 76q68 51 125 133q-46 9 -73 42t-27 75q0 53 37.5 90t101.5 37t101.5 -38.5t37.5 -101.5z" />
    <glyph glyph-name="Lacute" unicode="&#x139;" horiz-adv-x="1069" 
d="M137 6q-2 663 -12 1405q96 -4 311 0q-2 -292 8 -1132l574 -9l-2 -274q-217 4 -437 6.5t-331 3.5h-111zM344 1518l-141 100q78 98 143.5 184t91.5 123l27 37l180 -129q-95 -96 -170 -174.5t-103 -109.5z" />
    <glyph glyph-name="lacute" unicode="&#x13a;" horiz-adv-x="550" 
d="M424 10l-301 4q4 447 4.5 797.5t-1.5 476.5l-1 127l303 -4q-4 -495 -5 -845.5t0 -453.5zM281 1487l-142 100q78 98 143.5 184t91.5 123l27 37l181 -129q-95 -96 -170 -174.5t-103 -109.5z" />
    <glyph glyph-name="Lcommaaccent" unicode="&#x13b;" horiz-adv-x="1069" 
d="M137 6q-2 663 -12 1405q96 -4 311 0q-2 -292 8 -1132l574 -9l-2 -274q-217 4 -437 6.5t-331 3.5h-111zM735 -244q0 -79 -63.5 -162.5t-165.5 -150.5l-74 76q68 51 125 133q-46 9 -73 42t-27 75q0 53 37.5 90t101.5 37t101.5 -38.5t37.5 -101.5z" />
    <glyph glyph-name="lcommaaccent" unicode="&#x13c;" horiz-adv-x="550" 
d="M424 10l-301 4q4 447 4.5 797.5t-1.5 476.5l-1 127l303 -4q-4 -495 -5 -845.5t0 -453.5zM422 -244q0 -79 -63.5 -162.5t-165.5 -150.5l-74 76q68 51 125 133q-46 9 -73.5 42t-27.5 75q0 53 38 90t102 37t101.5 -38.5t37.5 -101.5z" />
    <glyph glyph-name="Lcaron" unicode="&#x13d;" horiz-adv-x="1069" 
d="M137 6q-2 663 -12 1405q96 -4 311 0q-2 -292 8 -1132l574 -9l-2 -274q-217 4 -437 6.5t-331 3.5h-111zM911 1391q0 -79 -63.5 -163t-165.5 -151l-74 76q68 51 125 133q-46 9 -73 42t-27 75q0 53 37.5 90t101.5 37t101.5 -38t37.5 -101z" />
    <glyph glyph-name="lcaron" unicode="&#x13e;" horiz-adv-x="550" 
d="M424 10l-301 4q4 447 4.5 797.5t-1.5 476.5l-1 127l303 -4q-4 -495 -5 -845.5t0 -453.5zM834 1276q0 -79 -63.5 -162.5t-166.5 -150.5l-74 75q68 51 125 133q-46 9 -73 42t-27 75q0 53 37.5 90t101.5 37t102 -38t38 -101z" />
    <glyph glyph-name="Lslash" unicode="&#x141;" horiz-adv-x="1130" 
d="M39 539q1 9 2 28t2 84.5t0 141.5q60 13 152 38l-7 580q97 -4 314 0q-4 -142 0 -493l239 69q-4 -79 2 -239q-87 -25 -239 -68l6 -410l567 -8l-2 -266q-217 4 -435.5 6.5t-328.5 3.5h-110q0 235 -4 582z" />
    <glyph glyph-name="lslash" unicode="&#x142;" horiz-adv-x="690" 
d="M41 575l-2 228l158 49l-2 563l303 -4q-4 -352 -4 -463q25 8 50 16.5t43 14.5t32 11t22.5 8t9.5 3q-3 -63 -4 -121.5t-1 -85.5l1 -28l-155 -47q-1 -268 -0.5 -426t1.5 -221l1 -62l-301 4l4 613z" />
    <glyph glyph-name="Nacute" unicode="&#x143;" horiz-adv-x="1366" 
d="M131 37q4 507 -6 1339q168 11 336 17q226 -480 512 -1024q-12 512 -39 1093q123 -2 285 -2q4 -571 24 -1480q-147 -11 -325 -21q-227 464 -529 1028q13 -544 27 -954q-125 4 -285 4zM666 1518l-142 100q78 98 143.5 184t92.5 123l26 37l181 -129q-95 -96 -170 -174.5
t-103 -109.5z" />
    <glyph glyph-name="nacute" unicode="&#x144;" horiz-adv-x="1163" 
d="M758 -41q1 37 2 101t2 234t0 308q-2 98 -33 148.5t-106 50.5q-90 0 -146.5 -82t-58.5 -203q-3 -65 -3.5 -185.5t0.5 -208.5l1 -87q-168 4 -303 0q1 43 1.5 120.5t1.5 335t-1 508.5q128 -2 241 2l-2 -233q55 142 152.5 216.5t222.5 72.5q159 -1 239.5 -99.5t86.5 -273.5
q3 -67 4 -247.5t1 -328.5l-1 -147zM580 1118l-142 101q78 98 143.5 184t92.5 123l26 37l181 -129q-95 -96 -170 -175t-103 -110z" />
    <glyph glyph-name="Ncommaaccent" unicode="&#x145;" horiz-adv-x="1366" 
d="M131 37q4 507 -6 1339q168 11 336 17q226 -480 512 -1024q-12 512 -39 1093q123 -2 285 -2q4 -571 24 -1480q-147 -11 -325 -21q-227 464 -529 1028q13 -544 27 -954q-125 4 -285 4zM848 -244q0 -79 -63.5 -162.5t-166.5 -150.5l-73 76q68 51 125 133q-46 9 -73.5 42
t-27.5 75q0 53 38 90t102 37t101.5 -38.5t37.5 -101.5z" />
    <glyph glyph-name="ncommaaccent" unicode="&#x146;" horiz-adv-x="1163" 
d="M758 -41q1 37 2 101t2 234t0 308q-2 98 -33 148.5t-106 50.5q-90 0 -146.5 -82t-58.5 -203q-3 -65 -3.5 -185.5t0.5 -208.5l1 -87q-168 4 -303 0q1 43 1.5 120.5t1.5 335t-1 508.5q128 -2 241 2l-2 -233q55 142 152.5 216.5t222.5 72.5q159 -1 239.5 -99.5t86.5 -273.5
q3 -67 4 -247.5t1 -328.5l-1 -147zM762 -244q0 -79 -63.5 -162.5t-166.5 -150.5l-73 76q68 51 125 133q-46 9 -73.5 42t-27.5 75q0 53 38 90t102 37t101.5 -38.5t37.5 -101.5z" />
    <glyph glyph-name="Ncaron" unicode="&#x147;" horiz-adv-x="1366" 
d="M131 37q4 507 -6 1339q168 11 336 17q226 -480 512 -1024q-12 512 -39 1093q123 -2 285 -2q4 -571 24 -1480q-147 -11 -325 -21q-227 464 -529 1028q13 -544 27 -954q-125 4 -285 4zM457 1905q68 -63 227 -222q140 117 227 224q74 -88 119 -121q-165 -147 -258 -262
q-47 2 -174 2q-154 147 -260 262q29 28 67.5 67t51.5 50z" />
    <glyph glyph-name="ncaron" unicode="&#x148;" horiz-adv-x="1163" 
d="M758 -41q1 37 2 101t2 234t0 308q-2 98 -33 148.5t-106 50.5q-90 0 -146.5 -82t-58.5 -203q-3 -65 -3.5 -185.5t0.5 -208.5l1 -87q-168 4 -303 0q1 43 1.5 120.5t1.5 335t-1 508.5q128 -2 241 2l-2 -233q55 142 152.5 216.5t222.5 72.5q159 -1 239.5 -99.5t86.5 -273.5
q3 -67 4 -247.5t1 -328.5l-1 -147zM371 1505q82 -76 227 -221q142 120 227 223q74 -88 119 -121q-165 -147 -258 -262q-47 2 -174 2q-146 140 -260 263q27 26 66.5 65t52.5 51z" />
    <glyph glyph-name="Omacron" unicode="&#x14c;" horiz-adv-x="1437" 
d="M719 -43q-293 2 -459 195t-166 546q-3 352 165 556t464 204q299 0 461 -201t162 -555q0 -368 -167.5 -556.5t-459.5 -188.5zM719 205q134 0 211.5 122t77.5 380q0 252 -74.5 377.5t-212.5 125.5q-142 0 -216.5 -128.5t-74.5 -376.5q-1 -243 75 -371.5t214 -128.5z
M426 1614q2 53 -2 178q159 -4 592 4q-4 -55 -4 -180q-186 4 -586 -2z" />
    <glyph glyph-name="omacron" unicode="&#x14d;" horiz-adv-x="1220" 
d="M606 -31q-247 0 -382.5 145.5t-135.5 411.5q0 246 142 390.5t378 144.5q244 0 384.5 -146.5t140.5 -396.5q0 -138 -40 -244.5t-111.5 -172t-166.5 -99t-209 -33.5zM610 172q98 0 153.5 85t55.5 263q0 159 -52.5 247.5t-154.5 88.5q-98 0 -155.5 -85t-57.5 -243
q0 -356 211 -356zM317 1214q2 54 -2 179q159 -4 592 4q-4 -55 -4 -180q-186 3 -586 -3z" />
    <glyph glyph-name="Ohungarumlaut" unicode="&#x150;" horiz-adv-x="1437" 
d="M719 -43q-293 2 -459 195t-166 546q-3 352 165 556t464 204q299 0 461 -201t162 -555q0 -368 -167.5 -556.5t-459.5 -188.5zM719 205q134 0 211.5 122t77.5 380q0 252 -74.5 377.5t-212.5 125.5q-142 0 -216.5 -128.5t-74.5 -376.5q-1 -243 75 -371.5t214 -128.5z
M874 1520q-45 27 -81.5 47t-50.5 26l-13 6q69 104 126.5 192.5t80.5 125.5l22 37q55 -31 100.5 -56t63.5 -34l19 -9q-84 -104 -151 -187.5t-92 -115.5zM526 1532q-44 26 -80.5 45t-50.5 25l-14 6l223 356q53 -31 98 -56t64 -34l18 -10q-83 -104 -147.5 -187t-87.5 -114z" />
    <glyph glyph-name="ohungarumlaut" unicode="&#x151;" horiz-adv-x="1220" 
d="M606 -31q-247 0 -382.5 145.5t-135.5 411.5q0 246 142 390.5t378 144.5q244 0 384.5 -146.5t140.5 -396.5q0 -138 -40 -244.5t-111.5 -172t-166.5 -99t-209 -33.5zM610 172q98 0 153.5 85t55.5 263q0 159 -52.5 247.5t-154.5 88.5q-98 0 -155.5 -85t-57.5 -243
q0 -356 211 -356zM766 1120q-45 27 -81.5 47t-50.5 27l-13 6q69 104 126.5 192.5t80.5 125.5l22 36q55 -31 100.5 -55.5t63.5 -33.5l18 -9q-84 -104 -150.5 -188t-91.5 -116zM418 1133q-44 26 -80.5 45t-51.5 24l-14 6l224 357l180 -101q-83 -104 -147.5 -186.5
t-87.5 -113.5z" />
    <glyph glyph-name="OE" unicode="&#x152;" horiz-adv-x="2025" 
d="M1841 561q-28 1 -74.5 1.5t-190.5 1.5t-257 -1q0 -150 6 -303q29 -1 81 -3t214.5 -5t325.5 -2q-7 -115 -7 -262q-214 18 -907 28q2 40 0 142q-56 -101 -160.5 -159t-222.5 -58q-254 0 -405.5 199t-151.5 558q0 160 41 301.5t113.5 244t177 161.5t225.5 59
q128 0 220.5 -50.5t144.5 -141.5l-2 135q240 -2 917 23q0 -117 6 -256q-281 1 -616 -9q-2 -169 -2 -366q8 0 105.5 -1t201.5 -0.5t215 3.5q-2 -105 2 -240zM719 188q136 0 212.5 128t76.5 389q0 247 -74.5 380.5t-220.5 133.5q-138 0 -211.5 -135t-73.5 -382t75 -380.5
t216 -133.5z" />
    <glyph glyph-name="oe" unicode="&#x153;" horiz-adv-x="1927" 
d="M1364 -47q-143 0 -245.5 56.5t-157.5 160.5q-58 -94 -155 -145.5t-214 -51.5q-237 0 -370.5 147t-133.5 415q0 242 136 387t364 145q134 0 232 -55t155 -150q55 91 153 140t234 49q250 0 369.5 -157t85.5 -435q-169 1 -682 -13q10 -142 69.5 -214t155.5 -72
q141 0 217 178q92 -35 266 -82q-70 -141 -195.5 -222t-283.5 -81zM614 176q95 0 150 84.5t55 259.5q0 157 -51.5 250.5t-155.5 93.5q-102 0 -158.5 -88t-56.5 -244q0 -356 217 -356zM1343 877q-84 0 -137.5 -69t-68.5 -198q364 16 395 17q0 117 -48 183.5t-141 66.5z" />
    <glyph glyph-name="Racute" unicode="&#x154;" horiz-adv-x="1292" 
d="M944 -53q-113 230 -293 575q-84 -7 -221 -4l8 -491q-166 2 -309 -2q4 516 -4 1376q219 47 418 47q323 3 497 -119.5t174 -347.5q0 -295 -280 -401q166 -312 323 -590q-125 -16 -313 -43zM430 748q73 -9 139 -9q334 0 334 230q0 109 -77 171t-236 62q-81 0 -166 -14z
M618 1518l-141 100q78 98 143.5 184t91.5 123l27 37l181 -129q-95 -96 -170.5 -174.5t-103.5 -109.5z" />
    <glyph glyph-name="racute" unicode="&#x155;" horiz-adv-x="827" 
d="M115 0q2 503 -2 1006q87 -2 249 2q-4 -113 -4 -242q51 137 163 213t257 70q-4 -105 -6 -281q-193 -13 -273 -105.5t-85 -297.5q-1 -70 0 -161t2 -146l2 -56q-106 0 -303 -2zM459 1118l-142 101q78 98 144 184t93 123l26 37l180 -129q-95 -96 -170 -175t-103 -110z" />
    <glyph glyph-name="Rcommaaccent" unicode="&#x156;" horiz-adv-x="1292" 
d="M944 -53q-113 230 -293 575q-84 -7 -221 -4l8 -491q-166 2 -309 -2q4 516 -4 1376q219 47 418 47q323 3 497 -119.5t174 -347.5q0 -295 -280 -401q166 -312 323 -590q-125 -16 -313 -43zM430 748q73 -9 139 -9q334 0 334 230q0 109 -77 171t-236 62q-81 0 -166 -14z
M801 -244q0 -79 -63.5 -162.5t-166.5 -150.5l-73 76q68 51 125 133q-46 9 -73.5 42t-27.5 75q0 53 38 90t102 37t101.5 -38.5t37.5 -101.5z" />
    <glyph glyph-name="rcommaaccent" unicode="&#x157;" horiz-adv-x="827" 
d="M115 0q2 503 -2 1006q87 -2 249 2q-4 -113 -4 -242q51 137 163 213t257 70q-4 -105 -6 -281q-193 -13 -273 -105.5t-85 -297.5q-1 -70 0 -161t2 -146l2 -56q-106 0 -303 -2zM399 -244q0 -79 -63.5 -162.5t-165.5 -150.5l-74 76q68 51 125 133q-46 9 -73 42t-27 75
q0 53 37.5 90t101.5 37t101.5 -38.5t37.5 -101.5z" />
    <glyph glyph-name="Rcaron" unicode="&#x158;" horiz-adv-x="1292" 
d="M944 -53q-113 230 -293 575q-84 -7 -221 -4l8 -491q-166 2 -309 -2q4 516 -4 1376q219 47 418 47q323 3 497 -119.5t174 -347.5q0 -295 -280 -401q166 -312 323 -590q-125 -16 -313 -43zM430 748q73 -9 139 -9q334 0 334 230q0 109 -77 171t-236 62q-81 0 -166 -14z
M410 1905q68 -63 227 -222q140 117 227 224q74 -88 119 -121q-165 -147 -258 -262q-47 2 -174 2q-154 147 -260 262q30 28 68 67t51 50z" />
    <glyph glyph-name="rcaron" unicode="&#x159;" horiz-adv-x="827" 
d="M115 0q2 503 -2 1006q87 -2 249 2q-4 -113 -4 -242q51 137 163 213t257 70q-4 -105 -6 -281q-193 -13 -273 -105.5t-85 -297.5q-1 -70 0 -161t2 -146l2 -56q-106 0 -303 -2zM250 1505q82 -76 227 -221q146 122 228 223q75 -90 118 -121q-165 -147 -258 -262q-47 2 -174 2
q-146 140 -260 263q27 26 66.5 65t52.5 51z" />
    <glyph glyph-name="Sacute" unicode="&#x15a;" horiz-adv-x="1282" 
d="M633 -39q-249 3 -399 128t-173 374q117 1 338 26q3 -140 67.5 -216t180.5 -78q96 -2 157.5 41t61.5 124q0 54 -27.5 92t-105 77t-219.5 79q-205 58 -306.5 160t-101.5 276q0 187 145 301.5t386 114.5q243 0 387 -125.5t164 -361.5q-142 -7 -318 -23q5 126 -55 200.5
t-172 74.5q-99 0 -155 -45t-56 -119q0 -83 71 -140t253 -106q132 -35 221 -80t136.5 -100.5t67 -114.5t19.5 -135q0 -200 -154.5 -313.5t-412.5 -110.5zM612 1518l-141 100q78 98 143.5 184t91.5 123l27 37l180 -129q-95 -96 -170 -174.5t-103 -109.5z" />
    <glyph glyph-name="sacute" unicode="&#x15b;" horiz-adv-x="1081" 
d="M553 -49q-98 0 -180 20t-150.5 61.5t-115 113t-64.5 167.5q125 12 293 41q40 -193 219 -196q75 0 119.5 29t44.5 81q0 51 -51 84t-203 66q-189 41 -279 118.5t-90 217.5q0 144 123 231.5t316 87.5q389 0 475 -344q-120 -14 -267 -43q-19 79 -71 128.5t-135 49.5
q-65 0 -106.5 -28.5t-41.5 -79.5q0 -55 54.5 -88.5t199.5 -65.5q143 -32 225.5 -79t113 -103t30.5 -135q0 -159 -129.5 -246.5t-329.5 -87.5zM508 1118l-141 101q78 98 143.5 184t91.5 123l27 37l180 -129q-95 -96 -170 -175t-103 -110z" />
    <glyph glyph-name="Scircumflex" unicode="&#x15c;" horiz-adv-x="1282" 
d="M633 -39q-249 3 -399 128t-173 374q117 1 338 26q3 -140 67.5 -216t180.5 -78q96 -2 157.5 41t61.5 124q0 54 -27.5 92t-105 77t-219.5 79q-205 58 -306.5 160t-101.5 276q0 187 145 301.5t386 114.5q243 0 387 -125.5t164 -361.5q-142 -7 -318 -23q5 126 -55 200.5
t-172 74.5q-99 0 -155 -45t-56 -119q0 -83 71 -140t253 -106q132 -35 221 -80t136.5 -100.5t67 -114.5t19.5 -135q0 -200 -154.5 -313.5t-412.5 -110.5zM406 1509q-37 41 -119 115q111 112 258 266q43 -4 176 2q90 -100 256 -258q-37 -33 -119 -121q-88 93 -229 220
q-86 -79 -223 -224z" />
    <glyph glyph-name="scircumflex" unicode="&#x15d;" horiz-adv-x="1081" 
d="M553 -49q-98 0 -180 20t-150.5 61.5t-115 113t-64.5 167.5q125 12 293 41q40 -193 219 -196q75 0 119.5 29t44.5 81q0 51 -51 84t-203 66q-189 41 -279 118.5t-90 217.5q0 144 123 231.5t316 87.5q389 0 475 -344q-120 -14 -267 -43q-19 79 -71 128.5t-135 49.5
q-65 0 -106.5 -28.5t-41.5 -79.5q0 -55 54.5 -88.5t199.5 -65.5q143 -32 225.5 -79t113 -103t30.5 -135q0 -159 -129.5 -246.5t-329.5 -87.5zM301 1110q-37 41 -119 115q111 112 258 266q43 -4 176 2q90 -100 256 -258q-36 -33 -118 -121q-89 92 -230 219q-86 -78 -223 -223
z" />
    <glyph glyph-name="Scedilla" unicode="&#x15e;" horiz-adv-x="1282" 
d="M1200 385q0 -184 -132.5 -296t-360.5 -126q0 -4 -1 -40t-1 -66q111 -1 169 -44.5t58 -111.5q0 -86 -81 -136t-224 -50q-113 0 -213 49q14 51 28 123q86 -45 172 -45q49 0 79 16t30 47q0 78 -197 59q17 74 37 201q-219 19 -350 143t-152 355q117 1 338 26
q3 -140 67.5 -216t180.5 -78q96 -2 157.5 41t61.5 124q0 54 -27.5 92t-105 77t-219.5 79q-205 58 -306.5 160t-101.5 276q0 187 145 301.5t386 114.5q243 0 387 -125.5t164 -361.5q-142 -7 -318 -23q5 126 -55 200.5t-172 74.5q-99 0 -155 -45t-56 -119q0 -83 71 -140
t253 -106q132 -35 221 -80t136.5 -100.5t67 -114.5t19.5 -135z" />
    <glyph glyph-name="scedilla" unicode="&#x15f;" horiz-adv-x="1081" 
d="M1012 285q0 -149 -114.5 -235t-295.5 -97q-2 -20 -2 -96q111 -1 169 -44.5t58 -111.5q0 -86 -81 -136t-224 -50q-113 0 -213 49q15 51 29 123q86 -45 172 -45q49 0 78.5 16t29.5 47q0 78 -196 59q17 72 37 193q-167 18 -276 104.5t-140 251.5q125 12 293 41
q40 -193 219 -196q75 0 119.5 29t44.5 81q0 51 -51 84t-203 66q-189 41 -279 118.5t-90 217.5q0 144 123 231.5t316 87.5q389 0 475 -344q-120 -14 -267 -43q-19 79 -71 128.5t-135 49.5q-65 0 -106.5 -28.5t-41.5 -79.5q0 -55 54.5 -88.5t199.5 -65.5q143 -32 225.5 -79
t113 -103t30.5 -135z" />
    <glyph glyph-name="Scaron" unicode="&#x160;" horiz-adv-x="1282" 
d="M633 -39q-249 3 -399 128t-173 374q117 1 338 26q3 -140 67.5 -216t180.5 -78q96 -2 157.5 41t61.5 124q0 54 -27.5 92t-105 77t-219.5 79q-205 58 -306.5 160t-101.5 276q0 187 145 301.5t386 114.5q243 0 387 -125.5t164 -361.5q-142 -7 -318 -23q5 126 -55 200.5
t-172 74.5q-99 0 -155 -45t-56 -119q0 -83 71 -140t253 -106q132 -35 221 -80t136.5 -100.5t67 -114.5t19.5 -135q0 -200 -154.5 -313.5t-412.5 -110.5zM403 1905q82 -76 228 -222q140 117 227 224q74 -88 119 -121q-165 -147 -258 -262q-47 2 -174 2q-154 147 -260 262
q31 30 68.5 68t49.5 49z" />
    <glyph glyph-name="scaron" unicode="&#x161;" horiz-adv-x="1081" 
d="M553 -49q-98 0 -180 20t-150.5 61.5t-115 113t-64.5 167.5q125 12 293 41q40 -193 219 -196q75 0 119.5 29t44.5 81q0 51 -51 84t-203 66q-189 41 -279 118.5t-90 217.5q0 144 123 231.5t316 87.5q389 0 475 -344q-120 -14 -267 -43q-19 79 -71 128.5t-135 49.5
q-65 0 -106.5 -28.5t-41.5 -79.5q0 -55 54.5 -88.5t199.5 -65.5q143 -32 225.5 -79t113 -103t30.5 -135q0 -159 -129.5 -246.5t-329.5 -87.5zM299 1505q82 -76 227 -221q146 122 228 223q75 -90 118 -121q-165 -147 -258 -262q-47 2 -174 2q-146 140 -260 263q27 26 66.5 65
t52.5 51z" />
    <glyph glyph-name="Tcommaaccent" unicode="&#x162;" horiz-adv-x="1161" 
d="M55 1151q0 108 -2 274q585 1 1055 7l-2 -279h-367q0 -477 9 -1165q-140 0 -318 -2q2 459 -4 1167zM743 -244q0 -79 -63.5 -162.5t-165.5 -150.5l-74 76q68 51 125 133q-46 9 -73 42t-27 75q0 53 37.5 90t101.5 37t101.5 -38.5t37.5 -101.5z" />
    <glyph glyph-name="tcommaaccent" unicode="&#x163;" horiz-adv-x="905" 
d="M834 43q-168 -51 -281 -51q-352 0 -358 389q-5 176 -5 424h-149q1 89 0.5 141.5t-1.5 73.5l-1 22l154 -4l4 277l295 -2q-5 -115 -7 -277h332l-2 -235q-238 4 -332 4q0 -197 6 -381q3 -87 37.5 -130.5t108.5 -43.5q69 0 172 33q6 -71 13 -131t10 -84zM662 -244
q0 -79 -63.5 -162.5t-166.5 -150.5l-74 76q68 51 125 133q-46 9 -73 42t-27 75q0 53 37.5 90t101.5 37t102 -38.5t38 -101.5z" />
    <glyph glyph-name="Tcaron" unicode="&#x164;" horiz-adv-x="1161" 
d="M55 1151q0 108 -2 274q585 1 1055 7l-2 -279h-367q0 -477 9 -1165q-140 0 -318 -2q2 459 -4 1167zM352 1905q82 -76 228 -222q140 117 227 224q74 -88 119 -121q-165 -147 -258 -262q-47 2 -174 2q-163 155 -261 262q29 28 67.5 67t51.5 50z" />
    <glyph glyph-name="tcaron" unicode="&#x165;" horiz-adv-x="905" 
d="M834 43q-168 -51 -281 -51q-352 0 -358 389q-5 176 -5 424h-149q1 89 0.5 141.5t-1.5 73.5l-1 22l154 -4l4 277l295 -2q-5 -115 -7 -277h332l-2 -235q-238 4 -332 4q0 -197 6 -381q3 -87 37.5 -130.5t108.5 -43.5q69 0 172 33q6 -71 13 -131t10 -84zM907 1475
q0 -79 -63.5 -163t-165.5 -151l-74 76q68 51 125 133q-46 9 -73 42t-27 75q0 53 37.5 90t101.5 37t101.5 -38t37.5 -101z" />
    <glyph glyph-name="Umacron" unicode="&#x16a;" 
d="M676 -29q-296 0 -429.5 171t-133.5 540l-2 696q114 -10 319 -14q-4 -397 -4 -602q0 -196 26.5 -311t78 -163t137.5 -48q84 0 133.5 43t74.5 150.5t25 295.5q0 124 -3 301.5t-6 293.5l-3 116q121 -6 332 4q-2 -440 -2 -746q0 -373 -134 -550t-409 -177zM373 1614
q2 53 -2 178q159 -4 592 4q-5 -55 -5 -180q-185 4 -585 -2z" />
    <glyph glyph-name="umacron" unicode="&#x16b;" horiz-adv-x="1157" 
d="M465 -6q-180 0 -270.5 118.5t-90.5 364.5l-2 533q100 -7 301 -9q-8 -226 -8 -542q0 -111 38 -166t122 -55q83 0 134.5 76.5t55.5 211.5q4 136 3.5 255.5t-2.5 201.5l-3 82q74 -4 299 -4q-4 -444 2 -1084q-10 1 -28.5 1.5t-84.5 1.5t-138 0q4 98 4 231q-44 -103 -131 -160
t-201 -57zM281 1214q2 54 -2 179q158 -4 591 4q-4 -55 -4 -180q-185 3 -585 -3z" />
    <glyph glyph-name="Ubreve" unicode="&#x16c;" 
d="M676 -29q-296 0 -429.5 171t-133.5 540l-2 696q114 -10 319 -14q-4 -397 -4 -602q0 -196 26.5 -311t78 -163t137.5 -48q84 0 133.5 43t74.5 150.5t25 295.5q0 124 -3 301.5t-6 293.5l-3 116q121 -6 332 4q-2 -440 -2 -746q0 -373 -134 -550t-409 -177zM666 1544
q-161 0 -248 79.5t-82 217.5q73 -2 192 8q-1 -75 35.5 -114t104.5 -39q64 0 99.5 44t29.5 130q63 -2 194 2q10 -160 -78 -244t-247 -84z" />
    <glyph glyph-name="ubreve" unicode="&#x16d;" horiz-adv-x="1157" 
d="M465 -6q-180 0 -270.5 118.5t-90.5 364.5l-2 533q100 -7 301 -9q-8 -226 -8 -542q0 -111 38 -166t122 -55q83 0 134.5 76.5t55.5 211.5q4 136 3.5 255.5t-2.5 201.5l-3 82q74 -4 299 -4q-4 -444 2 -1084q-10 1 -28.5 1.5t-84.5 1.5t-138 0q4 98 4 231q-44 -103 -131 -160
t-201 -57zM575 1145q-161 0 -247.5 79.5t-81.5 217.5q73 -2 192 8q-1 -76 35.5 -115t104.5 -39q64 0 99.5 44t29.5 130q63 -1 194 3q10 -160 -78.5 -244t-247.5 -84z" />
    <glyph glyph-name="Uring" unicode="&#x16e;" 
d="M676 -29q-296 0 -429.5 171t-133.5 540l-2 696q114 -10 319 -14q-4 -397 -4 -602q0 -196 26.5 -311t78 -163t137.5 -48q84 0 133.5 43t74.5 150.5t25 295.5q0 124 -3 301.5t-6 293.5l-3 116q121 -6 332 4q-2 -440 -2 -746q0 -373 -134 -550t-409 -177zM662 1524
q-116 0 -185 62.5t-69 164.5q0 98 70.5 159.5t183.5 61.5q125 0 193.5 -64t68.5 -157q0 -108 -72.5 -167.5t-189.5 -59.5zM668 1628q54 0 87 34t33 89q0 51 -31.5 87t-88.5 36q-56 0 -89.5 -34t-33.5 -87q0 -52 33 -88.5t90 -36.5z" />
    <glyph glyph-name="uring" unicode="&#x16f;" horiz-adv-x="1157" 
d="M465 -6q-180 0 -270.5 118.5t-90.5 364.5l-2 533q100 -7 301 -9q-8 -226 -8 -542q0 -111 38 -166t122 -55q83 0 134.5 76.5t55.5 211.5q4 136 3.5 255.5t-2.5 201.5l-3 82q74 -4 299 -4q-4 -444 2 -1084q-10 1 -28.5 1.5t-84.5 1.5t-138 0q4 98 4 231q-44 -103 -131 -160
t-201 -57zM569 1124q-116 0 -185 63t-69 165q0 98 70.5 159.5t183.5 61.5q125 0 193.5 -64t68.5 -157q0 -108 -72.5 -168t-189.5 -60zM575 1229q54 0 87.5 34t33.5 89q0 51 -32 87t-89 36q-56 0 -89 -34t-33 -87q0 -52 32.5 -88.5t89.5 -36.5z" />
    <glyph glyph-name="Uhungarumlaut" unicode="&#x170;" 
d="M676 -29q-296 0 -429.5 171t-133.5 540l-2 696q114 -10 319 -14q-4 -397 -4 -602q0 -196 26.5 -311t78 -163t137.5 -48q84 0 133.5 43t74.5 150.5t25 295.5q0 124 -3 301.5t-6 293.5l-3 116q121 -6 332 4q-2 -440 -2 -746q0 -373 -134 -550t-409 -177zM821 1520
q-45 27 -81.5 47t-49.5 26l-14 6q69 104 126.5 192.5t79.5 125.5l23 37l182 -99q-84 -104 -150.5 -187.5t-90.5 -115.5zM473 1532q-44 26 -80.5 45t-50.5 25l-14 6l223 356q53 -31 98 -56t63 -34l19 -10q-83 -104 -147.5 -187t-87.5 -114z" />
    <glyph glyph-name="uhungarumlaut" unicode="&#x171;" horiz-adv-x="1157" 
d="M465 -6q-180 0 -270.5 118.5t-90.5 364.5l-2 533q100 -7 301 -9q-8 -226 -8 -542q0 -111 38 -166t122 -55q83 0 134.5 76.5t55.5 211.5q4 136 3.5 255.5t-2.5 201.5l-3 82q74 -4 299 -4q-4 -444 2 -1084q-10 1 -28.5 1.5t-84.5 1.5t-138 0q4 98 4 231q-44 -103 -131 -160
t-201 -57zM729 1120q-45 27 -81.5 47t-49.5 27l-14 6q69 104 126.5 192.5t79.5 125.5l23 36q55 -31 100.5 -55.5t63.5 -33.5l18 -9q-84 -104 -150.5 -188t-90.5 -116zM381 1133q-44 26 -80.5 45t-50.5 24l-14 6l223 357l180 -101q-83 -104 -147.5 -186.5t-87.5 -113.5z" />
    <glyph glyph-name="Uogonek" unicode="&#x172;" 
d="M756 -446q-58 -7 -92 -7q-125 0 -201 53.5t-76 145.5q-2 66 41 129t129 105q-232 31 -338 201t-106 501l-2 696q114 -10 319 -14q-4 -397 -4 -602q0 -196 26.5 -311t78 -163t137.5 -48q84 0 133.5 43t74.5 150.5t25 295.5q0 124 -3 301.5t-6 293.5l-3 116q121 -6 332 4
q-2 -440 -2 -746q0 -363 -128.5 -541t-390.5 -186q-62 -35 -94.5 -80.5t-32.5 -85.5q0 -49 52 -70.5t143 -15.5q-8 -54 -12 -165z" />
    <glyph glyph-name="uogonek" unicode="&#x173;" horiz-adv-x="1157" 
d="M956 -442q-58 -7 -92 -7q-125 0 -200.5 53.5t-75.5 145.5q-2 73 50.5 141t154.5 109q4 66 4 211q-44 -103 -131 -160t-201 -57q-180 0 -270.5 118.5t-90.5 364.5l-2 533q100 -7 301 -9q-8 -226 -8 -542q0 -111 38 -166t122 -55q83 0 134.5 76.5t55.5 211.5
q4 136 3.5 255.5t-2.5 201.5l-3 82q74 -4 299 -4q-4 -444 2 -1084q-49 5 -133 5q-68 -36 -102.5 -83t-34.5 -89q0 -49 52 -70.5t143 -15.5q-9 -55 -13 -166z" />
    <glyph glyph-name="Ydieresis" unicode="&#x178;" horiz-adv-x="1300" 
d="M471 -23q-1 14 -1.5 83t-2.5 167.5t-6 186.5q-120 279 -443 983q92 2 344 14q68 -200 261 -680q100 222 288 715q102 -4 338 -6q-175 -361 -471 -1024q-2 -156 6 -436q-92 -1 -313 -3zM426 1563q-67 0 -105 39t-38 100q0 60 41.5 96.5t103.5 36.5q68 0 106.5 -38.5
t38.5 -96.5q0 -68 -41.5 -102.5t-105.5 -34.5zM844 1565q-62 0 -100.5 39t-38.5 104q0 56 38.5 92.5t104.5 36.5q63 0 99 -37.5t36 -97.5q0 -64 -38.5 -100.5t-100.5 -36.5z" />
    <glyph glyph-name="Zacute" unicode="&#x179;" horiz-adv-x="1165" 
d="M1071 -6q-236 5 -482 8t-373 4h-128l2 252q404 577 625 895q-170 -1 -323.5 -4t-221.5 -5l-68 -3l-2 280q272 1 513.5 4t346.5 6l105 3l4 -271l-625 -889q140 -3 298 -4t246 0h87zM563 1518l-141 100q78 98 143.5 184t92.5 123l26 37l180 -129q-95 -96 -170 -174.5
t-103 -109.5z" />
    <glyph glyph-name="zacute" unicode="&#x17a;" horiz-adv-x="1034" 
d="M942 -4q-288 9 -501.5 13t-282.5 3h-70l4 197q168 198 291 345.5t162 195.5l39 49q-167 -2 -286.5 -5.5t-155.5 -6.5l-36 -3l-4 242q257 1 465 3.5t287 4.5l80 2q-1 -63 0 -114t2 -71l2 -20q-154 -176 -277 -325t-169 -210l-46 -60q171 -2 282.5 -1.5t164.5 1.5l53 2z
M498 1118l-142 101q78 98 143.5 184t92.5 123l26 37l181 -129q-95 -96 -170 -175t-103 -110z" />
    <glyph glyph-name="Zdotaccent" unicode="&#x17b;" horiz-adv-x="1165" 
d="M1071 -6q-236 5 -482 8t-373 4h-128l2 252q404 577 625 895q-170 -1 -323.5 -4t-221.5 -5l-68 -3l-2 280q272 1 513.5 4t346.5 6l105 3l4 -271l-625 -889q140 -3 298 -4t246 0h87zM582 1554q-84 0 -129 48t-45 118q0 68 46 113t128 45q83 0 128.5 -48.5t45.5 -113.5
q0 -76 -48 -119t-126 -43z" />
    <glyph glyph-name="zdotaccent" unicode="&#x17c;" horiz-adv-x="1034" 
d="M942 -4q-288 9 -501.5 13t-282.5 3h-70l4 197q168 198 291 345.5t162 195.5l39 49q-167 -2 -286.5 -5.5t-155.5 -6.5l-36 -3l-4 242q257 1 465 3.5t287 4.5l80 2q-1 -63 0 -114t2 -71l2 -20q-154 -176 -277 -325t-169 -210l-46 -60q171 -2 282.5 -1.5t164.5 1.5l53 2z
M516 1155q-84 0 -129 48t-45 118q0 68 46 113t128 45q83 0 128.5 -48.5t45.5 -113.5q0 -76 -48 -119t-126 -43z" />
    <glyph glyph-name="Zcaron" unicode="&#x17d;" horiz-adv-x="1165" 
d="M1071 -6q-236 5 -482 8t-373 4h-128l2 252q404 577 625 895q-170 -1 -323.5 -4t-221.5 -5l-68 -3l-2 280q272 1 513.5 4t346.5 6l105 3l4 -271l-625 -889q140 -3 298 -4t246 0h87zM354 1905q82 -76 228 -222q140 117 227 224q74 -88 119 -121q-165 -147 -258 -262
q-47 2 -174 2q-154 147 -260 262q31 30 68.5 68t49.5 49z" />
    <glyph glyph-name="zcaron" unicode="&#x17e;" horiz-adv-x="1034" 
d="M942 -4q-288 9 -501.5 13t-282.5 3h-70l4 197q168 198 291 345.5t162 195.5l39 49q-167 -2 -286.5 -5.5t-155.5 -6.5l-36 -3l-4 242q257 1 465 3.5t287 4.5l80 2q-1 -63 0 -114t2 -71l2 -20q-154 -176 -277 -325t-169 -210l-46 -60q171 -2 282.5 -1.5t164.5 1.5l53 2z
M289 1505q82 -76 227 -221q142 120 227 223q74 -88 119 -121q-165 -147 -258 -262q-47 2 -174 2q-146 140 -260 263q27 26 66.5 65t52.5 51z" />
    <glyph glyph-name="florin" unicode="&#x192;" horiz-adv-x="1122" 
d="M946 616q-225 5 -244 5q-7 -34 -28.5 -144.5t-32 -164t-28.5 -135t-33 -140.5q-50 -199 -152 -289t-266 -90q-72 0 -166 16q10 70 16 228q58 -8 76 -8q87 0 133 45.5t74 152.5q36 139 117 533h-170q3 84 3.5 140.5t-0.5 70.5l-1 14l211 -6l32 162q38 191 134 279.5
t256 88.5q78 0 188 -22q-10 -65 -16.5 -122.5t-7.5 -82.5l-1 -25q-62 15 -88 15q-135 0 -178 -172q-7 -25 -29 -125l199 2z" />
    <glyph glyph-name="Scommaaccent" unicode="&#x218;" horiz-adv-x="1282" 
d="M633 -39q-249 3 -399 128t-173 374q117 1 338 26q3 -140 67.5 -216t180.5 -78q96 -2 157.5 41t61.5 124q0 54 -27.5 92t-105 77t-219.5 79q-205 58 -306.5 160t-101.5 276q0 187 145 301.5t386 114.5q243 0 387 -125.5t164 -361.5q-142 -7 -318 -23q5 126 -55 200.5
t-172 74.5q-99 0 -155 -45t-56 -119q0 -83 71 -140t253 -106q132 -35 221 -80t136.5 -100.5t67 -114.5t19.5 -135q0 -200 -154.5 -313.5t-412.5 -110.5zM795 -244q0 -79 -63.5 -162.5t-166.5 -150.5l-73 76q66 50 124 133q-46 9 -73 42t-27 75q0 53 37.5 90t101.5 37
t102 -38.5t38 -101.5z" />
    <glyph glyph-name="scommaaccent" unicode="&#x219;" horiz-adv-x="1081" 
d="M553 -49q-98 0 -180 20t-150.5 61.5t-115 113t-64.5 167.5q125 12 293 41q40 -193 219 -196q75 0 119.5 29t44.5 81q0 51 -51 84t-203 66q-189 41 -279 118.5t-90 217.5q0 144 123 231.5t316 87.5q389 0 475 -344q-120 -14 -267 -43q-19 79 -71 128.5t-135 49.5
q-65 0 -106.5 -28.5t-41.5 -79.5q0 -55 54.5 -88.5t199.5 -65.5q143 -32 225.5 -79t113 -103t30.5 -135q0 -159 -129.5 -246.5t-329.5 -87.5zM690 -244q0 -79 -63.5 -162.5t-165.5 -150.5l-74 76q68 51 125 133q-46 9 -73 42t-27 75q0 53 37.5 90t101.5 37t101.5 -38.5
t37.5 -101.5z" />
    <glyph glyph-name="uni0237" unicode="&#x237;" horiz-adv-x="563" 
d="M-117 -444q8 85 8 251q66 -8 89 -8q80 0 118 38.5t39 127.5q3 232 2 467t-3 412l-3 178q101 -2 166 -1.5t96 1.5l31 2q2 -51 3.5 -141t5 -382.5t-0.5 -563.5q-3 -392 -405 -392q-76 0 -146 11z" />
    <glyph glyph-name="circumflex" unicode="&#x2c6;" horiz-adv-x="1220" 
d="M379 1110q-37 41 -119 115q111 112 258 266q43 -4 176 2q90 -100 256 -258q-37 -33 -119 -121q-88 92 -229 219q-86 -78 -223 -223z" />
    <glyph glyph-name="caron" unicode="&#x2c7;" horiz-adv-x="1220" 
d="M397 1505q96 -89 228 -221q142 120 227 223q74 -88 119 -121q-165 -147 -258 -262q-47 2 -174 2q-146 140 -260 263q29 29 67.5 67t50.5 49z" />
    <glyph glyph-name="breve" unicode="&#x2d8;" horiz-adv-x="1220" 
d="M608 1145q-161 0 -247.5 79.5t-81.5 217.5q73 -2 192 8q-1 -76 35 -115t104 -39q64 0 99.5 44t29.5 130q64 -1 195 3q10 -160 -78.5 -244t-247.5 -84z" />
    <glyph glyph-name="dotaccent" unicode="&#x2d9;" horiz-adv-x="1220" 
d="M608 1155q-84 0 -129 48t-45 118q0 68 46 113t128 45q83 0 128.5 -48.5t45.5 -113.5q0 -76 -48 -119t-126 -43z" />
    <glyph glyph-name="ring" unicode="&#x2da;" horiz-adv-x="1220" 
d="M604 1124q-116 0 -185 63t-69 165q0 98 70.5 159.5t183.5 61.5q125 0 193.5 -64t68.5 -157q0 -108 -72.5 -168t-189.5 -60zM610 1229q54 0 87.5 34t33.5 89q0 51 -32 87t-89 36q-56 0 -89.5 -34t-33.5 -87q0 -52 33 -88.5t90 -36.5z" />
    <glyph glyph-name="ogonek" unicode="&#x2db;" horiz-adv-x="1236" 
d="M786 -438q-50 -6 -92 -6q-125 0 -200.5 53t-75.5 145q-2 77 56.5 147t172.5 111l141 -6q-90 -36 -137 -90t-47 -102q0 -49 52 -70.5t143 -15.5q-9 -55 -13 -166z" />
    <glyph glyph-name="tilde" unicode="&#x2dc;" horiz-adv-x="1220" 
d="M395 1153q-53 6 -159 6q-5 138 52.5 222.5t164.5 84.5q44 0 87 -22t71.5 -48.5t62 -48.5t59.5 -22q69 0 72 127q47 -2 156 0q14 -305 -199 -305q-47 0 -93 21t-75.5 46.5t-63.5 46.5t-59 21q-35 0 -55.5 -34t-20.5 -95z" />
    <glyph glyph-name="hungarumlaut" unicode="&#x2dd;" horiz-adv-x="1220" 
d="M770 1120q-45 27 -81.5 47t-50.5 27l-13 6q69 104 126.5 192.5t80.5 125.5l22 36q55 -31 100.5 -55.5t63.5 -33.5l18 -9q-84 -104 -150.5 -188t-91.5 -116zM422 1133q-44 26 -80.5 45t-51.5 24l-14 6l224 357l180 -101q-83 -104 -147.5 -186.5t-87.5 -113.5z" />
    <glyph glyph-name="endash" unicode="&#x2013;" horiz-adv-x="968" 
d="M909 557q-443 8 -850 2q3 173 0 256q619 -4 850 2q-3 -137 0 -260z" />
    <glyph glyph-name="emdash" unicode="&#x2014;" horiz-adv-x="1159" 
d="M59 555q4 91 0 258q82 -2 446 -1.5t595 3.5q-4 -174 -2 -260q-120 3 -457.5 3t-581.5 -3z" />
    <glyph glyph-name="quoteleft" unicode="&#x2018;" horiz-adv-x="536" 
d="M268 846q-84 0 -138 61.5t-54 163.5q0 117 73.5 224t206.5 196l119 -100q-88 -69 -147 -179q59 -13 93 -65t34 -111q0 -85 -51.5 -137.5t-135.5 -52.5z" />
    <glyph glyph-name="quoteright" unicode="&#x2019;" horiz-adv-x="544" 
d="M186 825l-125 97q91 75 156 182q-60 16 -91.5 65.5t-31.5 110.5q0 80 50 133t135 53t137.5 -60t52.5 -153q0 -114 -78 -229t-205 -199z" />
    <glyph glyph-name="quotesinglbase" unicode="&#x201a;" horiz-adv-x="542" 
d="M186 -301l-125 98q99 80 152 189q-56 10 -89.5 59.5t-33.5 110.5q0 79 49 132.5t135 53.5q85 0 139 -59.5t54 -151.5q0 -117 -77 -232.5t-204 -199.5z" />
    <glyph glyph-name="quotedblleft" unicode="&#x201c;" horiz-adv-x="1015" 
d="M270 856q-87 0 -140.5 60t-53.5 163q0 109 70.5 217t213.5 205l125 -96q-98 -79 -155 -180q57 -18 91 -69t34 -112q0 -86 -52 -137t-133 -51zM748 815q-89 0 -144 58t-55 161q0 107 75.5 224.5t204.5 201.5l125 -98q-84 -66 -155 -188q59 -18 93 -64t34 -98
q0 -88 -50.5 -142.5t-127.5 -54.5z" />
    <glyph glyph-name="quotedblright" unicode="&#x201d;" horiz-adv-x="1009" 
d="M651 842l-123 100q88 70 156 186q-59 12 -94 60.5t-35 111.5q0 80 50.5 135.5t133.5 55.5q90 0 142.5 -55.5t52.5 -153.5q0 -237 -283 -440zM180 815l-119 98q82 65 152 185q-56 12 -91.5 59.5t-35.5 108.5q0 83 52.5 139.5t133.5 56.5q86 0 137.5 -62t51.5 -145
q0 -131 -76.5 -242.5t-204.5 -197.5z" />
    <glyph glyph-name="quotedblbase" unicode="&#x201e;" horiz-adv-x="1001" 
d="M643 -281l-123 97q85 68 154 184q-60 15 -92.5 61.5t-32.5 110.5q0 84 50 138.5t134 54.5q88 0 140.5 -57t52.5 -156q0 -231 -283 -433zM182 -313l-121 98q90 75 152 186q-55 12 -90 59.5t-35 104.5q0 89 52.5 145t129.5 56q86 0 139.5 -61t53.5 -152q0 -121 -76.5 -235
t-204.5 -201z" />
    <glyph glyph-name="dagger" unicode="&#x2020;" horiz-adv-x="774" 
d="M53 1006q4 53 4 200q77 -2 224 -4v240q55 -4 213 2q-2 -121 -2 -244h227q-4 -64 2 -201q-86 3 -229 5q0 -365 4 -592q-8 1 -23.5 2t-73 2t-125.5 0q3 253 5 590h-226z" />
    <glyph glyph-name="daggerdbl" unicode="&#x2021;" horiz-adv-x="817" 
d="M739 799q0 -142 2 -183h-227l2 -202h-215v202h-225q2 37 2 185q76 -2 223 -2v258h-223q0 141 -2 182h225l-2 203q146 -4 221 0q-2 -41 -2 -203h223q-2 -37 -2 -182h-223l-2 -258h225z" />
    <glyph glyph-name="bullet" unicode="&#x2022;" horiz-adv-x="751" 
d="M379 389q-136 0 -223.5 87.5t-87.5 238.5q0 140 82.5 230.5t226.5 90.5q138 0 222.5 -92.5t84.5 -224.5q0 -157 -86.5 -243.5t-218.5 -86.5z" />
    <glyph glyph-name="ellipsis" unicode="&#x2026;" horiz-adv-x="1622" 
d="M283 -14q-88 0 -142.5 56t-54.5 148q0 84 55.5 139.5t141.5 55.5q85 0 141.5 -56t56.5 -139q-1 -94 -55 -149t-143 -55zM809 -57q-87 0 -143 55t-56 145q0 88 56.5 142.5t142.5 54.5q88 0 142.5 -55t54.5 -138q-1 -96 -54.5 -150t-142.5 -54zM1339 -23q-91 0 -145.5 54
t-54.5 147q0 86 55.5 140.5t142.5 54.5t143 -56t56 -139q-1 -95 -55 -148t-142 -53z" />
    <glyph glyph-name="perthousand" unicode="&#x2030;" horiz-adv-x="2500" 
d="M408 602q-174 0 -261.5 110t-87.5 292q0 162 95 267t258 105q169 0 259.5 -103t90.5 -286q0 -189 -99 -287t-255 -98zM410 754q128 0 131 237q0 232 -129 232q-63 0 -98 -63t-35 -169q0 -237 131 -237zM473 -39l-145 19q261 399 480.5 741t308.5 485l89 142
q41 -6 79 -10.5t55 -5.5l18 -1zM1280 -47q-168 0 -258 107.5t-90 283.5q0 105 40 191.5t121 140t191 53.5q168 0 259 -107t91 -282q0 -191 -97 -289t-257 -98zM1284 104q63 0 96 59t33 171q0 119 -32 177t-101 58q-59 0 -93 -60.5t-34 -162.5q0 -242 131 -242zM2091 743
q162 0 256 -98.5t94 -288.5q0 -175 -90 -281t-256 -106t-261 103.5t-95 271.5q0 181 92 290t260 109zM2091 592q-63 0 -97 -62.5t-34 -177.5q0 -107 33 -168t98 -61q63 0 96 60t33 171q0 238 -129 238z" />
    <glyph glyph-name="guilsinglleft" unicode="&#x2039;" horiz-adv-x="577" 
d="M279 223q-83 181 -230 471q115 189 248 441q65 -9 221 -11q-113 -182 -246 -436q87 -188 228 -455q-80 2 -221 -10z" />
    <glyph glyph-name="guilsinglright" unicode="&#x203a;" horiz-adv-x="573" 
d="M279 231q-83 7 -220 9q109 180 244 432q-86 176 -233 456q88 1 219 11q77 -167 235 -475q-108 -181 -245 -433z" />
    <glyph glyph-name="fraction" unicode="&#x2044;" horiz-adv-x="1083" 
d="M145 -39l-145 19q261 399 494 762.5t336 527.5l102 164q41 -6 78.5 -10.5t55.5 -5.5l17 -1z" />
    <glyph glyph-name="Euro" unicode="&#x20ac;" horiz-adv-x="1419" 
d="M39 713q2 43 0 141q49 -2 168 0q45 247 198.5 386.5t387.5 139.5q229 0 362.5 -110.5t175.5 -300.5l-313 -54q-24 111 -77 166.5t-146 55.5q-215 0 -267 -277l392 8l-2 -143q-114 0 -404 -4q-1 -5 -1.5 -14.5t-1.5 -38.5t1 -54l428 9q-4 -52 0 -140q-116 0 -416 -4
q47 -291 264 -291q101 0 161 57.5t85 198.5q81 -16 160.5 -29t118.5 -19l39 -5q-34 -214 -189.5 -330.5t-378.5 -113.5q-245 0 -393 136.5t-188 389.5q-110 -4 -158 -4q2 39 2 143q51 -2 143 -2q-4 46 0 105z" />
    <glyph glyph-name="servicemark" unicode="&#x2120;" horiz-adv-x="1654" 
d="M715 752q14 277 18 626q125 -4 266 4q64 -228 136 -464q75 294 125 522q141 -11 266 -13q6 -314 35 -710q-86 -2 -170 -8q-5 286 -19 600q-94 -316 -141 -521q-117 1 -189 5q-69 224 -157 483q-6 -297 6 -526zM365 715q-122 0 -209 56.5t-97 168.5q81 9 183 21
q14 -119 125 -119q48 0 73 21.5t25 58.5q0 17 -7.5 29t-42.5 28.5t-100 32.5q-115 27 -169 79t-54 140q0 92 72.5 150.5t189.5 58.5q131 0 201.5 -54.5t91.5 -162.5q-78 -7 -178 -21q-14 111 -111 111q-42 0 -68 -21t-26 -57q0 -34 36 -57t112 -41q131 -32 180 -80.5
t49 -122.5q0 -97 -79.5 -158t-196.5 -61z" />
    <glyph glyph-name="trademark" unicode="&#x2122;" horiz-adv-x="1568" 
d="M629 754q14 269 20 620q125 -4 266 4q60 -221 134 -454q68 244 127 512q141 -11 266 -13q6 -304 33 -700q-84 -2 -170 -8q-3 278 -17 594q-87 -292 -141 -516q-119 0 -191 4q-67 218 -157 473q0 -372 6 -518zM49 1266q2 49 2 151q233 -2 535 6l-2 -157q-78 2 -176 2
q0 -234 8 -551q-74 4 -176 0q2 243 0 551q-125 0 -191 -2z" />
    <glyph glyph-name="minus" unicode="&#x2212;" horiz-adv-x="966" 
d="M885 793l2 -242q-184 4 -386 4.5t-311 -1.5l-110 -1q3 67 4 127.5t0 87.5v27q192 -4 392.5 -4.5t304.5 1.5z" />
    <glyph glyph-name="Pcircle" unicode="&#x24c5;" horiz-adv-x="1550" 
d="M791 1368q306 0 490.5 -198t184.5 -527q0 -210 -88.5 -367t-247.5 -240t-368 -83q-305 0 -491.5 191.5t-186.5 508.5q0 212 83.5 373t244.5 251.5t379 90.5zM780 1264q-139 0 -251 -48t-183 -132t-109 -193t-38 -234q0 -270 153.5 -435t417.5 -165q168 0 299 69t208 207
t77 326q0 126 -40 236.5t-113 192t-182 129t-239 47.5zM475 272q4 202 -2 760q142 19 242 19q224 0 331 -72.5t107 -206.5t-111 -208.5t-299 -74.5h-43q0 -5 5 -215q-138 2 -230 -2zM696 891q-2 -61 2 -258q234 -9 234 135q0 125 -193 125z" />
    <glyph glyph-name="Pcircle" unicode="&#x24df;" horiz-adv-x="1550" 
d="M791 1368q306 0 490.5 -198t184.5 -527q0 -210 -88.5 -367t-247.5 -240t-368 -83q-305 0 -491.5 191.5t-186.5 508.5q0 212 83.5 373t244.5 251.5t379 90.5zM780 1264q-139 0 -251 -48t-183 -132t-109 -193t-38 -234q0 -270 153.5 -435t417.5 -165q168 0 299 69t208 207
t77 326q0 126 -40 236.5t-113 192t-182 129t-239 47.5zM475 272q4 202 -2 760q142 19 242 19q224 0 331 -72.5t107 -206.5t-111 -208.5t-299 -74.5h-43q0 -5 5 -215q-138 2 -230 -2zM696 891q-2 -61 2 -258q234 -9 234 135q0 125 -193 125z" />
    <glyph glyph-name="commaaccent" horiz-adv-x="1243" 
d="M756 -223q0 -79 -63.5 -163t-166.5 -151l-73 76q68 51 125 133q-46 9 -73.5 42t-27.5 75q0 53 37.5 90t101.5 37t102 -38t38 -101z" />
    <glyph glyph-name="space.tab" horiz-adv-x="628" 
 />
    <glyph glyph-name="dollar.tab" horiz-adv-x="1259" 
d="M776 -258q-74 3 -145.5 3.5t-106.5 -0.5l-35 -1q13 193 13 231q-119 19 -209 72t-144 145.5t-55 213.5q133 13 305 40q0 -129 64 -192.5t174 -63.5q90 0 145.5 45t55.5 113q0 30 -9.5 52t-39.5 48.5t-94.5 52t-166.5 52.5q-212 56 -309.5 151.5t-97.5 253.5
q0 150 100.5 258.5t274.5 135.5q-1 59 -3.5 115t-4.5 82l-3 26h297q-10 -131 -14 -227q175 -35 271 -148t102 -282q-125 -8 -301 -31q-2 113 -60 180.5t-164 67.5q-87 0 -133.5 -46.5t-46.5 -119.5q0 -71 65.5 -119.5t223.5 -89.5q129 -34 215.5 -76.5t132 -94t63 -105
t17.5 -122.5q0 -153 -106 -255t-275 -132q-1 -59 0 -117.5t2 -87.5z" />
    <glyph glyph-name="cent.tab" horiz-adv-x="1259" 
d="M506 -127q3 44 5 86.5t3 81t2 49.5q-194 41 -302 199t-108 405t105 406t303 198l-12 226q80 -2 146 -1.5t108 1.5l43 2l-17 -232q166 -35 265.5 -148.5t111.5 -275.5q-92 -6 -172 -14.5t-113 -13.5l-34 -6q-18 123 -65 184t-134 61q-110 0 -165.5 -101t-55.5 -271
q0 -195 59.5 -291t167.5 -96q81 0 131 55t68 174q104 -23 317 -43q-26 -178 -124 -284t-255 -136q1 -57 3 -111t4 -79l2 -25q-76 2 -148 2t-105 -1z" />
    <glyph glyph-name="Euro.tab" horiz-adv-x="1259" 
d="M35 713q2 43 0 141q26 0 143 2q42 242 183 383t358 141q106 0 190.5 -32t141.5 -90t93.5 -129.5t55.5 -159.5l-313 -54q-15 106 -60 164t-120 58q-174 0 -211 -275l288 6q-4 -59 -4 -143q-47 0 -295 -4q-4 -48 0 -105q92 0 318 7q-2 -52 0 -140q-48 0 -309 -4
q19 -150 70.5 -220.5t142.5 -70.5q156 0 198 256q81 -16 160.5 -29t118.5 -19l39 -5q-39 -213 -176 -330t-336 -114q-229 0 -364 138.5t-171 385.5l-137 -2q2 39 2 143q33 -2 123 -2q-2 44 0 105z" />
    <glyph glyph-name="sterling.tab" horiz-adv-x="1259" 
d="M272 504h-163q1 62 0 107.5t-2 71.5l-1 26q39 -2 111 -2q-2 4 -12 27t-12 29t-11 27t-11.5 30.5t-9 28.5t-9 32t-6 30.5t-4.5 34t-1 33.5q0 188 141.5 299t368.5 111q237 0 369 -124t158 -335q-124 -17 -312 -58q-22 269 -207 269q-90 0 -142 -57.5t-52 -141.5
q0 -16 2 -32.5t4 -29.5t8.5 -31.5t9.5 -28t12 -30.5t11.5 -27.5t13.5 -30t13 -27.5l405 4l2 -215l-360 6q-4 -70 -36 -135t-81 -109q252 -6 690 2q-1 -10 -2 -30.5t-3 -91t-1 -150.5q-324 14 -1040 16q4 123 4 236q77 45 115.5 107t39.5 159z" />
    <glyph glyph-name="yen.tab" horiz-adv-x="1259" 
d="M158 401q0 64 -6 181q70 -2 213 0q-88 222 -310 735q103 -2 334 12q105 -312 234 -690q98 263 268 745q14 -1 39.5 -2.5t110 -4t173.5 -1.5q-134 -300 -333 -784l213 6l-2 -180q-109 0 -312 -2v-113q18 0 133.5 2t184.5 4q0 -57 2 -170q-113 0 -320 -2l6 -164
q-127 4 -315 -2q2 70 2 162l-323 -8q2 61 2 174q110 -2 319 0q-2 35 -2 111z" />
    <glyph glyph-name="florin.tab" horiz-adv-x="1259" 
d="M1016 616q-225 5 -244 5q-90 -457 -123 -584q-50 -199 -152 -289t-266 -90q-71 0 -165 16q10 70 16 228q58 -8 76 -8q87 0 133 45.5t74 152.5q31 120 116 533h-170q3 84 3.5 140.5t-0.5 70.5l-1 14l211 -6l33 162q38 191 133.5 279.5t255.5 88.5q79 0 189 -22
q-10 -65 -16.5 -122.5t-7.5 -82.5l-1 -25q-62 15 -88 15q-135 0 -178 -172q-7 -25 -29 -125l199 2z" />
    <glyph glyph-name="zero.tab" horiz-adv-x="1259" 
d="M629 -49q-263 0 -409 189.5t-146 531.5q0 328 149 514t406 186q272 0 415.5 -184t143.5 -508q0 -340 -151.5 -534.5t-407.5 -194.5zM635 199q231 0 231 485q0 210 -58 330.5t-175 120.5q-118 0 -179 -118t-61 -339q0 -246 60 -362.5t182 -116.5z" />
    <glyph glyph-name="one.tab" horiz-adv-x="1259" 
d="M236 -8q1 92 0 150.5t-2 85.5l-1 26l304 -6q5 558 0 753l-265 -139q-24 73 -46 136.5t-32 90.5l-10 27q119 60 232.5 119.5t167.5 88.5l53 30l192 -21q0 -581 11 -1087l282 2q-4 -95 -5 -159t0 -81l1 -16q-175 2 -395.5 2t-353.5 -1z" />
    <glyph glyph-name="two.tab" horiz-adv-x="1259" 
d="M1137 -4q-293 6 -544 9.5t-355 4.5h-105l-10 297q376 170 542 325.5t166 323.5q0 87 -46.5 142t-129.5 55q-109 0 -165 -83t-60 -261q-127 21 -315 37q20 277 162.5 407.5t381.5 130.5q223 0 361.5 -113.5t138.5 -303.5q0 -107 -40 -205t-122 -189t-215.5 -171.5
t-312.5 -145.5q174 -1 340.5 2.5t246.5 7.5l79 4z" />
    <glyph glyph-name="three.tab" horiz-adv-x="1259" 
d="M641 -49q-240 0 -393.5 113.5t-177.5 338.5q121 11 336 46q4 -136 64.5 -200.5t176.5 -64.5q91 0 150 53t59 146q0 56 -32.5 101t-96.5 63q-113 31 -283 20q-2 94 -6 215q190 -11 295 25q54 17 82.5 59.5t28.5 104.5q0 93 -54.5 144.5t-150.5 51.5q-97 0 -151 -60.5
t-64 -188.5q-88 16 -169 30t-118 20l-37 5q38 207 180 312.5t367 105.5q220 0 367 -112t147 -280q0 -120 -78 -202t-213 -109q151 -31 230.5 -121t79.5 -209q0 -127 -72 -220.5t-193 -140t-274 -46.5z" />
    <glyph glyph-name="four.tab" horiz-adv-x="1259" 
d="M766 -2q0 92 4 260q-106 0 -353 -2.5t-339 -3.5q-4 68 -4 252l542 868l447 -10q-4 -685 -2 -870q84 0 127 2q-2 -82 -2 -234h-125l4 -260q-90 -3 -165 -3.5t-104 0.5zM772 1169q-294 -483 -405 -680h403q2 336 2 680z" />
    <glyph glyph-name="five.tab" horiz-adv-x="1259" 
d="M1106 1120q-304 2 -674 -8q-7 -293 -8 -344q60 66 148.5 103.5t183.5 37.5q211 0 321.5 -127.5t112.5 -335.5q0 -154 -71 -266t-193 -167.5t-281 -55.5q-219 0 -366.5 102t-188.5 289q89 10 173 23t123 21l40 7q35 -215 221 -215q98 0 155.5 72.5t57.5 194.5
q0 115 -52 185.5t-153 70.5q-140 0 -217 -160q-135 12 -311 22q12 342 16 781q405 0 967 12q-4 -74 -4 -242z" />
    <glyph glyph-name="six.tab" horiz-adv-x="1259" 
d="M1159 995q-94 -7 -177 -16.5t-119 -14.5l-36 -6q-18 93 -59 141t-115 48q-121 0 -185 -117.5t-65 -349.5q66 78 158.5 123t202.5 45q109 0 195.5 -33t139 -89.5t80 -129t27.5 -154.5q0 -119 -43 -214t-118 -155.5t-175 -92t-217 -31.5q-270 0 -423.5 182t-153.5 524
q0 340 152.5 533.5t435.5 193.5q210 0 335 -98t160 -289zM688 641q-80 0 -150 -43.5t-122 -116.5q26 -149 91.5 -222t162.5 -73q95 0 151 67t56 173q0 96 -48.5 155.5t-140.5 59.5z" />
    <glyph glyph-name="seven.tab" horiz-adv-x="1259" 
d="M395 -16q-10 350 108 627t339 476q-132 0 -315 -2.5t-299 -4.5l-117 -3q3 76 3.5 144.5t-0.5 98.5l-1 30l1040 12q-1 -96 0 -171.5t3 -102.5l1 -27q-154 -144 -247.5 -294.5t-140.5 -346t-42 -445.5z" />
    <glyph glyph-name="eight.tab" horiz-adv-x="1259" 
d="M645 -49q-270 0 -423.5 110t-153.5 299q0 115 78.5 202t211.5 124q-116 47 -182.5 137t-66.5 197q0 156 140 261t384 105q251 0 389.5 -104t138.5 -262q0 -108 -69 -195t-193 -131q141 -45 216 -134t77 -200q0 -123 -74 -217t-197.5 -143t-275.5 -49zM631 168
q105 0 167 52.5t62 141.5q0 90 -69 156t-183 86q-98 -20 -156.5 -83.5t-58.5 -147.5q0 -95 64.5 -150t173.5 -55zM662 772q79 23 129.5 80.5t50.5 138.5q0 79 -54 132t-157 53q-96 0 -153.5 -49.5t-57.5 -131.5q0 -84 63 -142t179 -81z" />
    <glyph glyph-name="nine.tab" horiz-adv-x="1259" 
d="M621 -45q-219 0 -363.5 110.5t-181.5 323.5q92 9 172.5 18.5t114.5 14.5l34 6q34 -227 224 -227q115 0 178 102.5t67 345.5q-64 -65 -153.5 -100t-190.5 -35q-210 0 -330 115.5t-120 298.5q0 207 150.5 334t393.5 127q267 0 417.5 -183.5t150.5 -525.5q0 -365 -149 -545
t-414 -180zM608 705q67 0 134 37.5t116 99.5q-38 313 -237 313q-102 0 -162 -67t-60 -168q0 -97 56 -156t153 -59z" />
    <glyph glyph-name="plus.tab" horiz-adv-x="1259" 
d="M502 199q4 230 4 356l-334 -2l-2 246q10 0 338 -6l-2 348l248 -4q-4 -246 -4 -344l342 2q-4 -71 -6 -131.5t-2 -85.5l1 -25q-106 2 -335 2l4 -354z" />
    <glyph glyph-name="minus.tab" horiz-adv-x="1259" 
d="M1053 793l2 -242q-184 4 -396 4.5t-332 -1.5l-120 -1q3 67 4 127.5t1 87.5l-1 27q192 -4 402.5 -4.5t324.5 1.5z" />
    <glyph glyph-name="multiply.tab" horiz-adv-x="1259" 
d="M627 520l-289 -311q-49 55 -158 153q133 136 301 312l-297 309q47 45 86.5 84.5t55.5 56.5l16 17q192 -209 289 -312q144 150 293 312q112 -112 155 -152q-133 -137 -303 -313l303 -311q-49 -46 -89.5 -85.5t-55.5 -55.5l-16 -17q-147 160 -291 313z" />
    <glyph glyph-name="divide.tab" horiz-adv-x="1259" 
d="M186 795q108 -2 236 -3t238 -1t199 0.5t151 0.5l63 1l-2 -242q-115 2 -245 3t-238 0.5t-195.5 -1t-146 -1.5t-60.5 -1v244zM625 1231q68 0 109.5 -43t41.5 -113q0 -72 -42 -114.5t-111 -42.5q-72 0 -111 41.5t-39 115.5q0 76 40.5 116t111.5 40zM629 432q71 0 111 -42.5
t40 -121.5q0 -67 -42.5 -107t-110.5 -40q-72 0 -112 40t-40 107q0 82 41.5 123t112.5 41z" />
    <glyph glyph-name="equal.tab" horiz-adv-x="1259" 
d="M217 360q0 48 -6 218q393 -2 838 4l-2 -222q-376 4 -830 0zM1049 764q-207 4 -416.5 5t-315.5 0l-106 -1l6 221q188 -3 395.5 -3t321.5 2l113 1q-1 -81 -0.5 -131t1.5 -72z" />
    <glyph glyph-name="less.tab" horiz-adv-x="1259" 
d="M1069 387q-1 -13 -2 -36.5t-3 -94.5t-1 -139q-419 196 -887 407q1 12 2 34t2 93.5t0 147.5q382 167 881 411q-8 -108 -8 -280q-318 -125 -645 -266q451 -194 661 -277z" />
    <glyph glyph-name="greater.tab" horiz-adv-x="1259" 
d="M197 115q2 80 1.5 139.5t-2.5 93.5l-1 35q386 158 663 281q-148 64 -310 130.5t-250 101.5l-87 34q3 181 -6 280q220 -108 437.5 -210.5t325.5 -150.5l107 -48q-1 -76 0 -142.5t3 -94.5l1 -29z" />
    <glyph glyph-name="period.tab" horiz-adv-x="628" 
d="M313 -25q-93 0 -145.5 56.5t-52.5 146.5q0 89 56 144t142 55q88 0 144.5 -56t56.5 -139q-1 -97 -55 -152t-146 -55z" />
    <glyph glyph-name="comma.tab" horiz-adv-x="628" 
d="M227 -342q-36 36 -69 65t-48 41l-14 11q109 94 160 217q-60 13 -96.5 64.5t-36.5 117.5q0 84 54.5 142.5t141.5 58.5q91 0 149 -62.5t58 -167.5q0 -245 -299 -487z" />
    <glyph glyph-name="colon.tab" horiz-adv-x="628" 
d="M315 -33q-85 0 -139.5 55t-54.5 144q0 88 55.5 144.5t142.5 56.5q91 0 142 -57t51 -144q0 -96 -53.5 -147.5t-143.5 -51.5zM311 584q-86 0 -139 57.5t-53 149.5q0 85 54 138.5t140 53.5q90 0 142.5 -55t52.5 -137q0 -101 -56 -154t-141 -53z" />
    <glyph glyph-name="semicolon.tab" horiz-adv-x="628" 
d="M221 -342q-33 30 -66 56.5t-50 37.5l-17 12q60 55 102 117t62 109q-59 9 -98 57t-39 117q0 89 52 148t142 59q94 0 150.5 -65t56.5 -165q0 -124 -86.5 -256.5t-208.5 -226.5zM307 586q-82 0 -136 54t-54 148q0 88 54 141.5t142 53.5q83 0 137 -55t54 -140
q0 -94 -54.5 -148t-142.5 -54z" />
    <glyph glyph-name="parenleft.tab" horiz-adv-x="737" 
d="M389 -295q-252 429 -252 913q0 276 68 520t201 427l251 -95q-204 -359 -204 -841q0 -202 49 -402.5t160 -429.5q-70 -21 -138.5 -44t-101.5 -35z" />
    <glyph glyph-name="parenright.tab" horiz-adv-x="737" 
d="M352 -305q-116 47 -274 92q209 441 209 844q0 477 -203 844q102 37 256 98q133 -186 198.5 -433.5t65.5 -510.5q0 -230 -63.5 -469t-188.5 -465z" />
    <glyph glyph-name="bracketleft.tab" horiz-adv-x="737" 
d="M659 -256q-27 1 -74.5 2t-180.5 2t-250 0q5 572 -9 1780q200 -2 504 4q0 -98 6 -227q-88 -1 -194 -7q-6 -770 2 -1306q86 -4 205 -4q-7 -97 -9 -244z" />
    <glyph glyph-name="bracketright.tab" horiz-adv-x="737" 
d="M84 -256l-8 242q50 0 99 1t78 2t30 1q3 389 1 814.5t-5 510.5q-67 3 -128.5 3.5t-64.5 -1.5l2 231q291 -4 502 -4q-11 -1127 -2 -1794q-70 1 -137 0.5t-133 -1.5t-115 -2t-83 -2t-36 -1z" />
    <glyph glyph-name="braceleft.tab" horiz-adv-x="737" 
d="M702 -246q-94 -24 -178 -24q-166 0 -237.5 75t-71.5 242l12 272q0 110 -42.5 160t-153.5 49l4 267q107 -4 149.5 31.5t42.5 125.5q0 42 -9.5 156t-8.5 168q0 142 74.5 207t222.5 65q77 0 182 -24q-1 -72 0 -129t2 -78l2 -21q-100 13 -140 -16.5t-40 -112.5q0 -38 7 -128
t7 -134q0 -101 -48 -160.5t-148 -85.5q100 -29 145 -96t45 -178l-10 -231q0 -108 37.5 -143t150.5 -25z" />
    <glyph glyph-name="braceright.tab" horiz-adv-x="737" 
d="M35 -256q1 7 2 22.5t2 73.5t0 129q107 -14 150.5 18.5t43.5 129.5q0 41 -8 135.5t-8 142.5q0 209 199 260q-106 24 -154.5 87t-48.5 169q0 48 7 135.5t7 124.5q0 79 -41.5 107.5t-138.5 19.5q1 8 2 24.5t2 76t0 127.5q90 22 168 22q166 0 238.5 -66.5t72.5 -205.5
q0 -53 -10 -161t-10 -154q0 -92 43 -131.5t149 -36.5l5 -261q-105 1 -151 -48t-46 -146q0 -49 9 -160.5t9 -165.5q0 -153 -73.5 -224t-235.5 -71q-89 0 -184 27z" />
    <glyph glyph-name="section.tab" horiz-adv-x="1259" 
d="M641 -416q-236 0 -386 100.5t-194 292.5q84 13 162 28t114 23l36 9q25 -109 89.5 -161t174.5 -52q82 0 137 42t55 111q0 42 -20 68t-92 51t-209 45q-222 33 -319 107t-97 219q0 96 72.5 173.5t181.5 102.5q-110 42 -172.5 131t-62.5 193q0 171 135 284t372 113
q227 0 361 -107t176 -294q-103 -10 -182.5 -21t-108.5 -16l-28 -6q-15 97 -68 150t-141 53q-91 0 -141 -39t-50 -109q0 -73 68 -115.5t235 -68.5q136 -20 225.5 -50t136 -71.5t64 -86t17.5 -105.5q0 -89 -55 -169t-148 -130q88 -32 135.5 -103.5t48.5 -175.5
q0 -93 -41.5 -172t-112.5 -132t-166 -82.5t-202 -29.5zM412 535q0 -36 13.5 -61.5t52 -50t113.5 -43t191 -32.5q38 32 61 73.5t23 76.5q0 57 -28.5 91t-104 57t-215.5 36q-106 -60 -106 -147z" />
    <glyph glyph-name="numbersign.tab" horiz-adv-x="1259" 
d="M752 158q0 107 2 254l-250 -2q0 -18 6 -228q-96 6 -223 6v220q-165 -5 -201 -5q4 87 -2 218q80 -3 205 -3q0 209 -2 322q-57 0 -193 -4q2 84 -2 217q97 -2 193 -2l-4 223q90 -4 221 2q-2 -90 -2 -225l250 2q0 47 -5 252q97 -6 224 2q-2 -123 -2 -250q62 0 202 4
q-1 -10 -2 -28t-2 -73.5t0 -111.5h-198l2 -327q63 0 207 4q-1 -10 -1.5 -27t-1.5 -74.5t1 -113.5q-90 2 -203 2l6 -254q-86 4 -225 0zM500 944v-328q162 0 254 2q0 205 -2 330z" />
    <glyph glyph-name="zero.numerator" horiz-adv-x="905" 
d="M455 598q-187 0 -288 117.5t-101 328.5q0 208 105 319.5t286 111.5q192 0 287.5 -110.5t95.5 -315.5q0 -220 -103.5 -335.5t-281.5 -115.5zM457 762q151 0 151 291q0 128 -40 196t-111 68q-76 0 -118 -69t-42 -201q0 -140 42 -212.5t118 -72.5z" />
    <glyph glyph-name="one.numerator" horiz-adv-x="616" 
d="M256 625q3 466 0 592l-152 -78q-15 46 -30.5 91t-23.5 67l-9 22l278 145l152 -12q0 -188 2 -394.5t4 -318.5l2 -112z" />
    <glyph glyph-name="two.numerator" horiz-adv-x="819" 
d="M743 625l-667 8l-6 198q201 73 330.5 174t129.5 205q0 58 -28.5 89.5t-81.5 31.5q-130 0 -133 -182q-86 15 -217 25q6 147 97.5 229t256.5 82q159 0 245.5 -71t86.5 -191q0 -131 -118 -246t-304 -184q107 0 209 3t151 6l49 3v-180z" />
    <glyph glyph-name="three.numerator" horiz-adv-x="864" 
d="M428 596q-344 0 -383 278q101 7 236 25q17 -145 147 -145q67 0 105 27t38 79q0 38 -20.5 65t-56.5 38q-77 24 -205 12q0 53 -4 137q145 -10 211 16q69 26 69 95q0 51 -35.5 81.5t-97.5 30.5q-120 0 -135 -137l-231 27q14 124 109 193t259 69q161 0 257.5 -67t96.5 -175
q0 -74 -51.5 -128.5t-134.5 -67.5q94 -15 146.5 -70.5t52.5 -128.5q0 -116 -103.5 -185t-269.5 -69z" />
    <glyph glyph-name="four.numerator" horiz-adv-x="860" 
d="M512 627q0 108 2 161q-29 0 -196.5 -2t-274.5 -4q0 47 -4 160q101 146 192 279.5t131 194.5l41 61q90 -4 170 -6.5t115 -2.5h35q-2 -221 -2 -522l86 2v-160h-86l2 -159zM518 1337q-115 -166 -268 -393h266q2 213 2 393z" />
    <glyph glyph-name="five.numerator" horiz-adv-x="868" 
d="M436 600q-141 0 -240.5 62.5t-121.5 193.5q59 4 116 9t84 9l27 3q13 -67 47.5 -97t93.5 -30q60 0 99 38.5t39 118.5q0 72 -35 111t-99 39q-95 0 -141 -86q-102 8 -219 12q8 208 12 479q311 0 660 6q-2 -59 -2 -165q-226 1 -457 -5q-4 -94 -4 -194q38 41 96 63.5t119 22.5
q141 0 219 -78t80 -207q0 -149 -104.5 -227t-268.5 -78z" />
    <glyph glyph-name="six.numerator" horiz-adv-x="899" 
d="M463 596q-188 0 -292.5 114t-104.5 324q0 212 106 330.5t297 118.5q146 0 234 -64.5t114 -175.5l-233 -26q-23 114 -119 114q-78 0 -122.5 -70t-47.5 -196q91 94 248 94q139 -1 218 -72t79 -190q0 -135 -107.5 -218t-269.5 -83zM473 1024q-46 0 -91.5 -25.5t-78.5 -72.5
q33 -174 166 -174q60 0 99.5 35t39.5 102q0 59 -34 97t-101 38z" />
    <glyph glyph-name="seven.numerator" horiz-adv-x="741" 
d="M201 618q-6 430 262 662q-99 1 -205.5 0t-163.5 -2l-57 -2l2 186l663 6q-1 -67 0 -109t2 -61l1 -18q-146 -132 -212 -292.5t-63 -375.5z" />
    <glyph glyph-name="eight.numerator" horiz-adv-x="890" 
d="M455 598q-187 0 -291.5 71t-104.5 191q0 71 51.5 123.5t137.5 71.5q-81 30 -122.5 82t-41.5 114q0 105 96 169.5t269 64.5q178 0 272 -66t94 -168q0 -66 -43 -117t-123 -75q85 -24 133.5 -80t48.5 -119q0 -126 -104.5 -194t-271.5 -68zM449 745q67 0 109 32t42 85
q0 50 -42.5 86t-117.5 49q-70 -12 -109.5 -46.5t-39.5 -82.5q0 -57 43 -90t115 -33zM459 1110q64 15 97.5 47.5t33.5 77.5q0 49 -38 76.5t-106 27.5q-69 0 -105 -27.5t-36 -74.5t40.5 -79.5t113.5 -47.5z" />
    <glyph glyph-name="nine.numerator" horiz-adv-x="888" 
d="M430 600q-146 0 -245 67t-124 197q55 2 111.5 7t85.5 9l29 5q30 -127 147 -127q76 0 118 60.5t46 203.5q-89 -80 -233 -80q-145 0 -225.5 71t-80.5 183q0 132 100 210.5t277 78.5q189 0 287 -110.5t98 -325.5q0 -121 -30 -209.5t-84 -140t-123 -75.5t-154 -24zM434 1061
q85 0 158 88q-23 186 -160 186q-66 0 -103.5 -38t-37.5 -101q0 -66 37 -100.5t106 -34.5z" />
    <glyph glyph-name="zero.denominator" horiz-adv-x="905" 
d="M455 -41q-187 0 -288 118t-101 329q0 208 105 319t286 111q192 0 287.5 -110.5t95.5 -315.5q0 -220 -103.5 -335.5t-281.5 -115.5zM457 123q151 0 151 291q0 128 -40 196t-111 68q-76 0 -118 -69t-42 -201q0 -140 42 -212.5t118 -72.5z" />
    <glyph glyph-name="one.denominator" horiz-adv-x="616" 
d="M256 -14q3 466 0 592l-152 -78q-15 46 -30.5 91t-23.5 67l-9 22l278 145l152 -12q0 -188 2 -394.5t4 -318.5l2 -112z" />
    <glyph glyph-name="two.denominator" horiz-adv-x="819" 
d="M743 -14l-667 8l-6 199q130 48 231.5 106.5t165 130t63.5 141.5q0 58 -28.5 89.5t-81.5 31.5q-130 0 -133 -182q-86 15 -217 25q6 147 97.5 229t256.5 82q159 0 245.5 -71t86.5 -191q0 -131 -118 -246t-304 -184q107 0 209 3t151 6l49 3v-180z" />
    <glyph glyph-name="three.denominator" horiz-adv-x="864" 
d="M428 -43q-343 0 -383 279q101 6 236 24q17 -145 147 -145q67 0 105 27t38 79q0 38 -20.5 65t-56.5 38q-77 24 -205 12q0 53 -4 137q145 -10 211 16q69 26 69 95q0 52 -35.5 82t-97.5 30q-120 0 -135 -137l-231 27q14 124 109 193t259 69q161 0 257.5 -67t96.5 -175
q0 -74 -51.5 -128.5t-134.5 -67.5q94 -15 146.5 -70.5t52.5 -128.5q0 -116 -103.5 -185t-269.5 -69z" />
    <glyph glyph-name="four.denominator" horiz-adv-x="860" 
d="M512 -12q0 109 2 162q-454 -7 -471 -7q0 47 -4 160q101 146 192 279.5t131 194.5l41 61q90 -4 170 -6.5t115 -2.5h35q-2 -221 -2 -522l86 2v-159h-86l2 -160zM518 698q-115 -166 -268 -393h266q2 213 2 393z" />
    <glyph glyph-name="five.denominator" horiz-adv-x="868" 
d="M436 -39q-141 0 -240.5 62.5t-121.5 193.5q59 4 116 9t84 8l27 4q13 -67 47.5 -97t93.5 -30q60 0 99 38.5t39 118.5q0 72 -35 111t-99 39q-95 0 -141 -86q-102 8 -219 12q8 208 12 479q311 0 660 6q-2 -59 -2 -165q-226 1 -457 -5q-4 -94 -4 -194q38 41 96 63.5t119 22.5
q141 0 219 -78t80 -207q0 -149 -104.5 -227t-268.5 -78z" />
    <glyph glyph-name="six.denominator" horiz-adv-x="899" 
d="M463 -43q-188 0 -292.5 114t-104.5 324q0 212 106 330.5t297 118.5q146 0 234 -64.5t114 -175.5l-233 -26q-23 114 -119 114q-78 0 -122.5 -70t-47.5 -196q91 94 248 94q139 -1 218 -72t79 -190q0 -135 -107.5 -218t-269.5 -83zM473 385q-46 0 -91.5 -25.5t-78.5 -72.5
q33 -174 166 -174q60 0 99.5 35t39.5 102q0 59 -34 97t-101 38z" />
    <glyph glyph-name="seven.denominator" horiz-adv-x="741" 
d="M201 -20q-6 429 262 661q-99 1 -205.5 0t-163.5 -3l-57 -1l2 186l663 6q-1 -67 0 -109t2 -60l1 -19q-146 -132 -212 -292.5t-63 -375.5z" />
    <glyph glyph-name="eight.denominator" horiz-adv-x="890" 
d="M455 -41q-187 0 -291.5 71t-104.5 191q0 71 51.5 123.5t137.5 71.5q-81 30 -122.5 82t-41.5 114q0 105 96 169.5t269 64.5q178 0 272 -66t94 -168q0 -66 -43 -117t-123 -75q85 -24 133.5 -80t48.5 -119q0 -126 -104.5 -194t-271.5 -68zM449 106q67 0 109 32t42 85
q0 50 -42.5 86t-117.5 49q-70 -12 -109.5 -46.5t-39.5 -82.5q0 -57 43 -90t115 -33zM459 471q64 15 97.5 47.5t33.5 77.5q0 49 -38 76.5t-106 27.5q-69 0 -105 -27.5t-36 -74.5t40.5 -79.5t113.5 -47.5z" />
    <glyph glyph-name="nine.denominator" horiz-adv-x="888" 
d="M430 -39q-146 0 -245 67t-124 197q55 2 111.5 7t85.5 10l29 4q30 -127 147 -127q76 0 118 60.5t46 203.5q-89 -80 -233 -80q-145 0 -225.5 71t-80.5 183q0 132 100 210.5t277 78.5q189 0 287 -110.5t98 -325.5q0 -121 -30 -209.5t-84 -140t-123 -75.5t-154 -24zM434 422
q85 0 158 88q-23 186 -160 186q-66 0 -103.5 -38t-37.5 -101q0 -66 37 -100.5t106 -34.5z" />
    <glyph glyph-name="dollar.cap" horiz-adv-x="1261" 
d="M764 -250q-73 3 -144 3.5t-106 -0.5l-35 -1l13 221q-188 32 -299.5 154t-131.5 336q117 1 338 26q3 -140 63 -216.5t175 -77.5q94 -2 151.5 40.5t57.5 124.5q0 36 -11 64t-41 57.5t-87.5 56t-145.5 52.5q-249 73 -352 174t-103 280q0 156 101.5 264t275.5 140
q-1 58 -3.5 113t-4.5 81l-2 25l297 2q-10 -124 -14 -219q184 -32 289 -154.5t122 -322.5q-141 -7 -317 -23q5 127 -50.5 201t-166.5 74q-97 0 -149 -45t-52 -119q0 -91 74 -146.5t268 -109.5q225 -63 315.5 -164t90.5 -256q0 -171 -112 -280.5t-308 -135.5z" />
    <glyph glyph-name="cent.cap" horiz-adv-x="1224" 
d="M487 -127q1 8 13 238q-194 41 -303 200.5t-109 405.5q0 247 105.5 406t304.5 198q-2 58 -5.5 120t-6.5 95l-3 33q81 -2 147 -1.5t108 2.5l42 1l-16 -252q166 -36 265.5 -150.5t111.5 -275.5q-92 -6 -172 -15t-114 -14l-34 -6q-31 246 -196 246q-111 0 -167.5 -101.5
t-56.5 -271.5q0 -195 60.5 -291t169.5 -96q81 0 130 55t66 174q107 -23 320 -43q-26 -179 -124 -284t-257 -135q1 -63 3.5 -122.5t4.5 -87.5l2 -28q-76 2 -148.5 2t-106.5 -1z" />
    <glyph glyph-name="Euro.cap" horiz-adv-x="1476" 
d="M43 758q2 41 0 139q49 0 170 2q45 266 207 420t411 154q217 0 360 -118t202 -321q-94 -10 -180 -22t-125 -18l-39 -7q-30 119 -83.5 174.5t-142.5 55.5q-227 0 -274 -314l397 10q-4 -55 -4 -141q-113 0 -405 -4q-6 -57 0 -127l430 8q-4 -47 0 -139q-114 0 -416 -4
q47 -301 268 -301q98 0 161.5 56t96.5 179l332 -59q-62 -211 -214 -321t-380 -107q-247 0 -402.5 140t-199.5 407l-164 -2q2 32 2 141q54 -2 150 -2l-2 125q-106 -4 -156 -4z" />
    <glyph glyph-name="sterling.cap" horiz-adv-x="1314" 
d="M268 539h-166q1 56 0 110t-2 79l-2 26q37 -2 109 -2q-23 54 -35.5 86.5t-24.5 86t-12 101.5q0 203 144 320.5t395 117.5q133 0 237 -37.5t172.5 -105t108 -158t49.5 -200.5q-145 -19 -338 -54q-9 157 -60.5 229t-162.5 72q-96 0 -151.5 -61t-55.5 -164q0 -45 11 -91.5
t21 -71t32 -74.5l454 4q-2 -67 -1.5 -116.5t2.5 -78.5l1 -29q-207 6 -395 9v-5q0 -170 -129 -270q410 0 743 6q-1 -11 -2 -31.5t-3 -93.5t-1 -157q-364 14 -1102 16q1 14 2 39t2.5 89.5t0.5 115.5q159 98 159 282v11z" />
    <glyph glyph-name="yen.cap" horiz-adv-x="1329" 
d="M502 -23q-1 8 -1 31v61.5t-1 71.5l-355 -8q2 63 2 178q124 -2 351 0l-4 119q-80 -2 -340 -10q1 63 -7 184q89 0 261 2q-51 116 -359 791q92 2 344 14q67 -200 260 -680q101 222 289 715q102 -4 338 -6q-137 -280 -383 -826l258 7l-2 -183q-125 0 -344 -2v-121
q157 3 350 9q0 -58 2 -177q-129 0 -350 -2q0 -47 4 -165q-92 -1 -313 -3z" />
    <glyph glyph-name="florin.cap" horiz-adv-x="1132" 
d="M958 664l-245 6q-37 -200 -68 -330q-53 -209 -156.5 -300t-273.5 -91q-68 0 -162 16q11 72 17 236q58 -8 80 -8q87 0 137 48t78 156q31 130 61 277h-170q4 88 5 142t0 64l-1 11q99 -6 203 -6q10 63 33 170q41 195 138 286t265 91q81 0 180 -21q-10 -68 -16.5 -127
t-8.5 -84l-1 -26q-52 14 -97 14q-131 0 -176 -174q-2 -9 -8.5 -38.5t-12 -55.5t-7.5 -39l204 2z" />
    <glyph glyph-name="zero.cap" horiz-adv-x="1423" 
d="M711 -51q-284 0 -451.5 199t-167.5 559q0 344 166.5 540.5t452.5 196.5q304 0 462 -193t158 -536q0 -361 -163.5 -563.5t-456.5 -202.5zM717 211q129 0 203.5 125.5t74.5 382.5q0 138 -31.5 243.5t-95.5 167.5t-153 62q-139 0 -214 -128.5t-75 -350.5q0 -247 75.5 -374.5
t215.5 -127.5z" />
    <glyph glyph-name="one.cap" horiz-adv-x="884" 
d="M365 -6q4 611 -3 1063l-241 -127l-92 266q126 64 236.5 123t158.5 86l47 27l203 -23q0 -320 3 -673.5t6 -546.5l3 -193q-86 -3 -166 -3.5t-118 0.5z" />
    <glyph glyph-name="two.cap" horiz-adv-x="1253" 
d="M1159 -4q-307 6 -575 9.5t-383 4.5h-115l-10 309q762 318 762 676q0 102 -54.5 162t-152.5 60q-215 0 -223 -345q-129 23 -328 39q11 261 154.5 404t412.5 143q261 0 398 -124t137 -328q0 -222 -187.5 -415.5t-500.5 -320.5q180 -1 346 3t242 8l75 4z" />
    <glyph glyph-name="three.cap" horiz-adv-x="1316" 
d="M662 -51q-264 0 -428 121.5t-181 357.5q129 6 348 31q15 -136 81 -200t184 -64q106 0 175.5 53.5t69.5 152.5q0 141 -141 181q-104 32 -311 16q-2 98 -8 223q233 -13 335 27q115 46 115 174q0 91 -60.5 149t-174.5 58q-104 0 -165.5 -63t-86.5 -193q-89 17 -172.5 31
t-122.5 19l-39 5q35 207 191 321.5t401 114.5q128 0 234.5 -32.5t177 -89t109 -132.5t38.5 -163q0 -114 -76.5 -203.5t-208.5 -122.5q146 -30 226.5 -124t80.5 -214q0 -105 -46.5 -188.5t-127.5 -136.5t-187.5 -81t-229.5 -28z" />
    <glyph glyph-name="four.cap" horiz-adv-x="1325" 
d="M805 -2q0 100 4 276q-182 0 -756 -8q-2 69 -4 262l598 918l469 -12q-4 -766 -4 -914q103 0 156 2q-2 -88 -2 -246h-152l2 -276q-95 -3 -172.5 -3.5t-107.5 0.5zM811 1227q-324 -498 -451 -709h449q2 350 2 709z" />
    <glyph glyph-name="five.cap" horiz-adv-x="1323" 
d="M664 -45q-113 0 -210 25.5t-175.5 76t-131 132t-71.5 188.5q92 10 176.5 21.5t123.5 17.5l38 6q26 -116 92.5 -175t163.5 -59q105 0 172 73t67 218q0 129 -60 202t-173 73q-168 0 -242 -174q-144 12 -330 22q13 355 19 819q455 1 1046 13q-4 -82 -4 -260q-349 1 -745 -9
q-7 -308 -8 -360q134 160 368 160q117 0 208 -36.5t148 -102.5t86.5 -154.5t30.5 -196.5q0 -249 -159 -384.5t-430 -135.5z" />
    <glyph glyph-name="six.cap" horiz-adv-x="1384" 
d="M709 -53q-299 0 -459.5 196.5t-155.5 546.5q0 358 167.5 562t463.5 204q122 0 218 -29.5t160.5 -83.5t104.5 -124t60 -158q-100 -9 -187 -19.5t-124 -17.5l-37 -6q-47 196 -203 196q-131 0 -205 -131t-76 -362q72 80 178 126t228 46q116 0 206 -33t146 -91.5t84.5 -134
t28.5 -163.5q0 -106 -31 -193t-85.5 -148t-130 -102.5t-164 -61t-187.5 -19.5zM745 682q-159 0 -296 -162q50 -334 286 -334q104 0 165 71t61 189q0 102 -54 169t-162 67z" />
    <glyph glyph-name="seven.cap" horiz-adv-x="1173" 
d="M322 -16q-10 362 113 658t356 505q-136 0 -319 -2.5t-298 -4.5l-115 -3q3 80 3.5 151t-0.5 102l-1 31q283 2 545.5 5t383.5 6l120 2q0 -101 1.5 -180t2.5 -108l2 -28q-238 -220 -346 -497.5t-102 -647.5z" />
    <glyph glyph-name="eight.cap" horiz-adv-x="1368" 
d="M700 -51q-296 0 -464 113t-168 313q0 129 82 221t233 127q-129 50 -203 143t-74 209q0 172 153.5 278.5t428.5 106.5q144 0 258 -31t184 -85t106 -122.5t36 -146.5q0 -123 -75 -211t-212 -133q148 -44 231.5 -138.5t83.5 -215.5q0 -135 -80.5 -233.5t-214.5 -146.5
t-305 -48zM688 174q113 0 187.5 58t74.5 153q0 91 -76 157t-208 89q-117 -22 -185.5 -86t-68.5 -150q0 -99 76.5 -160t199.5 -61zM713 819q100 24 161.5 82t61.5 141q-2 87 -67.5 143t-184.5 56q-117 0 -183.5 -55t-66.5 -142q0 -83 73 -141t206 -84z" />
    <glyph glyph-name="nine.cap" horiz-adv-x="1359" 
d="M664 -47q-240 0 -392.5 113.5t-191.5 332.5q94 4 179.5 12.5t124.5 14.5l38 6q23 -117 82.5 -174t161.5 -57q61 0 107.5 25.5t82.5 81t55.5 150t22.5 226.5q-68 -63 -166.5 -99t-204.5 -36q-226 0 -355.5 113.5t-129.5 316.5q0 220 160.5 351.5t418.5 131.5
q289 0 450 -193t161 -552q0 -389 -159.5 -576.5t-444.5 -187.5zM655 741q147 0 271 136q-39 346 -264 346q-109 0 -173.5 -70t-64.5 -184q0 -108 63 -168t168 -60z" />
    <glyph glyph-name="percent.cap" horiz-adv-x="1656" 
d="M412 705q-176 0 -264.5 109t-88.5 294q0 164 96.5 267.5t260.5 103.5q171 0 262.5 -103t91.5 -289q0 -100 -28 -175.5t-77.5 -119.5t-113 -65.5t-139.5 -21.5zM414 854q66 0 100 56t35 182q0 231 -133 231q-65 0 -101 -61t-36 -168q0 -118 35 -179t100 -61zM420 -39
l-144 19q261 399 494 762.5t336 527.5l102 164q41 -6 79 -10.5t55 -5.5l18 -1zM1239 -47q-172 0 -262 106.5t-90 284.5q0 168 94.5 276.5t259.5 108.5q172 0 264 -106t92 -283q0 -190 -99 -288.5t-259 -98.5zM1243 104q63 0 98 57t35 173q0 235 -137 235q-61 0 -96 -59.5
t-35 -163.5q0 -242 135 -242z" />
    <glyph glyph-name="perthousand.cap" horiz-adv-x="2467" 
d="M412 705q-176 0 -264.5 109t-88.5 294q0 165 97.5 268t259.5 103q171 0 262.5 -104t91.5 -288q0 -100 -27.5 -175t-77 -119.5t-113 -66t-140.5 -21.5zM420 -39l-144 19q261 399 494 762.5t336 527.5l102 164q41 -6 79 -10.5t55 -5.5l18 -1zM414 856q65 0 99.5 55.5
t35.5 180.5q0 229 -133 229q-64 0 -100.5 -59.5t-36.5 -167.5q0 -238 135 -238zM1239 -47q-169 0 -260.5 106.5t-91.5 284.5q0 167 94.5 276t261.5 109q171 0 263.5 -106t92.5 -283q0 -189 -99.5 -288t-260.5 -99zM1243 104q62 0 97.5 57t35.5 173q0 120 -32.5 177.5
t-102.5 57.5q-62 0 -96.5 -59.5t-34.5 -163.5q0 -242 133 -242zM2054 -25q-157 0 -255.5 98t-98.5 285q0 177 94.5 284.5t259.5 107.5q167 0 260.5 -101.5t93.5 -269.5q0 -190 -92 -297t-262 -107zM2050 127q139 0 139 240q0 108 -36 167.5t-99 59.5q-62 0 -97.5 -59.5
t-35.5 -174.5q0 -233 129 -233z" />
    <glyph glyph-name="questiondown.cap" horiz-adv-x="1284" 
d="M848 985q0 -90 1.5 -175.5t2.5 -125.5l2 -41q-233 13 -333.5 -42.5t-100.5 -184.5q0 -98 58 -157.5t163 -59.5q205 0 244 258q137 -23 336 -43q-37 -213 -185.5 -334t-390.5 -121q-259 0 -410 119t-151 309q0 200 119.5 308t331.5 126q2 39 2 79t-1 60l-1 21
q92 -1 170.5 0t110.5 3zM680 1462q108 0 162.5 -52.5t54.5 -141.5q0 -86 -59 -137.5t-154 -51.5q-100 0 -154.5 52.5t-54.5 144.5q0 86 56 136t149 50z" />
    <glyph glyph-name="exclamdown.cap" horiz-adv-x="679" 
d="M336 1450q100 0 156.5 -52.5t56.5 -142.5q0 -84 -54 -137t-157 -53q-98 0 -152.5 56t-54.5 141q0 86 59 137t146 51zM477 965q8 -384 43 -981q-21 1 -54.5 2t-132.5 3t-165 -1q17 399 29 973q122 -2 280 4z" />
    <glyph glyph-name="parenleft.cap" horiz-adv-x="694" 
d="M365 -170q-252 431 -252 848q0 246 69 477t199 410l252 -95q-205 -367 -205 -780q0 -176 52 -363.5t157 -408.5q-70 -19 -138 -41t-101 -35z" />
    <glyph glyph-name="parenright.cap" horiz-adv-x="694" 
d="M332 -182q-117 47 -275 92q209 438 209 782q0 414 -203 783q102 37 256 98q126 -178 194.5 -411t68.5 -472q0 -419 -250 -872z" />
    <glyph glyph-name="bracketleft.cap" horiz-adv-x="753" 
d="M678 -135q-29 1 -79.5 2t-189 3t-255.5 1q3 449 -9 1657q219 -2 523 4q0 -98 4 -227q-105 -1 -211 -7q-6 -649 2 -1185q104 -4 221 -4q-4 -97 -6 -244z" />
    <glyph glyph-name="bracketright.cap" horiz-adv-x="751" 
d="M80 -135l-8 244q40 -1 81.5 -0.5t70 1t50.5 1t23 0.5q3 394 1 754.5t-5 449.5q-67 3 -137.5 3.5t-73.5 -1.5l2 231q291 -4 520 -4q-10 -1060 -2 -1671q-116 2 -231.5 0t-198.5 -4.5t-92 -3.5z" />
    <glyph glyph-name="braceleft.cap" horiz-adv-x="829" 
d="M766 -123q-94 -24 -203 -24q-161 0 -236 72t-75 235l12 233q0 109 -48.5 156.5t-172.5 38.5q4 125 4 268q120 -9 168.5 26t48.5 132q0 36 -9 126t-9 136q0 139 72 205.5t223 66.5q104 0 209 -24q-1 -72 0 -129t2 -78l2 -21q-116 15 -160.5 -13.5t-44.5 -113.5
q0 -31 7 -107t7 -112q0 -94 -43 -147.5t-153 -81.5q104 -30 147 -90.5t43 -161.5l-10 -203q0 -104 45.5 -136.5t167.5 -20.5q0 -74 1.5 -132t2.5 -79z" />
    <glyph glyph-name="braceright.cap" horiz-adv-x="829" 
d="M63 -133q7 65 7 225q122 -15 170.5 15t48.5 126q0 34 -8.5 116.5t-8.5 123.5q0 97 47 157t152 87q-108 23 -156.5 81t-48.5 154q0 42 8 117.5t9 101.5q0 80 -45 108.5t-162 18.5q1 8 2 24.5t3 76t1 127.5q97 22 197 22q163 0 234 -67t71 -197q0 -46 -10.5 -138
t-10.5 -130q0 -97 49 -133.5t170 -30.5l4 -258q-122 7 -172.5 -38t-50.5 -150q0 -41 9.5 -135t9.5 -140q0 -150 -75 -221t-235 -70q-94 0 -209 27z" />
    <glyph glyph-name="slash.cap" horiz-adv-x="843" 
d="M20 -102q136 408 266 810t192 600l61 199q77 -2 148 -2t103 1l33 1q-184 -558 -313.5 -960t-167.5 -525l-37 -124q-72 2 -143.5 2t-106.5 -1z" />
    <glyph glyph-name="backslash.cap" horiz-adv-x="843" 
d="M823 -98q-122 2 -284 0q-106 354 -519 1609q111 -6 285 0q212 -693 518 -1609z" />
    <glyph glyph-name="bar.cap" horiz-adv-x="653" 
d="M193 -106q1 760 -7 1622q10 -1 30.5 -2t93.5 -2.5t157 -0.5q-6 -603 0 -1615q-100 4 -274 -2z" />
    <glyph glyph-name="at.cap" horiz-adv-x="1808" 
d="M870 1167q96 0 159 -67t79 -170q25 146 31 188q10 -1 27.5 -2t75.5 -3t116 1q-58 -251 -109 -541q-8 -54 -8 -77q0 -52 21.5 -74.5t64.5 -22.5q91 0 160 104t69 285q0 252 -167.5 397.5t-458.5 145.5q-164 0 -295 -54.5t-213.5 -148.5t-126 -216t-43.5 -261
q0 -277 163.5 -426t448.5 -149q185 0 396 80l49 -146q-245 -86 -451 -86q-363 0 -569.5 196t-206.5 539q0 166 60 315t168 260.5t270 177t354 65.5q155 0 286 -38t223 -103t157 -152t95.5 -184.5t30.5 -200.5q0 -106 -24.5 -197.5t-66 -156t-97.5 -110.5t-119.5 -68.5
t-130.5 -22.5q-108 0 -175 52t-77 155q-52 -100 -131.5 -152.5t-173.5 -52.5q-136 0 -219.5 98t-83.5 270q0 119 45 234.5t125 195.5q123 123 272 123zM805 428q58 0 115 57q44 44 75 127.5t31 169.5q0 90 -30 142.5t-83 52.5q-59 0 -114 -55q-51 -51 -82 -144.5t-31 -171.5
q0 -83 31.5 -130.5t87.5 -47.5z" />
    <glyph glyph-name="copyright.cap" horiz-adv-x="1638" 
d="M821 252q-186 0 -299.5 116.5t-113.5 327.5q0 213 117.5 336t303.5 123q173 0 269 -85.5t116 -229.5q-64 -4 -123 -11t-87 -11l-27 -5q-20 166 -154 166q-85 0 -129.5 -77t-44.5 -204q0 -128 47.5 -195t130.5 -67q67 0 103.5 43t50.5 133q62 -9 121.5 -16t87.5 -10l29 -2
q-13 -89 -52.5 -155t-96 -103.5t-118.5 -55.5t-131 -18zM803 -47q-158 0 -289 51.5t-224.5 148.5t-145.5 242.5t-52 327.5q0 160 55 297.5t152 234.5t235.5 152t301.5 55q324 0 517 -204t193 -547q0 -357 -195.5 -557.5t-547.5 -200.5zM815 59q104 0 194.5 23t168 73.5
t132.5 125t86 183t31 243.5q0 301 -156 475t-442 174q-290 0 -455 -178.5t-165 -472.5q0 -310 165 -478t441 -168z" />
    <glyph glyph-name="Pcircle.cap" horiz-adv-x="1638" 
d="M836 1462q333 0 521.5 -208t188.5 -562q0 -226 -93.5 -394.5t-260 -256.5t-385.5 -88q-325 0 -520 203t-195 549q0 343 201 550t543 207zM823 1358q-289 0 -451.5 -177t-162.5 -472q0 -301 158.5 -475.5t445.5 -174.5q193 0 333.5 83t212 229.5t71.5 339.5
q0 305 -164.5 476t-442.5 171zM502 279q4 291 0 849q146 19 248 19q238 0 351 -85t113 -231q0 -141 -117 -226t-321 -85l-49 2l6 -241q-137 2 -231 -2zM725 983q-2 -112 0 -311q16 -2 41 -2q227 0 227 161q0 69 -53 111.5t-170 42.5z" />
    <glyph glyph-name="space.captab" horiz-adv-x="665" 
 />
    <glyph glyph-name="dollar.captab" 
d="M799 -250q-73 3 -144 3.5t-106 -0.5l-35 -1l12 221q-188 32 -299 153.5t-131 336.5q117 1 338 26q3 -140 63 -216.5t175 -77.5q94 -2 151.5 40.5t57.5 124.5q0 36 -11 64t-41 57.5t-87.5 56t-145.5 52.5q-249 73 -352 174t-103 280q0 156 101.5 264t275.5 140
q-1 58 -3.5 113t-4.5 81l-2 25l297 2q-10 -124 -14 -219q184 -32 289 -154.5t122 -322.5q-141 -7 -317 -23q5 127 -50.5 201t-166.5 74q-97 0 -149 -45t-52 -119q0 -91 74 -146.5t268 -109.5q225 -63 315 -164t90 -256q0 -171 -111.5 -280.5t-307.5 -135.5z" />
    <glyph glyph-name="cent.captab" 
d="M543 -127q10 154 10 240q-194 41 -302 199t-108 405q0 248 105 407t303 197l-12 248q80 -2 146 -1.5t109 2.5l42 1q-13 -161 -17 -252q166 -36 265.5 -150.5t111.5 -275.5q-92 -6 -171.5 -15t-113.5 -14l-34 -6q-18 123 -65 184.5t-134 61.5q-110 0 -165.5 -101.5
t-55.5 -271.5q0 -195 59.5 -291t167.5 -96q81 0 131 55t68 174q104 -23 317 -43q-26 -178 -124 -283.5t-255 -135.5l8 -238q-76 2 -147.5 2t-105.5 -1z" />
    <glyph glyph-name="Euro.captab" 
d="M33 758q0 41 -2 139q28 0 141 2q40 265 191.5 419.5t379.5 154.5q109 0 198 -34.5t151.5 -96.5t104.5 -138t69 -170q-94 -10 -178.5 -22t-121.5 -18l-38 -7q-26 110 -71.5 170t-123.5 60q-189 0 -233 -312l329 8q-4 -55 -4 -141q-63 0 -336 -4q-4 -51 0 -127l361 8
q-4 -47 0 -139q-62 0 -348 -4q41 -301 229 -301q161 0 225 235q89 -17 170.5 -31.5t118.5 -20.5l37 -5q-61 -211 -200 -322t-355 -108q-217 0 -364.5 140.5t-190.5 406.5l-135 -2q2 32 2 141q35 -2 121 -2l-2 123z" />
    <glyph glyph-name="sterling.captab" 
d="M291 539h-168q1 56 0 110t-3 79l-1 26q37 -2 108 -2q-22 53 -35 86.5t-24.5 86t-11.5 101.5q0 199 140 318.5t386 119.5q254 0 394.5 -137t160.5 -364q-145 -19 -338 -54q-9 154 -56.5 227.5t-152.5 73.5q-92 0 -144 -60.5t-52 -164.5q0 -45 10.5 -91t21 -72t31.5 -74
l430 4q-2 -67 -1.5 -116.5t2.5 -78.5l1 -29q-199 6 -371 9v-5q0 -170 -129 -270q389 0 719 6q-1 -11 -2 -31.5t-3 -93.5t-1 -157q-337 14 -1075 16l2 244q162 98 162 282v11z" />
    <glyph glyph-name="yen.captab" 
d="M502 -23q-1 8 -1 30.5v61t-1 72.5l-353 -8q3 63 3 178q123 -2 348 0l-2 119q-80 -2 -340 -10q0 63 -6 184q88 0 260 2q-81 183 -361 791q94 2 346 14q67 -200 260 -680q99 222 289 715q102 -4 338 -6q-135 -280 -381 -826l256 7l-2 -183q-125 0 -346 -2v-121q158 3 352 9
q-2 -58 2 -177q-129 0 -352 -2q0 -47 4 -165q-90 -1 -313 -3z" />
    <glyph glyph-name="florin.captab" 
d="M1059 664l-246 6q-37 -200 -68 -330q-53 -209 -156.5 -300t-273.5 -91q-67 0 -161 16q10 72 16 236q58 -8 80 -8q87 0 137 48t78 156q31 130 61 277h-170q4 88 5 142t0 64l-1 11q99 -6 203 -6q10 63 33 170q41 195 138 286t265 91q82 0 181 -21q-10 -68 -17 -127t-9 -84
l-1 -26q-52 14 -96 14q-131 0 -176 -174q-1 -4 -14 -60t-15 -73l205 2z" />
    <glyph glyph-name="zero.captab" 
d="M664 -51q-128 0 -232 45.5t-181.5 137t-120 238t-42.5 337.5q0 218 63.5 382t195 259.5t317.5 95.5q120 0 216 -35.5t163 -99t111.5 -155t65.5 -201t21 -238.5q0 -376 -151 -571t-426 -195zM670 199q241 0 241 520q0 485 -243 485q-126 0 -188 -121t-62 -370
q0 -268 64.5 -391t187.5 -123z" />
    <glyph glyph-name="one.captab" 
d="M233 -6q1 82 0 147t-3 89l-1 24l330 -6q2 501 -4 811l-268 -141l-92 266q126 64 243 126t172 92l54 30l202 -23q0 -697 8 -1163l302 2q-4 -94 -5.5 -157.5t-0.5 -80.5l1 -16q-175 2 -409.5 2t-381.5 -1z" />
    <glyph glyph-name="two.captab" 
d="M1190 -4q-307 6 -569 9.5t-371 4.5h-109q-4 68 -6 145t-2 121v43q356 148 545.5 318t189.5 358q0 102 -52 162t-148 60q-97 0 -149 -82t-56 -263q-129 23 -328 39q11 260 148 403.5t401 143.5q250 0 389 -125t139 -327q0 -221 -176.5 -415.5t-480.5 -320.5q178 -1 337 3
t228 8l70 4v-289z" />
    <glyph glyph-name="three.captab" 
d="M668 -51q-259 0 -419 121.5t-177 357.5q129 6 348 31q30 -264 252 -264q102 0 167.5 53.5t65.5 152.5q0 141 -141 181q-99 30 -287 16q-2 98 -8 223q212 -12 311 27q54 22 84.5 68t30.5 106q0 91 -58 149t-165 58q-100 0 -158 -64.5t-82 -191.5q-89 17 -172.5 31
t-122.5 19l-39 5q35 207 186 321.5t394 114.5q252 0 399.5 -119t147.5 -298q0 -115 -78 -203.5t-209 -122.5q148 -29 228.5 -125.5t80.5 -212.5q0 -106 -44.5 -190t-123.5 -136.5t-183.5 -80t-227.5 -27.5z" />
    <glyph glyph-name="four.captab" 
d="M799 -2q0 96 4 276l-731 -8q-4 69 -4 262l573 918l467 -12q-4 -724 -2 -920q103 0 156 2q-2 -82 -2 -240h-154l4 -276q-95 -3 -172.5 -3.5t-107.5 0.5zM805 1225q-293 -476 -430 -713h428q2 348 2 713z" />
    <glyph glyph-name="five.captab" 
d="M668 -45q-227 0 -385 105.5t-195 316.5q92 10 176.5 21.5t123.5 17.5l38 6q52 -234 248 -234q101 0 166 72.5t65 218.5q0 131 -58.5 203t-166.5 72q-160 0 -234 -174q-143 12 -329 22q12 355 18 819q439 1 1030 13q-4 -82 -4 -260q-335 1 -729 -9q-7 -308 -8 -360
q131 160 360 160q224 0 343.5 -134.5t121.5 -355.5q0 -250 -158.5 -385t-422.5 -135z" />
    <glyph glyph-name="six.captab" 
d="M682 -53q-283 0 -440 194t-154 549q0 359 160 562.5t448 203.5q436 0 521 -395q-100 -9 -187 -19.5t-124 -17.5l-38 -6q-42 196 -184 196q-124 0 -191 -129t-67 -372q69 86 170.5 133t218.5 47q209 0 324.5 -114.5t115.5 -307.5q0 -128 -44.5 -229t-122.5 -165
t-181.5 -97t-224.5 -33zM717 682q-152 0 -281 -156q44 -340 271 -340q99 0 153.5 69.5t54.5 190.5q0 104 -49 170t-149 66z" />
    <glyph glyph-name="seven.captab" 
d="M401 -16q-10 358 120.5 654t369.5 509q-138 0 -331 -2.5t-317 -4.5l-124 -3q3 80 3.5 151t-0.5 102l-1 31q283 2 555.5 5t403.5 6l130 2q0 -101 2 -180t4 -108l1 -28q-243 -225 -359 -503t-110 -642z" />
    <glyph glyph-name="eight.captab" 
d="M682 -51q-287 0 -450.5 112.5t-163.5 313.5q0 130 82 221.5t229 126.5q-126 47 -199.5 142t-73.5 210q0 171 148 278t416 107q139 0 249 -30.5t178 -84t103 -122t35 -148.5q0 -120 -75.5 -209.5t-207.5 -134.5q147 -44 229.5 -139t82.5 -215q0 -135 -78.5 -233.5
t-208.5 -146.5t-295 -48zM670 174q108 0 179 58t71 153q0 92 -71.5 157.5t-201.5 88.5q-112 -20 -176.5 -84t-64.5 -152q0 -100 72.5 -160.5t191.5 -60.5zM694 819q94 21 152.5 79.5t58.5 143.5q-2 88 -62.5 143.5t-176.5 55.5q-112 0 -175 -54.5t-63 -142.5
q0 -84 67.5 -141.5t198.5 -83.5z" />
    <glyph glyph-name="nine.captab" 
d="M651 -47q-231 0 -378.5 112.5t-186.5 333.5q95 4 179 12.5t121 14.5l36 6q25 -120 81 -175.5t150 -55.5q46 0 82.5 14t69 48.5t54.5 89.5t35 140t15 197q-65 -66 -158.5 -103.5t-197.5 -37.5q-224 0 -346.5 113t-122.5 317q0 148 74 258.5t200.5 167.5t288.5 57
q282 0 436 -194t154 -551q0 -198 -41 -345.5t-119 -238.5t-184 -135.5t-242 -44.5zM643 741q144 0 258 133q-18 182 -81.5 265.5t-170.5 83.5q-104 0 -164.5 -71.5t-60.5 -182.5q0 -113 60.5 -170.5t158.5 -57.5z" />
    <glyph glyph-name="plus.captab" 
d="M539 199q4 230 4 356l-334 -2l-2 246q10 0 338 -6l-2 348l248 -4q-5 -307 -5 -344l342 2q-4 -71 -5.5 -131.5t-0.5 -85.5v-25q-106 2 -336 2l5 -354z" />
    <glyph glyph-name="minus.captab" 
d="M1090 793l2 -242q-184 4 -396 4.5t-332 -1.5l-120 -1q3 67 4 127.5t0 87.5v27q192 -4 402.5 -4.5t325.5 1.5z" />
    <glyph glyph-name="multiply.captab" 
d="M664 520l-289 -311q-49 55 -158 153q133 136 301 312l-297 309q47 45 86.5 84.5t55.5 56.5l16 17q192 -209 289 -312q144 150 293 312q112 -112 155 -152q-133 -137 -303 -313l303 -311q-49 -46 -89.5 -85.5t-56.5 -55.5l-16 -17q-181 198 -290 313z" />
    <glyph glyph-name="divide.captab" 
d="M223 795q108 -2 236 -3t238 -1t199 0.5t152 0.5l62 1l-2 -242q-115 2 -245 3t-238 0.5t-195.5 -1t-146 -1.5t-60.5 -1v244zM662 1231q68 0 109.5 -43t41.5 -113q0 -72 -42.5 -114.5t-111.5 -42.5q-71 0 -110 41.5t-39 115.5q0 76 40.5 116t111.5 40zM666 432
q71 0 111 -42.5t40 -121.5q0 -67 -42.5 -107t-110.5 -40q-72 0 -112 40t-40 107q0 82 41.5 123t112.5 41z" />
    <glyph glyph-name="equal.captab" 
d="M254 360q0 48 -6 218q392 -2 837 4l-2 -222q-375 4 -829 0zM1085 764q-207 4 -416 5t-315 0l-106 -1l6 221q188 -3 395 -3t321 2l113 1q-1 -81 -0.5 -131t1.5 -72z" />
    <glyph glyph-name="less.captab" 
d="M1106 387q-1 -13 -2 -36.5t-3 -94.5t-1 -139q-419 196 -887 407q1 12 2 34t2 93.5t0 147.5q382 167 881 411q-8 -108 -8 -280q-319 -125 -646 -266q440 -190 662 -277z" />
    <glyph glyph-name="greater.captab" 
d="M233 115q2 80 1.5 139.5t-2.5 93.5l-1 35q399 164 664 281q-148 64 -310 130.5t-249 101.5l-88 34q3 181 -6 280q220 -108 437.5 -210.5t324.5 -150.5l108 -48q-1 -76 0 -142.5t2 -94.5l2 -29z" />
    <glyph glyph-name="period.captab" horiz-adv-x="665" 
d="M332 -25q-93 0 -146 56.5t-53 146.5q0 89 56.5 144t142.5 55q88 0 144 -56t56 -139q-1 -98 -55 -152.5t-145 -54.5z" />
    <glyph glyph-name="comma.captab" horiz-adv-x="665" 
d="M246 -342q-36 36 -69 65t-47 41l-15 11q108 93 159 217q-60 13 -96.5 64.5t-36.5 117.5q0 84 55 142.5t142 58.5q91 0 149 -62.5t58 -167.5q0 -245 -299 -487z" />
    <glyph glyph-name="colon.captab" horiz-adv-x="665" 
d="M334 -33q-85 0 -140 55t-55 144q0 88 55.5 144.5t143.5 56.5q90 0 141 -57t51 -144q0 -96 -53 -147.5t-143 -51.5zM330 584q-86 0 -139.5 57.5t-53.5 149.5q0 85 54.5 138.5t140.5 53.5q90 0 142 -55t52 -137q0 -101 -55.5 -154t-140.5 -53z" />
    <glyph glyph-name="semicolon.captab" horiz-adv-x="665" 
d="M240 -342q-33 30 -66.5 56.5t-50.5 37.5l-17 12q60 55 102 117t62 109q-59 9 -98 57t-39 117q0 88 52 147.5t143 59.5q94 0 150.5 -65t56.5 -165q0 -124 -86.5 -256.5t-208.5 -226.5zM326 586q-82 0 -136.5 54t-54.5 148q0 88 54.5 141.5t142.5 53.5q83 0 136.5 -55
t53.5 -140q0 -94 -54 -148t-142 -54z" />
    <glyph glyph-name="parenleft.captab" horiz-adv-x="798" 
d="M418 -170q-252 425 -252 848q0 246 69 477t199 410l252 -95q-205 -367 -205 -780q0 -337 209 -772q-70 -19 -138 -41t-101 -35z" />
    <glyph glyph-name="parenright.captab" horiz-adv-x="798" 
d="M385 -182q-116 47 -274 92q208 436 208 782q0 416 -202 783q102 37 256 98q125 -179 193.5 -412t68.5 -471q0 -419 -250 -872z" />
    <glyph glyph-name="bracketleft.captab" horiz-adv-x="798" 
d="M700 -135q-29 1 -79.5 2t-189 3t-255.5 1q4 449 -8 1657q218 -2 522 4q0 -98 4 -227q-105 -1 -211 -7q-6 -649 2 -1185q105 -4 222 -4q-5 -97 -7 -244z" />
    <glyph glyph-name="bracketright.captab" horiz-adv-x="798" 
d="M104 -135l-8 244q40 -1 81.5 -0.5t70 1t51 1t23.5 0.5q3 238 2 507.5t-3.5 460t-3.5 236.5q-67 3 -136 3.5t-72 -1.5l2 231q289 -4 520 -4q-12 -1060 -4 -1671q-115 2 -230.5 0t-199.5 -4.5t-93 -3.5z" />
    <glyph glyph-name="braceleft.captab" horiz-adv-x="798" 
d="M750 -123q-92 -24 -203 -24q-159 0 -234 72t-75 235l12 233q0 109 -48.5 156.5t-172.5 38.5l4 268q120 -9 168.5 26t48.5 132q0 36 -9.5 126t-9.5 136q0 139 72 205.5t223 66.5q101 0 209 -24q-1 -80 -0.5 -131t1.5 -74l1 -23q-115 15 -158.5 -13t-43.5 -114
q0 -31 7 -107t7 -112q0 -94 -44 -147.5t-153 -81.5q103 -30 146 -91t43 -161l-9 -203q0 -104 45.5 -136.5t167.5 -20.5q0 -74 1.5 -132t2.5 -79z" />
    <glyph glyph-name="braceright.captab" horiz-adv-x="798" 
d="M49 -133q1 7 2 22.5t2 73.5t0 129q122 -15 170.5 15t48.5 126q0 34 -8 116.5t-8 123.5q0 97 47.5 157t151.5 87q-107 23 -156 81t-49 154q0 40 8 114.5t8 104.5q0 81 -44 109t-161 18q1 8 2 24.5t2.5 76t0.5 127.5q101 22 198 22q163 0 234 -67t71 -197q0 -46 -10 -138
t-10 -130q0 -97 48.5 -133.5t168.5 -30.5l4 -258q-122 7 -171.5 -37.5t-49.5 -150.5q0 -41 9 -135t9 -140q0 -150 -75.5 -221t-235.5 -70q-96 0 -207 27z" />
    <glyph glyph-name="section.captab" 
d="M678 -416q-251 0 -404 99t-198 294q86 13 163.5 28t112.5 23l35 9q24 -110 95.5 -161.5t191.5 -51.5q92 0 154.5 45t62.5 119q0 40 -25 66t-101 49t-216 40q-107 13 -184 35t-137.5 59.5t-91 96.5t-30.5 139q0 93 74 168.5t180 101.5q-108 42 -171.5 131.5t-63.5 192.5
q0 173 143.5 285t386.5 112q239 0 379 -107.5t180 -293.5q-102 -10 -181.5 -21t-108.5 -16l-29 -6q-18 101 -73.5 152t-157.5 51q-101 0 -157 -42t-56 -112t72.5 -111.5t236.5 -64.5q119 -17 205.5 -41.5t139.5 -53t83.5 -66.5t41.5 -76t11 -87q0 -79 -56.5 -159.5
t-146.5 -130.5q88 -32 136 -103.5t51 -175.5q0 -124 -75 -220t-199 -146t-273 -50zM426 539q0 -51 31.5 -84t124 -60t262.5 -47q84 70 84 150q0 85 -84.5 124.5t-308.5 59.5q-109 -62 -109 -143z" />
    <glyph glyph-name="numbersign.captab" 
d="M788 158q1 107 3 254l-250 -2q0 -18 6 -228q-96 6 -223 6v220q-165 -5 -201 -5q4 87 -2 218q80 -3 205 -3q0 209 -2 322q-57 0 -193 -4q2 84 -2 217q97 -2 193 -2l-5 223q91 -4 222 2q-2 -90 -2 -225l249 2q0 88 -4 252q97 -6 224 2q-2 -123 -2 -250q62 0 202 4
q-1 -10 -2 -28t-2 -73.5t0 -111.5h-198l2 -327q62 0 206 4q-1 -10 -1.5 -27t-1.5 -74.5t1 -113.5q-89 2 -202 2l6 -254q-87 4 -226 0zM537 944v-328q162 0 254 2q0 142 -3 330z" />
    </font>
</defs>
</svg>
